<svg xmlns="http://www.w3.org/2000/svg" xmlns:xlink="http://www.w3.org/1999/xlink" contentStyleType="text/css" data-diagram-type="SEQUENCE" height="338px" preserveAspectRatio="none" style="width:708px;height:338px;background:#FFFFFF;" version="1.1" viewBox="0 0 708 338" width="708px" zoomAndPan="magnify"><defs/><g><g><title>Backoffice Operator</title><rect fill="#FFFFFF" height="143.7461" style="stroke:#181818;stroke-width:1;" width="10" x="64.8618" y="93.6211"/></g><g><title>.System</title><rect fill="#FFFFFF" height="103.1641" style="stroke:#181818;stroke-width:1;" width="10" x="465.6196" y="134.2031"/></g><g><title>Backoffice Operator</title><rect fill="#000000" fill-opacity="0.00000" height="171.7461" width="8" x="65.8618" y="83.6211"/><line style="stroke:#181818;stroke-width:0.5;stroke-dasharray:5,5;" x1="69" x2="69" y1="83.6211" y2="255.3672"/></g><g><title>.System</title><rect fill="#000000" fill-opacity="0.00000" height="171.7461" width="8" x="466.6196" y="83.6211"/><line style="stroke:#181818;stroke-width:0.5;stroke-dasharray:5,5;" x1="470.3369" x2="470.3369" y1="83.6211" y2="255.3672"/></g><g class="participant participant-head" data-participant="BO"><text fill="#000000" font-family="sans-serif" font-size="14" lengthAdjust="spacing" textLength="123.7236" x="5" y="80.1074">Backoffice Operator</text><ellipse cx="69.8618" cy="13.5" fill="#E2E2F0" rx="8" ry="8" style="stroke:#181818;stroke-width:0.5;"/><path d="M69.8618,21.5 L69.8618,48.5 M56.8618,29.5 L82.8618,29.5 M69.8618,48.5 L56.8618,63.5 M69.8618,48.5 L82.8618,63.5" fill="none" style="stroke:#181818;stroke-width:0.5;"/></g><g class="participant participant-tail" data-participant="BO"><text fill="#000000" font-family="sans-serif" font-size="14" lengthAdjust="spacing" textLength="123.7236" x="5" y="269.4746">Backoffice Operator</text><ellipse cx="69.8618" cy="281.4883" fill="#E2E2F0" rx="8" ry="8" style="stroke:#181818;stroke-width:0.5;"/><path d="M69.8618,289.4883 L69.8618,316.4883 M56.8618,297.4883 L82.8618,297.4883 M69.8618,316.4883 L56.8618,331.4883 M69.8618,316.4883 L82.8618,331.4883" fill="none" style="stroke:#181818;stroke-width:0.5;"/></g><g class="participant participant-head" data-participant="System"><rect fill="#E2E2F0" height="32.6211" rx="2.5" ry="2.5" style="stroke:#181818;stroke-width:0.5;" width="64.5654" x="438.3369" y="50"/><text fill="#000000" font-family="sans-serif" font-size="14" lengthAdjust="spacing" textLength="50.5654" x="445.3369" y="72.1074">:System</text></g><g class="participant participant-tail" data-participant="System"><rect fill="#E2E2F0" height="32.6211" rx="2.5" ry="2.5" style="stroke:#181818;stroke-width:0.5;" width="64.5654" x="438.3369" y="254.3672"/><text fill="#000000" font-family="sans-serif" font-size="14" lengthAdjust="spacing" textLength="50.5654" x="445.3369" y="276.4746">:System</text></g><g><title>Backoffice Operator</title><rect fill="#FFFFFF" height="143.7461" style="stroke:#181818;stroke-width:1;" width="10" x="64.8618" y="93.6211"/></g><g><title>.System</title><rect fill="#FFFFFF" height="103.1641" style="stroke:#181818;stroke-width:1;" width="10" x="465.6196" y="134.2031"/></g><g class="message" data-participant-1="BO" data-participant-2="System"><polygon fill="#181818" points="453.6196,130.2031,463.6196,134.2031,453.6196,138.2031,457.6196,134.2031" style="stroke:#181818;stroke-width:1;"/><line style="stroke:#181818;stroke-width:1;" x1="74.8618" x2="459.6196" y1="134.2031" y2="134.2031"/><text fill="#000000" font-family="sans-serif" font-size="13" font-weight="bold" lengthAdjust="spacing" textLength="7.23" x="81.8618" y="120.2949">1</text><text fill="#000000" font-family="sans-serif" font-size="13" lengthAdjust="spacing" textLength="360.5278" x="93.0918" y="111.6494">registerAircraftModel(manufacturer, modelName, fuelCapacity,</text><text fill="#000000" font-family="sans-serif" font-size="13" lengthAdjust="spacing" textLength="312.8442" x="96.7036" y="128.9404">maximumRange, cruisingSpeed, technicalDiagramUrl)</text></g><path d="M480,147.2031 L480,208.2031 L701,208.2031 L701,157.2031 L691,147.2031 L480,147.2031" fill="#FEFFDD" style="stroke:#181818;stroke-width:0.5;"/><path d="M691,147.2031 L691,157.2031 L701,157.2031 L691,147.2031" fill="#FEFFDD" style="stroke:#181818;stroke-width:0.5;"/><text fill="#000000" font-family="sans-serif" font-size="13" lengthAdjust="spacing" textLength="179.2007" x="486" y="166.2314">The system validates the input,</text><text fill="#000000" font-family="sans-serif" font-size="13" lengthAdjust="spacing" textLength="200.1797" x="486" y="183.5225">handles the optional diagram URL,</text><text fill="#000000" font-family="sans-serif" font-size="13" lengthAdjust="spacing" textLength="166.9243" x="486" y="200.8135">and registers the new model.</text><g class="message" data-participant-1="System" data-participant-2="BO"><polygon fill="#181818" points="80.8618,233.3672,70.8618,237.3672,80.8618,241.3672,76.8618,237.3672" style="stroke:#181818;stroke-width:1;"/><line style="stroke:#181818;stroke-width:1;stroke-dasharray:2,2;" x1="74.8618" x2="469.6196" y1="237.3672" y2="237.3672"/><text fill="#000000" font-family="sans-serif" font-size="13" font-weight="bold" lengthAdjust="spacing" textLength="7.23" x="86.8618" y="232.1045">2</text><text fill="#000000" font-family="sans-serif" font-size="13" lengthAdjust="spacing" textLength="306.376" x="98.0918" y="232.1045">informs operation success and returns created model</text></g><!--SRC=[NL3BJiGm3BptAwmzWLJuW1wGA1o1IhliZOj9dDQYIIedMTY_noNb8MxEU3AU6ImvXk9VIHeqEGhiUZHlqJas1CD2WWhk01FqGxEWP3QyOCYmwmxdbCb_xUhOh19ymamhkH_WwcRRG0T28-iejon6qEN7Q6c-y1YAqrz5I5hmA_Q4dbfmXUOxND1mFhSl0Jn-i2z-Zs7KhP72YSDuM8Xi2vdC5DZWVCyu2lgZp9U_NhxDXQWFuN7A4Ds6Tl0y4QHgyeGpM_sH82l8OIbPJqyOxBnXSSaS0yvWwo4uxX-KeeoVV9KOwBsckMwQhO8hRKCxwLJOHV59nTPsLGzICOPIWggZPOIa4KcjsAhIMFeVvm_I3vy0]--></g></svg>