<svg xmlns="http://www.w3.org/2000/svg" xmlns:xlink="http://www.w3.org/1999/xlink" contentStyleType="text/css" data-diagram-type="SEQUENCE" height="249px" preserveAspectRatio="none" style="width:376px;height:249px;background:#FFFFFF;" version="1.1" viewBox="0 0 376 249" width="376px" zoomAndPan="magnify"><defs/><g><g><title>System</title><rect fill="#FFFFFF" height="31.291" style="stroke:#181818;stroke-width:1;" width="10" x="334.8442" y="116.9121"/></g><g><title>Backoffice Operator</title><rect fill="#000000" fill-opacity="0.00000" height="82.582" width="8" x="65.8618" y="83.6211"/><line style="stroke:#181818;stroke-width:0.5;stroke-dasharray:5,5;" x1="69" x2="69" y1="83.6211" y2="166.2031"/></g><g><title>System</title><rect fill="#000000" fill-opacity="0.00000" height="82.582" width="8" x="335.8442" y="83.6211"/><line style="stroke:#181818;stroke-width:0.5;stroke-dasharray:5,5;" x1="339.5063" x2="339.5063" y1="83.6211" y2="166.2031"/></g><g class="participant participant-head" data-participant="Operator"><text fill="#000000" font-family="sans-serif" font-size="14" lengthAdjust="spacing" textLength="123.7236" x="5" y="80.1074">Backoffice Operator</text><ellipse cx="69.8618" cy="13.5" fill="#E2E2F0" rx="8" ry="8" style="stroke:#181818;stroke-width:0.5;"/><path d="M69.8618,21.5 L69.8618,48.5 M56.8618,29.5 L82.8618,29.5 M69.8618,48.5 L56.8618,63.5 M69.8618,48.5 L82.8618,63.5" fill="none" style="stroke:#181818;stroke-width:0.5;"/></g><g class="participant participant-tail" data-participant="Operator"><text fill="#000000" font-family="sans-serif" font-size="14" lengthAdjust="spacing" textLength="123.7236" x="5" y="180.3105">Backoffice Operator</text><ellipse cx="69.8618" cy="192.3242" fill="#E2E2F0" rx="8" ry="8" style="stroke:#181818;stroke-width:0.5;"/><path d="M69.8618,200.3242 L69.8618,227.3242 M56.8618,208.3242 L82.8618,208.3242 M69.8618,227.3242 L56.8618,242.3242 M69.8618,227.3242 L82.8618,242.3242" fill="none" style="stroke:#181818;stroke-width:0.5;"/></g><g class="participant participant-head" data-participant="System"><rect fill="#E2E2F0" height="32.6211" rx="2.5" ry="2.5" style="stroke:#181818;stroke-width:0.5;" width="60.6758" x="309.5063" y="50"/><text fill="#000000" font-family="sans-serif" font-size="14" lengthAdjust="spacing" textLength="46.6758" x="316.5063" y="72.1074">System</text></g><g class="participant participant-tail" data-participant="System"><rect fill="#E2E2F0" height="32.6211" rx="2.5" ry="2.5" style="stroke:#181818;stroke-width:0.5;" width="60.6758" x="309.5063" y="165.2031"/><text fill="#000000" font-family="sans-serif" font-size="14" lengthAdjust="spacing" textLength="46.6758" x="316.5063" y="187.3105">System</text></g><g><title>System</title><rect fill="#FFFFFF" height="31.291" style="stroke:#181818;stroke-width:1;" width="10" x="334.8442" y="116.9121"/></g><g class="message" data-participant-1="Operator" data-participant-2="System"><polygon fill="#181818" points="322.8442,112.9121,332.8442,116.9121,322.8442,120.9121,326.8442,116.9121" style="stroke:#181818;stroke-width:1;"/><line style="stroke:#181818;stroke-width:1;" x1="69.8618" x2="328.8442" y1="116.9121" y2="116.9121"/><text fill="#000000" font-family="sans-serif" font-size="13" lengthAdjust="spacing" textLength="217.4453" x="76.8618" y="111.6494">POST /api/aircraft-models (form-data)</text></g><g class="message" data-participant-1="System" data-participant-2="Operator"><polygon fill="#181818" points="80.8618,144.2031,70.8618,148.2031,80.8618,152.2031,76.8618,148.2031" style="stroke:#181818;stroke-width:1;"/><line style="stroke:#181818;stroke-width:1;stroke-dasharray:2,2;" x1="74.8618" x2="338.8442" y1="148.2031" y2="148.2031"/><text fill="#000000" font-family="sans-serif" font-size="13" lengthAdjust="spacing" textLength="240.9824" x="86.8618" y="142.9404">201 Created (Model details + Image URL)</text></g><!--SRC=[NSp12i8m40JGUxvYwQb5IjLZ3nxq92WLgnym91i96XFIHV3lZTPwyBIpm_2W9IGgrj3NOAtJJ5taX5mMXE7tg8WaJhk8kr3HFmTX_ncCKQbfIFNgsxLqwFeJDOYkWKiwmKhjW-7RGAKDoTS6Waf1Ytj0UAB6GtM69hIbvNn1cyHvPgZSln4oB73Pcj7Muy9qFkugPVYFUm40]--></g></svg>