<svg xmlns="http://www.w3.org/2000/svg" xmlns:xlink="http://www.w3.org/1999/xlink" contentStyleType="text/css" data-diagram-type="SEQUENCE" height="850px" preserveAspectRatio="none" style="width:1384px;height:850px;background:#FFFFFF;" version="1.1" viewBox="0 0 1384 850" width="1384px" zoomAndPan="magnify"><defs/><g><g><title>AircraftController</title><rect fill="#FFFFFF" height="632.4316" style="stroke:#181818;stroke-width:1;" width="10" x="275.8325" y="116.9121"/></g><g><title>RegisterAircraftUseCase</title><rect fill="#FFFFFF" height="569.8496" style="stroke:#181818;stroke-width:1;" width="10" x="429.3701" y="148.2031"/></g><g><title>AircraftModelRepository</title><rect fill="#FFFFFF" height="31.291" style="stroke:#181818;stroke-width:1;" width="10" x="701.5308" y="234.0762"/></g><g><title>RegistrationNumber</title><rect fill="#FFFFFF" height="106.8242" style="stroke:#181818;stroke-width:1;" width="10" x="862.4717" y="306.6582"/></g><g><title>Aircraft</title><rect fill="#FFFFFF" height="106.8242" style="stroke:#181818;stroke-width:1;" width="10" x="970.8887" y="454.7734"/></g><g><title>AircraftRepository</title><rect fill="#FFFFFF" height="93.873" style="stroke:#181818;stroke-width:1;" width="10" x="1072.6851" y="592.8887"/></g><g><title>Database</title><rect fill="#FFFFFF" height="31.291" style="stroke:#181818;stroke-width:1;" width="10" x="1344.0884" y="624.1797"/></g><g><title>ATCC . Admin</title><rect fill="#000000" fill-opacity="0.00000" height="683.7227" width="8" x="48.731" y="83.6211"/><line style="stroke:#181818;stroke-width:0.5;stroke-dasharray:5,5;" x1="52" x2="52" y1="83.6211" y2="767.3438"/></g><g><title>AircraftController</title><rect fill="#000000" fill-opacity="0.00000" height="683.7227" width="8" x="276.8325" y="83.6211"/><line style="stroke:#181818;stroke-width:0.5;stroke-dasharray:5,5;" x1="280.3188" x2="280.3188" y1="83.6211" y2="767.3438"/></g><g><title>RegisterAircraftUseCase</title><rect fill="#000000" fill-opacity="0.00000" height="683.7227" width="8" x="430.3701" y="83.6211"/><line style="stroke:#181818;stroke-width:0.5;stroke-dasharray:5,5;" x1="434.3462" x2="434.3462" y1="83.6211" y2="767.3438"/></g><g><title>AircraftModelRepository</title><rect fill="#000000" fill-opacity="0.00000" height="683.7227" width="8" x="702.5308" y="83.6211"/><line style="stroke:#181818;stroke-width:0.5;stroke-dasharray:5,5;" x1="705.8379" x2="705.8379" y1="83.6211" y2="767.3438"/></g><g><title>RegistrationNumber</title><rect fill="#000000" fill-opacity="0.00000" height="452.8555" width="8" x="863.4717" y="314.4883"/><line style="stroke:#181818;stroke-width:0.5;stroke-dasharray:5,5;" x1="867.2236" x2="867.2236" y1="314.4883" y2="767.3438"/></g><g><title>Aircraft</title><rect fill="#000000" fill-opacity="0.00000" height="304.7402" width="8" x="971.8887" y="462.6035"/><line style="stroke:#181818;stroke-width:0.5;stroke-dasharray:5,5;" x1="975.7197" x2="975.7197" y1="462.6035" y2="767.3438"/></g><g><title>AircraftRepository</title><rect fill="#000000" fill-opacity="0.00000" height="683.7227" width="8" x="1073.6851" y="83.6211"/><line style="stroke:#181818;stroke-width:0.5;stroke-dasharray:5,5;" x1="1077.0576" x2="1077.0576" y1="83.6211" y2="767.3438"/></g><g><title>Database</title><rect fill="#000000" fill-opacity="0.00000" height="683.7227" width="8" x="1345.0884" y="83.6211"/><line style="stroke:#181818;stroke-width:0.5;stroke-dasharray:5,5;" x1="1348.123" x2="1348.123" y1="83.6211" y2="767.3438"/></g><g class="participant participant-head" data-participant="ATCC"><text fill="#000000" font-family="sans-serif" font-size="14" lengthAdjust="spacing" textLength="89.4619" x="5" y="80.1074">ATCC / Admin</text><ellipse cx="52.731" cy="13.5" fill="#E2E2F0" rx="8" ry="8" style="stroke:#181818;stroke-width:0.5;"/><path d="M52.731,21.5 L52.731,48.5 M39.731,29.5 L65.731,29.5 M52.731,48.5 L39.731,63.5 M52.731,48.5 L65.731,63.5" fill="none" style="stroke:#181818;stroke-width:0.5;"/></g><g class="participant participant-tail" data-participant="ATCC"><text fill="#000000" font-family="sans-serif" font-size="14" lengthAdjust="spacing" textLength="89.4619" x="5" y="781.4512">ATCC / Admin</text><ellipse cx="52.731" cy="793.4648" fill="#E2E2F0" rx="8" ry="8" style="stroke:#181818;stroke-width:0.5;"/><path d="M52.731,801.4648 L52.731,828.4648 M39.731,809.4648 L65.731,809.4648 M52.731,828.4648 L39.731,843.4648 M52.731,828.4648 L65.731,843.4648" fill="none" style="stroke:#181818;stroke-width:0.5;"/></g><g class="participant participant-head" data-participant="Ctrl"><rect fill="#E2E2F0" height="32.6211" rx="2.5" ry="2.5" style="stroke:#181818;stroke-width:0.5;" width="119.0273" x="221.3188" y="50"/><text fill="#000000" font-family="sans-serif" font-size="14" lengthAdjust="spacing" textLength="105.0273" x="228.3188" y="72.1074">AircraftController</text></g><g class="participant participant-tail" data-participant="Ctrl"><rect fill="#E2E2F0" height="32.6211" rx="2.5" ry="2.5" style="stroke:#181818;stroke-width:0.5;" width="119.0273" x="221.3188" y="766.3438"/><text fill="#000000" font-family="sans-serif" font-size="14" lengthAdjust="spacing" textLength="105.0273" x="228.3188" y="788.4512">AircraftController</text></g><g class="participant participant-head" data-participant="UC"><rect fill="#E2E2F0" height="32.6211" rx="2.5" ry="2.5" style="stroke:#181818;stroke-width:0.5;" width="168.0479" x="350.3462" y="50"/><text fill="#000000" font-family="sans-serif" font-size="14" lengthAdjust="spacing" textLength="154.0479" x="357.3462" y="72.1074">RegisterAircraftUseCase</text></g><g class="participant participant-tail" data-participant="UC"><rect fill="#E2E2F0" height="32.6211" rx="2.5" ry="2.5" style="stroke:#181818;stroke-width:0.5;" width="168.0479" x="350.3462" y="766.3438"/><text fill="#000000" font-family="sans-serif" font-size="14" lengthAdjust="spacing" textLength="154.0479" x="357.3462" y="788.4512">RegisterAircraftUseCase</text></g><g class="participant participant-head" data-participant="ModelRepo"><rect fill="#E2E2F0" height="32.6211" rx="2.5" ry="2.5" style="stroke:#181818;stroke-width:0.5;" width="163.3857" x="624.8379" y="50"/><text fill="#000000" font-family="sans-serif" font-size="14" lengthAdjust="spacing" textLength="149.3857" x="631.8379" y="72.1074">AircraftModelRepository</text></g><g class="participant participant-tail" data-participant="ModelRepo"><rect fill="#E2E2F0" height="32.6211" rx="2.5" ry="2.5" style="stroke:#181818;stroke-width:0.5;" width="163.3857" x="624.8379" y="766.3438"/><text fill="#000000" font-family="sans-serif" font-size="14" lengthAdjust="spacing" textLength="149.3857" x="631.8379" y="788.4512">AircraftModelRepository</text></g><g class="participant participant-tail" data-participant="VO"><rect fill="#E2E2F0" height="51.2422" rx="2.5" ry="2.5" style="stroke:#181818;stroke-width:0.5;" width="138.4961" x="798.2236" y="766.3438"/><text fill="#000000" font-family="sans-serif" font-size="14" lengthAdjust="spacing" textLength="124.4961" x="805.2236" y="788.4512">RegistrationNumber</text><text fill="#000000" font-family="sans-serif" font-size="14" lengthAdjust="spacing" textLength="89.4824" x="822.7305" y="807.0723">(Value Object)</text></g><g class="participant participant-tail" data-participant="Entity"><rect fill="#E2E2F0" height="51.2422" rx="2.5" ry="2.5" style="stroke:#181818;stroke-width:0.5;" width="58.3379" x="946.7197" y="766.3438"/><text fill="#000000" font-family="sans-serif" font-size="14" lengthAdjust="spacing" textLength="44.3379" x="953.7197" y="788.4512">Aircraft</text><text fill="#000000" font-family="sans-serif" font-size="14" lengthAdjust="spacing" textLength="44.3379" x="953.7197" y="807.0723">(Entity)</text></g><g class="participant participant-head" data-participant="Repo"><rect fill="#E2E2F0" height="32.6211" rx="2.5" ry="2.5" style="stroke:#181818;stroke-width:0.5;" width="125.2549" x="1015.0576" y="50"/><text fill="#000000" font-family="sans-serif" font-size="14" lengthAdjust="spacing" textLength="111.2549" x="1022.0576" y="72.1074">AircraftRepository</text></g><g class="participant participant-tail" data-participant="Repo"><rect fill="#E2E2F0" height="32.6211" rx="2.5" ry="2.5" style="stroke:#181818;stroke-width:0.5;" width="125.2549" x="1015.0576" y="766.3438"/><text fill="#000000" font-family="sans-serif" font-size="14" lengthAdjust="spacing" textLength="111.2549" x="1022.0576" y="788.4512">AircraftRepository</text></g><g class="participant participant-head" data-participant="DB"><text fill="#000000" font-family="sans-serif" font-size="14" lengthAdjust="spacing" textLength="59.9307" x="1316.123" y="80.1074">Database</text><path d="M1331.0884,29 C1331.0884,19 1349.0884,19 1349.0884,19 C1349.0884,19 1367.0884,19 1367.0884,29 L1367.0884,55 C1367.0884,65 1349.0884,65 1349.0884,65 C1349.0884,65 1331.0884,65 1331.0884,55 L1331.0884,29" fill="#E2E2F0" style="stroke:#181818;stroke-width:0.5;"/><path d="M1331.0884,29 C1331.0884,39 1349.0884,39 1349.0884,39 C1349.0884,39 1367.0884,39 1367.0884,29" fill="none" style="stroke:#181818;stroke-width:0.5;"/></g><g class="participant participant-tail" data-participant="DB"><text fill="#000000" font-family="sans-serif" font-size="14" lengthAdjust="spacing" textLength="59.9307" x="1316.123" y="781.4512">Database</text><path d="M1331.0884,794.9648 C1331.0884,784.9648 1349.0884,784.9648 1349.0884,784.9648 C1349.0884,784.9648 1367.0884,784.9648 1367.0884,794.9648 L1367.0884,820.9648 C1367.0884,830.9648 1349.0884,830.9648 1349.0884,830.9648 C1349.0884,830.9648 1331.0884,830.9648 1331.0884,820.9648 L1331.0884,794.9648" fill="#E2E2F0" style="stroke:#181818;stroke-width:0.5;"/><path d="M1331.0884,794.9648 C1331.0884,804.9648 1349.0884,804.9648 1349.0884,804.9648 C1349.0884,804.9648 1367.0884,804.9648 1367.0884,794.9648" fill="none" style="stroke:#181818;stroke-width:0.5;"/></g><g><title>AircraftController</title><rect fill="#FFFFFF" height="632.4316" style="stroke:#181818;stroke-width:1;" width="10" x="275.8325" y="116.9121"/></g><g><title>RegisterAircraftUseCase</title><rect fill="#FFFFFF" height="569.8496" style="stroke:#181818;stroke-width:1;" width="10" x="429.3701" y="148.2031"/></g><g><title>AircraftModelRepository</title><rect fill="#FFFFFF" height="31.291" style="stroke:#181818;stroke-width:1;" width="10" x="701.5308" y="234.0762"/></g><g><title>RegistrationNumber</title><rect fill="#FFFFFF" height="106.8242" style="stroke:#181818;stroke-width:1;" width="10" x="862.4717" y="306.6582"/></g><g><title>Aircraft</title><rect fill="#FFFFFF" height="106.8242" style="stroke:#181818;stroke-width:1;" width="10" x="970.8887" y="454.7734"/></g><g><title>AircraftRepository</title><rect fill="#FFFFFF" height="93.873" style="stroke:#181818;stroke-width:1;" width="10" x="1072.6851" y="592.8887"/></g><g><title>Database</title><rect fill="#FFFFFF" height="31.291" style="stroke:#181818;stroke-width:1;" width="10" x="1344.0884" y="624.1797"/></g><g class="message" data-participant-1="ATCC" data-participant-2="Ctrl"><polygon fill="#181818" points="263.8325,112.9121,273.8325,116.9121,263.8325,120.9121,267.8325,116.9121" style="stroke:#181818;stroke-width:1;"/><line style="stroke:#181818;stroke-width:1;" x1="52.731" x2="269.8325" y1="116.9121" y2="116.9121"/><text fill="#000000" font-family="sans-serif" font-size="13" font-weight="bold" lengthAdjust="spacing" textLength="7.23" x="59.731" y="111.6494">1</text><text fill="#000000" font-family="sans-serif" font-size="13" lengthAdjust="spacing" textLength="156.749" x="70.9609" y="111.6494">POST /api/aircrafts (JSON)</text></g><g class="message" data-participant-1="Ctrl" data-participant-2="UC"><polygon fill="#181818" points="417.3701,144.2031,427.3701,148.2031,417.3701,152.2031,421.3701,148.2031" style="stroke:#181818;stroke-width:1;"/><line style="stroke:#181818;stroke-width:1;" x1="285.8325" x2="423.3701" y1="148.2031" y2="148.2031"/><text fill="#000000" font-family="sans-serif" font-size="13" font-weight="bold" lengthAdjust="spacing" textLength="7.23" x="292.8325" y="142.9404">2</text><text fill="#000000" font-family="sans-serif" font-size="13" lengthAdjust="spacing" textLength="97.5508" x="304.0625" y="142.9404">execute(request)</text></g><path d="M444,161.2031 L444,205.2031 L601,205.2031 L601,171.2031 L591,161.2031 L444,161.2031" fill="#FEFFDD" style="stroke:#181818;stroke-width:0.5;"/><path d="M591,161.2031 L591,171.2031 L601,171.2031 L591,161.2031" fill="#FEFFDD" style="stroke:#181818;stroke-width:0.5;"/><text fill="#000000" font-family="sans-serif" font-size="13" lengthAdjust="spacing" textLength="136.5317" x="450" y="180.2314">Extracts data from DTO</text><text fill="#000000" font-family="sans-serif" font-size="13" lengthAdjust="spacing" textLength="52.019" x="450" y="197.5225">(request)</text><g class="message" data-participant-1="UC" data-participant-2="ModelRepo"><polygon fill="#181818" points="689.5308,230.0762,699.5308,234.0762,689.5308,238.0762,693.5308,234.0762" style="stroke:#181818;stroke-width:1;"/><line style="stroke:#181818;stroke-width:1;" x1="439.3701" x2="695.5308" y1="234.0762" y2="234.0762"/><text fill="#000000" font-family="sans-serif" font-size="13" font-weight="bold" lengthAdjust="spacing" textLength="7.23" x="446.3701" y="228.8135">3</text><text fill="#000000" font-family="sans-serif" font-size="13" lengthAdjust="spacing" textLength="231.9307" x="457.6001" y="228.8135">findByModelName(request.modelName)</text></g><g class="message" data-participant-1="ModelRepo" data-participant-2="UC"><polygon fill="#181818" points="450.3701,261.3672,440.3701,265.3672,450.3701,269.3672,446.3701,265.3672" style="stroke:#181818;stroke-width:1;"/><line style="stroke:#181818;stroke-width:1;stroke-dasharray:2,2;" x1="444.3701" x2="705.5308" y1="265.3672" y2="265.3672"/><text fill="#000000" font-family="sans-serif" font-size="13" font-weight="bold" lengthAdjust="spacing" textLength="7.23" x="456.3701" y="260.1045">4</text><text fill="#000000" font-family="sans-serif" font-size="13" lengthAdjust="spacing" textLength="75.1372" x="467.6001" y="260.1045">aircraftModel</text></g><g class="message" data-participant-1="UC" data-participant-2="VO"><polygon fill="#181818" points="786.2236,292.6582,796.2236,296.6582,786.2236,300.6582,790.2236,296.6582" style="stroke:#181818;stroke-width:1;"/><line style="stroke:#181818;stroke-width:1;" x1="439.3701" x2="792.2236" y1="296.6582" y2="296.6582"/><text fill="#000000" font-family="sans-serif" font-size="13" font-weight="bold" lengthAdjust="spacing" textLength="7.23" x="446.3701" y="291.3955">5</text><text fill="#000000" font-family="sans-serif" font-size="13" lengthAdjust="spacing" textLength="309.2388" x="457.6001" y="291.3955">new RegistrationNumber(request.registrationNumber)</text></g><rect fill="#E2E2F0" height="51.2422" rx="2.5" ry="2.5" style="stroke:#181818;stroke-width:0.5;" width="138.4961" x="798.2236" y="273.3672"/><text fill="#000000" font-family="sans-serif" font-size="14" lengthAdjust="spacing" textLength="124.4961" x="805.2236" y="295.4746">RegistrationNumber</text><text fill="#000000" font-family="sans-serif" font-size="14" lengthAdjust="spacing" textLength="89.4824" x="822.7305" y="314.0957">(Value Object)</text><path d="M877,340.6094 L877,384.6094 L1031,384.6094 L1031,350.6094 L1021,340.6094 L877,340.6094" fill="#FEFFDD" style="stroke:#181818;stroke-width:0.5;"/><path d="M1021,340.6094 L1021,350.6094 L1031,350.6094 L1021,340.6094" fill="#FEFFDD" style="stroke:#181818;stroke-width:0.5;"/><text fill="#000000" font-family="sans-serif" font-size="13" lengthAdjust="spacing" textLength="132.9707" x="883" y="359.6377">Value Object validation</text><text fill="#000000" font-family="sans-serif" font-size="13" lengthAdjust="spacing" textLength="133.6816" x="883" y="376.9287">(e.g., cannot be empty)</text><g class="message" data-participant-1="VO" data-participant-2="UC"><polygon fill="#181818" points="450.3701,409.4824,440.3701,413.4824,450.3701,417.4824,446.3701,413.4824" style="stroke:#181818;stroke-width:1;"/><line style="stroke:#181818;stroke-width:1;stroke-dasharray:2,2;" x1="444.3701" x2="866.4717" y1="413.4824" y2="413.4824"/><text fill="#000000" font-family="sans-serif" font-size="13" font-weight="bold" lengthAdjust="spacing" textLength="7.23" x="456.3701" y="408.2197">6</text><text fill="#000000" font-family="sans-serif" font-size="13" lengthAdjust="spacing" textLength="151.728" x="467.6001" y="408.2197">regNumber (validated VO)</text></g><g class="message" data-participant-1="UC" data-participant-2="Entity"><polygon fill="#181818" points="934.7197,440.7734,944.7197,444.7734,934.7197,448.7734,938.7197,444.7734" style="stroke:#181818;stroke-width:1;"/><line style="stroke:#181818;stroke-width:1;" x1="439.3701" x2="940.7197" y1="444.7734" y2="444.7734"/><text fill="#000000" font-family="sans-serif" font-size="13" font-weight="bold" lengthAdjust="spacing" textLength="7.23" x="446.3701" y="439.5107">7</text><text fill="#000000" font-family="sans-serif" font-size="13" lengthAdjust="spacing" textLength="354.0215" x="457.6001" y="439.5107">new Aircraft(regNumber, aircraftModel, date, capacity, status)</text></g><rect fill="#E2E2F0" height="51.2422" rx="2.5" ry="2.5" style="stroke:#181818;stroke-width:0.5;" width="58.3379" x="946.7197" y="421.4824"/><text fill="#000000" font-family="sans-serif" font-size="14" lengthAdjust="spacing" textLength="44.3379" x="953.7197" y="443.5898">Aircraft</text><text fill="#000000" font-family="sans-serif" font-size="14" lengthAdjust="spacing" textLength="44.3379" x="953.7197" y="462.2109">(Entity)</text><path d="M985,488.7246 L985,532.7246 L1193,532.7246 L1193,498.7246 L1183,488.7246 L985,488.7246" fill="#FEFFDD" style="stroke:#181818;stroke-width:0.5;"/><path d="M1183,488.7246 L1183,498.7246 L1193,498.7246 L1183,488.7246" fill="#FEFFDD" style="stroke:#181818;stroke-width:0.5;"/><text fill="#000000" font-family="sans-serif" font-size="13" lengthAdjust="spacing" textLength="174.8652" x="991" y="507.7529">Domain validation occurs here</text><text fill="#000000" font-family="sans-serif" font-size="13" lengthAdjust="spacing" textLength="187.8716" x="991" y="525.0439">(e.g., capacity &gt; 0, status != null)</text><g class="message" data-participant-1="Entity" data-participant-2="UC"><polygon fill="#181818" points="450.3701,557.5977,440.3701,561.5977,450.3701,565.5977,446.3701,561.5977" style="stroke:#181818;stroke-width:1;"/><line style="stroke:#181818;stroke-width:1;stroke-dasharray:2,2;" x1="444.3701" x2="974.8887" y1="561.5977" y2="561.5977"/><text fill="#000000" font-family="sans-serif" font-size="13" font-weight="bold" lengthAdjust="spacing" textLength="7.23" x="456.3701" y="556.335">8</text><text fill="#000000" font-family="sans-serif" font-size="13" lengthAdjust="spacing" textLength="142.3398" x="467.6001" y="556.335">aircraft (validated object)</text></g><g class="message" data-participant-1="UC" data-participant-2="Repo"><polygon fill="#181818" points="1060.6851,588.8887,1070.6851,592.8887,1060.6851,596.8887,1064.6851,592.8887" style="stroke:#181818;stroke-width:1;"/><line style="stroke:#181818;stroke-width:1;" x1="439.3701" x2="1066.6851" y1="592.8887" y2="592.8887"/><text fill="#000000" font-family="sans-serif" font-size="13" font-weight="bold" lengthAdjust="spacing" textLength="7.23" x="446.3701" y="587.626">9</text><text fill="#000000" font-family="sans-serif" font-size="13" lengthAdjust="spacing" textLength="75.8481" x="457.6001" y="587.626">save(aircraft)</text></g><g class="message" data-participant-1="Repo" data-participant-2="DB"><polygon fill="#181818" points="1332.0884,620.1797,1342.0884,624.1797,1332.0884,628.1797,1336.0884,624.1797" style="stroke:#181818;stroke-width:1;"/><line style="stroke:#181818;stroke-width:1;" x1="1082.6851" x2="1338.0884" y1="624.1797" y2="624.1797"/><text fill="#000000" font-family="sans-serif" font-size="13" font-weight="bold" lengthAdjust="spacing" textLength="14.46" x="1089.6851" y="618.917">10</text><text fill="#000000" font-family="sans-serif" font-size="13" lengthAdjust="spacing" textLength="155.2827" x="1108.145" y="618.917">INSERT INTO aircrafts (...)</text></g><g class="message" data-participant-1="DB" data-participant-2="Repo"><polygon fill="#181818" points="1093.6851,651.4707,1083.6851,655.4707,1093.6851,659.4707,1089.6851,655.4707" style="stroke:#181818;stroke-width:1;"/><line style="stroke:#181818;stroke-width:1;stroke-dasharray:2,2;" x1="1087.6851" x2="1348.0884" y1="655.4707" y2="655.4707"/><text fill="#000000" font-family="sans-serif" font-size="13" font-weight="bold" lengthAdjust="spacing" textLength="14.46" x="1099.6851" y="650.208">11</text><text fill="#000000" font-family="sans-serif" font-size="13" lengthAdjust="spacing" textLength="218.9434" x="1118.145" y="650.208">saved record (with auto-generated ID)</text></g><g class="message" data-participant-1="Repo" data-participant-2="UC"><polygon fill="#181818" points="450.3701,682.7617,440.3701,686.7617,450.3701,690.7617,446.3701,686.7617" style="stroke:#181818;stroke-width:1;"/><line style="stroke:#181818;stroke-width:1;stroke-dasharray:2,2;" x1="444.3701" x2="1076.6851" y1="686.7617" y2="686.7617"/><text fill="#000000" font-family="sans-serif" font-size="13" font-weight="bold" lengthAdjust="spacing" textLength="14.46" x="456.3701" y="681.499">12</text><text fill="#000000" font-family="sans-serif" font-size="13" lengthAdjust="spacing" textLength="75.8608" x="474.8301" y="681.499">savedAircraft</text></g><g class="message" data-participant-1="UC" data-participant-2="Ctrl"><polygon fill="#181818" points="296.8325,714.0527,286.8325,718.0527,296.8325,722.0527,292.8325,718.0527" style="stroke:#181818;stroke-width:1;"/><line style="stroke:#181818;stroke-width:1;stroke-dasharray:2,2;" x1="290.8325" x2="433.3701" y1="718.0527" y2="718.0527"/><text fill="#000000" font-family="sans-serif" font-size="13" font-weight="bold" lengthAdjust="spacing" textLength="14.46" x="302.8325" y="712.79">13</text><text fill="#000000" font-family="sans-serif" font-size="13" lengthAdjust="spacing" textLength="75.8608" x="321.2925" y="712.79">savedAircraft</text></g><g class="message" data-participant-1="Ctrl" data-participant-2="ATCC"><polygon fill="#181818" points="63.731,745.3438,53.731,749.3438,63.731,753.3438,59.731,749.3438" style="stroke:#181818;stroke-width:1;"/><line style="stroke:#181818;stroke-width:1;stroke-dasharray:2,2;" x1="57.731" x2="279.8325" y1="749.3438" y2="749.3438"/><text fill="#000000" font-family="sans-serif" font-size="13" font-weight="bold" lengthAdjust="spacing" textLength="14.46" x="69.731" y="744.0811">14</text><text fill="#000000" font-family="sans-serif" font-size="13" lengthAdjust="spacing" textLength="180.6416" x="88.1909" y="744.0811">201 Created (JSON Response)</text></g><!--SRC=[TLJ9Zjf04BtxAogSp8XbaYDIa6OCXuaK7B6TSYdi0ZgokvtkDZFyVShjXNPWJhJAxrMzLmjOMYNB_40wmCGg3OENRHJ155xINCW1e84g41IehKX4WT8oHEX4uz56Ibgjieoq0qPMPttWcax2MD8jOMSeGaCElViawK-LKhQcGXd1UguEsyKUfTTeXP8hP-At3FUObGJnuGybTkZO-_Xn9GOlfHNsMiFgzsFeVtgSb1Gj7jWD31RDotrRl0Q1w-5uxZe2C_WLRxOmnK9CiSbd8FonYLV3gkdYWfRgvWMEmCHTn3JweAIq56hwMvAn7fXx5qZ53orEPmlgo94PB3-u5mddhfJ1KQiS5jkONNO9WfsJrRMJYno5J5-lBhB2l2isoTk8L_OsXbk6SQiM_Va5AJrWDUNtCJmzCKFIEzoFi5EWxpvvKdYc_GRiundueuSBPY9rPEu0JKwJ4IGecGG70ieB7dl0IZhzNAwk0c53fPIp3dqhNBNnK2_BpKUxA66NPjJloAYQ2bKQ2aoOEW9ZqPR6yzGiODzN7Pp1GkKefESAL9AKsi2PD7aEw-mmX-Us0dpv3hBCic7GYBuRcUzOrOVZksvqDSwRlJ5ueR1Du9ce1rslnfoFWQ5lgyrolUMVRGpU0Kmc4u_7PyFWSRz0obD9b4uXV1Vs3CX_LkCJIT9EwjkY9xCwlFvAkXJjP7peRHjlH_efk3gs-YuPx2vx1j-UlqAaoSbmbymfJQ6aePwaYlOF]--></g></svg>