<?plantuml 1.2026.2?><svg xmlns="http://www.w3.org/2000/svg" xmlns:xlink="http://www.w3.org/1999/xlink" contentStyleType="text/css" data-diagram-type="SEQUENCE" height="615px" preserveAspectRatio="none" style="width:1084px;height:615px;background:#FFFFFF;" version="1.1" viewBox="0 0 1084 615" width="1084px" zoomAndPan="magnify"><defs/><g><g><title>RouteController</title><rect fill="#FFFFFF" height="380.0742" style="stroke:#181818;stroke-width:1;" width="10" x="322.4902" y="134.2031"/></g><g><title>SearchRoutesUseCase</title><rect fill="#FFFFFF" height="317.4922" style="stroke:#181818;stroke-width:1;" width="10" x="518.8091" y="165.4941"/></g><g><title>RouteRepository</title><rect fill="#FFFFFF" height="128.4551" style="stroke:#181818;stroke-width:1;" width="10" x="708.6152" y="268.6582"/></g><g><title>Database</title><rect fill="#FFFFFF" height="31.291" style="stroke:#181818;stroke-width:1;" width="10" x="1044.0239" y="334.5313"/></g><g class="participant-lifeline" data-entity-uid="part1" data-qualified-name="ATCC" id="part1-lifeline"><g><title>ATCC</title><rect fill="#000000" fill-opacity="0.00000" height="448.6563" width="8" x="23.0552" y="83.6211"/><line style="stroke:#181818;stroke-width:0.5;stroke-dasharray:5,5;" x1="27" x2="27" y1="83.6211" y2="532.2773"/></g></g><g class="participant-lifeline" data-entity-uid="part2" data-qualified-name="Ctrl" id="part2-lifeline"><g><title>RouteController</title><rect fill="#000000" fill-opacity="0.00000" height="448.6563" width="8" x="323.4902" y="83.6211"/><line style="stroke:#181818;stroke-width:0.5;stroke-dasharray:5,5;" x1="327.4663" x2="327.4663" y1="83.6211" y2="532.2773"/></g></g><g class="participant-lifeline" data-entity-uid="part3" data-qualified-name="UC" id="part3-lifeline"><g><title>SearchRoutesUseCase</title><rect fill="#000000" fill-opacity="0.00000" height="448.6563" width="8" x="519.8091" y="83.6211"/><line style="stroke:#181818;stroke-width:0.5;stroke-dasharray:5,5;" x1="523.6611" x2="523.6611" y1="83.6211" y2="532.2773"/></g></g><g class="participant-lifeline" data-entity-uid="part4" data-qualified-name="Repo" id="part4-lifeline"><g><title>RouteRepository</title><rect fill="#000000" fill-opacity="0.00000" height="448.6563" width="8" x="709.6152" y="83.6211"/><line style="stroke:#181818;stroke-width:0.5;stroke-dasharray:5,5;" x1="713.4775" x2="713.4775" y1="83.6211" y2="532.2773"/></g></g><g class="participant-lifeline" data-entity-uid="part5" data-qualified-name="DB" id="part5-lifeline"><g><title>Database</title><rect fill="#000000" fill-opacity="0.00000" height="448.6563" width="8" x="1045.0239" y="83.6211"/><line style="stroke:#181818;stroke-width:0.5;stroke-dasharray:5,5;" x1="1048.0586" x2="1048.0586" y1="83.6211" y2="532.2773"/></g></g><g class="participant participant-head" data-entity-uid="part1" data-qualified-name="ATCC" id="part1-head"><text fill="#000000" font-family="sans-serif" font-size="14" lengthAdjust="spacing" textLength="38.1104" x="5" y="80.1074">ATCC</text><ellipse cx="27.0552" cy="13.5" fill="#E2E2F0" rx="8" ry="8" style="stroke:#181818;stroke-width:0.5;"/><path d="M27.0552,21.5 L27.0552,48.5 M14.0552,29.5 L40.0552,29.5 M27.0552,48.5 L14.0552,63.5 M27.0552,48.5 L40.0552,63.5" fill="none" style="stroke:#181818;stroke-width:0.5;"/></g><g class="participant participant-tail" data-entity-uid="part1" data-qualified-name="ATCC" id="part1-tail"><text fill="#000000" font-family="sans-serif" font-size="14" lengthAdjust="spacing" textLength="38.1104" x="5" y="546.3848">ATCC</text><ellipse cx="27.0552" cy="558.3984" fill="#E2E2F0" rx="8" ry="8" style="stroke:#181818;stroke-width:0.5;"/><path d="M27.0552,566.3984 L27.0552,593.3984 M14.0552,574.3984 L40.0552,574.3984 M27.0552,593.3984 L14.0552,608.3984 M27.0552,593.3984 L40.0552,608.3984" fill="none" style="stroke:#181818;stroke-width:0.5;"/></g><g class="participant participant-head" data-entity-uid="part2" data-qualified-name="Ctrl" id="part2-head"><rect fill="#E2E2F0" height="32.6211" rx="2.5" ry="2.5" style="stroke:#181818;stroke-width:0.5;" width="112.0479" x="271.4663" y="50"/><text fill="#000000" font-family="sans-serif" font-size="14" lengthAdjust="spacing" textLength="98.0479" x="278.4663" y="72.1074">RouteController</text></g><g class="participant participant-tail" data-entity-uid="part2" data-qualified-name="Ctrl" id="part2-tail"><rect fill="#E2E2F0" height="32.6211" rx="2.5" ry="2.5" style="stroke:#181818;stroke-width:0.5;" width="112.0479" x="271.4663" y="531.2773"/><text fill="#000000" font-family="sans-serif" font-size="14" lengthAdjust="spacing" textLength="98.0479" x="278.4663" y="553.3848">RouteController</text></g><g class="participant participant-head" data-entity-uid="part3" data-qualified-name="UC" id="part3-head"><rect fill="#E2E2F0" height="32.6211" rx="2.5" ry="2.5" style="stroke:#181818;stroke-width:0.5;" width="160.2959" x="443.6611" y="50"/><text fill="#000000" font-family="sans-serif" font-size="14" lengthAdjust="spacing" textLength="146.2959" x="450.6611" y="72.1074">SearchRoutesUseCase</text></g><g class="participant participant-tail" data-entity-uid="part3" data-qualified-name="UC" id="part3-tail"><rect fill="#E2E2F0" height="32.6211" rx="2.5" ry="2.5" style="stroke:#181818;stroke-width:0.5;" width="160.2959" x="443.6611" y="531.2773"/><text fill="#000000" font-family="sans-serif" font-size="14" lengthAdjust="spacing" textLength="146.2959" x="450.6611" y="553.3848">SearchRoutesUseCase</text></g><g class="participant participant-head" data-entity-uid="part4" data-qualified-name="Repo" id="part4-head"><rect fill="#E2E2F0" height="32.6211" rx="2.5" ry="2.5" style="stroke:#181818;stroke-width:0.5;" width="118.2754" x="654.4775" y="50"/><text fill="#000000" font-family="sans-serif" font-size="14" lengthAdjust="spacing" textLength="104.2754" x="661.4775" y="72.1074">RouteRepository</text></g><g class="participant participant-tail" data-entity-uid="part4" data-qualified-name="Repo" id="part4-tail"><rect fill="#E2E2F0" height="32.6211" rx="2.5" ry="2.5" style="stroke:#181818;stroke-width:0.5;" width="118.2754" x="654.4775" y="531.2773"/><text fill="#000000" font-family="sans-serif" font-size="14" lengthAdjust="spacing" textLength="104.2754" x="661.4775" y="553.3848">RouteRepository</text></g><g class="participant participant-head" data-entity-uid="part5" data-qualified-name="DB" id="part5-head"><text fill="#000000" font-family="sans-serif" font-size="14" lengthAdjust="spacing" textLength="59.9307" x="1016.0586" y="80.1074">Database</text><path d="M1031.0239,29 C1031.0239,19 1049.0239,19 1049.0239,19 C1049.0239,19 1067.0239,19 1067.0239,29 L1067.0239,55 C1067.0239,65 1049.0239,65 1049.0239,65 C1049.0239,65 1031.0239,65 1031.0239,55 L1031.0239,29" fill="#E2E2F0" style="stroke:#181818;stroke-width:0.5;"/><path d="M1031.0239,29 C1031.0239,39 1049.0239,39 1049.0239,39 C1049.0239,39 1067.0239,39 1067.0239,29" fill="none" style="stroke:#181818;stroke-width:0.5;"/></g><g class="participant participant-tail" data-entity-uid="part5" data-qualified-name="DB" id="part5-tail"><text fill="#000000" font-family="sans-serif" font-size="14" lengthAdjust="spacing" textLength="59.9307" x="1016.0586" y="546.3848">Database</text><path d="M1031.0239,559.8984 C1031.0239,549.8984 1049.0239,549.8984 1049.0239,549.8984 C1049.0239,549.8984 1067.0239,549.8984 1067.0239,559.8984 L1067.0239,585.8984 C1067.0239,595.8984 1049.0239,595.8984 1049.0239,595.8984 C1049.0239,595.8984 1031.0239,595.8984 1031.0239,585.8984 L1031.0239,559.8984" fill="#E2E2F0" style="stroke:#181818;stroke-width:0.5;"/><path d="M1031.0239,559.8984 C1031.0239,569.8984 1049.0239,569.8984 1049.0239,569.8984 C1049.0239,569.8984 1067.0239,569.8984 1067.0239,559.8984" fill="none" style="stroke:#181818;stroke-width:0.5;"/></g><g><title>RouteController</title><rect fill="#FFFFFF" height="380.0742" style="stroke:#181818;stroke-width:1;" width="10" x="322.4902" y="134.2031"/></g><g><title>SearchRoutesUseCase</title><rect fill="#FFFFFF" height="317.4922" style="stroke:#181818;stroke-width:1;" width="10" x="518.8091" y="165.4941"/></g><g><title>RouteRepository</title><rect fill="#FFFFFF" height="128.4551" style="stroke:#181818;stroke-width:1;" width="10" x="708.6152" y="268.6582"/></g><g><title>Database</title><rect fill="#FFFFFF" height="31.291" style="stroke:#181818;stroke-width:1;" width="10" x="1044.0239" y="334.5313"/></g><g class="message" data-entity-1="part1" data-entity-2="part2" id="msg1"><polygon fill="#181818" points="310.4902,130.2031,320.4902,134.2031,310.4902,138.2031,314.4902,134.2031" style="stroke:#181818;stroke-width:1;"/><line style="stroke:#181818;stroke-width:1;" x1="27.0552" x2="316.4902" y1="134.2031" y2="134.2031"/><text fill="#000000" font-family="sans-serif" font-size="13" font-weight="bold" lengthAdjust="spacing" textLength="7.23" x="34.0552" y="120.2949">1</text><text fill="#000000" font-family="sans-serif" font-size="13" lengthAdjust="spacing" textLength="265.2051" x="45.2852" y="111.6494">GET /api/routes?origin=LIS&amp;destination=OPO</text><text fill="#000000" font-family="sans-serif" font-size="13" lengthAdjust="spacing" textLength="130.0698" x="45.2852" y="128.9404">(both params optional)</text></g><g class="message" data-entity-1="part2" data-entity-2="part3" id="msg2"><polygon fill="#181818" points="506.8091,161.4941,516.8091,165.4941,506.8091,169.4941,510.8091,165.4941" style="stroke:#181818;stroke-width:1;"/><line style="stroke:#181818;stroke-width:1;" x1="332.4902" x2="512.8091" y1="165.4941" y2="165.4941"/><text fill="#000000" font-family="sans-serif" font-size="13" font-weight="bold" lengthAdjust="spacing" textLength="7.23" x="339.4902" y="160.2314">2</text><text fill="#000000" font-family="sans-serif" font-size="13" lengthAdjust="spacing" textLength="156.0889" x="350.7202" y="160.2314">execute(origin, destination)</text></g><path d="M533,178.4941 L533,239.4941 L708,239.4941 L708,188.4941 L698,178.4941 L533,178.4941" fill="#FEFFDD" style="stroke:#181818;stroke-width:0.5;"/><path d="M698,178.4941 L698,188.4941 L708,188.4941 L698,178.4941" fill="#FEFFDD" style="stroke:#181818;stroke-width:0.5;"/><text fill="#000000" font-family="sans-serif" font-size="13" lengthAdjust="spacing" textLength="154.6289" x="539" y="197.5225">Converts non-blank strings</text><text fill="#000000" font-family="sans-serif" font-size="13" lengthAdjust="spacing" textLength="151.0298" x="539" y="214.8135">to IATAcode value objects</text><text fill="#000000" font-family="sans-serif" font-size="13" lengthAdjust="spacing" textLength="148.1289" x="539" y="232.1045">Null if param not provided</text><g class="message" data-entity-1="part3" data-entity-2="part4" id="msg3"><polygon fill="#181818" points="696.6152,264.6582,706.6152,268.6582,696.6152,272.6582,700.6152,268.6582" style="stroke:#181818;stroke-width:1;"/><line style="stroke:#181818;stroke-width:1;" x1="528.8091" x2="702.6152" y1="268.6582" y2="268.6582"/><text fill="#000000" font-family="sans-serif" font-size="13" font-weight="bold" lengthAdjust="spacing" textLength="7.23" x="535.8091" y="263.3955">3</text><text fill="#000000" font-family="sans-serif" font-size="13" lengthAdjust="spacing" textLength="149.5762" x="547.0391" y="263.3955">search(origin, destination)</text></g><g class="message" data-entity-1="part4" data-entity-2="part5" id="msg4"><polygon fill="#181818" points="1032.0239,330.5313,1042.0239,334.5313,1032.0239,338.5313,1036.0239,334.5313" style="stroke:#181818;stroke-width:1;"/><line style="stroke:#181818;stroke-width:1;" x1="718.6152" x2="1038.0239" y1="334.5313" y2="334.5313"/><text fill="#000000" font-family="sans-serif" font-size="13" font-weight="bold" lengthAdjust="spacing" textLength="7.23" x="725.6152" y="311.9775">4</text><text fill="#000000" font-family="sans-serif" font-size="13" lengthAdjust="spacing" textLength="140.8672" x="736.8452" y="294.6865">SELECT * FROM routes</text><text fill="#000000" font-family="sans-serif" font-size="13" lengthAdjust="spacing" textLength="253.9507" x="736.8452" y="311.9775">WHERE (origin IS NULL OR origin_iata = ?)</text><text fill="#000000" font-family="sans-serif" font-size="13" lengthAdjust="spacing" textLength="295.1787" x="736.8452" y="329.2686">AND (destination IS NULL OR destination_iata = ?)</text></g><g class="message" data-entity-1="part5" data-entity-2="part4" id="msg5"><polygon fill="#181818" points="729.6152,361.8223,719.6152,365.8223,729.6152,369.8223,725.6152,365.8223" style="stroke:#181818;stroke-width:1;"/><line style="stroke:#181818;stroke-width:1;stroke-dasharray:2,2;" x1="723.6152" x2="1048.0239" y1="365.8223" y2="365.8223"/><text fill="#000000" font-family="sans-serif" font-size="13" font-weight="bold" lengthAdjust="spacing" textLength="7.23" x="735.6152" y="360.5596">5</text><text fill="#000000" font-family="sans-serif" font-size="13" lengthAdjust="spacing" textLength="126.4453" x="746.8452" y="360.5596">list of matching routes</text></g><g class="message" data-entity-1="part4" data-entity-2="part3" id="msg6"><polygon fill="#181818" points="539.8091,393.1133,529.8091,397.1133,539.8091,401.1133,535.8091,397.1133" style="stroke:#181818;stroke-width:1;"/><line style="stroke:#181818;stroke-width:1;stroke-dasharray:2,2;" x1="533.8091" x2="712.6152" y1="397.1133" y2="397.1133"/><text fill="#000000" font-family="sans-serif" font-size="13" font-weight="bold" lengthAdjust="spacing" textLength="7.23" x="545.8091" y="391.8506">6</text><text fill="#000000" font-family="sans-serif" font-size="13" lengthAdjust="spacing" textLength="70.1035" x="557.0391" y="391.8506">List&lt;Route&gt;</text></g><path d="M533,410.1133 L533,454.1133 L692,454.1133 L692,420.1133 L682,410.1133 L533,410.1133" fill="#FEFFDD" style="stroke:#181818;stroke-width:0.5;"/><path d="M682,410.1133 L682,420.1133 L692,420.1133 L682,410.1133" fill="#FEFFDD" style="stroke:#181818;stroke-width:0.5;"/><text fill="#000000" font-family="sans-serif" font-size="13" lengthAdjust="spacing" textLength="101.8926" x="539" y="429.1416">Maps each Route</text><text fill="#000000" font-family="sans-serif" font-size="13" lengthAdjust="spacing" textLength="138.7344" x="539" y="446.4326">to RouteResponse DTO</text><g class="message" data-entity-1="part3" data-entity-2="part2" id="msg7"><polygon fill="#181818" points="343.4902,478.9863,333.4902,482.9863,343.4902,486.9863,339.4902,482.9863" style="stroke:#181818;stroke-width:1;"/><line style="stroke:#181818;stroke-width:1;stroke-dasharray:2,2;" x1="337.4902" x2="522.8091" y1="482.9863" y2="482.9863"/><text fill="#000000" font-family="sans-serif" font-size="13" font-weight="bold" lengthAdjust="spacing" textLength="7.23" x="349.4902" y="477.7236">7</text><text fill="#000000" font-family="sans-serif" font-size="13" lengthAdjust="spacing" textLength="128.6416" x="360.7202" y="477.7236">List&lt;RouteResponse&gt;</text></g><g class="message" data-entity-1="part2" data-entity-2="part1" id="msg8"><polygon fill="#181818" points="38.0552,510.2773,28.0552,514.2773,38.0552,518.2773,34.0552,514.2773" style="stroke:#181818;stroke-width:1;"/><line style="stroke:#181818;stroke-width:1;stroke-dasharray:2,2;" x1="32.0552" x2="326.4902" y1="514.2773" y2="514.2773"/><text fill="#000000" font-family="sans-serif" font-size="13" font-weight="bold" lengthAdjust="spacing" textLength="7.23" x="44.0552" y="509.0146">8</text><text fill="#000000" font-family="sans-serif" font-size="13" lengthAdjust="spacing" textLength="125.6963" x="55.2852" y="509.0146">200 OK (JSON Array)</text></g><?plantuml-src XL9TRvj047o_Nx7oGsHNjHBrqQeJ4Q2jMs8gmCgBfMg1IxWMtw6xnMh-VPV34KIArBVxcDcPdLtioUZ-L4ehi29ZOH4KORW0T30SH8UMLAKwr0IBpFGaGwF9chQLrgD2ikrRL2xHLet7keEJ8JhfaOVtgcMoCqwny8l735TH8s79B5X4bvF_Y-w563p1-jQhmWQ-nWLSOwUkhLUxCrOzAxrDTlbLBHqfZQICtgO_qwDUbeOQO0TuSc2wuGFRrT2rEYF9iH7X2xF08UJoyg-ikEvoBFiHPZLdHEvBQCC7HZK4vebVDi0ndQKb1zheTTcY_WEEhDBFxgZ9m2ueWihK4ixOzX9C-LjMn5_xlcr1FOq-cKlGMNDMjQo5EFZMXuZOc_Cf_yUQZzCJc1ZTCosFapWiu0DyoT8766CxwiTlSHR3fHZiSjWVaWJI3CQNNuhd05kuMnrri8zWELEResVF4sLommDa3-kfXrOvdzS9gMeuceiVKSivP_J_EfE4EP_zwjpESRxJTyRmW9q3XZNWEJxxo-AvpcXUigX8nsYdjPeqNb5lj8Q1Ztl25B-H6_XqSmFf3rX-pzCz1DRYosfE6U3_0000?></g></svg>