<?plantuml 1.2026.2?><svg xmlns="http://www.w3.org/2000/svg" xmlns:xlink="http://www.w3.org/1999/xlink" contentStyleType="text/css" data-diagram-type="SEQUENCE" height="508px" preserveAspectRatio="none" style="width:1184px;height:508px;background:#FFFFFF;" version="1.1" viewBox="0 0 1184 508" width="1184px" zoomAndPan="magnify"><defs/><g><g><title>RouteController</title><rect fill="#FFFFFF" height="290.9102" style="stroke:#181818;stroke-width:1;" width="10" x="229.2559" y="116.9121"/></g><g><title>GetTotalNetworkDistanceUseCase</title><rect fill="#FFFFFF" height="228.3281" style="stroke:#181818;stroke-width:1;" width="10" x="635.0327" y="148.2031"/></g><g><title>RouteRepository</title><rect fill="#FFFFFF" height="93.873" style="stroke:#181818;stroke-width:1;" width="10" x="819.7114" y="179.4941"/></g><g><title>Database</title><rect fill="#FFFFFF" height="31.291" style="stroke:#181818;stroke-width:1;" width="10" x="1144.2148" y="210.7852"/></g><g class="participant-lifeline" data-entity-uid="part1" data-qualified-name="ATCC" id="part1-lifeline"><g><title>ATCC</title><rect fill="#000000" fill-opacity="0.00000" height="342.2012" width="8" x="23.0552" y="83.6211"/><line style="stroke:#181818;stroke-width:0.5;stroke-dasharray:5,5;" x1="27" x2="27" y1="83.6211" y2="425.8223"/></g></g><g class="participant-lifeline" data-entity-uid="part2" data-qualified-name="Ctrl" id="part2-lifeline"><g><title>RouteController</title><rect fill="#000000" fill-opacity="0.00000" height="342.2012" width="8" x="230.2559" y="83.6211"/><line style="stroke:#181818;stroke-width:0.5;stroke-dasharray:5,5;" x1="234.2319" x2="234.2319" y1="83.6211" y2="425.8223"/></g></g><g class="participant-lifeline" data-entity-uid="part3" data-qualified-name="UC" id="part3-lifeline"><g><title>GetTotalNetworkDistanceUseCase</title><rect fill="#000000" fill-opacity="0.00000" height="342.2012" width="8" x="636.0327" y="83.6211"/><line style="stroke:#181818;stroke-width:0.5;stroke-dasharray:5,5;" x1="639.4917" x2="639.4917" y1="83.6211" y2="425.8223"/></g></g><g class="participant-lifeline" data-entity-uid="part4" data-qualified-name="Repo" id="part4-lifeline"><g><title>RouteRepository</title><rect fill="#000000" fill-opacity="0.00000" height="342.2012" width="8" x="820.7114" y="83.6211"/><line style="stroke:#181818;stroke-width:0.5;stroke-dasharray:5,5;" x1="824.5737" x2="824.5737" y1="83.6211" y2="425.8223"/></g></g><g class="participant-lifeline" data-entity-uid="part5" data-qualified-name="DB" id="part5-lifeline"><g><title>Database</title><rect fill="#000000" fill-opacity="0.00000" height="342.2012" width="8" x="1145.2148" y="83.6211"/><line style="stroke:#181818;stroke-width:0.5;stroke-dasharray:5,5;" x1="1148.2495" x2="1148.2495" y1="83.6211" y2="425.8223"/></g></g><g class="participant participant-head" data-entity-uid="part1" data-qualified-name="ATCC" id="part1-head"><text fill="#000000" font-family="sans-serif" font-size="14" lengthAdjust="spacing" textLength="38.1104" x="5" y="80.1074">ATCC</text><ellipse cx="27.0552" cy="13.5" fill="#E2E2F0" rx="8" ry="8" style="stroke:#181818;stroke-width:0.5;"/><path d="M27.0552,21.5 L27.0552,48.5 M14.0552,29.5 L40.0552,29.5 M27.0552,48.5 L14.0552,63.5 M27.0552,48.5 L40.0552,63.5" fill="none" style="stroke:#181818;stroke-width:0.5;"/></g><g class="participant participant-tail" data-entity-uid="part1" data-qualified-name="ATCC" id="part1-tail"><text fill="#000000" font-family="sans-serif" font-size="14" lengthAdjust="spacing" textLength="38.1104" x="5" y="439.9297">ATCC</text><ellipse cx="27.0552" cy="451.9434" fill="#E2E2F0" rx="8" ry="8" style="stroke:#181818;stroke-width:0.5;"/><path d="M27.0552,459.9434 L27.0552,486.9434 M14.0552,467.9434 L40.0552,467.9434 M27.0552,486.9434 L14.0552,501.9434 M27.0552,486.9434 L40.0552,501.9434" fill="none" style="stroke:#181818;stroke-width:0.5;"/></g><g class="participant participant-head" data-entity-uid="part2" data-qualified-name="Ctrl" id="part2-head"><rect fill="#E2E2F0" height="32.6211" rx="2.5" ry="2.5" style="stroke:#181818;stroke-width:0.5;" width="112.0479" x="178.2319" y="50"/><text fill="#000000" font-family="sans-serif" font-size="14" lengthAdjust="spacing" textLength="98.0479" x="185.2319" y="72.1074">RouteController</text></g><g class="participant participant-tail" data-entity-uid="part2" data-qualified-name="Ctrl" id="part2-tail"><rect fill="#E2E2F0" height="32.6211" rx="2.5" ry="2.5" style="stroke:#181818;stroke-width:0.5;" width="112.0479" x="178.2319" y="424.8223"/><text fill="#000000" font-family="sans-serif" font-size="14" lengthAdjust="spacing" textLength="98.0479" x="185.2319" y="446.9297">RouteController</text></g><g class="participant participant-head" data-entity-uid="part3" data-qualified-name="UC" id="part3-head"><rect fill="#E2E2F0" height="32.6211" rx="2.5" ry="2.5" style="stroke:#181818;stroke-width:0.5;" width="231.082" x="524.4917" y="50"/><text fill="#000000" font-family="sans-serif" font-size="14" lengthAdjust="spacing" textLength="217.082" x="531.4917" y="72.1074">GetTotalNetworkDistanceUseCase</text></g><g class="participant participant-tail" data-entity-uid="part3" data-qualified-name="UC" id="part3-tail"><rect fill="#E2E2F0" height="32.6211" rx="2.5" ry="2.5" style="stroke:#181818;stroke-width:0.5;" width="231.082" x="524.4917" y="424.8223"/><text fill="#000000" font-family="sans-serif" font-size="14" lengthAdjust="spacing" textLength="217.082" x="531.4917" y="446.9297">GetTotalNetworkDistanceUseCase</text></g><g class="participant participant-head" data-entity-uid="part4" data-qualified-name="Repo" id="part4-head"><rect fill="#E2E2F0" height="32.6211" rx="2.5" ry="2.5" style="stroke:#181818;stroke-width:0.5;" width="118.2754" x="765.5737" y="50"/><text fill="#000000" font-family="sans-serif" font-size="14" lengthAdjust="spacing" textLength="104.2754" x="772.5737" y="72.1074">RouteRepository</text></g><g class="participant participant-tail" data-entity-uid="part4" data-qualified-name="Repo" id="part4-tail"><rect fill="#E2E2F0" height="32.6211" rx="2.5" ry="2.5" style="stroke:#181818;stroke-width:0.5;" width="118.2754" x="765.5737" y="424.8223"/><text fill="#000000" font-family="sans-serif" font-size="14" lengthAdjust="spacing" textLength="104.2754" x="772.5737" y="446.9297">RouteRepository</text></g><g class="participant participant-head" data-entity-uid="part5" data-qualified-name="DB" id="part5-head"><text fill="#000000" font-family="sans-serif" font-size="14" lengthAdjust="spacing" textLength="59.9307" x="1116.2495" y="80.1074">Database</text><path d="M1131.2148,29 C1131.2148,19 1149.2148,19 1149.2148,19 C1149.2148,19 1167.2148,19 1167.2148,29 L1167.2148,55 C1167.2148,65 1149.2148,65 1149.2148,65 C1149.2148,65 1131.2148,65 1131.2148,55 L1131.2148,29" fill="#E2E2F0" style="stroke:#181818;stroke-width:0.5;"/><path d="M1131.2148,29 C1131.2148,39 1149.2148,39 1149.2148,39 C1149.2148,39 1167.2148,39 1167.2148,29" fill="none" style="stroke:#181818;stroke-width:0.5;"/></g><g class="participant participant-tail" data-entity-uid="part5" data-qualified-name="DB" id="part5-tail"><text fill="#000000" font-family="sans-serif" font-size="14" lengthAdjust="spacing" textLength="59.9307" x="1116.2495" y="439.9297">Database</text><path d="M1131.2148,453.4434 C1131.2148,443.4434 1149.2148,443.4434 1149.2148,443.4434 C1149.2148,443.4434 1167.2148,443.4434 1167.2148,453.4434 L1167.2148,479.4434 C1167.2148,489.4434 1149.2148,489.4434 1149.2148,489.4434 C1149.2148,489.4434 1131.2148,489.4434 1131.2148,479.4434 L1131.2148,453.4434" fill="#E2E2F0" style="stroke:#181818;stroke-width:0.5;"/><path d="M1131.2148,453.4434 C1131.2148,463.4434 1149.2148,463.4434 1149.2148,463.4434 C1149.2148,463.4434 1167.2148,463.4434 1167.2148,453.4434" fill="none" style="stroke:#181818;stroke-width:0.5;"/></g><g><title>RouteController</title><rect fill="#FFFFFF" height="290.9102" style="stroke:#181818;stroke-width:1;" width="10" x="229.2559" y="116.9121"/></g><g><title>GetTotalNetworkDistanceUseCase</title><rect fill="#FFFFFF" height="228.3281" style="stroke:#181818;stroke-width:1;" width="10" x="635.0327" y="148.2031"/></g><g><title>RouteRepository</title><rect fill="#FFFFFF" height="93.873" style="stroke:#181818;stroke-width:1;" width="10" x="819.7114" y="179.4941"/></g><g><title>Database</title><rect fill="#FFFFFF" height="31.291" style="stroke:#181818;stroke-width:1;" width="10" x="1144.2148" y="210.7852"/></g><g class="message" data-entity-1="part1" data-entity-2="part2" id="msg1"><polygon fill="#181818" points="217.2559,112.9121,227.2559,116.9121,217.2559,120.9121,221.2559,116.9121" style="stroke:#181818;stroke-width:1;"/><line style="stroke:#181818;stroke-width:1;" x1="27.0552" x2="223.2559" y1="116.9121" y2="116.9121"/><text fill="#000000" font-family="sans-serif" font-size="13" font-weight="bold" lengthAdjust="spacing" textLength="7.23" x="34.0552" y="111.6494">1</text><text fill="#000000" font-family="sans-serif" font-size="13" lengthAdjust="spacing" textLength="171.9707" x="45.2852" y="111.6494">GET /api/routes/total-distance</text></g><g class="message" data-entity-1="part2" data-entity-2="part3" id="msg2"><polygon fill="#181818" points="623.0327,144.2031,633.0327,148.2031,623.0327,152.2031,627.0327,148.2031" style="stroke:#181818;stroke-width:1;"/><line style="stroke:#181818;stroke-width:1;" x1="239.2559" x2="629.0327" y1="148.2031" y2="148.2031"/><text fill="#000000" font-family="sans-serif" font-size="13" font-weight="bold" lengthAdjust="spacing" textLength="7.23" x="246.2559" y="142.9404">2</text><text fill="#000000" font-family="sans-serif" font-size="13" lengthAdjust="spacing" textLength="54.1899" x="257.4858" y="142.9404">execute()</text></g><g class="message" data-entity-1="part3" data-entity-2="part4" id="msg3"><polygon fill="#181818" points="807.7114,175.4941,817.7114,179.4941,807.7114,183.4941,811.7114,179.4941" style="stroke:#181818;stroke-width:1;"/><line style="stroke:#181818;stroke-width:1;" x1="645.0327" x2="813.7114" y1="179.4941" y2="179.4941"/><text fill="#000000" font-family="sans-serif" font-size="13" font-weight="bold" lengthAdjust="spacing" textLength="7.23" x="652.0327" y="174.2314">3</text><text fill="#000000" font-family="sans-serif" font-size="13" lengthAdjust="spacing" textLength="106.9199" x="663.2627" y="174.2314">findByActiveTrue()</text></g><g class="message" data-entity-1="part4" data-entity-2="part5" id="msg4"><polygon fill="#181818" points="1132.2148,206.7852,1142.2148,210.7852,1132.2148,214.7852,1136.2148,210.7852" style="stroke:#181818;stroke-width:1;"/><line style="stroke:#181818;stroke-width:1;" x1="829.7114" x2="1138.2148" y1="210.7852" y2="210.7852"/><text fill="#000000" font-family="sans-serif" font-size="13" font-weight="bold" lengthAdjust="spacing" textLength="7.23" x="836.7114" y="205.5225">4</text><text fill="#000000" font-family="sans-serif" font-size="13" lengthAdjust="spacing" textLength="284.2734" x="847.9414" y="205.5225">SELECT * FROM routes WHERE is_active = true</text></g><g class="message" data-entity-1="part5" data-entity-2="part4" id="msg5"><polygon fill="#181818" points="840.7114,238.0762,830.7114,242.0762,840.7114,246.0762,836.7114,242.0762" style="stroke:#181818;stroke-width:1;"/><line style="stroke:#181818;stroke-width:1;stroke-dasharray:2,2;" x1="834.7114" x2="1148.2148" y1="242.0762" y2="242.0762"/><text fill="#000000" font-family="sans-serif" font-size="13" font-weight="bold" lengthAdjust="spacing" textLength="7.23" x="846.7114" y="236.8135">5</text><text fill="#000000" font-family="sans-serif" font-size="13" lengthAdjust="spacing" textLength="107.6563" x="857.9414" y="236.8135">list of active routes</text></g><g class="message" data-entity-1="part4" data-entity-2="part3" id="msg6"><polygon fill="#181818" points="656.0327,269.3672,646.0327,273.3672,656.0327,277.3672,652.0327,273.3672" style="stroke:#181818;stroke-width:1;"/><line style="stroke:#181818;stroke-width:1;stroke-dasharray:2,2;" x1="650.0327" x2="823.7114" y1="273.3672" y2="273.3672"/><text fill="#000000" font-family="sans-serif" font-size="13" font-weight="bold" lengthAdjust="spacing" textLength="7.23" x="662.0327" y="268.1045">6</text><text fill="#000000" font-family="sans-serif" font-size="13" lengthAdjust="spacing" textLength="70.1035" x="673.2627" y="268.1045">List&lt;Route&gt;</text></g><path d="M650,286.3672 L650,347.3672 L879,347.3672 L879,296.3672 L869,286.3672 L650,286.3672" fill="#FEFFDD" style="stroke:#181818;stroke-width:0.5;"/><path d="M869,286.3672 L869,296.3672 L879,296.3672 L869,286.3672" fill="#FEFFDD" style="stroke:#181818;stroke-width:0.5;"/><text fill="#000000" font-family="sans-serif" font-size="13" lengthAdjust="spacing" textLength="194.3716" x="656" y="305.3955">For each Route, extracts distance</text><text fill="#000000" font-family="sans-serif" font-size="13" lengthAdjust="spacing" textLength="172.6753" x="656" y="322.6865">from its current RouteVersion.</text><text fill="#000000" font-family="sans-serif" font-size="13" lengthAdjust="spacing" textLength="208.1016" x="656" y="339.9775">Sums all distances to compute total.</text><g class="message" data-entity-1="part3" data-entity-2="part2" id="msg7"><polygon fill="#181818" points="250.2559,372.5313,240.2559,376.5313,250.2559,380.5313,246.2559,376.5313" style="stroke:#181818;stroke-width:1;"/><line style="stroke:#181818;stroke-width:1;stroke-dasharray:2,2;" x1="244.2559" x2="639.0327" y1="376.5313" y2="376.5313"/><text fill="#000000" font-family="sans-serif" font-size="13" font-weight="bold" lengthAdjust="spacing" textLength="7.23" x="256.2559" y="371.2686">7</text><text fill="#000000" font-family="sans-serif" font-size="13" lengthAdjust="spacing" textLength="360.5469" x="267.4858" y="371.2686">TotalNetworkDistanceResponse(totalDistanceKm, routeCount)</text></g><g class="message" data-entity-1="part2" data-entity-2="part1" id="msg8"><polygon fill="#181818" points="38.0552,403.8223,28.0552,407.8223,38.0552,411.8223,34.0552,407.8223" style="stroke:#181818;stroke-width:1;"/><line style="stroke:#181818;stroke-width:1;stroke-dasharray:2,2;" x1="32.0552" x2="233.2559" y1="407.8223" y2="407.8223"/><text fill="#000000" font-family="sans-serif" font-size="13" font-weight="bold" lengthAdjust="spacing" textLength="7.23" x="44.0552" y="402.5596">8</text><text fill="#000000" font-family="sans-serif" font-size="13" lengthAdjust="spacing" textLength="153.1753" x="55.2852" y="402.5596">200 OK (JSON Response)</text></g><?plantuml-src RP9BJ-im48Nt_XMZhWgY5DrbnQr4tG2wF2gb2MoGa4cdO97OaJtXyU_lUDBILcBdn_cEpypOTEHTrxnWKAOY7s1mKMWz01CXBLHh0jdAjiOH37BV4MhlAFYwnY0gJQ4-L5qX5PvCVO_qwSFxt4Oohi8oeZOH1If_CywnzT5oXc_HfArQ6J8lJC5Wlbd9tNocL8e7ewa4W0bSPGMCJMl78Nd5CQK8ezNcyLIS_J24VLub4CEbPXI_i69cUBHJSK1LYdsAmPgrTQlPzqMwno9q1s99AZhMpsUiNcQtcIxW62xpnHtqYU3nEiipiF5PG8I_G6oqi-6Y61xjtgmvFFWrRFIzZLhXFj4_kwtabebpQUPqNoS1bVEy3FRrJKnBFO5BdZUhta2G4su41OOYRDlsvDR1Ds3vgEf2G9wLI1ymHElTwPDRTaq4KzS_I0JoKFccPHd844xxLkv6zTllo36staKS2h8zlMbE-hArxnmTxTUK9jHFaOtbBqpWpzaPB6vW-6-vk8Ujum6LYFy0?></g></svg>