<svg xmlns="http://www.w3.org/2000/svg" xmlns:xlink="http://www.w3.org/1999/xlink" contentStyleType="text/css" data-diagram-type="SEQUENCE" height="321px" preserveAspectRatio="none" style="width:518px;height:321px;background:#FFFFFF;" version="1.1" viewBox="0 0 518 321" width="518px" zoomAndPan="magnify"><defs/><g><g><title>ATCC</title><rect fill="#FFFFFF" height="126.4551" style="stroke:#181818;stroke-width:1;" width="10" x="22.0552" y="93.6211"/></g><g><title>.System</title><rect fill="#FFFFFF" height="103.1641" style="stroke:#181818;stroke-width:1;" width="10" x="269.623" y="116.9121"/></g><g><title>ATCC</title><rect fill="#000000" fill-opacity="0.00000" height="154.4551" width="8" x="23.0552" y="83.6211"/><line style="stroke:#181818;stroke-width:0.5;stroke-dasharray:5,5;" x1="27" x2="27" y1="83.6211" y2="238.0762"/></g><g><title>.System</title><rect fill="#000000" fill-opacity="0.00000" height="154.4551" width="8" x="270.623" y="83.6211"/><line style="stroke:#181818;stroke-width:0.5;stroke-dasharray:5,5;" x1="274.3403" x2="274.3403" y1="83.6211" y2="238.0762"/></g><g class="participant participant-head" data-participant="ATCC"><text fill="#000000" font-family="sans-serif" font-size="14" lengthAdjust="spacing" textLength="38.1104" x="5" y="80.1074">ATCC</text><ellipse cx="27.0552" cy="13.5" fill="#E2E2F0" rx="8" ry="8" style="stroke:#181818;stroke-width:0.5;"/><path d="M27.0552,21.5 L27.0552,48.5 M14.0552,29.5 L40.0552,29.5 M27.0552,48.5 L14.0552,63.5 M27.0552,48.5 L40.0552,63.5" fill="none" style="stroke:#181818;stroke-width:0.5;"/></g><g class="participant participant-tail" data-participant="ATCC"><text fill="#000000" font-family="sans-serif" font-size="14" lengthAdjust="spacing" textLength="38.1104" x="5" y="252.1836">ATCC</text><ellipse cx="27.0552" cy="264.1973" fill="#E2E2F0" rx="8" ry="8" style="stroke:#181818;stroke-width:0.5;"/><path d="M27.0552,272.1973 L27.0552,299.1973 M14.0552,280.1973 L40.0552,280.1973 M27.0552,299.1973 L14.0552,314.1973 M27.0552,299.1973 L40.0552,314.1973" fill="none" style="stroke:#181818;stroke-width:0.5;"/></g><g class="participant participant-head" data-participant="System"><rect fill="#E2E2F0" height="32.6211" rx="2.5" ry="2.5" style="stroke:#181818;stroke-width:0.5;" width="64.5654" x="242.3403" y="50"/><text fill="#000000" font-family="sans-serif" font-size="14" lengthAdjust="spacing" textLength="50.5654" x="249.3403" y="72.1074">:System</text></g><g class="participant participant-tail" data-participant="System"><rect fill="#E2E2F0" height="32.6211" rx="2.5" ry="2.5" style="stroke:#181818;stroke-width:0.5;" width="64.5654" x="242.3403" y="237.0762"/><text fill="#000000" font-family="sans-serif" font-size="14" lengthAdjust="spacing" textLength="50.5654" x="249.3403" y="259.1836">:System</text></g><g><title>ATCC</title><rect fill="#FFFFFF" height="126.4551" style="stroke:#181818;stroke-width:1;" width="10" x="22.0552" y="93.6211"/></g><g><title>.System</title><rect fill="#FFFFFF" height="103.1641" style="stroke:#181818;stroke-width:1;" width="10" x="269.623" y="116.9121"/></g><g class="message" data-participant-1="ATCC" data-participant-2="System"><polygon fill="#181818" points="257.623,112.9121,267.623,116.9121,257.623,120.9121,261.623,116.9121" style="stroke:#181818;stroke-width:1;"/><line style="stroke:#181818;stroke-width:1;" x1="32.0552" x2="263.623" y1="116.9121" y2="116.9121"/><text fill="#000000" font-family="sans-serif" font-size="13" font-weight="bold" lengthAdjust="spacing" textLength="7.23" x="39.0552" y="111.6494">1</text><text fill="#000000" font-family="sans-serif" font-size="13" lengthAdjust="spacing" textLength="92.4854" x="50.2852" y="111.6494">getFleetStatus()</text></g><path d="M284,129.9121 L284,190.9121 L511,190.9121 L511,139.9121 L501,129.9121 L284,129.9121" fill="#FEFFDD" style="stroke:#181818;stroke-width:0.5;"/><path d="M501,129.9121 L501,139.9121 L511,139.9121 L501,129.9121" fill="#FEFFDD" style="stroke:#181818;stroke-width:0.5;"/><text fill="#000000" font-family="sans-serif" font-size="13" lengthAdjust="spacing" textLength="204.4644" x="290" y="148.9404">The system fetches all fleet aircraft,</text><text fill="#000000" font-family="sans-serif" font-size="13" lengthAdjust="spacing" textLength="199.4497" x="290" y="166.2314">groups them by operational status,</text><text fill="#000000" font-family="sans-serif" font-size="13" lengthAdjust="spacing" textLength="206.6924" x="290" y="183.5225">and computes the dashboard totals.</text><g class="message" data-participant-1="System" data-participant-2="ATCC"><polygon fill="#181818" points="38.0552,216.0762,28.0552,220.0762,38.0552,224.0762,34.0552,220.0762" style="stroke:#181818;stroke-width:1;"/><line style="stroke:#181818;stroke-width:1;stroke-dasharray:2,2;" x1="32.0552" x2="273.623" y1="220.0762" y2="220.0762"/><text fill="#000000" font-family="sans-serif" font-size="13" font-weight="bold" lengthAdjust="spacing" textLength="7.23" x="44.0552" y="214.8135">2</text><text fill="#000000" font-family="sans-serif" font-size="13" lengthAdjust="spacing" textLength="202.3379" x="55.2852" y="214.8135">returns fleet total and status counts</text></g><!--SRC=[NOz1QiGm34NtFiKdgnOwFK0MXJBG2ymikr4S9JOuTf3amjo-SPBIqesHfQSdYQgLN9U1nP6t8kZUxzTh1rAqmAqa5drSAHkw_lPGusMl7g5hNV6BZ0-yFRYydLNqcDa-4hFTZApgq_Cl_oF8PVj8d8EXJ6Usnpqmz91CR3wmWbB2r5oWA5veifVFF4kfgyB21WuFb9M5B9PC2RgFt1ZA8tnPrcgyanX9mr18HbWnIlhgtBdmPTjzlw67i5N9UexSGJJJeTs4DPkwaVyVz2VJJDy0]--></g></svg>