<?plantuml 1.2026.2?><svg xmlns="http://www.w3.org/2000/svg" xmlns:xlink="http://www.w3.org/1999/xlink" contentStyleType="text/css" data-diagram-type="SEQUENCE" height="591.5px" preserveAspectRatio="none" style="width:1238px;height:591px;background:#FFFFFF;" version="1.1" viewBox="0 0 1238 591" width="1238.3px" zoomAndPan="magnify"><defs/><g><g><title>RouteController</title><rect fill="#FFFFFF" height="439.3854" style="stroke:#181818;stroke-width:0.7;" width="7" x="274.8023" y="81.8385"/></g><g><title>SearchAlternativeRoutesUseCase</title><rect fill="#FFFFFF" height="395.5779" style="stroke:#181818;stroke-width:0.7;" width="7" x="625.652" y="103.7422"/></g><g><title>RouteRepository</title><rect fill="#FFFFFF" height="89.9186" style="stroke:#181818;stroke-width:0.7;" width="7" x="976.0365" y="125.6459"/></g><g><title>RouteRepository</title><rect fill="#FFFFFF" height="77.8148" style="stroke:#181818;stroke-width:0.7;" width="7" x="976.0365" y="237.4682"/></g><g><title>RouteRepository</title><rect fill="#FFFFFF" height="77.8148" style="stroke:#181818;stroke-width:0.7;" width="7" x="976.0365" y="337.1867"/></g><g><title>Database</title><rect fill="#FFFFFF" height="21.9037" style="stroke:#181818;stroke-width:0.7;" width="7" x="1210.5649" y="171.757"/></g><g><title>Database</title><rect fill="#FFFFFF" height="21.9037" style="stroke:#181818;stroke-width:0.7;" width="7" x="1210.5649" y="271.4756"/></g><g><title>Database</title><rect fill="#FFFFFF" height="21.9037" style="stroke:#181818;stroke-width:0.7;" width="7" x="1210.5649" y="371.1941"/></g><g class="participant-lifeline" data-entity-uid="part1" data-qualified-name="ATCC" id="part1-lifeline"><g><title>ATCC</title><rect fill="#000000" fill-opacity="0.00000" height="475.2891" width="5.6" x="16.1386" y="58.5348"/><line style="stroke:#181818;stroke-width:0.35;stroke-dasharray:3.5,3.5;" x1="18.9" x2="18.9" y1="58.5348" y2="533.8238"/></g></g><g class="participant-lifeline" data-entity-uid="part2" data-qualified-name="Ctrl" id="part2-lifeline"><g><title>RouteController</title><rect fill="#000000" fill-opacity="0.00000" height="475.2891" width="5.6" x="275.5023" y="58.5348"/><line style="stroke:#181818;stroke-width:0.35;stroke-dasharray:3.5,3.5;" x1="278.2855" x2="278.2855" y1="58.5348" y2="533.8238"/></g></g><g class="participant-lifeline" data-entity-uid="part3" data-qualified-name="UC" id="part3-lifeline"><g><title>SearchAlternativeRoutesUseCase</title><rect fill="#000000" fill-opacity="0.00000" height="475.2891" width="5.6" x="626.352" y="58.5348"/><line style="stroke:#181818;stroke-width:0.35;stroke-dasharray:3.5,3.5;" x1="628.9979" x2="628.9979" y1="58.5348" y2="533.8238"/></g></g><g class="participant-lifeline" data-entity-uid="part4" data-qualified-name="Repo" id="part4-lifeline"><g><title>RouteRepository</title><rect fill="#000000" fill-opacity="0.00000" height="475.2891" width="5.6" x="976.7365" y="58.5348"/><line style="stroke:#181818;stroke-width:0.35;stroke-dasharray:3.5,3.5;" x1="979.4401" x2="979.4401" y1="58.5348" y2="533.8238"/></g></g><g class="participant-lifeline" data-entity-uid="part5" data-qualified-name="DB" id="part5-lifeline"><g><title>Database</title><rect fill="#000000" fill-opacity="0.00000" height="475.2891" width="5.6" x="1211.2649" y="58.5348"/><line style="stroke:#181818;stroke-width:0.35;stroke-dasharray:3.5,3.5;" x1="1213.3892" x2="1213.3892" y1="58.5348" y2="533.8238"/></g></g><g class="participant participant-head" data-entity-uid="part1" data-qualified-name="ATCC" id="part1-head"><text fill="#000000" font-family="sans-serif" font-size="9.8" lengthAdjust="spacing" textLength="26.6772" x="3.5" y="56.0752">ATCC</text><ellipse cx="18.9386" cy="9.45" fill="#E2E2F0" rx="5.6" ry="5.6" style="stroke:#181818;stroke-width:0.35;"/><path d="M18.9386,15.05 L18.9386,33.95 M9.8386,20.65 L28.0386,20.65 M18.9386,33.95 L9.8386,44.45 M18.9386,33.95 L28.0386,44.45" fill="none" style="stroke:#181818;stroke-width:0.35;"/></g><g class="participant participant-tail" data-entity-uid="part1" data-qualified-name="ATCC" id="part1-tail"><text fill="#000000" font-family="sans-serif" font-size="9.8" lengthAdjust="spacing" textLength="26.6772" x="3.5" y="543.699">ATCC</text><ellipse cx="18.9386" cy="552.1086" fill="#E2E2F0" rx="5.6" ry="5.6" style="stroke:#181818;stroke-width:0.35;"/><path d="M18.9386,557.7086 L18.9386,576.6086 M9.8386,563.3086 L28.0386,563.3086 M18.9386,576.6086 L9.8386,587.1086 M18.9386,576.6086 L28.0386,587.1086" fill="none" style="stroke:#181818;stroke-width:0.35;"/></g><g class="participant participant-head" data-entity-uid="part2" data-qualified-name="Ctrl" id="part2-head"><rect fill="#E2E2F0" height="22.8348" rx="1.75" ry="1.75" style="stroke:#181818;stroke-width:0.35;" width="78.4335" x="239.0855" y="35"/><text fill="#000000" font-family="sans-serif" font-size="9.8" lengthAdjust="spacing" textLength="68.6335" x="243.9855" y="50.4752">RouteController</text></g><g class="participant participant-tail" data-entity-uid="part2" data-qualified-name="Ctrl" id="part2-tail"><rect fill="#E2E2F0" height="22.8348" rx="1.75" ry="1.75" style="stroke:#181818;stroke-width:0.35;" width="78.4335" x="239.0855" y="533.1238"/><text fill="#000000" font-family="sans-serif" font-size="9.8" lengthAdjust="spacing" textLength="68.6335" x="243.9855" y="548.599">RouteController</text></g><g class="participant participant-head" data-entity-uid="part3" data-qualified-name="UC" id="part3-head"><rect fill="#E2E2F0" height="22.8348" rx="1.75" ry="1.75" style="stroke:#181818;stroke-width:0.35;" width="158.5083" x="549.8979" y="35"/><text fill="#000000" font-family="sans-serif" font-size="9.8" lengthAdjust="spacing" textLength="148.7083" x="554.7979" y="50.4752">SearchAlternativeRoutesUseCase</text></g><g class="participant participant-tail" data-entity-uid="part3" data-qualified-name="UC" id="part3-tail"><rect fill="#E2E2F0" height="22.8348" rx="1.75" ry="1.75" style="stroke:#181818;stroke-width:0.35;" width="158.5083" x="549.8979" y="533.1238"/><text fill="#000000" font-family="sans-serif" font-size="9.8" lengthAdjust="spacing" textLength="148.7083" x="554.7979" y="548.599">SearchAlternativeRoutesUseCase</text></g><g class="participant participant-head" data-entity-uid="part4" data-qualified-name="Repo" id="part4-head"><rect fill="#E2E2F0" height="22.8348" rx="1.75" ry="1.75" style="stroke:#181818;stroke-width:0.35;" width="82.7928" x="938.1401" y="35"/><text fill="#000000" font-family="sans-serif" font-size="9.8" lengthAdjust="spacing" textLength="72.9928" x="943.0401" y="50.4752">RouteRepository</text></g><g class="participant participant-tail" data-entity-uid="part4" data-qualified-name="Repo" id="part4-tail"><rect fill="#E2E2F0" height="22.8348" rx="1.75" ry="1.75" style="stroke:#181818;stroke-width:0.35;" width="82.7928" x="938.1401" y="533.1238"/><text fill="#000000" font-family="sans-serif" font-size="9.8" lengthAdjust="spacing" textLength="72.9928" x="943.0401" y="548.599">RouteRepository</text></g><g class="participant participant-head" data-entity-uid="part5" data-qualified-name="DB" id="part5-head"><text fill="#000000" font-family="sans-serif" font-size="9.8" lengthAdjust="spacing" textLength="41.9515" x="1190.9892" y="56.0752">Database</text><path d="M1201.4649,20.3 C1201.4649,13.3 1214.0649,13.3 1214.0649,13.3 C1214.0649,13.3 1226.6649,13.3 1226.6649,20.3 L1226.6649,38.5 C1226.6649,45.5 1214.0649,45.5 1214.0649,45.5 C1214.0649,45.5 1201.4649,45.5 1201.4649,38.5 L1201.4649,20.3" fill="#E2E2F0" style="stroke:#181818;stroke-width:0.35;"/><path d="M1201.4649,20.3 C1201.4649,27.3 1214.0649,27.3 1214.0649,27.3 C1214.0649,27.3 1226.6649,27.3 1226.6649,20.3" fill="none" style="stroke:#181818;stroke-width:0.35;"/></g><g class="participant participant-tail" data-entity-uid="part5" data-qualified-name="DB" id="part5-tail"><text fill="#000000" font-family="sans-serif" font-size="9.8" lengthAdjust="spacing" textLength="41.9515" x="1190.9892" y="543.699">Database</text><path d="M1201.4649,553.1586 C1201.4649,546.1586 1214.0649,546.1586 1214.0649,546.1586 C1214.0649,546.1586 1226.6649,546.1586 1226.6649,553.1586 L1226.6649,571.3586 C1226.6649,578.3586 1214.0649,578.3586 1214.0649,578.3586 C1214.0649,578.3586 1201.4649,578.3586 1201.4649,571.3586 L1201.4649,553.1586" fill="#E2E2F0" style="stroke:#181818;stroke-width:0.35;"/><path d="M1201.4649,553.1586 C1201.4649,560.1586 1214.0649,560.1586 1214.0649,560.1586 C1214.0649,560.1586 1226.6649,560.1586 1226.6649,553.1586" fill="none" style="stroke:#181818;stroke-width:0.35;"/></g><g><title>RouteController</title><rect fill="#FFFFFF" height="439.3854" style="stroke:#181818;stroke-width:0.7;" width="7" x="274.8023" y="81.8385"/></g><g><title>SearchAlternativeRoutesUseCase</title><rect fill="#FFFFFF" height="395.5779" style="stroke:#181818;stroke-width:0.7;" width="7" x="625.652" y="103.7422"/></g><g><title>RouteRepository</title><rect fill="#FFFFFF" height="89.9186" style="stroke:#181818;stroke-width:0.7;" width="7" x="976.0365" y="125.6459"/></g><g><title>RouteRepository</title><rect fill="#FFFFFF" height="77.8148" style="stroke:#181818;stroke-width:0.7;" width="7" x="976.0365" y="237.4682"/></g><g><title>RouteRepository</title><rect fill="#FFFFFF" height="77.8148" style="stroke:#181818;stroke-width:0.7;" width="7" x="976.0365" y="337.1867"/></g><g><title>Database</title><rect fill="#FFFFFF" height="21.9037" style="stroke:#181818;stroke-width:0.7;" width="7" x="1210.5649" y="171.757"/></g><g><title>Database</title><rect fill="#FFFFFF" height="21.9037" style="stroke:#181818;stroke-width:0.7;" width="7" x="1210.5649" y="271.4756"/></g><g><title>Database</title><rect fill="#FFFFFF" height="21.9037" style="stroke:#181818;stroke-width:0.7;" width="7" x="1210.5649" y="371.1941"/></g><g class="message" data-entity-1="part1" data-entity-2="part2" id="msg1"><polygon fill="#181818" points="266.4023,79.0385,273.4023,81.8385,266.4023,84.6385,269.2023,81.8385" style="stroke:#181818;stroke-width:0.7;"/><line style="stroke:#181818;stroke-width:0.7;" x1="18.9386" x2="270.6023" y1="81.8385" y2="81.8385"/><text fill="#000000" font-family="sans-serif" font-size="9.1" font-weight="bold" lengthAdjust="spacing" textLength="5.061" x="23.8386" y="78.1546">1</text><text fill="#000000" font-family="sans-serif" font-size="9.1" lengthAdjust="spacing" textLength="234.7027" x="31.6996" y="78.1546">GET /api/routes/alternatives?origin=LIS&amp;destination=MAD</text></g><g class="message" data-entity-1="part2" data-entity-2="part3" id="msg2"><polygon fill="#181818" points="617.252,100.9422,624.252,103.7422,617.252,106.5422,620.052,103.7422" style="stroke:#181818;stroke-width:0.7;"/><line style="stroke:#181818;stroke-width:0.7;" x1="281.8023" x2="621.452" y1="103.7422" y2="103.7422"/><text fill="#000000" font-family="sans-serif" font-size="9.1" font-weight="bold" lengthAdjust="spacing" textLength="5.061" x="286.7023" y="100.0583">2</text><text fill="#000000" font-family="sans-serif" font-size="9.1" lengthAdjust="spacing" textLength="152.7716" x="294.5633" y="100.0583">execute(originCode, destinationCode)</text></g><g class="message" data-entity-1="part3" data-entity-2="part4" id="msg3"><polygon fill="#181818" points="967.6365,122.8459,974.6365,125.6459,967.6365,128.4459,970.4365,125.6459" style="stroke:#181818;stroke-width:0.7;"/><line style="stroke:#181818;stroke-width:0.7;" x1="632.652" x2="971.8365" y1="125.6459" y2="125.6459"/><text fill="#000000" font-family="sans-serif" font-size="9.1" font-weight="bold" lengthAdjust="spacing" textLength="5.061" x="637.552" y="121.962">3</text><text fill="#000000" font-family="sans-serif" font-size="9.1" lengthAdjust="spacing" textLength="322.2235" x="645.413" y="121.962">findByOriginIataCodeAndDestinationIataCodeAndActiveTrue(origin, destination)</text></g><g class="message" data-entity-1="part4" data-entity-2="part5" id="msg4"><polygon fill="#181818" points="1202.1649,168.957,1209.1649,171.757,1202.1649,174.557,1204.9649,171.757" style="stroke:#181818;stroke-width:0.7;"/><line style="stroke:#181818;stroke-width:0.7;" x1="983.0365" x2="1206.3649" y1="171.757" y2="171.757"/><text fill="#000000" font-family="sans-serif" font-size="9.1" font-weight="bold" lengthAdjust="spacing" textLength="5.061" x="987.9365" y="155.9694">4</text><text fill="#000000" font-family="sans-serif" font-size="9.1" lengthAdjust="spacing" textLength="98.607" x="995.7975" y="143.8657">SELECT * FROM routes</text><text fill="#000000" font-family="sans-serif" font-size="9.1" lengthAdjust="spacing" textLength="197.2718" x="995.7975" y="155.9694">WHERE origin_iata = ? AND destination_iata = ?</text><text fill="#000000" font-family="sans-serif" font-size="9.1" lengthAdjust="spacing" textLength="83.1975" x="995.7975" y="168.0731">AND is_active = true</text></g><g class="message" data-entity-1="part5" data-entity-2="part4" id="msg5"><polygon fill="#181818" points="990.7365,190.8607,983.7365,193.6607,990.7365,196.4607,987.9365,193.6607" style="stroke:#181818;stroke-width:0.7;"/><line style="stroke:#181818;stroke-width:0.7;stroke-dasharray:1.4,1.4;" x1="986.5365" x2="1213.3649" y1="193.6607" y2="193.6607"/><text fill="#000000" font-family="sans-serif" font-size="9.1" font-weight="bold" lengthAdjust="spacing" textLength="5.061" x="994.9365" y="189.9769">5</text><text fill="#000000" font-family="sans-serif" font-size="9.1" lengthAdjust="spacing" textLength="50.0722" x="1002.7975" y="189.9769">direct routes</text></g><g class="message" data-entity-1="part4" data-entity-2="part3" id="msg6"><polygon fill="#181818" points="640.352,212.7645,633.352,215.5645,640.352,218.3645,637.552,215.5645" style="stroke:#181818;stroke-width:0.7;"/><line style="stroke:#181818;stroke-width:0.7;stroke-dasharray:1.4,1.4;" x1="636.152" x2="978.8365" y1="215.5645" y2="215.5645"/><text fill="#000000" font-family="sans-serif" font-size="9.1" font-weight="bold" lengthAdjust="spacing" textLength="5.061" x="644.552" y="211.8806">6</text><text fill="#000000" font-family="sans-serif" font-size="9.1" lengthAdjust="spacing" textLength="108.7468" x="652.413" y="211.8806">List&lt;Route&gt; (directRoutes)</text></g><g class="message" data-entity-1="part3" data-entity-2="part4" id="msg7"><polygon fill="#181818" points="967.6365,234.6682,974.6365,237.4682,967.6365,240.2682,970.4365,237.4682" style="stroke:#181818;stroke-width:0.7;"/><line style="stroke:#181818;stroke-width:0.7;" x1="632.652" x2="971.8365" y1="237.4682" y2="237.4682"/><text fill="#000000" font-family="sans-serif" font-size="9.1" font-weight="bold" lengthAdjust="spacing" textLength="5.061" x="637.552" y="233.7843">7</text><text fill="#000000" font-family="sans-serif" font-size="9.1" lengthAdjust="spacing" textLength="196.2543" x="645.413" y="233.7843">findByOriginIataCodeAndActiveTrue(originCode)</text></g><g class="message" data-entity-1="part4" data-entity-2="part5" id="msg8"><polygon fill="#181818" points="1202.1649,268.6756,1209.1649,271.4756,1202.1649,274.2756,1204.9649,271.4756" style="stroke:#181818;stroke-width:0.7;"/><line style="stroke:#181818;stroke-width:0.7;" x1="983.0365" x2="1206.3649" y1="271.4756" y2="271.4756"/><text fill="#000000" font-family="sans-serif" font-size="9.1" font-weight="bold" lengthAdjust="spacing" textLength="5.061" x="987.9365" y="261.7398">8</text><text fill="#000000" font-family="sans-serif" font-size="9.1" lengthAdjust="spacing" textLength="98.607" x="995.7975" y="255.688">SELECT * FROM routes</text><text fill="#000000" font-family="sans-serif" font-size="9.1" lengthAdjust="spacing" textLength="179.5473" x="995.7975" y="267.7917">WHERE origin_iata = ? AND is_active = true</text></g><g class="message" data-entity-1="part5" data-entity-2="part4" id="msg9"><polygon fill="#181818" points="990.7365,290.5793,983.7365,293.3793,990.7365,296.1793,987.9365,293.3793" style="stroke:#181818;stroke-width:0.7;"/><line style="stroke:#181818;stroke-width:0.7;stroke-dasharray:1.4,1.4;" x1="986.5365" x2="1213.3649" y1="293.3793" y2="293.3793"/><text fill="#000000" font-family="sans-serif" font-size="9.1" font-weight="bold" lengthAdjust="spacing" textLength="5.061" x="994.9365" y="289.6954">9</text><text fill="#000000" font-family="sans-serif" font-size="9.1" lengthAdjust="spacing" textLength="57.6526" x="1002.7975" y="289.6954">first-leg routes</text></g><g class="message" data-entity-1="part4" data-entity-2="part3" id="msg10"><polygon fill="#181818" points="640.352,312.483,633.352,315.283,640.352,318.083,637.552,315.283" style="stroke:#181818;stroke-width:0.7;"/><line style="stroke:#181818;stroke-width:0.7;stroke-dasharray:1.4,1.4;" x1="636.152" x2="978.8365" y1="315.283" y2="315.283"/><text fill="#000000" font-family="sans-serif" font-size="9.1" font-weight="bold" lengthAdjust="spacing" textLength="10.122" x="644.552" y="311.5991">10</text><text fill="#000000" font-family="sans-serif" font-size="9.1" lengthAdjust="spacing" textLength="100.1355" x="657.474" y="311.5991">List&lt;Route&gt; (fromOrigin)</text></g><g class="message" data-entity-1="part3" data-entity-2="part4" id="msg11"><polygon fill="#181818" points="967.6365,334.3867,974.6365,337.1867,967.6365,339.9867,970.4365,337.1867" style="stroke:#181818;stroke-width:0.7;"/><line style="stroke:#181818;stroke-width:0.7;" x1="632.652" x2="971.8365" y1="337.1867" y2="337.1867"/><text fill="#000000" font-family="sans-serif" font-size="9.1" font-weight="bold" lengthAdjust="spacing" textLength="10.122" x="637.552" y="333.5028">11</text><text fill="#000000" font-family="sans-serif" font-size="9.1" lengthAdjust="spacing" textLength="239.266" x="650.474" y="333.5028">findByDestinationIataCodeAndActiveTrue(destinationCode)</text></g><g class="message" data-entity-1="part4" data-entity-2="part5" id="msg12"><polygon fill="#181818" points="1202.1649,368.3941,1209.1649,371.1941,1202.1649,373.9941,1204.9649,371.1941" style="stroke:#181818;stroke-width:0.7;"/><line style="stroke:#181818;stroke-width:0.7;" x1="983.0365" x2="1206.3649" y1="371.1941" y2="371.1941"/><text fill="#000000" font-family="sans-serif" font-size="9.1" font-weight="bold" lengthAdjust="spacing" textLength="10.122" x="987.9365" y="361.4584">12</text><text fill="#000000" font-family="sans-serif" font-size="9.1" lengthAdjust="spacing" textLength="98.607" x="1000.8585" y="355.4065">SELECT * FROM routes</text><text fill="#000000" font-family="sans-serif" font-size="9.1" lengthAdjust="spacing" textLength="201.3064" x="1000.8585" y="367.5103">WHERE destination_iata = ? AND is_active = true</text></g><g class="message" data-entity-1="part5" data-entity-2="part4" id="msg13"><polygon fill="#181818" points="990.7365,390.2979,983.7365,393.0979,990.7365,395.8979,987.9365,393.0979" style="stroke:#181818;stroke-width:0.7;"/><line style="stroke:#181818;stroke-width:0.7;stroke-dasharray:1.4,1.4;" x1="986.5365" x2="1213.3649" y1="393.0979" y2="393.0979"/><text fill="#000000" font-family="sans-serif" font-size="9.1" font-weight="bold" lengthAdjust="spacing" textLength="10.122" x="994.9365" y="389.414">13</text><text fill="#000000" font-family="sans-serif" font-size="9.1" lengthAdjust="spacing" textLength="72.3379" x="1007.8585" y="389.414">second-leg routes</text></g><g class="message" data-entity-1="part4" data-entity-2="part3" id="msg14"><polygon fill="#181818" points="640.352,412.2016,633.352,415.0016,640.352,417.8016,637.552,415.0016" style="stroke:#181818;stroke-width:0.7;"/><line style="stroke:#181818;stroke-width:0.7;stroke-dasharray:1.4,1.4;" x1="636.152" x2="978.8365" y1="415.0016" y2="415.0016"/><text fill="#000000" font-family="sans-serif" font-size="9.1" font-weight="bold" lengthAdjust="spacing" textLength="10.122" x="644.552" y="411.3177">14</text><text fill="#000000" font-family="sans-serif" font-size="9.1" lengthAdjust="spacing" textLength="110.7774" x="657.474" y="411.3177">List&lt;Route&gt; (toDestination)</text></g><path d="M635.6,424.1016 L635.6,479.4016 L914.2,479.4016 L914.2,431.1016 L907.2,424.1016 L635.6,424.1016" fill="#FEFFDD" style="stroke:#181818;stroke-width:0.35;"/><path d="M907.2,424.1016 L907.2,431.1016 L914.2,431.1016 L907.2,424.1016" fill="#FEFFDD" style="stroke:#181818;stroke-width:0.35;"/><text fill="#000000" font-family="sans-serif" font-size="9.1" lengthAdjust="spacing" textLength="175.5127" x="639.8" y="437.4214">Groups toDestination routes by origin IATA.</text><text fill="#000000" font-family="sans-serif" font-size="9.1" lengthAdjust="spacing" textLength="166.9192" x="639.8" y="449.5251">For each first-leg route whose destination</text><text fill="#000000" font-family="sans-serif" font-size="9.1" lengthAdjust="spacing" textLength="116.3405" x="639.8" y="461.6288">matches a second-leg origin,</text><text fill="#000000" font-family="sans-serif" font-size="9.1" lengthAdjust="spacing" textLength="264.0466" x="639.8" y="473.7325">creates an AlternativeRouteChain(firstLeg, secondLeg, stopover).</text><g class="message" data-entity-1="part3" data-entity-2="part2" id="msg15"><polygon fill="#181818" points="289.5023,496.5201,282.5023,499.3201,289.5023,502.1201,286.7023,499.3201" style="stroke:#181818;stroke-width:0.7;"/><line style="stroke:#181818;stroke-width:0.7;stroke-dasharray:1.4,1.4;" x1="285.3023" x2="628.452" y1="499.3201" y2="499.3201"/><text fill="#000000" font-family="sans-serif" font-size="9.1" font-weight="bold" lengthAdjust="spacing" textLength="10.122" x="293.7023" y="495.6362">15</text><text fill="#000000" font-family="sans-serif" font-size="9.1" lengthAdjust="spacing" textLength="314.1277" x="306.6243" y="495.6362">AlternativeRoutesResponse(origin, destination, directRoutes, oneStopRoutes)</text></g><g class="message" data-entity-1="part2" data-entity-2="part1" id="msg16"><polygon fill="#181818" points="26.6386,518.4238,19.6386,521.2238,26.6386,524.0238,23.8386,521.2238" style="stroke:#181818;stroke-width:0.7;"/><line style="stroke:#181818;stroke-width:0.7;stroke-dasharray:1.4,1.4;" x1="22.4386" x2="277.6023" y1="521.2238" y2="521.2238"/><text fill="#000000" font-family="sans-serif" font-size="9.1" font-weight="bold" lengthAdjust="spacing" textLength="10.122" x="30.8386" y="517.5399">16</text><text fill="#000000" font-family="sans-serif" font-size="9.1" lengthAdjust="spacing" textLength="107.2227" x="43.7606" y="517.5399">200 OK (JSON Response)</text></g><?plantuml-src fLHDZzem4BtdLumuhA22PTNZgkmg96nBoouI7-ebqiea0x44TcGRMlvzntROX8zgb_RcEFFUctap7hOrKcmt2rG1IurKq0XdKTG0fi4UWe8fmrDUC66WCP5RWv4KHidr6fMBYenQ7qTDaQaq3zS6bM26xz31z5nZn3GwqFmIyGGBgJdbi7SnzZF8c64BGa4ZBa_kNzmF0fiUT1vS0d0FNmSpwBA2TvLJwx9ANpzAnLTSz4R3wKs6sd1xBqNlEOnjrNp73Ff20iT6hFE8EF4tfaJMzF18PjY66jvUj2e2AYgOkvHiwWHVSf7rzsC77bBwDZuKMLmnr6v3IuCpjJt87KdLP9mlJe6KuZxfJ0UZGJI3J_0q6J-3hpyHFxyD9WFmNA-SXA07Zn2-n7NUjn-9i7-uVdKwI5U6KgbKoN7IwbJ5PLnXQagr8CDwfC_kuEA8Q_F5TVW1cXxc9w9LXxcoFkJVcLCdVVX_WwwmOScLDfqrhgvsOgdanjVsCH_U7Pk_J-PrZbmQZsjjqPXAaVsJBqR6zRa_iqP8Ef9lkG6v93mzVP8eD1m1IrbOxCiEmp2SXRU9UA8THvJvQUVWLovfpzIAJyI6cJGd4bQlftoTYKWLCYl119mkkoXdN3ITmWXNxHBkZqOMSeUgTUkxN6smiuqvGLr8eIykX3RKNr8RfC0fCLzuM7Oj-Qr6KcvftiFdkpiO_u3cz-du1GuoHoYB-0C0?></g></svg>