<svg xmlns="http://www.w3.org/2000/svg" xmlns:xlink="http://www.w3.org/1999/xlink" contentStyleType="text/css" data-diagram-type="SEQUENCE" height="553px" preserveAspectRatio="none" style="width:1056px;height:553px;background:#FFFFFF;" version="1.1" viewBox="0 0 1056 553" width="1056px" zoomAndPan="magnify"><defs/><g><g><title>AircraftController</title><rect fill="#FFFFFF" height="335.2012" style="stroke:#181818;stroke-width:1;" width="10" x="284.9956" y="116.9121"/></g><g><title>CalculateAircraftOperationalHoursUseCase</title><rect fill="#FFFFFF" height="272.6191" style="stroke:#181818;stroke-width:1;" width="10" x="496.5122" y="148.2031"/></g><g><title>AircraftRepository</title><rect fill="#FFFFFF" height="93.873" style="stroke:#181818;stroke-width:1;" width="10" x="822.1055" y="179.4941"/></g><g><title>Database</title><rect fill="#FFFFFF" height="31.291" style="stroke:#181818;stroke-width:1;" width="10" x="1016.1689" y="210.7852"/></g><g><title>ATCC.Admin</title><rect fill="#000000" fill-opacity="0.00000" height="386.4922" width="8" x="44.8413" y="83.6211"/><line style="stroke:#181818;stroke-width:0.5;stroke-dasharray:5,5;" x1="48" x2="48" y1="83.6211" y2="470.1133"/></g><g><title>AircraftController</title><rect fill="#000000" fill-opacity="0.00000" height="386.4922" width="8" x="285.9956" y="83.6211"/><line style="stroke:#181818;stroke-width:0.5;stroke-dasharray:5,5;" x1="289.4819" x2="289.4819" y1="83.6211" y2="470.1133"/></g><g><title>CalculateAircraftOperationalHoursUseCase</title><rect fill="#000000" fill-opacity="0.00000" height="386.4922" width="8" x="497.5122" y="83.6211"/><line style="stroke:#181818;stroke-width:0.5;stroke-dasharray:5,5;" x1="501.5093" x2="501.5093" y1="83.6211" y2="470.1133"/></g><g><title>AircraftRepository</title><rect fill="#000000" fill-opacity="0.00000" height="386.4922" width="8" x="823.1055" y="83.6211"/><line style="stroke:#181818;stroke-width:0.5;stroke-dasharray:5,5;" x1="826.478" x2="826.478" y1="83.6211" y2="470.1133"/></g><g><title>Database</title><rect fill="#000000" fill-opacity="0.00000" height="386.4922" width="8" x="1017.1689" y="83.6211"/><line style="stroke:#181818;stroke-width:0.5;stroke-dasharray:5,5;" x1="1020.2036" x2="1020.2036" y1="83.6211" y2="470.1133"/></g><g class="participant participant-head" data-participant="ATCC"><text fill="#000000" font-family="sans-serif" font-size="14" lengthAdjust="spacing" textLength="81.6826" x="5" y="80.1074">ATCC/Admin</text><ellipse cx="48.8413" cy="13.5" fill="#E2E2F0" rx="8" ry="8" style="stroke:#181818;stroke-width:0.5;"/><path d="M48.8413,21.5 L48.8413,48.5 M35.8413,29.5 L61.8413,29.5 M48.8413,48.5 L35.8413,63.5 M48.8413,48.5 L61.8413,63.5" fill="none" style="stroke:#181818;stroke-width:0.5;"/></g><g class="participant participant-tail" data-participant="ATCC"><text fill="#000000" font-family="sans-serif" font-size="14" lengthAdjust="spacing" textLength="81.6826" x="5" y="484.2207">ATCC/Admin</text><ellipse cx="48.8413" cy="496.2344" fill="#E2E2F0" rx="8" ry="8" style="stroke:#181818;stroke-width:0.5;"/><path d="M48.8413,504.2344 L48.8413,531.2344 M35.8413,512.2344 L61.8413,512.2344 M48.8413,531.2344 L35.8413,546.2344 M48.8413,531.2344 L61.8413,546.2344" fill="none" style="stroke:#181818;stroke-width:0.5;"/></g><g class="participant participant-head" data-participant="Ctrl"><rect fill="#E2E2F0" height="32.6211" rx="2.5" ry="2.5" style="stroke:#181818;stroke-width:0.5;" width="119.0273" x="230.4819" y="50"/><text fill="#000000" font-family="sans-serif" font-size="14" lengthAdjust="spacing" textLength="105.0273" x="237.4819" y="72.1074">AircraftController</text></g><g class="participant participant-tail" data-participant="Ctrl"><rect fill="#E2E2F0" height="32.6211" rx="2.5" ry="2.5" style="stroke:#181818;stroke-width:0.5;" width="119.0273" x="230.4819" y="469.1133"/><text fill="#000000" font-family="sans-serif" font-size="14" lengthAdjust="spacing" textLength="105.0273" x="237.4819" y="491.2207">AircraftController</text></g><g class="participant participant-head" data-participant="UC"><rect fill="#E2E2F0" height="32.6211" rx="2.5" ry="2.5" style="stroke:#181818;stroke-width:0.5;" width="284.0059" x="359.5093" y="50"/><text fill="#000000" font-family="sans-serif" font-size="14" lengthAdjust="spacing" textLength="270.0059" x="366.5093" y="72.1074">CalculateAircraftOperationalHoursUseCase</text></g><g class="participant participant-tail" data-participant="UC"><rect fill="#E2E2F0" height="32.6211" rx="2.5" ry="2.5" style="stroke:#181818;stroke-width:0.5;" width="284.0059" x="359.5093" y="469.1133"/><text fill="#000000" font-family="sans-serif" font-size="14" lengthAdjust="spacing" textLength="270.0059" x="366.5093" y="491.2207">CalculateAircraftOperationalHoursUseCase</text></g><g class="participant participant-head" data-participant="Repo"><rect fill="#E2E2F0" height="32.6211" rx="2.5" ry="2.5" style="stroke:#181818;stroke-width:0.5;" width="125.2549" x="764.478" y="50"/><text fill="#000000" font-family="sans-serif" font-size="14" lengthAdjust="spacing" textLength="111.2549" x="771.478" y="72.1074">AircraftRepository</text></g><g class="participant participant-tail" data-participant="Repo"><rect fill="#E2E2F0" height="32.6211" rx="2.5" ry="2.5" style="stroke:#181818;stroke-width:0.5;" width="125.2549" x="764.478" y="469.1133"/><text fill="#000000" font-family="sans-serif" font-size="14" lengthAdjust="spacing" textLength="111.2549" x="771.478" y="491.2207">AircraftRepository</text></g><g class="participant participant-head" data-participant="DB"><text fill="#000000" font-family="sans-serif" font-size="14" lengthAdjust="spacing" textLength="59.9307" x="988.2036" y="80.1074">Database</text><path d="M1003.1689,29 C1003.1689,19 1021.1689,19 1021.1689,19 C1021.1689,19 1039.1689,19 1039.1689,29 L1039.1689,55 C1039.1689,65 1021.1689,65 1021.1689,65 C1021.1689,65 1003.1689,65 1003.1689,55 L1003.1689,29" fill="#E2E2F0" style="stroke:#181818;stroke-width:0.5;"/><path d="M1003.1689,29 C1003.1689,39 1021.1689,39 1021.1689,39 C1021.1689,39 1039.1689,39 1039.1689,29" fill="none" style="stroke:#181818;stroke-width:0.5;"/></g><g class="participant participant-tail" data-participant="DB"><text fill="#000000" font-family="sans-serif" font-size="14" lengthAdjust="spacing" textLength="59.9307" x="988.2036" y="484.2207">Database</text><path d="M1003.1689,497.7344 C1003.1689,487.7344 1021.1689,487.7344 1021.1689,487.7344 C1021.1689,487.7344 1039.1689,487.7344 1039.1689,497.7344 L1039.1689,523.7344 C1039.1689,533.7344 1021.1689,533.7344 1021.1689,533.7344 C1021.1689,533.7344 1003.1689,533.7344 1003.1689,523.7344 L1003.1689,497.7344" fill="#E2E2F0" style="stroke:#181818;stroke-width:0.5;"/><path d="M1003.1689,497.7344 C1003.1689,507.7344 1021.1689,507.7344 1021.1689,507.7344 C1021.1689,507.7344 1039.1689,507.7344 1039.1689,497.7344" fill="none" style="stroke:#181818;stroke-width:0.5;"/></g><g><title>AircraftController</title><rect fill="#FFFFFF" height="335.2012" style="stroke:#181818;stroke-width:1;" width="10" x="284.9956" y="116.9121"/></g><g><title>CalculateAircraftOperationalHoursUseCase</title><rect fill="#FFFFFF" height="272.6191" style="stroke:#181818;stroke-width:1;" width="10" x="496.5122" y="148.2031"/></g><g><title>AircraftRepository</title><rect fill="#FFFFFF" height="93.873" style="stroke:#181818;stroke-width:1;" width="10" x="822.1055" y="179.4941"/></g><g><title>Database</title><rect fill="#FFFFFF" height="31.291" style="stroke:#181818;stroke-width:1;" width="10" x="1016.1689" y="210.7852"/></g><g class="message" data-participant-1="ATCC" data-participant-2="Ctrl"><polygon fill="#181818" points="272.9956,112.9121,282.9956,116.9121,272.9956,120.9121,276.9956,116.9121" style="stroke:#181818;stroke-width:1;"/><line style="stroke:#181818;stroke-width:1;" x1="48.8413" x2="278.9956" y1="116.9121" y2="116.9121"/><text fill="#000000" font-family="sans-serif" font-size="13" font-weight="bold" lengthAdjust="spacing" textLength="7.23" x="55.8413" y="111.6494">1</text><text fill="#000000" font-family="sans-serif" font-size="13" lengthAdjust="spacing" textLength="205.9243" x="67.0713" y="111.6494">GET /api/aircrafts/operational-hours</text></g><g class="message" data-participant-1="Ctrl" data-participant-2="UC"><polygon fill="#181818" points="484.5122,144.2031,494.5122,148.2031,484.5122,152.2031,488.5122,148.2031" style="stroke:#181818;stroke-width:1;"/><line style="stroke:#181818;stroke-width:1;" x1="294.9956" x2="490.5122" y1="148.2031" y2="148.2031"/><text fill="#000000" font-family="sans-serif" font-size="13" font-weight="bold" lengthAdjust="spacing" textLength="7.23" x="301.9956" y="142.9404">2</text><text fill="#000000" font-family="sans-serif" font-size="13" lengthAdjust="spacing" textLength="54.1899" x="313.2256" y="142.9404">execute()</text></g><g class="message" data-participant-1="UC" data-participant-2="Repo"><polygon fill="#181818" points="810.1055,175.4941,820.1055,179.4941,810.1055,183.4941,814.1055,179.4941" style="stroke:#181818;stroke-width:1;"/><line style="stroke:#181818;stroke-width:1;" x1="506.5122" x2="816.1055" y1="179.4941" y2="179.4941"/><text fill="#000000" font-family="sans-serif" font-size="13" font-weight="bold" lengthAdjust="spacing" textLength="7.23" x="513.5122" y="174.2314">3</text><text fill="#000000" font-family="sans-serif" font-size="13" lengthAdjust="spacing" textLength="44.0654" x="524.7422" y="174.2314">findAll()</text></g><g class="message" data-participant-1="Repo" data-participant-2="DB"><polygon fill="#181818" points="1004.1689,206.7852,1014.1689,210.7852,1004.1689,214.7852,1008.1689,210.7852" style="stroke:#181818;stroke-width:1;"/><line style="stroke:#181818;stroke-width:1;" x1="832.1055" x2="1010.1689" y1="210.7852" y2="210.7852"/><text fill="#000000" font-family="sans-serif" font-size="13" font-weight="bold" lengthAdjust="spacing" textLength="7.23" x="839.1055" y="205.5225">4</text><text fill="#000000" font-family="sans-serif" font-size="13" lengthAdjust="spacing" textLength="150.9663" x="850.3354" y="205.5225">SELECT * FROM aircrafts</text></g><g class="message" data-participant-1="DB" data-participant-2="Repo"><polygon fill="#181818" points="843.1055,238.0762,833.1055,242.0762,843.1055,246.0762,839.1055,242.0762" style="stroke:#181818;stroke-width:1;"/><line style="stroke:#181818;stroke-width:1;stroke-dasharray:2,2;" x1="837.1055" x2="1020.1689" y1="242.0762" y2="242.0762"/><text fill="#000000" font-family="sans-serif" font-size="13" font-weight="bold" lengthAdjust="spacing" textLength="7.23" x="849.1055" y="236.8135">5</text><text fill="#000000" font-family="sans-serif" font-size="13" lengthAdjust="spacing" textLength="148.8335" x="860.3354" y="236.8135">list of all aircraft instances</text></g><g class="message" data-participant-1="Repo" data-participant-2="UC"><polygon fill="#181818" points="517.5122,269.3672,507.5122,273.3672,517.5122,277.3672,513.5122,273.3672" style="stroke:#181818;stroke-width:1;"/><line style="stroke:#181818;stroke-width:1;stroke-dasharray:2,2;" x1="511.5122" x2="826.1055" y1="273.3672" y2="273.3672"/><text fill="#000000" font-family="sans-serif" font-size="13" font-weight="bold" lengthAdjust="spacing" textLength="7.23" x="523.5122" y="268.1045">6</text><text fill="#000000" font-family="sans-serif" font-size="13" lengthAdjust="spacing" textLength="44.8018" x="534.7422" y="268.1045">fleetList</text></g><path d="M511,286.3672 L511,347.3672 L720,347.3672 L720,296.3672 L710,286.3672 L511,286.3672" fill="#FEFFDD" style="stroke:#181818;stroke-width:0.5;"/><path d="M710,286.3672 L710,296.3672 L720,296.3672 L710,286.3672" fill="#FEFFDD" style="stroke:#181818;stroke-width:0.5;"/><text fill="#000000" font-family="sans-serif" font-size="13" lengthAdjust="spacing" textLength="120.6689" x="517" y="305.3955">Iterates over entities.</text><text fill="#000000" font-family="sans-serif" font-size="13" lengthAdjust="spacing" textLength="186.4116" x="517" y="322.6865">Extracts registrationNumber and</text><text fill="#000000" font-family="sans-serif" font-size="13" lengthAdjust="spacing" textLength="188.5762" x="517" y="339.9775">totalFlightHours for each aircraft.</text><g class="message" data-participant-1="UC" data-participant-2="UC"><line style="stroke:#181818;stroke-width:1;" x1="506.5122" x2="548.5122" y1="376.5313" y2="376.5313"/><line style="stroke:#181818;stroke-width:1;" x1="548.5122" x2="548.5122" y1="376.5313" y2="389.5313"/><line style="stroke:#181818;stroke-width:1;" x1="507.5122" x2="548.5122" y1="389.5313" y2="389.5313"/><polygon fill="#181818" points="517.5122,385.5313,507.5122,389.5313,517.5122,393.5313,513.5122,389.5313" style="stroke:#181818;stroke-width:1;"/><text fill="#000000" font-family="sans-serif" font-size="13" font-weight="bold" lengthAdjust="spacing" textLength="7.23" x="513.5122" y="371.2686">7</text><text fill="#000000" font-family="sans-serif" font-size="13" lengthAdjust="spacing" textLength="280.3633" x="524.7422" y="371.2686">map to List&lt;AircraftOperationalHoursResponse&gt;</text></g><g class="message" data-participant-1="UC" data-participant-2="Ctrl"><polygon fill="#181818" points="305.9956,416.8223,295.9956,420.8223,305.9956,424.8223,301.9956,420.8223" style="stroke:#181818;stroke-width:1;"/><line style="stroke:#181818;stroke-width:1;stroke-dasharray:2,2;" x1="299.9956" x2="500.5122" y1="420.8223" y2="420.8223"/><text fill="#000000" font-family="sans-serif" font-size="13" font-weight="bold" lengthAdjust="spacing" textLength="7.23" x="311.9956" y="415.5596">8</text><text fill="#000000" font-family="sans-serif" font-size="13" lengthAdjust="spacing" textLength="111.2871" x="323.2256" y="415.5596">hoursResponseList</text></g><g class="message" data-participant-1="Ctrl" data-participant-2="ATCC"><polygon fill="#181818" points="59.8413,448.1133,49.8413,452.1133,59.8413,456.1133,55.8413,452.1133" style="stroke:#181818;stroke-width:1;"/><line style="stroke:#181818;stroke-width:1;stroke-dasharray:2,2;" x1="53.8413" x2="288.9956" y1="452.1133" y2="452.1133"/><text fill="#000000" font-family="sans-serif" font-size="13" font-weight="bold" lengthAdjust="spacing" textLength="7.23" x="65.8413" y="446.8506">9</text><text fill="#000000" font-family="sans-serif" font-size="13" lengthAdjust="spacing" textLength="151.7217" x="77.0713" y="446.8506">200 OK (JSON Collection)</text></g><!--SRC=[TP9FJyCm3CNl-HJMJe2q3N6S4DB8nd-ODDOR5zEwB5AML8cBuDlZfDjQaBWbodlFFyV6bhrhT-yK59Ri0upc6wsdysfdt0WmGhgg1WERqZJeM0Gcb05hrjvnyDPIo4BDmVuMQhHbQv7fu5Wr592DTsZlV1jY4KbZf6ml_gcofiP78sJVMPQkgaB6Tp72QB4_vRV5jL895yPNcGPcSBlSm1GRCyLzN9pw7cAyJHIfSVCfc5qBAbibej0IG5zKjamdfxrAI5MHYoGOqTJ6LNDhXvgCgVAxw1RNedfTFYtr1ixWPhrwXYDFxn5y4OxxN6iYWwy1hJtgmRZ8w4gAggAXTL_im5rR8dwIWA6iet9UZi5yR7DueMTmp-bBA8B_f03asB2XE7bpooyEueuGw4EokdzxoUi2wAetnvxHtjWKbYSAjQoG5DmUWIU7pyfOEso0FIImo_-sOasnyIxILUViXxaTllxjBKsbcvmOyXRCuEBy75QFSFBmkde1dLQrJ7LEXxxa-G40]--></g></svg>