<svg xmlns="http://www.w3.org/2000/svg" xmlns:xlink="http://www.w3.org/1999/xlink" contentStyleType="text/css" data-diagram-type="SEQUENCE" height="933px" preserveAspectRatio="none" style="width:1416px;height:933px;background:#FFFFFF;" version="1.1" viewBox="0 0 1416 933" width="1416px" zoomAndPan="magnify"><defs/><g><g><title>AircraftController</title><rect fill="#FFFFFF" height="698.6445" style="stroke:#181818;stroke-width:1;" width="10" x="362.5688" y="134.2031"/></g><g><title>UpdateAircraftStatusUseCase</title><rect fill="#FFFFFF" height="636.0625" style="stroke:#181818;stroke-width:1;" width="10" x="597.1641" y="165.4941"/></g><g><title>RegistrationNumber</title><rect fill="#FFFFFF" height="106.8242" style="stroke:#181818;stroke-width:1;" width="10" x="947.9546" y="261.3672"/></g><g><title>AircraftRepository</title><rect fill="#FFFFFF" height="111.1641" style="stroke:#181818;stroke-width:1;" width="10" x="1089.8301" y="399.4824"/></g><g><title>AircraftRepository</title><rect fill="#FFFFFF" height="111.1641" style="stroke:#181818;stroke-width:1;" width="10" x="1089.8301" y="659.1016"/></g><g><title>Aircraft</title><rect fill="#FFFFFF" height="85.873" style="stroke:#181818;stroke-width:1;" width="10" x="1191.6265" y="541.9375"/></g><g><title>Database</title><rect fill="#FFFFFF" height="31.291" style="stroke:#181818;stroke-width:1;" width="10" x="1376.7871" y="448.0645"/></g><g><title>Database</title><rect fill="#FFFFFF" height="31.291" style="stroke:#181818;stroke-width:1;" width="10" x="1376.7871" y="707.6836"/></g><g><title>ATCC . Admin</title><rect fill="#000000" fill-opacity="0.00000" height="767.2266" width="8" x="48.731" y="83.6211"/><line style="stroke:#181818;stroke-width:0.5;stroke-dasharray:5,5;" x1="52" x2="52" y1="83.6211" y2="850.8477"/></g><g><title>AircraftController</title><rect fill="#000000" fill-opacity="0.00000" height="767.2266" width="8" x="363.5688" y="83.6211"/><line style="stroke:#181818;stroke-width:0.5;stroke-dasharray:5,5;" x1="367.0552" x2="367.0552" y1="83.6211" y2="850.8477"/></g><g><title>UpdateAircraftStatusUseCase</title><rect fill="#000000" fill-opacity="0.00000" height="767.2266" width="8" x="598.1641" y="83.6211"/><line style="stroke:#181818;stroke-width:0.5;stroke-dasharray:5,5;" x1="601.7886" x2="601.7886" y1="83.6211" y2="850.8477"/></g><g><title>RegistrationNumber</title><rect fill="#000000" fill-opacity="0.00000" height="581.6504" width="8" x="948.9546" y="269.1973"/><line style="stroke:#181818;stroke-width:0.5;stroke-dasharray:5,5;" x1="952.7065" x2="952.7065" y1="269.1973" y2="850.8477"/></g><g><title>AircraftRepository</title><rect fill="#000000" fill-opacity="0.00000" height="767.2266" width="8" x="1090.8301" y="83.6211"/><line style="stroke:#181818;stroke-width:0.5;stroke-dasharray:5,5;" x1="1094.2026" x2="1094.2026" y1="83.6211" y2="850.8477"/></g><g><title>Aircraft</title><rect fill="#000000" fill-opacity="0.00000" height="767.2266" width="8" x="1192.6265" y="83.6211"/><line style="stroke:#181818;stroke-width:0.5;stroke-dasharray:5,5;" x1="1196.4575" x2="1196.4575" y1="83.6211" y2="850.8477"/></g><g><title>Database</title><rect fill="#000000" fill-opacity="0.00000" height="767.2266" width="8" x="1377.7871" y="83.6211"/><line style="stroke:#181818;stroke-width:0.5;stroke-dasharray:5,5;" x1="1380.8218" x2="1380.8218" y1="83.6211" y2="850.8477"/></g><g class="participant participant-head" data-participant="User"><text fill="#000000" font-family="sans-serif" font-size="14" lengthAdjust="spacing" textLength="89.4619" x="5" y="80.1074">ATCC / Admin</text><ellipse cx="52.731" cy="13.5" fill="#E2E2F0" rx="8" ry="8" style="stroke:#181818;stroke-width:0.5;"/><path d="M52.731,21.5 L52.731,48.5 M39.731,29.5 L65.731,29.5 M52.731,48.5 L39.731,63.5 M52.731,48.5 L65.731,63.5" fill="none" style="stroke:#181818;stroke-width:0.5;"/></g><g class="participant participant-tail" data-participant="User"><text fill="#000000" font-family="sans-serif" font-size="14" lengthAdjust="spacing" textLength="89.4619" x="5" y="864.9551">ATCC / Admin</text><ellipse cx="52.731" cy="876.9688" fill="#E2E2F0" rx="8" ry="8" style="stroke:#181818;stroke-width:0.5;"/><path d="M52.731,884.9688 L52.731,911.9688 M39.731,892.9688 L65.731,892.9688 M52.731,911.9688 L39.731,926.9688 M52.731,911.9688 L65.731,926.9688" fill="none" style="stroke:#181818;stroke-width:0.5;"/></g><g class="participant participant-head" data-participant="Ctrl"><rect fill="#E2E2F0" height="32.6211" rx="2.5" ry="2.5" style="stroke:#181818;stroke-width:0.5;" width="119.0273" x="308.0552" y="50"/><text fill="#000000" font-family="sans-serif" font-size="14" lengthAdjust="spacing" textLength="105.0273" x="315.0552" y="72.1074">AircraftController</text></g><g class="participant participant-tail" data-participant="Ctrl"><rect fill="#E2E2F0" height="32.6211" rx="2.5" ry="2.5" style="stroke:#181818;stroke-width:0.5;" width="119.0273" x="308.0552" y="849.8477"/><text fill="#000000" font-family="sans-serif" font-size="14" lengthAdjust="spacing" textLength="105.0273" x="315.0552" y="871.9551">AircraftController</text></g><g class="participant participant-head" data-participant="UC"><rect fill="#E2E2F0" height="32.6211" rx="2.5" ry="2.5" style="stroke:#181818;stroke-width:0.5;" width="200.751" x="501.7886" y="50"/><text fill="#000000" font-family="sans-serif" font-size="14" lengthAdjust="spacing" textLength="186.751" x="508.7886" y="72.1074">UpdateAircraftStatusUseCase</text></g><g class="participant participant-tail" data-participant="UC"><rect fill="#E2E2F0" height="32.6211" rx="2.5" ry="2.5" style="stroke:#181818;stroke-width:0.5;" width="200.751" x="501.7886" y="849.8477"/><text fill="#000000" font-family="sans-serif" font-size="14" lengthAdjust="spacing" textLength="186.751" x="508.7886" y="871.9551">UpdateAircraftStatusUseCase</text></g><g class="participant participant-tail" data-participant="VO"><rect fill="#E2E2F0" height="51.2422" rx="2.5" ry="2.5" style="stroke:#181818;stroke-width:0.5;" width="138.4961" x="883.7065" y="849.8477"/><text fill="#000000" font-family="sans-serif" font-size="14" lengthAdjust="spacing" textLength="124.4961" x="890.7065" y="871.9551">RegistrationNumber</text><text fill="#000000" font-family="sans-serif" font-size="14" lengthAdjust="spacing" textLength="89.4824" x="908.2134" y="890.5762">(Value Object)</text></g><g class="participant participant-head" data-participant="Repo"><rect fill="#E2E2F0" height="32.6211" rx="2.5" ry="2.5" style="stroke:#181818;stroke-width:0.5;" width="125.2549" x="1032.2026" y="50"/><text fill="#000000" font-family="sans-serif" font-size="14" lengthAdjust="spacing" textLength="111.2549" x="1039.2026" y="72.1074">AircraftRepository</text></g><g class="participant participant-tail" data-participant="Repo"><rect fill="#E2E2F0" height="32.6211" rx="2.5" ry="2.5" style="stroke:#181818;stroke-width:0.5;" width="125.2549" x="1032.2026" y="849.8477"/><text fill="#000000" font-family="sans-serif" font-size="14" lengthAdjust="spacing" textLength="111.2549" x="1039.2026" y="871.9551">AircraftRepository</text></g><g class="participant participant-head" data-participant="Entity"><rect fill="#E2E2F0" height="51.2422" rx="2.5" ry="2.5" style="stroke:#181818;stroke-width:0.5;" width="58.3379" x="1167.4575" y="31.3789"/><text fill="#000000" font-family="sans-serif" font-size="14" lengthAdjust="spacing" textLength="44.3379" x="1174.4575" y="53.4863">Aircraft</text><text fill="#000000" font-family="sans-serif" font-size="14" lengthAdjust="spacing" textLength="44.3379" x="1174.4575" y="72.1074">(Entity)</text></g><g class="participant participant-tail" data-participant="Entity"><rect fill="#E2E2F0" height="51.2422" rx="2.5" ry="2.5" style="stroke:#181818;stroke-width:0.5;" width="58.3379" x="1167.4575" y="849.8477"/><text fill="#000000" font-family="sans-serif" font-size="14" lengthAdjust="spacing" textLength="44.3379" x="1174.4575" y="871.9551">Aircraft</text><text fill="#000000" font-family="sans-serif" font-size="14" lengthAdjust="spacing" textLength="44.3379" x="1174.4575" y="890.5762">(Entity)</text></g><g class="participant participant-head" data-participant="DB"><text fill="#000000" font-family="sans-serif" font-size="14" lengthAdjust="spacing" textLength="59.9307" x="1348.8218" y="80.1074">Database</text><path d="M1363.7871,29 C1363.7871,19 1381.7871,19 1381.7871,19 C1381.7871,19 1399.7871,19 1399.7871,29 L1399.7871,55 C1399.7871,65 1381.7871,65 1381.7871,65 C1381.7871,65 1363.7871,65 1363.7871,55 L1363.7871,29" fill="#E2E2F0" style="stroke:#181818;stroke-width:0.5;"/><path d="M1363.7871,29 C1363.7871,39 1381.7871,39 1381.7871,39 C1381.7871,39 1399.7871,39 1399.7871,29" fill="none" style="stroke:#181818;stroke-width:0.5;"/></g><g class="participant participant-tail" data-participant="DB"><text fill="#000000" font-family="sans-serif" font-size="14" lengthAdjust="spacing" textLength="59.9307" x="1348.8218" y="864.9551">Database</text><path d="M1363.7871,878.4688 C1363.7871,868.4688 1381.7871,868.4688 1381.7871,868.4688 C1381.7871,868.4688 1399.7871,868.4688 1399.7871,878.4688 L1399.7871,904.4688 C1399.7871,914.4688 1381.7871,914.4688 1381.7871,914.4688 C1381.7871,914.4688 1363.7871,914.4688 1363.7871,904.4688 L1363.7871,878.4688" fill="#E2E2F0" style="stroke:#181818;stroke-width:0.5;"/><path d="M1363.7871,878.4688 C1363.7871,888.4688 1381.7871,888.4688 1381.7871,888.4688 C1381.7871,888.4688 1399.7871,888.4688 1399.7871,878.4688" fill="none" style="stroke:#181818;stroke-width:0.5;"/></g><g><title>AircraftController</title><rect fill="#FFFFFF" height="698.6445" style="stroke:#181818;stroke-width:1;" width="10" x="362.5688" y="134.2031"/></g><g><title>UpdateAircraftStatusUseCase</title><rect fill="#FFFFFF" height="636.0625" style="stroke:#181818;stroke-width:1;" width="10" x="597.1641" y="165.4941"/></g><g><title>RegistrationNumber</title><rect fill="#FFFFFF" height="106.8242" style="stroke:#181818;stroke-width:1;" width="10" x="947.9546" y="261.3672"/></g><g><title>AircraftRepository</title><rect fill="#FFFFFF" height="111.1641" style="stroke:#181818;stroke-width:1;" width="10" x="1089.8301" y="399.4824"/></g><g><title>AircraftRepository</title><rect fill="#FFFFFF" height="111.1641" style="stroke:#181818;stroke-width:1;" width="10" x="1089.8301" y="659.1016"/></g><g><title>Aircraft</title><rect fill="#FFFFFF" height="85.873" style="stroke:#181818;stroke-width:1;" width="10" x="1191.6265" y="541.9375"/></g><g><title>Database</title><rect fill="#FFFFFF" height="31.291" style="stroke:#181818;stroke-width:1;" width="10" x="1376.7871" y="448.0645"/></g><g><title>Database</title><rect fill="#FFFFFF" height="31.291" style="stroke:#181818;stroke-width:1;" width="10" x="1376.7871" y="707.6836"/></g><g class="message" data-participant-1="User" data-participant-2="Ctrl"><polygon fill="#181818" points="350.5688,130.2031,360.5688,134.2031,350.5688,138.2031,354.5688,134.2031" style="stroke:#181818;stroke-width:1;"/><line style="stroke:#181818;stroke-width:1;" x1="52.731" x2="356.5688" y1="134.2031" y2="134.2031"/><text fill="#000000" font-family="sans-serif" font-size="13" font-weight="bold" lengthAdjust="spacing" textLength="7.23" x="59.731" y="120.2949">1</text><text fill="#000000" font-family="sans-serif" font-size="13" lengthAdjust="spacing" textLength="279.6079" x="70.9609" y="111.6494">PATCH /api/aircrafts/{registrationNumber}/status</text><text fill="#000000" font-family="sans-serif" font-size="13" lengthAdjust="spacing" textLength="135.8145" x="70.9609" y="128.9404">(JSON with new status)</text></g><g class="message" data-participant-1="Ctrl" data-participant-2="UC"><polygon fill="#181818" points="585.1641,161.4941,595.1641,165.4941,585.1641,169.4941,589.1641,165.4941" style="stroke:#181818;stroke-width:1;"/><line style="stroke:#181818;stroke-width:1;" x1="372.5688" x2="591.1641" y1="165.4941" y2="165.4941"/><text fill="#000000" font-family="sans-serif" font-size="13" font-weight="bold" lengthAdjust="spacing" textLength="7.23" x="379.5688" y="160.2314">2</text><text fill="#000000" font-family="sans-serif" font-size="13" lengthAdjust="spacing" textLength="194.3652" x="390.7988" y="160.2314">execute(registrationText, request)</text></g><path d="M612,178.4941 L612,222.4941 L807,222.4941 L807,188.4941 L797,178.4941 L612,178.4941" fill="#FEFFDD" style="stroke:#181818;stroke-width:0.5;"/><path d="M797,178.4941 L797,188.4941 L807,188.4941 L797,178.4941" fill="#FEFFDD" style="stroke:#181818;stroke-width:0.5;"/><text fill="#000000" font-family="sans-serif" font-size="13" lengthAdjust="spacing" textLength="174.8335" x="618" y="197.5225">Extracts raw registration string</text><text fill="#000000" font-family="sans-serif" font-size="13" lengthAdjust="spacing" textLength="148.1099" x="618" y="214.8135">and new status from DTO</text><g class="message" data-participant-1="UC" data-participant-2="VO"><polygon fill="#181818" points="871.7065,247.3672,881.7065,251.3672,871.7065,255.3672,875.7065,251.3672" style="stroke:#181818;stroke-width:1;"/><line style="stroke:#181818;stroke-width:1;" x1="607.1641" x2="877.7065" y1="251.3672" y2="251.3672"/><text fill="#000000" font-family="sans-serif" font-size="13" font-weight="bold" lengthAdjust="spacing" textLength="7.23" x="614.1641" y="246.1045">3</text><text fill="#000000" font-family="sans-serif" font-size="13" lengthAdjust="spacing" textLength="241.3125" x="625.394" y="246.1045">new RegistrationNumber(registrationText)</text></g><rect fill="#E2E2F0" height="51.2422" rx="2.5" ry="2.5" style="stroke:#181818;stroke-width:0.5;" width="138.4961" x="883.7065" y="228.0762"/><text fill="#000000" font-family="sans-serif" font-size="14" lengthAdjust="spacing" textLength="124.4961" x="890.7065" y="250.1836">RegistrationNumber</text><text fill="#000000" font-family="sans-serif" font-size="14" lengthAdjust="spacing" textLength="89.4824" x="908.2134" y="268.8047">(Value Object)</text><path d="M962,295.3184 L962,339.3184 L1116,339.3184 L1116,305.3184 L1106,295.3184 L962,295.3184" fill="#FEFFDD" style="stroke:#181818;stroke-width:0.5;"/><path d="M1106,295.3184 L1106,305.3184 L1116,305.3184 L1106,295.3184" fill="#FEFFDD" style="stroke:#181818;stroke-width:0.5;"/><text fill="#000000" font-family="sans-serif" font-size="13" lengthAdjust="spacing" textLength="132.9707" x="968" y="314.3467">Value Object validation</text><text fill="#000000" font-family="sans-serif" font-size="13" lengthAdjust="spacing" textLength="133.6816" x="968" y="331.6377">(e.g., cannot be empty)</text><g class="message" data-participant-1="VO" data-participant-2="UC"><polygon fill="#181818" points="618.1641,364.1914,608.1641,368.1914,618.1641,372.1914,614.1641,368.1914" style="stroke:#181818;stroke-width:1;"/><line style="stroke:#181818;stroke-width:1;stroke-dasharray:2,2;" x1="612.1641" x2="951.9546" y1="368.1914" y2="368.1914"/><text fill="#000000" font-family="sans-serif" font-size="13" font-weight="bold" lengthAdjust="spacing" textLength="7.23" x="624.1641" y="362.9287">4</text><text fill="#000000" font-family="sans-serif" font-size="13" lengthAdjust="spacing" textLength="151.728" x="635.394" y="362.9287">regNumber (validated VO)</text></g><g class="message" data-participant-1="UC" data-participant-2="Repo"><polygon fill="#181818" points="1077.8301,395.4824,1087.8301,399.4824,1077.8301,403.4824,1081.8301,399.4824" style="stroke:#181818;stroke-width:1;"/><line style="stroke:#181818;stroke-width:1;" x1="607.1641" x2="1083.8301" y1="399.4824" y2="399.4824"/><text fill="#000000" font-family="sans-serif" font-size="13" font-weight="bold" lengthAdjust="spacing" textLength="7.23" x="614.1641" y="394.2197">5</text><text fill="#000000" font-family="sans-serif" font-size="13" lengthAdjust="spacing" textLength="225.418" x="625.394" y="394.2197">findByRegistrationNumber(regNumber)</text></g><g class="message" data-participant-1="Repo" data-participant-2="DB"><polygon fill="#181818" points="1364.7871,444.0645,1374.7871,448.0645,1364.7871,452.0645,1368.7871,448.0645" style="stroke:#181818;stroke-width:1;"/><line style="stroke:#181818;stroke-width:1;" x1="1099.8301" x2="1370.7871" y1="448.0645" y2="448.0645"/><text fill="#000000" font-family="sans-serif" font-size="13" font-weight="bold" lengthAdjust="spacing" textLength="7.23" x="1106.8301" y="434.1563">6</text><text fill="#000000" font-family="sans-serif" font-size="13" lengthAdjust="spacing" textLength="150.9663" x="1118.0601" y="425.5107">SELECT * FROM aircrafts</text><text fill="#000000" font-family="sans-serif" font-size="13" lengthAdjust="spacing" textLength="189.6616" x="1118.0601" y="442.8018">WHERE registration_number = ?</text></g><g class="message" data-participant-1="DB" data-participant-2="Repo"><polygon fill="#181818" points="1110.8301,475.3555,1100.8301,479.3555,1110.8301,483.3555,1106.8301,479.3555" style="stroke:#181818;stroke-width:1;"/><line style="stroke:#181818;stroke-width:1;stroke-dasharray:2,2;" x1="1104.8301" x2="1380.7871" y1="479.3555" y2="479.3555"/><text fill="#000000" font-family="sans-serif" font-size="13" font-weight="bold" lengthAdjust="spacing" textLength="7.23" x="1116.8301" y="474.0928">7</text><text fill="#000000" font-family="sans-serif" font-size="13" lengthAdjust="spacing" textLength="127.8799" x="1128.0601" y="474.0928">existing aircraft record</text></g><g class="message" data-participant-1="Repo" data-participant-2="UC"><polygon fill="#181818" points="618.1641,506.6465,608.1641,510.6465,618.1641,514.6465,614.1641,510.6465" style="stroke:#181818;stroke-width:1;"/><line style="stroke:#181818;stroke-width:1;stroke-dasharray:2,2;" x1="612.1641" x2="1093.8301" y1="510.6465" y2="510.6465"/><text fill="#000000" font-family="sans-serif" font-size="13" font-weight="bold" lengthAdjust="spacing" textLength="7.23" x="624.1641" y="505.3838">8</text><text fill="#000000" font-family="sans-serif" font-size="13" lengthAdjust="spacing" textLength="84.5127" x="635.394" y="505.3838">aircraft (Entity)</text></g><g class="message" data-participant-1="UC" data-participant-2="Entity"><polygon fill="#181818" points="1179.6265,537.9375,1189.6265,541.9375,1179.6265,545.9375,1183.6265,541.9375" style="stroke:#181818;stroke-width:1;"/><line style="stroke:#181818;stroke-width:1;" x1="607.1641" x2="1185.6265" y1="541.9375" y2="541.9375"/><text fill="#000000" font-family="sans-serif" font-size="13" font-weight="bold" lengthAdjust="spacing" textLength="7.23" x="614.1641" y="536.6748">9</text><text fill="#000000" font-family="sans-serif" font-size="13" lengthAdjust="spacing" textLength="166.9307" x="625.394" y="536.6748">updateStatus(request.status)</text></g><path d="M1206,554.9375 L1206,598.9375 L1401,598.9375 L1401,564.9375 L1391,554.9375 L1206,554.9375" fill="#FEFFDD" style="stroke:#181818;stroke-width:0.5;"/><path d="M1391,554.9375 L1391,564.9375 L1401,564.9375 L1391,554.9375" fill="#FEFFDD" style="stroke:#181818;stroke-width:0.5;"/><text fill="#000000" font-family="sans-serif" font-size="13" lengthAdjust="spacing" textLength="174.8652" x="1212" y="573.9658">Domain validation occurs here</text><text fill="#000000" font-family="sans-serif" font-size="13" lengthAdjust="spacing" textLength="156.8125" x="1212" y="591.2568">(e.g., status cannot be null)</text><g class="message" data-participant-1="Entity" data-participant-2="UC"><polygon fill="#181818" points="618.1641,623.8105,608.1641,627.8105,618.1641,631.8105,614.1641,627.8105" style="stroke:#181818;stroke-width:1;"/><line style="stroke:#181818;stroke-width:1;stroke-dasharray:2,2;" x1="612.1641" x2="1195.6265" y1="627.8105" y2="627.8105"/><text fill="#000000" font-family="sans-serif" font-size="13" font-weight="bold" lengthAdjust="spacing" textLength="14.46" x="624.1641" y="622.5479">10</text><text fill="#000000" font-family="sans-serif" font-size="13" lengthAdjust="spacing" textLength="3.6118" x="642.624" y="622.5479">&#160;</text></g><g class="message" data-participant-1="UC" data-participant-2="Repo"><polygon fill="#181818" points="1077.8301,655.1016,1087.8301,659.1016,1077.8301,663.1016,1081.8301,659.1016" style="stroke:#181818;stroke-width:1;"/><line style="stroke:#181818;stroke-width:1;" x1="607.1641" x2="1083.8301" y1="659.1016" y2="659.1016"/><text fill="#000000" font-family="sans-serif" font-size="13" font-weight="bold" lengthAdjust="spacing" textLength="14.46" x="614.1641" y="653.8389">11</text><text fill="#000000" font-family="sans-serif" font-size="13" lengthAdjust="spacing" textLength="75.8481" x="632.624" y="653.8389">save(aircraft)</text></g><g class="message" data-participant-1="Repo" data-participant-2="DB"><polygon fill="#181818" points="1364.7871,703.6836,1374.7871,707.6836,1364.7871,711.6836,1368.7871,707.6836" style="stroke:#181818;stroke-width:1;"/><line style="stroke:#181818;stroke-width:1;" x1="1099.8301" x2="1370.7871" y1="707.6836" y2="707.6836"/><text fill="#000000" font-family="sans-serif" font-size="13" font-weight="bold" lengthAdjust="spacing" textLength="14.46" x="1106.8301" y="693.7754">12</text><text fill="#000000" font-family="sans-serif" font-size="13" lengthAdjust="spacing" textLength="239.4971" x="1125.29" y="685.1299">UPDATE aircrafts SET current_status = ?</text><text fill="#000000" font-family="sans-serif" font-size="13" lengthAdjust="spacing" textLength="84.1636" x="1125.29" y="702.4209">WHERE id = ?</text></g><g class="message" data-participant-1="DB" data-participant-2="Repo"><polygon fill="#181818" points="1110.8301,734.9746,1100.8301,738.9746,1110.8301,742.9746,1106.8301,738.9746" style="stroke:#181818;stroke-width:1;"/><line style="stroke:#181818;stroke-width:1;stroke-dasharray:2,2;" x1="1104.8301" x2="1380.7871" y1="738.9746" y2="738.9746"/><text fill="#000000" font-family="sans-serif" font-size="13" font-weight="bold" lengthAdjust="spacing" textLength="14.46" x="1116.8301" y="733.7119">13</text><text fill="#000000" font-family="sans-serif" font-size="13" lengthAdjust="spacing" textLength="161.8716" x="1135.29" y="733.7119">updated record confirmation</text></g><g class="message" data-participant-1="Repo" data-participant-2="UC"><polygon fill="#181818" points="618.1641,766.2656,608.1641,770.2656,618.1641,774.2656,614.1641,770.2656" style="stroke:#181818;stroke-width:1;"/><line style="stroke:#181818;stroke-width:1;stroke-dasharray:2,2;" x1="612.1641" x2="1093.8301" y1="770.2656" y2="770.2656"/><text fill="#000000" font-family="sans-serif" font-size="13" font-weight="bold" lengthAdjust="spacing" textLength="14.46" x="624.1641" y="765.0029">14</text><text fill="#000000" font-family="sans-serif" font-size="13" lengthAdjust="spacing" textLength="88.1626" x="642.624" y="765.0029">updatedAircraft</text></g><g class="message" data-participant-1="UC" data-participant-2="Ctrl"><polygon fill="#181818" points="383.5688,797.5566,373.5688,801.5566,383.5688,805.5566,379.5688,801.5566" style="stroke:#181818;stroke-width:1;"/><line style="stroke:#181818;stroke-width:1;stroke-dasharray:2,2;" x1="377.5688" x2="601.1641" y1="801.5566" y2="801.5566"/><text fill="#000000" font-family="sans-serif" font-size="13" font-weight="bold" lengthAdjust="spacing" textLength="14.46" x="389.5688" y="796.2939">15</text><text fill="#000000" font-family="sans-serif" font-size="13" lengthAdjust="spacing" textLength="88.1626" x="408.0288" y="796.2939">updatedAircraft</text></g><g class="message" data-participant-1="Ctrl" data-participant-2="User"><polygon fill="#181818" points="63.731,828.8477,53.731,832.8477,63.731,836.8477,59.731,832.8477" style="stroke:#181818;stroke-width:1;"/><line style="stroke:#181818;stroke-width:1;stroke-dasharray:2,2;" x1="57.731" x2="366.5688" y1="832.8477" y2="832.8477"/><text fill="#000000" font-family="sans-serif" font-size="13" font-weight="bold" lengthAdjust="spacing" textLength="14.46" x="69.731" y="827.585">16</text><text fill="#000000" font-family="sans-serif" font-size="13" lengthAdjust="spacing" textLength="153.1753" x="88.1909" y="827.585">200 OK (JSON Response)</text></g><!--SRC=[XLHDZzem4BtdLumu0LfWrIDIMq6IQjMFpGe2lI2jJ3A0gs2djiE7glxtJkm44e7epOddlNapRyQiC58K-pKgZoL6AkXCOj-74KpIFHSTO1eMcYvpfWnFUCw4eH2k4iKsnfV2A9bbg6oWRrJM3bpaAJDOXyyDCuKcEfzfTDH-Etw6MwwDOePByMfLhKHtoR828Lh_miJqB6mPtTSpmrngJbMSRLZvUJ-GM4DXk3axFdVsI2jRapJe1DN9tWPJpojx08DFjaGOmnirwGL6BESZLb7gqHzre_xlIDkQAT_NUVGAHsvs8F08xdUlx3a_K8jSxpnBJsaMFYN14oQ5mMwJDiQJUGA5lmlKfW6dHdf2qa7nxSw0tD2VCOGdWYL6Ws97QD9GViN5TYMOI1jwOAFa7e8ueeBzKiSoWdwVf9GXjzxSA6i88elQUfRH69fEme5bFBLGwWuEjyCdI9WW4AmHS9-JEHxb7zJje6GkBNGhAAR4slDIR6Qjb9VU4sZ3HJeztvVkJWtDTbuyYoI6O4huUVWzz6FemvTPz0CkNg_4pvTm5hPw-kxM23x2voibpGxn3Aw2y4G0Qls5YpWIgT9c5UN0EHLrxPVWUcoRuKwsAzjT4wAmc-SshblDo_1cwgh1RplbVeuXa7l6HSCda4bIA0qxL7Znh9gSgtMYoBAULmcfAsZghPAsZTBiWDswpCUUBDw2IHnUpI2JOY1X2eLvh-IG2RL7FFsF9QvLQMK4959ikDhRYX-xKW7hH-M-9zT7uq5ukRvkzqlkygqPmuVdPuY-WNiuPgXpAJIsZ2yH_m00]--></g></svg>