<svg xmlns="http://www.w3.org/2000/svg" xmlns:xlink="http://www.w3.org/1999/xlink" contentStyleType="text/css" data-diagram-type="DESCRIPTION" height="715px" preserveAspectRatio="none" style="width:711px;height:715px;background:#FFFFFF;" version="1.1" viewBox="0 0 711 715" width="711px" zoomAndPan="magnify"><defs/><g><!--cluster WP#1B - Aircraft & Fleet Management--><g class="cluster" data-entity="WP.1B - Aircraft . Fleet Management" data-source-line="9" data-uid="ent0005" id="cluster_WP.1B - Aircraft . Fleet Management"><rect fill="none" height="702" rx="2.5" ry="2.5" style="stroke:#181818;stroke-width:1;" width="531" x="174" y="7"/><text fill="#000000" font-family="sans-serif" font-size="14" font-weight="bold" lengthAdjust="spacing" textLength="250.4961" x="314.252" y="24.1074">WP#1B - Aircraft &amp; Fleet Management</text></g><!--entity US201--><g class="entity" data-entity="US201" data-source-line="10" data-uid="ent0006" id="entity_US201"><ellipse cx="439.2705" cy="327.0541" fill="#F1F1F1" rx="160.7705" ry="34.5541" style="stroke:#181818;stroke-width:0.5;"/><text fill="#000000" font-family="sans-serif" font-size="14" lengthAdjust="spacing" textLength="301.4922" x="288.5244" y="332.8647">US201: Update an aircraft model's specifications</text></g><!--entity US202--><g class="entity" data-entity="US202" data-source-line="11" data-uid="ent0007" id="entity_US202"><ellipse cx="439.4494" cy="96.7899" fill="#F1F1F1" rx="249.4494" ry="52.2899" style="stroke:#181818;stroke-width:0.5;"/><text fill="#000000" font-family="sans-serif" font-size="14" lengthAdjust="spacing" textLength="484.0254" x="197.4367" y="102.6004">US202: Register an aircraft model with an optional image or technical diagram</text></g><!--entity US203--><g class="entity" data-entity="US203" data-source-line="12" data-uid="ent0008" id="entity_US203"><ellipse cx="439.2842" cy="536.7568" fill="#F1F1F1" rx="171.7842" ry="36.7568" style="stroke:#181818;stroke-width:0.5;"/><text fill="#000000" font-family="sans-serif" font-size="14" lengthAdjust="spacing" textLength="324.4746" x="277.0469" y="542.5674">US203: View compatible routes for a specific aircraft</text></g><!--entity US204--><g class="entity" data-entity="US204" data-source-line="13" data-uid="ent0009" id="entity_US204"><ellipse cx="439.6817" cy="220.9363" fill="#F1F1F1" rx="167.6817" ry="35.9363" style="stroke:#181818;stroke-width:0.5;"/><text fill="#000000" font-family="sans-serif" font-size="14" lengthAdjust="spacing" textLength="315.9297" x="281.7168" y="226.7469">US204: See the Top 5 most utilized aircraft models</text></g><!--entity US205--><g class="entity" data-entity="US205" data-source-line="14" data-uid="ent0010" id="entity_US205"><ellipse cx="439.4905" cy="430.9981" fill="#F1F1F1" rx="157.9905" ry="33.9981" style="stroke:#181818;stroke-width:0.5;"/><text fill="#000000" font-family="sans-serif" font-size="14" lengthAdjust="spacing" textLength="295.668" x="291.6565" y="436.8086">US205: View real-time aircraft availability status</text></g><!--entity US206--><g class="entity" data-entity="US206" data-source-line="15" data-uid="ent0011" id="entity_US206"><ellipse cx="439.6201" cy="651.224" fill="#F1F1F1" rx="196.6201" ry="41.724" style="stroke:#181818;stroke-width:0.5;"/><text fill="#000000" font-family="sans-serif" font-size="14" lengthAdjust="spacing" textLength="375.8809" x="251.6797" y="657.0346">US206: Calculate the total operational hours for each aircraft</text></g><!--entity BO--><g class="entity" data-entity="BO" data-source-line="5" data-uid="ent0002" id="entity_BO"><ellipse cx="67.8618" cy="190" fill="#F1F1F1" rx="8" ry="8" style="stroke:#181818;stroke-width:0.5;"/><path d="M67.8618,198 L67.8618,225 M54.8618,206 L80.8618,206 M67.8618,225 L54.8618,240 M67.8618,225 L80.8618,240" fill="none" style="stroke:#181818;stroke-width:0.5;"/><text fill="#000000" font-family="sans-serif" font-size="14" lengthAdjust="spacing" textLength="123.7236" x="6" y="256.6074">Backoffice Operator</text></g><!--entity ATCC--><g class="entity" data-entity="ATCC" data-source-line="6" data-uid="ent0003" id="entity_ATCC"><ellipse cx="68.0552" cy="506" fill="#F1F1F1" rx="8" ry="8" style="stroke:#181818;stroke-width:0.5;"/><path d="M68.0552,514 L68.0552,541 M55.0552,522 L81.0552,522 M68.0552,541 L55.0552,556 M68.0552,541 L81.0552,556" fill="none" style="stroke:#181818;stroke-width:0.5;"/><text fill="#000000" font-family="sans-serif" font-size="14" lengthAdjust="spacing" textLength="38.1104" x="49" y="572.6074">ATCC</text></g><!--entity Admin--><g class="entity" data-entity="Admin" data-source-line="7" data-uid="ent0004" id="entity_Admin"><ellipse cx="67.8413" cy="348" fill="#F1F1F1" rx="8" ry="8" style="stroke:#181818;stroke-width:0.5;"/><path d="M67.8413,356 L67.8413,383 M54.8413,364 L80.8413,364 M67.8413,383 L54.8413,398 M67.8413,383 L80.8413,398" fill="none" style="stroke:#181818;stroke-width:0.5;"/><text fill="#000000" font-family="sans-serif" font-size="14" lengthAdjust="spacing" textLength="39.6826" x="48" y="414.6074">Admin</text></g><!--link BO to US201--><g class="link" data-entity-1="BO" data-entity-2="US201" data-source-line="19" data-uid="lnk12" id="link_BO_US201"><path d="M130.03,258.01 C141.68,264.01 154,269.67 166,274 C209.18,289.57 257.96,300.89 302.18,308.97" fill="none" id="BO-US201" style="stroke:#181818;stroke-width:1;"/></g><!--link BO to US202--><g class="link" data-entity-1="BO" data-entity-2="US202" data-source-line="20" data-uid="lnk13" id="link_BO_US202"><path d="M130.2,183.85 C141.83,177.68 154.1,171.75 166,167 C197.3,154.51 231.53,143.66 264.83,134.49" fill="none" id="BO-US202" style="stroke:#181818;stroke-width:1;"/></g><!--link BO to US204--><g class="link" data-entity-1="BO" data-entity-2="US204" data-source-line="21" data-uid="lnk14" id="link_BO_US204"><path d="M130.02,221 C168.86,221 221.21,221 271.74,221" fill="none" id="BO-US204" style="stroke:#181818;stroke-width:1;"/></g><!--link ATCC to US203--><g class="link" data-entity-1="ATCC" data-entity-2="US203" data-source-line="24" data-uid="lnk15" id="link_ATCC_US203"><path d="M87.07,537 C120.54,537 195.35,537 267.37,537" fill="none" id="ATCC-US203" style="stroke:#181818;stroke-width:1;"/></g><!--link ATCC to US205--><g class="link" data-entity-1="ATCC" data-entity-2="US205" data-source-line="25" data-uid="lnk16" id="link_ATCC_US205"><path d="M87.07,524.32 C105.91,511.69 136.73,492.7 166,482 C208.83,466.34 257.29,455.29 301.34,447.58" fill="none" id="ATCC-US205" style="stroke:#181818;stroke-width:1;"/></g><!--link ATCC to US206--><g class="link" data-entity-1="ATCC" data-entity-2="US206" data-source-line="26" data-uid="lnk17" id="link_ATCC_US206"><path d="M87.13,549.51 C106.02,562 136.88,580.89 166,592 C202.97,606.11 244.12,617.22 283,625.81" fill="none" id="ATCC-US206" style="stroke:#181818;stroke-width:1;"/></g><!--link Admin to US201--><g class="link" data-entity-1="Admin" data-entity-2="US201" data-source-line="28" data-uid="lnk18" id="link_Admin_US201"><path d="M88.09,376.31 C127.99,370.7 223.25,357.29 304.39,345.87" fill="none" id="Admin-US201" style="stroke:#181818;stroke-width:1;"/></g><!--link Admin to US202--><g class="link" data-entity-1="Admin" data-entity-2="US202" data-source-line="29" data-uid="lnk19" id="link_Admin_US202"><path d="M88.16,351.22 C101.2,331.45 118.17,303.9 130,278 C151.55,230.83 128.21,202.52 166,167 C184.69,149.44 207.17,136.14 231.11,126.09" fill="none" id="Admin-US202" style="stroke:#181818;stroke-width:1;"/></g><!--link Admin to US203--><g class="link" data-entity-1="Admin" data-entity-2="US203" data-source-line="30" data-uid="lnk20" id="link_Admin_US203"><path d="M88.21,407.67 C105.66,431.38 133.58,463.98 166,482 C201.01,501.46 241.97,514.08 281.33,522.26" fill="none" id="Admin-US203" style="stroke:#181818;stroke-width:1;"/></g><!--link Admin to US204--><g class="link" data-entity-1="Admin" data-entity-2="US204" data-source-line="31" data-uid="lnk21" id="link_Admin_US204"><path d="M88.13,350.02 C105.53,326.06 133.42,293.13 166,275 C201.71,255.12 243.65,242.49 283.77,234.48" fill="none" id="Admin-US204" style="stroke:#181818;stroke-width:1;"/></g><!--link Admin to US205--><g class="link" data-entity-1="Admin" data-entity-2="US205" data-source-line="32" data-uid="lnk22" id="link_Admin_US205"><path d="M88.09,381.69 C128.36,387.35 225.02,400.96 306.64,412.44" fill="none" id="Admin-US205" style="stroke:#181818;stroke-width:1;"/></g><!--link Admin to US206--><g class="link" data-entity-1="Admin" data-entity-2="US206" data-source-line="33" data-uid="lnk23" id="link_Admin_US206"><path d="M88.19,406.77 C101.23,426.54 118.2,454.08 130,480 C151.66,527.59 127.27,556.88 166,592 C190.29,614.03 220.82,628.53 252.57,637.94" fill="none" id="Admin-US206" style="stroke:#181818;stroke-width:1;"/></g><!--SRC=[RL91Rjim4Bpp5GCNQ4u66jdoGJVRG6-5YpffpnjgRH6XH85SDKYBlgSlw0loiP9oB5LLT91sLjoPsULQFWd4mPjp9IYDPot6DIeycgObJpLQqezqvgCyMqRwJStPib8ts8hp71Jf-CLY5y-vqybeng5bJp6v00Ni3jSJsxlzla-bO4YMjMaksHGfDKXWyUtpkziTbjWQhpr5e-_nqJ8BFb4JBTNSo08_5UBJ1TOKOitzCVjmM-2-BKaOr82knRKhsTu4X9QrYJufDHfwwRvepfCL-C9d4uJzd0bFHggKTcqY8WjJHrE8JGdhgea2DWwKpd68WqWs5raL-6hu2ThLRRJqaARiEk60KwIYmUuWFv2jvcJh0aTcICMuSotoQ3K8EZ7M_E3olmx6tjTpflpLbcUoIp4rZyNqdOobXyWfpmX2qerC-PnfKs1FLdSsNKXo9axYQ5o_99V9LQxpbtwPT3NlTAD-zGiNWjE6Ndw__8dZAHtUs3crEs2vVBtHCSx-YTTlSlLBcLxNOwi9oYTeerI_hgFK16PJk9h2zHJcKxXHVm40]--></g></svg>