<?plantuml 1.2026.2?><svg xmlns="http://www.w3.org/2000/svg" xmlns:xlink="http://www.w3.org/1999/xlink" contentStyleType="text/css" data-diagram-type="DESCRIPTION" height="575px" preserveAspectRatio="none" style="width:446px;height:575px;background:#FFFFFF;" version="1.1" viewBox="0 0 446 575" width="446px" zoomAndPan="magnify"><defs/><g><!--cluster AISafe - WP#3A: Flight Routes--><g class="cluster" data-qualified-name="AISafe - WP.3A. Flight Routes" data-source-line="6" id="ent0004"><rect fill="none" height="562" rx="2.5" ry="2.5" style="stroke:#181818;stroke-width:1;" width="266" x="174" y="7"/><text fill="#000000" font-family="sans-serif" font-size="14" font-weight="bold" lengthAdjust="spacing" textLength="202.2344" x="205.8828" y="24.1074">AISafe - WP#3A: Flight Routes</text></g><!--entity US110--><g class="entity" data-qualified-name="AISafe - WP.3A. Flight Routes.US110" data-source-line="7" id="ent0005"><ellipse cx="307.1494" cy="224.8299" fill="#F1F1F1" rx="74.6494" ry="17.3299" style="stroke:#181818;stroke-width:0.5;"/><text fill="#000000" font-family="sans-serif" font-size="14" lengthAdjust="spacing" textLength="108.9307" x="252.684" y="230.6404">US110: Criar rota</text></g><!--entity US111--><g class="entity" data-qualified-name="AISafe - WP.3A. Flight Routes.US111" data-source-line="8" id="ent0006"><ellipse cx="307.1516" cy="380.1303" fill="#F1F1F1" rx="113.6516" ry="25.1303" style="stroke:#181818;stroke-width:0.5;"/><text fill="#000000" font-family="sans-serif" font-size="14" lengthAdjust="spacing" textLength="200.7646" x="206.7692" y="385.9409">US111: Ver hist&#243;rico de vers&#245;es</text></g><!--entity US112a--><g class="entity" data-qualified-name="AISafe - WP.3A. Flight Routes.US112a" data-source-line="9" id="ent0007"><ellipse cx="307.2032" cy="459.2406" fill="#F1F1F1" rx="84.2032" ry="19.2406" style="stroke:#181818;stroke-width:0.5;"/><text fill="#000000" font-family="sans-serif" font-size="14" lengthAdjust="spacing" textLength="133.0684" x="240.669" y="465.0512">US112: Atualizar rota</text></g><!--entity US112b--><g class="entity" data-qualified-name="AISafe - WP.3A. Flight Routes.US112b" data-source-line="10" id="ent0008"><ellipse cx="307.1239" cy="533.1248" fill="#F1F1F1" rx="86.1239" ry="19.6248" style="stroke:#181818;stroke-width:0.5;"/><text fill="#000000" font-family="sans-serif" font-size="14" lengthAdjust="spacing" textLength="137.7305" x="238.2586" y="538.9353">US112: Desativar rota</text></g><!--entity US113a--><g class="entity" data-qualified-name="AISafe - WP.3A. Flight Routes.US113a" data-source-line="11" id="ent0009"><ellipse cx="307.1758" cy="299.1352" fill="#F1F1F1" rx="93.6758" ry="21.1352" style="stroke:#181818;stroke-width:0.5;"/><text fill="#000000" font-family="sans-serif" font-size="14" lengthAdjust="spacing" textLength="155.627" x="229.3623" y="304.9457">US113: Obter rota por ID</text></g><!--entity US113b--><g class="entity" data-qualified-name="AISafe - WP.3A. Flight Routes.US113b" data-source-line="12" id="ent0010"><ellipse cx="306.8425" cy="69.7685" fill="#F1F1F1" rx="116.8425" ry="25.7685" style="stroke:#181818;stroke-width:0.5;"/><text fill="#000000" font-family="sans-serif" font-size="14" lengthAdjust="spacing" textLength="207.7783" x="202.9533" y="75.579">US113: Listar rotas por aeroporto</text></g><!--entity US114--><g class="entity" data-qualified-name="AISafe - WP.3A. Flight Routes.US114" data-source-line="13" id="ent0011"><ellipse cx="306.8636" cy="151.9727" fill="#F1F1F1" rx="90.3636" ry="20.4727" style="stroke:#181818;stroke-width:0.5;"/><text fill="#000000" font-family="sans-serif" font-size="14" lengthAdjust="spacing" textLength="147.8545" x="232.9363" y="157.7833">US114: Pesquisar rotas</text></g><!--entity ATCC--><g class="entity" data-qualified-name="ATCC" data-source-line="3" id="ent0002"><ellipse cx="68.0552" cy="268" fill="#F1F1F1" rx="8" ry="8" style="stroke:#181818;stroke-width:0.5;"/><path d="M68.0552,276 L68.0552,303 M55.0552,284 L81.0552,284 M68.0552,303 L55.0552,318 M68.0552,303 L81.0552,318" fill="none" style="stroke:#181818;stroke-width:0.5;"/><text fill="#000000" font-family="sans-serif" font-size="14" lengthAdjust="spacing" textLength="38.1104" x="49" y="334.6074">ATCC</text></g><!--entity BO--><g class="entity" data-qualified-name="BO" data-source-line="4" id="ent0003"><ellipse cx="67.8618" cy="405" fill="#F1F1F1" rx="8" ry="8" style="stroke:#181818;stroke-width:0.5;"/><path d="M67.8618,413 L67.8618,440 M54.8618,421 L80.8618,421 M67.8618,440 L54.8618,455 M67.8618,440 L80.8618,455" fill="none" style="stroke:#181818;stroke-width:0.5;"/><text fill="#000000" font-family="sans-serif" font-size="14" lengthAdjust="spacing" textLength="123.7236" x="6" y="471.6074">Backoffice Operator</text></g><!--link ATCC to US110--><g class="link" data-entity-1="ent0002" data-entity-2="ent0005" data-link-type="association" data-source-line="16" id="lnk12"><path d="M87.32,290.76 C106.62,282.28 138.03,269.07 166,260 C193.88,250.96 225.52,242.87 251.66,236.75" fill="none" id="ATCC-US110" style="stroke:#181818;stroke-width:1;"/></g><!--link ATCC to US111--><g class="link" data-entity-1="ent0002" data-entity-2="ent0006" data-link-type="association" data-source-line="17" id="lnk13"><path d="M87.08,306.56 C106.45,314.54 138.16,327.29 166,337 C189.17,345.08 214.76,353.18 237.66,360.14" fill="none" id="ATCC-US111" style="stroke:#181818;stroke-width:1;"/></g><!--link ATCC to US112a--><g class="link" data-entity-1="ent0002" data-entity-2="ent0007" data-link-type="association" data-source-line="18" id="lnk14"><path d="M87.11,322.75 C113.72,357.54 160.81,418.6 166,422 C186.28,435.31 211.17,443.84 234.3,449.31" fill="none" id="ATCC-US112a" style="stroke:#181818;stroke-width:1;"/></g><!--link ATCC to US112b--><g class="link" data-entity-1="ent0002" data-entity-2="ent0008" data-link-type="association" data-source-line="19" id="lnk15"><path d="M87.19,318.7 C100.61,334.13 118.47,356.65 130,379 C154.74,426.98 127.15,457.52 166,495 C182.4,510.82 204.71,520.21 226.69,525.73" fill="none" id="ATCC-US112b" style="stroke:#181818;stroke-width:1;"/></g><!--link ATCC to US113a--><g class="link" data-entity-1="ent0002" data-entity-2="ent0009" data-link-type="association" data-source-line="20" id="lnk16"><path d="M87.2,299 C114.19,299 166.68,299 213.48,299" fill="none" id="ATCC-US113a" style="stroke:#181818;stroke-width:1;"/></g><!--link ATCC to US113b--><g class="link" data-entity-1="ent0002" data-entity-2="ent0010" data-link-type="association" data-source-line="21" id="lnk17"><path d="M79.9,259.27 C93.39,217.34 120.37,152.14 166,114 C180.56,101.83 198.51,93.01 216.63,86.63" fill="none" id="ATCC-US113b" style="stroke:#181818;stroke-width:1;"/></g><!--link ATCC to US114--><g class="link" data-entity-1="ent0002" data-entity-2="ent0011" data-link-type="association" data-source-line="22" id="lnk18"><path d="M87.13,270.66 C104.47,245.81 132.83,210.53 166,190 C185.91,177.67 209.84,169.29 232.23,163.6" fill="none" id="ATCC-US114" style="stroke:#181818;stroke-width:1;"/></g><!--link BO to US111--><g class="link" data-entity-1="ent0003" data-entity-2="ent0006" data-link-type="association" data-source-line="24" id="lnk19"><path d="M130.03,421.58 C160.21,414.45 196.94,405.77 229.02,398.19" fill="none" id="BO-US111" style="stroke:#181818;stroke-width:1;"/></g><!--link BO to US112a--><g class="link" data-entity-1="ent0003" data-entity-2="ent0007" data-link-type="association" data-source-line="25" id="lnk20"><path d="M130.03,441.92 C160.34,444.86 197.27,448.45 229.46,451.57" fill="none" id="BO-US112a" style="stroke:#181818;stroke-width:1;"/></g><!--link BO to US112b--><g class="link" data-entity-1="ent0003" data-entity-2="ent0008" data-link-type="association" data-source-line="26" id="lnk21"><path d="M128.13,475.55 C140.33,482.67 153.32,489.55 166,495 C190.41,505.49 218.48,513.78 243.05,519.92" fill="none" id="BO-US112b" style="stroke:#181818;stroke-width:1;"/></g><!--link BO to US113a--><g class="link" data-entity-1="ent0003" data-entity-2="ent0009" data-link-type="association" data-source-line="27" id="lnk22"><path d="M99.24,396.22 C116.7,375.79 140.26,352.09 166,337 C185.88,325.34 209.43,317.17 231.49,311.47" fill="none" id="BO-US113a" style="stroke:#181818;stroke-width:1;"/></g><?plantuml-src RP5DReCm48NtFiM8hf5AOEKT45MAL8cewSzwS8R4AefJUyYYLKzLzGIvM0qb8P2iF6_ylJV-gQbYO0DMRxOCQsr9iJOx8L2niH2aptaU03feYrCpG_LkgaehWc9F5dspOx92Y3O0TvkQl7UnmeeWXBVbNPnAUAYx8K-cON81V0c0nf52vzcNLHJTIyYjHWlMC7Q1NNUAHH9UoS9MEpx-MAqCh0aEPDtnjutjRT7KDfEGSeEr_fnEcE4DTauEMH-ks7BAnXAAakcVWxr_dyNyZCTu0t_q9-zpNMT0iiQlR0RVrPX4mfBSHwFToNg64_4jHFi_48RzarsgQAJyPKUo7Cbul1kFTnCXicA87MeVUY7A2-43_m00?></g></svg>