<svg xmlns="http://www.w3.org/2000/svg" xmlns:xlink="http://www.w3.org/1999/xlink" contentStyleType="text/css" data-diagram-type="SEQUENCE" height="634px" preserveAspectRatio="none" style="width:1320px;height:634px;background:#FFFFFF;" version="1.1" viewBox="0 0 1320 634" width="1320px" zoomAndPan="magnify"><defs/><g><g><title>AircraftController</title><rect fill="#FFFFFF" height="416.0742" style="stroke:#181818;stroke-width:1;" width="10" x="409.9873" y="116.9121"/></g><g><title>GetCompatibleRoutesUseCase</title><rect fill="#FFFFFF" height="353.4922" style="stroke:#181818;stroke-width:1;" width="10" x="656.8442" y="148.2031"/></g><g><title>AircraftRepository</title><rect fill="#FFFFFF" height="93.873" style="stroke:#181818;stroke-width:1;" width="10" x="968.0112" y="179.4941"/></g><g><title>RouteRepository</title><rect fill="#FFFFFF" height="93.873" style="stroke:#181818;stroke-width:1;" width="10" x="1099.7764" y="304.6582"/></g><g><title>Database</title><rect fill="#FFFFFF" height="31.291" style="stroke:#181818;stroke-width:1;" width="10" x="1280.8735" y="210.7852"/></g><g><title>Database</title><rect fill="#FFFFFF" height="31.291" style="stroke:#181818;stroke-width:1;" width="10" x="1280.8735" y="335.9492"/></g><g><title>ATCC.Admin</title><rect fill="#000000" fill-opacity="0.00000" height="467.3652" width="8" x="44.8413" y="83.6211"/><line style="stroke:#181818;stroke-width:0.5;stroke-dasharray:5,5;" x1="48" x2="48" y1="83.6211" y2="550.9863"/></g><g><title>AircraftController</title><rect fill="#000000" fill-opacity="0.00000" height="467.3652" width="8" x="410.9873" y="83.6211"/><line style="stroke:#181818;stroke-width:0.5;stroke-dasharray:5,5;" x1="414.4736" x2="414.4736" y1="83.6211" y2="550.9863"/></g><g><title>GetCompatibleRoutesUseCase</title><rect fill="#000000" fill-opacity="0.00000" height="467.3652" width="8" x="657.8442" y="83.6211"/><line style="stroke:#181818;stroke-width:0.5;stroke-dasharray:5,5;" x1="661.186" x2="661.186" y1="83.6211" y2="550.9863"/></g><g><title>AircraftRepository</title><rect fill="#000000" fill-opacity="0.00000" height="467.3652" width="8" x="969.0112" y="83.6211"/><line style="stroke:#181818;stroke-width:0.5;stroke-dasharray:5,5;" x1="972.3838" x2="972.3838" y1="83.6211" y2="550.9863"/></g><g><title>RouteRepository</title><rect fill="#000000" fill-opacity="0.00000" height="467.3652" width="8" x="1100.7764" y="83.6211"/><line style="stroke:#181818;stroke-width:0.5;stroke-dasharray:5,5;" x1="1104.6387" x2="1104.6387" y1="83.6211" y2="550.9863"/></g><g><title>Database</title><rect fill="#000000" fill-opacity="0.00000" height="467.3652" width="8" x="1281.8735" y="83.6211"/><line style="stroke:#181818;stroke-width:0.5;stroke-dasharray:5,5;" x1="1284.9082" x2="1284.9082" y1="83.6211" y2="550.9863"/></g><g class="participant participant-head" data-participant="ATCC"><text fill="#000000" font-family="sans-serif" font-size="14" lengthAdjust="spacing" textLength="81.6826" x="5" y="80.1074">ATCC/Admin</text><ellipse cx="48.8413" cy="13.5" fill="#E2E2F0" rx="8" ry="8" style="stroke:#181818;stroke-width:0.5;"/><path d="M48.8413,21.5 L48.8413,48.5 M35.8413,29.5 L61.8413,29.5 M48.8413,48.5 L35.8413,63.5 M48.8413,48.5 L61.8413,63.5" fill="none" style="stroke:#181818;stroke-width:0.5;"/></g><g class="participant participant-tail" data-participant="ATCC"><text fill="#000000" font-family="sans-serif" font-size="14" lengthAdjust="spacing" textLength="81.6826" x="5" y="565.0938">ATCC/Admin</text><ellipse cx="48.8413" cy="577.1074" fill="#E2E2F0" rx="8" ry="8" style="stroke:#181818;stroke-width:0.5;"/><path d="M48.8413,585.1074 L48.8413,612.1074 M35.8413,593.1074 L61.8413,593.1074 M48.8413,612.1074 L35.8413,627.1074 M48.8413,612.1074 L61.8413,627.1074" fill="none" style="stroke:#181818;stroke-width:0.5;"/></g><g class="participant participant-head" data-participant="Ctrl"><rect fill="#E2E2F0" height="32.6211" rx="2.5" ry="2.5" style="stroke:#181818;stroke-width:0.5;" width="119.0273" x="355.4736" y="50"/><text fill="#000000" font-family="sans-serif" font-size="14" lengthAdjust="spacing" textLength="105.0273" x="362.4736" y="72.1074">AircraftController</text></g><g class="participant participant-tail" data-participant="Ctrl"><rect fill="#E2E2F0" height="32.6211" rx="2.5" ry="2.5" style="stroke:#181818;stroke-width:0.5;" width="119.0273" x="355.4736" y="549.9863"/><text fill="#000000" font-family="sans-serif" font-size="14" lengthAdjust="spacing" textLength="105.0273" x="362.4736" y="572.0938">AircraftController</text></g><g class="participant participant-head" data-participant="UC"><rect fill="#E2E2F0" height="32.6211" rx="2.5" ry="2.5" style="stroke:#181818;stroke-width:0.5;" width="209.3164" x="557.186" y="50"/><text fill="#000000" font-family="sans-serif" font-size="14" lengthAdjust="spacing" textLength="195.3164" x="564.186" y="72.1074">GetCompatibleRoutesUseCase</text></g><g class="participant participant-tail" data-participant="UC"><rect fill="#E2E2F0" height="32.6211" rx="2.5" ry="2.5" style="stroke:#181818;stroke-width:0.5;" width="209.3164" x="557.186" y="549.9863"/><text fill="#000000" font-family="sans-serif" font-size="14" lengthAdjust="spacing" textLength="195.3164" x="564.186" y="572.0938">GetCompatibleRoutesUseCase</text></g><g class="participant participant-head" data-participant="AcftRepo"><rect fill="#E2E2F0" height="32.6211" rx="2.5" ry="2.5" style="stroke:#181818;stroke-width:0.5;" width="125.2549" x="910.3838" y="50"/><text fill="#000000" font-family="sans-serif" font-size="14" lengthAdjust="spacing" textLength="111.2549" x="917.3838" y="72.1074">AircraftRepository</text></g><g class="participant participant-tail" data-participant="AcftRepo"><rect fill="#E2E2F0" height="32.6211" rx="2.5" ry="2.5" style="stroke:#181818;stroke-width:0.5;" width="125.2549" x="910.3838" y="549.9863"/><text fill="#000000" font-family="sans-serif" font-size="14" lengthAdjust="spacing" textLength="111.2549" x="917.3838" y="572.0938">AircraftRepository</text></g><g class="participant participant-head" data-participant="RouteRepo"><rect fill="#E2E2F0" height="32.6211" rx="2.5" ry="2.5" style="stroke:#181818;stroke-width:0.5;" width="118.2754" x="1045.6387" y="50"/><text fill="#000000" font-family="sans-serif" font-size="14" lengthAdjust="spacing" textLength="104.2754" x="1052.6387" y="72.1074">RouteRepository</text></g><g class="participant participant-tail" data-participant="RouteRepo"><rect fill="#E2E2F0" height="32.6211" rx="2.5" ry="2.5" style="stroke:#181818;stroke-width:0.5;" width="118.2754" x="1045.6387" y="549.9863"/><text fill="#000000" font-family="sans-serif" font-size="14" lengthAdjust="spacing" textLength="104.2754" x="1052.6387" y="572.0938">RouteRepository</text></g><g class="participant participant-head" data-participant="DB"><text fill="#000000" font-family="sans-serif" font-size="14" lengthAdjust="spacing" textLength="59.9307" x="1252.9082" y="80.1074">Database</text><path d="M1267.8735,29 C1267.8735,19 1285.8735,19 1285.8735,19 C1285.8735,19 1303.8735,19 1303.8735,29 L1303.8735,55 C1303.8735,65 1285.8735,65 1285.8735,65 C1285.8735,65 1267.8735,65 1267.8735,55 L1267.8735,29" fill="#E2E2F0" style="stroke:#181818;stroke-width:0.5;"/><path d="M1267.8735,29 C1267.8735,39 1285.8735,39 1285.8735,39 C1285.8735,39 1303.8735,39 1303.8735,29" fill="none" style="stroke:#181818;stroke-width:0.5;"/></g><g class="participant participant-tail" data-participant="DB"><text fill="#000000" font-family="sans-serif" font-size="14" lengthAdjust="spacing" textLength="59.9307" x="1252.9082" y="565.0938">Database</text><path d="M1267.8735,578.6074 C1267.8735,568.6074 1285.8735,568.6074 1285.8735,568.6074 C1285.8735,568.6074 1303.8735,568.6074 1303.8735,578.6074 L1303.8735,604.6074 C1303.8735,614.6074 1285.8735,614.6074 1285.8735,614.6074 C1285.8735,614.6074 1267.8735,614.6074 1267.8735,604.6074 L1267.8735,578.6074" fill="#E2E2F0" style="stroke:#181818;stroke-width:0.5;"/><path d="M1267.8735,578.6074 C1267.8735,588.6074 1285.8735,588.6074 1285.8735,588.6074 C1285.8735,588.6074 1303.8735,588.6074 1303.8735,578.6074" fill="none" style="stroke:#181818;stroke-width:0.5;"/></g><g><title>AircraftController</title><rect fill="#FFFFFF" height="416.0742" style="stroke:#181818;stroke-width:1;" width="10" x="409.9873" y="116.9121"/></g><g><title>GetCompatibleRoutesUseCase</title><rect fill="#FFFFFF" height="353.4922" style="stroke:#181818;stroke-width:1;" width="10" x="656.8442" y="148.2031"/></g><g><title>AircraftRepository</title><rect fill="#FFFFFF" height="93.873" style="stroke:#181818;stroke-width:1;" width="10" x="968.0112" y="179.4941"/></g><g><title>RouteRepository</title><rect fill="#FFFFFF" height="93.873" style="stroke:#181818;stroke-width:1;" width="10" x="1099.7764" y="304.6582"/></g><g><title>Database</title><rect fill="#FFFFFF" height="31.291" style="stroke:#181818;stroke-width:1;" width="10" x="1280.8735" y="210.7852"/></g><g><title>Database</title><rect fill="#FFFFFF" height="31.291" style="stroke:#181818;stroke-width:1;" width="10" x="1280.8735" y="335.9492"/></g><g class="message" data-participant-1="ATCC" data-participant-2="Ctrl"><polygon fill="#181818" points="397.9873,112.9121,407.9873,116.9121,397.9873,120.9121,401.9873,116.9121" style="stroke:#181818;stroke-width:1;"/><line style="stroke:#181818;stroke-width:1;" x1="48.8413" x2="403.9873" y1="116.9121" y2="116.9121"/><text fill="#000000" font-family="sans-serif" font-size="13" font-weight="bold" lengthAdjust="spacing" textLength="7.23" x="55.8413" y="111.6494">1</text><text fill="#000000" font-family="sans-serif" font-size="13" lengthAdjust="spacing" textLength="330.916" x="67.0713" y="111.6494">GET /api/aircrafts/{registrationNumber}/compatible-routes</text></g><g class="message" data-participant-1="Ctrl" data-participant-2="UC"><polygon fill="#181818" points="644.8442,144.2031,654.8442,148.2031,644.8442,152.2031,648.8442,148.2031" style="stroke:#181818;stroke-width:1;"/><line style="stroke:#181818;stroke-width:1;" x1="419.9873" x2="650.8442" y1="148.2031" y2="148.2031"/><text fill="#000000" font-family="sans-serif" font-size="13" font-weight="bold" lengthAdjust="spacing" textLength="7.23" x="426.9873" y="142.9404">2</text><text fill="#000000" font-family="sans-serif" font-size="13" lengthAdjust="spacing" textLength="164.7344" x="438.2173" y="142.9404">execute(registrationNumber)</text></g><g class="message" data-participant-1="UC" data-participant-2="AcftRepo"><polygon fill="#181818" points="956.0112,175.4941,966.0112,179.4941,956.0112,183.4941,960.0112,179.4941" style="stroke:#181818;stroke-width:1;"/><line style="stroke:#181818;stroke-width:1;" x1="666.8442" x2="962.0112" y1="179.4941" y2="179.4941"/><text fill="#000000" font-family="sans-serif" font-size="13" font-weight="bold" lengthAdjust="spacing" textLength="7.23" x="673.8442" y="174.2314">3</text><text fill="#000000" font-family="sans-serif" font-size="13" lengthAdjust="spacing" textLength="270.937" x="685.0742" y="174.2314">findByRegistrationNumber(registrationNumber)</text></g><g class="message" data-participant-1="AcftRepo" data-participant-2="DB"><polygon fill="#181818" points="1268.8735,206.7852,1278.8735,210.7852,1268.8735,214.7852,1272.8735,210.7852" style="stroke:#181818;stroke-width:1;"/><line style="stroke:#181818;stroke-width:1;" x1="978.0112" x2="1274.8735" y1="210.7852" y2="210.7852"/><text fill="#000000" font-family="sans-serif" font-size="13" font-weight="bold" lengthAdjust="spacing" textLength="7.23" x="985.0112" y="205.5225">4</text><text fill="#000000" font-family="sans-serif" font-size="13" lengthAdjust="spacing" textLength="265.8271" x="996.2412" y="205.5225">SELECT * FROM aircrafts a JOIN models m...</text></g><g class="message" data-participant-1="DB" data-participant-2="AcftRepo"><polygon fill="#181818" points="989.0112,238.0762,979.0112,242.0762,989.0112,246.0762,985.0112,242.0762" style="stroke:#181818;stroke-width:1;"/><line style="stroke:#181818;stroke-width:1;stroke-dasharray:2,2;" x1="983.0112" x2="1284.8735" y1="242.0762" y2="242.0762"/><text fill="#000000" font-family="sans-serif" font-size="13" font-weight="bold" lengthAdjust="spacing" textLength="7.23" x="995.0112" y="236.8135">5</text><text fill="#000000" font-family="sans-serif" font-size="13" lengthAdjust="spacing" textLength="80.1899" x="1006.2412" y="236.8135">aircraft record</text></g><g class="message" data-participant-1="AcftRepo" data-participant-2="UC"><polygon fill="#181818" points="677.8442,269.3672,667.8442,273.3672,677.8442,277.3672,673.8442,273.3672" style="stroke:#181818;stroke-width:1;"/><line style="stroke:#181818;stroke-width:1;stroke-dasharray:2,2;" x1="671.8442" x2="972.0112" y1="273.3672" y2="273.3672"/><text fill="#000000" font-family="sans-serif" font-size="13" font-weight="bold" lengthAdjust="spacing" textLength="7.23" x="683.8442" y="268.1045">6</text><text fill="#000000" font-family="sans-serif" font-size="13" lengthAdjust="spacing" textLength="84.5127" x="695.0742" y="268.1045">aircraft (Entity)</text></g><g class="message" data-participant-1="UC" data-participant-2="RouteRepo"><polygon fill="#181818" points="1087.7764,300.6582,1097.7764,304.6582,1087.7764,308.6582,1091.7764,304.6582" style="stroke:#181818;stroke-width:1;"/><line style="stroke:#181818;stroke-width:1;" x1="666.8442" x2="1093.7764" y1="304.6582" y2="304.6582"/><text fill="#000000" font-family="sans-serif" font-size="13" font-weight="bold" lengthAdjust="spacing" textLength="7.23" x="673.8442" y="299.3955">7</text><text fill="#000000" font-family="sans-serif" font-size="13" lengthAdjust="spacing" textLength="44.0654" x="685.0742" y="299.3955">findAll()</text></g><g class="message" data-participant-1="RouteRepo" data-participant-2="DB"><polygon fill="#181818" points="1268.8735,331.9492,1278.8735,335.9492,1268.8735,339.9492,1272.8735,335.9492" style="stroke:#181818;stroke-width:1;"/><line style="stroke:#181818;stroke-width:1;" x1="1109.7764" x2="1274.8735" y1="335.9492" y2="335.9492"/><text fill="#000000" font-family="sans-serif" font-size="13" font-weight="bold" lengthAdjust="spacing" textLength="7.23" x="1116.7764" y="330.6865">8</text><text fill="#000000" font-family="sans-serif" font-size="13" lengthAdjust="spacing" textLength="140.8672" x="1128.0063" y="330.6865">SELECT * FROM routes</text></g><g class="message" data-participant-1="DB" data-participant-2="RouteRepo"><polygon fill="#181818" points="1120.7764,363.2402,1110.7764,367.2402,1120.7764,371.2402,1116.7764,367.2402" style="stroke:#181818;stroke-width:1;"/><line style="stroke:#181818;stroke-width:1;stroke-dasharray:2,2;" x1="1114.7764" x2="1284.8735" y1="367.2402" y2="367.2402"/><text fill="#000000" font-family="sans-serif" font-size="13" font-weight="bold" lengthAdjust="spacing" textLength="7.23" x="1126.7764" y="361.9775">9</text><text fill="#000000" font-family="sans-serif" font-size="13" lengthAdjust="spacing" textLength="55.6309" x="1138.0063" y="361.9775">routes list</text></g><g class="message" data-participant-1="RouteRepo" data-participant-2="UC"><polygon fill="#181818" points="677.8442,394.5313,667.8442,398.5313,677.8442,402.5313,673.8442,398.5313" style="stroke:#181818;stroke-width:1;"/><line style="stroke:#181818;stroke-width:1;stroke-dasharray:2,2;" x1="671.8442" x2="1103.7764" y1="398.5313" y2="398.5313"/><text fill="#000000" font-family="sans-serif" font-size="13" font-weight="bold" lengthAdjust="spacing" textLength="14.46" x="683.8442" y="393.2686">10</text><text fill="#000000" font-family="sans-serif" font-size="13" lengthAdjust="spacing" textLength="70.1035" x="702.3042" y="393.2686">List&lt;Route&gt;</text></g><path d="M671,411.5313 L671,472.5313 L981,472.5313 L981,421.5313 L971,411.5313 L671,411.5313" fill="#FEFFDD" style="stroke:#181818;stroke-width:0.5;"/><path d="M971,411.5313 L971,421.5313 L981,421.5313 L971,411.5313" fill="#FEFFDD" style="stroke:#181818;stroke-width:0.5;"/><text fill="#000000" font-family="sans-serif" font-size="13" lengthAdjust="spacing" textLength="78.7427" x="677" y="430.5596">Filters routes:</text><text fill="#000000" font-family="sans-serif" font-size="13" lengthAdjust="spacing" textLength="289.0151" x="677" y="447.8506">- route.distance &lt;= aircraft.model.maximumRange</text><text fill="#000000" font-family="sans-serif" font-size="13" lengthAdjust="spacing" textLength="270.9561" x="677" y="465.1416">- route.minCapacity &lt;= aircraft.seatingCapacity</text><g class="message" data-participant-1="UC" data-participant-2="Ctrl"><polygon fill="#181818" points="430.9873,497.6953,420.9873,501.6953,430.9873,505.6953,426.9873,501.6953" style="stroke:#181818;stroke-width:1;"/><line style="stroke:#181818;stroke-width:1;stroke-dasharray:2,2;" x1="424.9873" x2="660.8442" y1="501.6953" y2="501.6953"/><text fill="#000000" font-family="sans-serif" font-size="13" font-weight="bold" lengthAdjust="spacing" textLength="14.46" x="436.9873" y="496.4326">11</text><text fill="#000000" font-family="sans-serif" font-size="13" lengthAdjust="spacing" textLength="194.397" x="455.4473" y="496.4326">List&lt;CompatibleRouteResponse&gt;</text></g><g class="message" data-participant-1="Ctrl" data-participant-2="ATCC"><polygon fill="#181818" points="59.8413,528.9863,49.8413,532.9863,59.8413,536.9863,55.8413,532.9863" style="stroke:#181818;stroke-width:1;"/><line style="stroke:#181818;stroke-width:1;stroke-dasharray:2,2;" x1="53.8413" x2="413.9873" y1="532.9863" y2="532.9863"/><text fill="#000000" font-family="sans-serif" font-size="13" font-weight="bold" lengthAdjust="spacing" textLength="14.46" x="65.8413" y="527.7236">12</text><text fill="#000000" font-family="sans-serif" font-size="13" lengthAdjust="spacing" textLength="151.7217" x="84.3013" y="527.7236">200 OK (JSON Collection)</text></g><!--SRC=[VLHDRzim3BthLn2vB1qGfzWnw0eaJbgiInF0JMwxC3AJ2h0bGrA61iF- -sZvErrxawN7Hxv7qdZsHf_p0rc1qXiBe_akZgVpD5Tw1EYW_1G5Mg-aAb1x1YWhBHvzRBIt9il81c3iRJO4FX9ZyWAzEcIKcBCdjtSKewCGiF-0Dw72ECMrNAe2P7Kr10UwAsHx9rBqUE0yC5hMfm1OBeGezS3aFfGBCtXSxM2AXPfYdTrD_rWwAUSjrstq9dZpTofR8HCRb9HsgT_egH8k0X_pxcDcfJUI31g_PxhfubY_-08FvEKhDDh5FXJNQ6QgezBfufAy8_gSkpLDj5HCkrmmuSjglOfty1KUakqpjB81uMdxOmEvIIbpa4THrD6nSHmx6LRMX88bQMmgKkhZUuaRLzg0yKfxvIyt_P2kuiQJQc9gHzhUrfRCispSqzkrNdJ8_ok-Rb-dhP-ZGa765byBwoLebAqPTXVkx_leNbKiIcMUBApDIKcX3JzRTNhrO8xCCQkVNPruzajFgcEKCZTgIN3tlNKm2bsASdnJ-JbFK9-e2-3DZR50oGuFOXpnhEXJyrRMz8n5mLU0EeM4_DdgO7Ut7a7OrH8dv0gZtL1gESpL2fH3KkxO3BxTtiBs9uoVNhORYCi_XIo7TT3sCkOV]--></g></svg>