<svg xmlns="http://www.w3.org/2000/svg" xmlns:xlink="http://www.w3.org/1999/xlink" contentStyleType="text/css" data-diagram-type="SEQUENCE" height="639px" preserveAspectRatio="none" style="width:1382px;height:639px;background:#FFFFFF;" version="1.1" viewBox="0 0 1382 639" width="1382px" zoomAndPan="magnify"><defs/><g><g><title>AircraftModelController</title><rect fill="#FFFFFF" height="421.7344" style="stroke:#181818;stroke-width:1;" width="10" x="318.3633" y="116.9121"/></g><g><title>RegisterAircraftModelUseCase</title><rect fill="#FFFFFF" height="359.1523" style="stroke:#181818;stroke-width:1;" width="10" x="510.0317" y="148.2031"/></g><g><title>AircraftModel</title><rect fill="#FFFFFF" height="106.8242" style="stroke:#181818;stroke-width:1;" width="10" x="938.8257" y="244.0762"/></g><g><title>AircraftModelRepository</title><rect fill="#FFFFFF" height="93.873" style="stroke:#181818;stroke-width:1;" width="10" x="1078.7529" y="382.1914"/></g><g><title>Database</title><rect fill="#FFFFFF" height="31.291" style="stroke:#181818;stroke-width:1;" width="10" x="1342.9263" y="413.4824"/></g><g><title>Backoffice Operator.Admin</title><rect fill="#000000" fill-opacity="0.00000" height="473.0254" width="8" x="87.6479" y="83.6211"/><line style="stroke:#181818;stroke-width:0.5;stroke-dasharray:5,5;" x1="91" x2="91" y1="83.6211" y2="556.6465"/></g><g><title>AircraftModelController</title><rect fill="#000000" fill-opacity="0.00000" height="473.0254" width="8" x="319.3633" y="83.6211"/><line style="stroke:#181818;stroke-width:0.5;stroke-dasharray:5,5;" x1="322.7842" x2="322.7842" y1="83.6211" y2="556.6465"/></g><g><title>RegisterAircraftModelUseCase</title><rect fill="#000000" fill-opacity="0.00000" height="473.0254" width="8" x="511.0317" y="83.6211"/><line style="stroke:#181818;stroke-width:0.5;stroke-dasharray:5,5;" x1="514.9424" x2="514.9424" y1="83.6211" y2="556.6465"/></g><g><title>AircraftModel</title><rect fill="#000000" fill-opacity="0.00000" height="304.7402" width="8" x="939.8257" y="251.9063"/><line style="stroke:#181818;stroke-width:0.5;stroke-dasharray:5,5;" x1="943.5913" x2="943.5913" y1="251.9063" y2="556.6465"/></g><g><title>AircraftModelRepository</title><rect fill="#000000" fill-opacity="0.00000" height="473.0254" width="8" x="1079.7529" y="83.6211"/><line style="stroke:#181818;stroke-width:0.5;stroke-dasharray:5,5;" x1="1083.0601" x2="1083.0601" y1="83.6211" y2="556.6465"/></g><g><title>Database</title><rect fill="#000000" fill-opacity="0.00000" height="473.0254" width="8" x="1343.9263" y="83.6211"/><line style="stroke:#181818;stroke-width:0.5;stroke-dasharray:5,5;" x1="1346.9609" x2="1346.9609" y1="83.6211" y2="556.6465"/></g><g class="participant participant-head" data-participant="BO"><text fill="#000000" font-family="sans-serif" font-size="14" lengthAdjust="spacing" textLength="167.2959" x="5" y="80.1074">Backoffice Operator/Admin</text><ellipse cx="91.6479" cy="13.5" fill="#E2E2F0" rx="8" ry="8" style="stroke:#181818;stroke-width:0.5;"/><path d="M91.6479,21.5 L91.6479,48.5 M78.6479,29.5 L104.6479,29.5 M91.6479,48.5 L78.6479,63.5 M91.6479,48.5 L104.6479,63.5" fill="none" style="stroke:#181818;stroke-width:0.5;"/></g><g class="participant participant-tail" data-participant="BO"><text fill="#000000" font-family="sans-serif" font-size="14" lengthAdjust="spacing" textLength="167.2959" x="5" y="570.7539">Backoffice Operator/Admin</text><ellipse cx="91.6479" cy="582.7676" fill="#E2E2F0" rx="8" ry="8" style="stroke:#181818;stroke-width:0.5;"/><path d="M91.6479,590.7676 L91.6479,617.7676 M78.6479,598.7676 L104.6479,598.7676 M91.6479,617.7676 L78.6479,632.7676 M91.6479,617.7676 L104.6479,632.7676" fill="none" style="stroke:#181818;stroke-width:0.5;"/></g><g class="participant participant-head" data-participant="Ctrl"><rect fill="#E2E2F0" height="32.6211" rx="2.5" ry="2.5" style="stroke:#181818;stroke-width:0.5;" width="157.1582" x="244.7842" y="50"/><text fill="#000000" font-family="sans-serif" font-size="14" lengthAdjust="spacing" textLength="143.1582" x="251.7842" y="72.1074">AircraftModelController</text></g><g class="participant participant-tail" data-participant="Ctrl"><rect fill="#E2E2F0" height="32.6211" rx="2.5" ry="2.5" style="stroke:#181818;stroke-width:0.5;" width="157.1582" x="244.7842" y="555.6465"/><text fill="#000000" font-family="sans-serif" font-size="14" lengthAdjust="spacing" textLength="143.1582" x="251.7842" y="577.7539">AircraftModelController</text></g><g class="participant participant-head" data-participant="UC"><rect fill="#E2E2F0" height="32.6211" rx="2.5" ry="2.5" style="stroke:#181818;stroke-width:0.5;" width="206.1787" x="411.9424" y="50"/><text fill="#000000" font-family="sans-serif" font-size="14" lengthAdjust="spacing" textLength="192.1787" x="418.9424" y="72.1074">RegisterAircraftModelUseCase</text></g><g class="participant participant-tail" data-participant="UC"><rect fill="#E2E2F0" height="32.6211" rx="2.5" ry="2.5" style="stroke:#181818;stroke-width:0.5;" width="206.1787" x="411.9424" y="555.6465"/><text fill="#000000" font-family="sans-serif" font-size="14" lengthAdjust="spacing" textLength="192.1787" x="418.9424" y="577.7539">RegisterAircraftModelUseCase</text></g><g class="participant participant-tail" data-participant="Entity"><rect fill="#E2E2F0" height="51.2422" rx="2.5" ry="2.5" style="stroke:#181818;stroke-width:0.5;" width="96.4688" x="895.5913" y="555.6465"/><text fill="#000000" font-family="sans-serif" font-size="14" lengthAdjust="spacing" textLength="82.4688" x="902.5913" y="577.7539">AircraftModel</text><text fill="#000000" font-family="sans-serif" font-size="14" lengthAdjust="spacing" textLength="44.3379" x="921.6567" y="596.375">(Entity)</text></g><g class="participant participant-head" data-participant="Repo"><rect fill="#E2E2F0" height="32.6211" rx="2.5" ry="2.5" style="stroke:#181818;stroke-width:0.5;" width="163.3857" x="1002.0601" y="50"/><text fill="#000000" font-family="sans-serif" font-size="14" lengthAdjust="spacing" textLength="149.3857" x="1009.0601" y="72.1074">AircraftModelRepository</text></g><g class="participant participant-tail" data-participant="Repo"><rect fill="#E2E2F0" height="32.6211" rx="2.5" ry="2.5" style="stroke:#181818;stroke-width:0.5;" width="163.3857" x="1002.0601" y="555.6465"/><text fill="#000000" font-family="sans-serif" font-size="14" lengthAdjust="spacing" textLength="149.3857" x="1009.0601" y="577.7539">AircraftModelRepository</text></g><g class="participant participant-head" data-participant="DB"><text fill="#000000" font-family="sans-serif" font-size="14" lengthAdjust="spacing" textLength="59.9307" x="1314.9609" y="80.1074">Database</text><path d="M1329.9263,29 C1329.9263,19 1347.9263,19 1347.9263,19 C1347.9263,19 1365.9263,19 1365.9263,29 L1365.9263,55 C1365.9263,65 1347.9263,65 1347.9263,65 C1347.9263,65 1329.9263,65 1329.9263,55 L1329.9263,29" fill="#E2E2F0" style="stroke:#181818;stroke-width:0.5;"/><path d="M1329.9263,29 C1329.9263,39 1347.9263,39 1347.9263,39 C1347.9263,39 1365.9263,39 1365.9263,29" fill="none" style="stroke:#181818;stroke-width:0.5;"/></g><g class="participant participant-tail" data-participant="DB"><text fill="#000000" font-family="sans-serif" font-size="14" lengthAdjust="spacing" textLength="59.9307" x="1314.9609" y="570.7539">Database</text><path d="M1329.9263,584.2676 C1329.9263,574.2676 1347.9263,574.2676 1347.9263,574.2676 C1347.9263,574.2676 1365.9263,574.2676 1365.9263,584.2676 L1365.9263,610.2676 C1365.9263,620.2676 1347.9263,620.2676 1347.9263,620.2676 C1347.9263,620.2676 1329.9263,620.2676 1329.9263,610.2676 L1329.9263,584.2676" fill="#E2E2F0" style="stroke:#181818;stroke-width:0.5;"/><path d="M1329.9263,584.2676 C1329.9263,594.2676 1347.9263,594.2676 1347.9263,594.2676 C1347.9263,594.2676 1365.9263,594.2676 1365.9263,584.2676" fill="none" style="stroke:#181818;stroke-width:0.5;"/></g><g><title>AircraftModelController</title><rect fill="#FFFFFF" height="421.7344" style="stroke:#181818;stroke-width:1;" width="10" x="318.3633" y="116.9121"/></g><g><title>RegisterAircraftModelUseCase</title><rect fill="#FFFFFF" height="359.1523" style="stroke:#181818;stroke-width:1;" width="10" x="510.0317" y="148.2031"/></g><g><title>AircraftModel</title><rect fill="#FFFFFF" height="106.8242" style="stroke:#181818;stroke-width:1;" width="10" x="938.8257" y="244.0762"/></g><g><title>AircraftModelRepository</title><rect fill="#FFFFFF" height="93.873" style="stroke:#181818;stroke-width:1;" width="10" x="1078.7529" y="382.1914"/></g><g><title>Database</title><rect fill="#FFFFFF" height="31.291" style="stroke:#181818;stroke-width:1;" width="10" x="1342.9263" y="413.4824"/></g><g class="message" data-participant-1="BO" data-participant-2="Ctrl"><polygon fill="#181818" points="306.3633,112.9121,316.3633,116.9121,306.3633,120.9121,310.3633,116.9121" style="stroke:#181818;stroke-width:1;"/><line style="stroke:#181818;stroke-width:1;" x1="91.6479" x2="312.3633" y1="116.9121" y2="116.9121"/><text fill="#000000" font-family="sans-serif" font-size="13" font-weight="bold" lengthAdjust="spacing" textLength="7.23" x="98.6479" y="111.6494">1</text><text fill="#000000" font-family="sans-serif" font-size="13" lengthAdjust="spacing" textLength="196.4854" x="109.8779" y="111.6494">POST /api/aircraft-models (JSON)</text></g><g class="message" data-participant-1="Ctrl" data-participant-2="UC"><polygon fill="#181818" points="498.0317,144.2031,508.0317,148.2031,498.0317,152.2031,502.0317,148.2031" style="stroke:#181818;stroke-width:1;"/><line style="stroke:#181818;stroke-width:1;" x1="328.3633" x2="504.0317" y1="148.2031" y2="148.2031"/><text fill="#000000" font-family="sans-serif" font-size="13" font-weight="bold" lengthAdjust="spacing" textLength="7.23" x="335.3633" y="142.9404">2</text><text fill="#000000" font-family="sans-serif" font-size="13" lengthAdjust="spacing" textLength="97.5508" x="346.5933" y="142.9404">execute(request)</text></g><path d="M525,161.2031 L525,205.2031 L682,205.2031 L682,171.2031 L672,161.2031 L525,161.2031" fill="#FEFFDD" style="stroke:#181818;stroke-width:0.5;"/><path d="M672,161.2031 L672,171.2031 L682,171.2031 L672,161.2031" fill="#FEFFDD" style="stroke:#181818;stroke-width:0.5;"/><text fill="#000000" font-family="sans-serif" font-size="13" lengthAdjust="spacing" textLength="136.5317" x="531" y="180.2314">Extracts data from DTO</text><text fill="#000000" font-family="sans-serif" font-size="13" lengthAdjust="spacing" textLength="52.019" x="531" y="197.5225">(request)</text><g class="message" data-participant-1="UC" data-participant-2="Entity"><polygon fill="#181818" points="883.5913,230.0762,893.5913,234.0762,883.5913,238.0762,887.5913,234.0762" style="stroke:#181818;stroke-width:1;"/><line style="stroke:#181818;stroke-width:1;" x1="520.0317" x2="889.5913" y1="234.0762" y2="234.0762"/><text fill="#000000" font-family="sans-serif" font-size="13" font-weight="bold" lengthAdjust="spacing" textLength="7.23" x="527.0317" y="228.8135">3</text><text fill="#000000" font-family="sans-serif" font-size="13" lengthAdjust="spacing" textLength="340.3296" x="538.2617" y="228.8135">new AircraftModel(name, fuel, range, speed, manufacturer)</text></g><rect fill="#E2E2F0" height="51.2422" rx="2.5" ry="2.5" style="stroke:#181818;stroke-width:0.5;" width="96.4688" x="895.5913" y="210.7852"/><text fill="#000000" font-family="sans-serif" font-size="14" lengthAdjust="spacing" textLength="82.4688" x="902.5913" y="232.8926">AircraftModel</text><text fill="#000000" font-family="sans-serif" font-size="14" lengthAdjust="spacing" textLength="44.3379" x="921.6567" y="251.5137">(Entity)</text><path d="M953,278.0273 L953,322.0273 L1148,322.0273 L1148,288.0273 L1138,278.0273 L953,278.0273" fill="#FEFFDD" style="stroke:#181818;stroke-width:0.5;"/><path d="M1138,278.0273 L1138,288.0273 L1148,288.0273 L1138,278.0273" fill="#FEFFDD" style="stroke:#181818;stroke-width:0.5;"/><text fill="#000000" font-family="sans-serif" font-size="13" lengthAdjust="spacing" textLength="174.8652" x="959" y="297.0557">Domain validation occurs here</text><text fill="#000000" font-family="sans-serif" font-size="13" lengthAdjust="spacing" textLength="143.0889" x="959" y="314.3467">(e.g., fuel &gt; 0, range &gt; 0)</text><g class="message" data-participant-1="Entity" data-participant-2="UC"><polygon fill="#181818" points="531.0317,346.9004,521.0317,350.9004,531.0317,354.9004,527.0317,350.9004" style="stroke:#181818;stroke-width:1;"/><line style="stroke:#181818;stroke-width:1;stroke-dasharray:2,2;" x1="525.0317" x2="942.8257" y1="350.9004" y2="350.9004"/><text fill="#000000" font-family="sans-serif" font-size="13" font-weight="bold" lengthAdjust="spacing" textLength="7.23" x="537.0317" y="345.6377">4</text><text fill="#000000" font-family="sans-serif" font-size="13" lengthAdjust="spacing" textLength="177.7471" x="548.2617" y="345.6377">aircraftModel (validated object)</text></g><g class="message" data-participant-1="UC" data-participant-2="Repo"><polygon fill="#181818" points="1066.7529,378.1914,1076.7529,382.1914,1066.7529,386.1914,1070.7529,382.1914" style="stroke:#181818;stroke-width:1;"/><line style="stroke:#181818;stroke-width:1;" x1="520.0317" x2="1072.7529" y1="382.1914" y2="382.1914"/><text fill="#000000" font-family="sans-serif" font-size="13" font-weight="bold" lengthAdjust="spacing" textLength="7.23" x="527.0317" y="376.9287">5</text><text fill="#000000" font-family="sans-serif" font-size="13" lengthAdjust="spacing" textLength="111.2554" x="538.2617" y="376.9287">save(aircraftModel)</text></g><g class="message" data-participant-1="Repo" data-participant-2="DB"><polygon fill="#181818" points="1330.9263,409.4824,1340.9263,413.4824,1330.9263,417.4824,1334.9263,413.4824" style="stroke:#181818;stroke-width:1;"/><line style="stroke:#181818;stroke-width:1;" x1="1088.7529" x2="1336.9263" y1="413.4824" y2="413.4824"/><text fill="#000000" font-family="sans-serif" font-size="13" font-weight="bold" lengthAdjust="spacing" textLength="7.23" x="1095.7529" y="408.2197">6</text><text fill="#000000" font-family="sans-serif" font-size="13" lengthAdjust="spacing" textLength="197.9199" x="1106.9829" y="408.2197">INSERT INTO aircraft_models (...)</text></g><g class="message" data-participant-1="DB" data-participant-2="Repo"><polygon fill="#181818" points="1099.7529,440.7734,1089.7529,444.7734,1099.7529,448.7734,1095.7529,444.7734" style="stroke:#181818;stroke-width:1;"/><line style="stroke:#181818;stroke-width:1;stroke-dasharray:2,2;" x1="1093.7529" x2="1346.9263" y1="444.7734" y2="444.7734"/><text fill="#000000" font-family="sans-serif" font-size="13" font-weight="bold" lengthAdjust="spacing" textLength="7.23" x="1105.7529" y="439.5107">7</text><text fill="#000000" font-family="sans-serif" font-size="13" lengthAdjust="spacing" textLength="218.9434" x="1116.9829" y="439.5107">saved record (with auto-generated ID)</text></g><g class="message" data-participant-1="Repo" data-participant-2="UC"><polygon fill="#181818" points="531.0317,472.0645,521.0317,476.0645,531.0317,480.0645,527.0317,476.0645" style="stroke:#181818;stroke-width:1;"/><line style="stroke:#181818;stroke-width:1;stroke-dasharray:2,2;" x1="525.0317" x2="1082.7529" y1="476.0645" y2="476.0645"/><text fill="#000000" font-family="sans-serif" font-size="13" font-weight="bold" lengthAdjust="spacing" textLength="7.23" x="537.0317" y="470.8018">8</text><text fill="#000000" font-family="sans-serif" font-size="13" lengthAdjust="spacing" textLength="70.0972" x="548.2617" y="470.8018">savedModel</text></g><g class="message" data-participant-1="UC" data-participant-2="Ctrl"><polygon fill="#181818" points="339.3633,503.3555,329.3633,507.3555,339.3633,511.3555,335.3633,507.3555" style="stroke:#181818;stroke-width:1;"/><line style="stroke:#181818;stroke-width:1;stroke-dasharray:2,2;" x1="333.3633" x2="514.0317" y1="507.3555" y2="507.3555"/><text fill="#000000" font-family="sans-serif" font-size="13" font-weight="bold" lengthAdjust="spacing" textLength="7.23" x="345.3633" y="502.0928">9</text><text fill="#000000" font-family="sans-serif" font-size="13" lengthAdjust="spacing" textLength="70.0972" x="356.5933" y="502.0928">savedModel</text></g><g class="message" data-participant-1="Ctrl" data-participant-2="BO"><polygon fill="#181818" points="102.6479,534.6465,92.6479,538.6465,102.6479,542.6465,98.6479,538.6465" style="stroke:#181818;stroke-width:1;"/><line style="stroke:#181818;stroke-width:1;stroke-dasharray:2,2;" x1="96.6479" x2="322.3633" y1="538.6465" y2="538.6465"/><text fill="#000000" font-family="sans-serif" font-size="13" font-weight="bold" lengthAdjust="spacing" textLength="14.46" x="108.6479" y="533.3838">10</text><text fill="#000000" font-family="sans-serif" font-size="13" lengthAdjust="spacing" textLength="180.6416" x="127.1079" y="533.3838">201 Created (JSON Response)</text></g><!--SRC=[VLDBSvim4BxpAtPy8XbZfptwa9aOV4Xd6Zf-t3gJMSDYgmM9heIJ_Fkk14wXxUI44DzJMh1pHdVDaJZ2mXc6sHgBdwQgL46GjyGecyk7ib5w1cXXdKSjibE5Qb4xc3qeBXWhzzMKLAT6EpPrJHomgUDwYjxIILb7F64TBALeAL0EwGVottMyqKwvjvk0xTSVuBVK6gia_rl0-zUeH8T7SODPDgp2jsmTHUiSaliG6bRmBT_jOOcjMk8WcJHUqqByPPS_tVZJKXTqrBUC0ateXrJ8z4f5voXc-jMHTIEmz8kqaGMhqzc1gMHd1PjNnmAnuDD1nQQ1R9zBtNU1I7H5lQyCjxTYeka59dLZZGtDeUgedWEZFicBROdAEJIekqeSEYOUfHbEyAz4_UuACjEWqd31MaakPJIOekZOmfcO91mjJelU3kxXRh3qIuax14sk9uBZe10FcbI2EVwWGWgMz4-glhA_DH6mUA5ueZBg4Mus2aXXP6l1FpxjDjkzFFRvk_dpzGONYyM8BNSlb6JgLG9JORY4-4MvCw3y9ic9jFyVvDjZDadifwTtl_OD4Y7c6DVdzBt-3Dh_aNvE-f4If0pc2ZxVVOAKATY74HGrsnfjQHB5atu3]--></g></svg>