<?plantuml 1.2026.2?><svg xmlns="http://www.w3.org/2000/svg" xmlns:xlink="http://www.w3.org/1999/xlink" contentStyleType="text/css" data-diagram-type="SEQUENCE" height="508px" preserveAspectRatio="none" style="width:1107px;height:508px;background:#FFFFFF;" version="1.1" viewBox="0 0 1107 508" width="1107px" zoomAndPan="magnify"><defs/><g><g><title>ScheduledFlightController</title><rect fill="#FFFFFF" height="290.9102" style="stroke:#181818;stroke-width:1;" width="10" x="329.6948" y="116.9121"/></g><g><title>GetScheduledFlightsByAircraftUseCase</title><rect fill="#FFFFFF" height="228.3281" style="stroke:#181818;stroke-width:1;" width="10" x="562.1045" y="148.2031"/></g><g><title>ScheduledFlightRepository</title><rect fill="#FFFFFF" height="111.1641" style="stroke:#181818;stroke-width:1;" width="10" x="821.9697" y="179.4941"/></g><g><title>Database</title><rect fill="#FFFFFF" height="31.291" style="stroke:#181818;stroke-width:1;" width="10" x="1067.394" y="228.0762"/></g><g class="participant-lifeline" data-entity-uid="part1" data-qualified-name="ATCC" id="part1-lifeline"><g><title>ATCC</title><rect fill="#000000" fill-opacity="0.00000" height="342.2012" width="8" x="23.0552" y="83.6211"/><line style="stroke:#181818;stroke-width:0.5;stroke-dasharray:5,5;" x1="27" x2="27" y1="83.6211" y2="425.8223"/></g></g><g class="participant-lifeline" data-entity-uid="part2" data-qualified-name="Ctrl" id="part2-lifeline"><g><title>ScheduledFlightController</title><rect fill="#000000" fill-opacity="0.00000" height="342.2012" width="8" x="330.6948" y="83.6211"/><line style="stroke:#181818;stroke-width:0.5;stroke-dasharray:5,5;" x1="334.1504" x2="334.1504" y1="83.6211" y2="425.8223"/></g></g><g class="participant-lifeline" data-entity-uid="part3" data-qualified-name="UC" id="part3-lifeline"><g><title>GetScheduledFlightsByAircraftUseCase</title><rect fill="#000000" fill-opacity="0.00000" height="342.2012" width="8" x="563.1045" y="83.6211"/><line style="stroke:#181818;stroke-width:0.5;stroke-dasharray:5,5;" x1="566.9946" x2="566.9946" y1="83.6211" y2="425.8223"/></g></g><g class="participant-lifeline" data-entity-uid="part4" data-qualified-name="Repo" id="part4-lifeline"><g><title>ScheduledFlightRepository</title><rect fill="#000000" fill-opacity="0.00000" height="342.2012" width="8" x="822.9697" y="83.6211"/><line style="stroke:#181818;stroke-width:0.5;stroke-dasharray:5,5;" x1="826.3115" x2="826.3115" y1="83.6211" y2="425.8223"/></g></g><g class="participant-lifeline" data-entity-uid="part5" data-qualified-name="DB" id="part5-lifeline"><g><title>Database</title><rect fill="#000000" fill-opacity="0.00000" height="342.2012" width="8" x="1068.394" y="83.6211"/><line style="stroke:#181818;stroke-width:0.5;stroke-dasharray:5,5;" x1="1071.4287" x2="1071.4287" y1="83.6211" y2="425.8223"/></g></g><g class="participant participant-head" data-entity-uid="part1" data-qualified-name="ATCC" id="part1-head"><text fill="#000000" font-family="sans-serif" font-size="14" lengthAdjust="spacing" textLength="38.1104" x="5" y="80.1074">ATCC</text><ellipse cx="27.0552" cy="13.5" fill="#E2E2F0" rx="8" ry="8" style="stroke:#181818;stroke-width:0.5;"/><path d="M27.0552,21.5 L27.0552,48.5 M14.0552,29.5 L40.0552,29.5 M27.0552,48.5 L14.0552,63.5 M27.0552,48.5 L40.0552,63.5" fill="none" style="stroke:#181818;stroke-width:0.5;"/></g><g class="participant participant-tail" data-entity-uid="part1" data-qualified-name="ATCC" id="part1-tail"><text fill="#000000" font-family="sans-serif" font-size="14" lengthAdjust="spacing" textLength="38.1104" x="5" y="439.9297">ATCC</text><ellipse cx="27.0552" cy="451.9434" fill="#E2E2F0" rx="8" ry="8" style="stroke:#181818;stroke-width:0.5;"/><path d="M27.0552,459.9434 L27.0552,486.9434 M14.0552,467.9434 L40.0552,467.9434 M27.0552,486.9434 L14.0552,501.9434 M27.0552,486.9434 L40.0552,501.9434" fill="none" style="stroke:#181818;stroke-width:0.5;"/></g><g class="participant participant-head" data-entity-uid="part2" data-qualified-name="Ctrl" id="part2-head"><rect fill="#E2E2F0" height="32.6211" rx="2.5" ry="2.5" style="stroke:#181818;stroke-width:0.5;" width="175.0889" x="247.1504" y="50"/><text fill="#000000" font-family="sans-serif" font-size="14" lengthAdjust="spacing" textLength="161.0889" x="254.1504" y="72.1074">ScheduledFlightController</text></g><g class="participant participant-tail" data-entity-uid="part2" data-qualified-name="Ctrl" id="part2-tail"><rect fill="#E2E2F0" height="32.6211" rx="2.5" ry="2.5" style="stroke:#181818;stroke-width:0.5;" width="175.0889" x="247.1504" y="424.8223"/><text fill="#000000" font-family="sans-serif" font-size="14" lengthAdjust="spacing" textLength="161.0889" x="254.1504" y="446.9297">ScheduledFlightController</text></g><g class="participant participant-head" data-entity-uid="part3" data-qualified-name="UC" id="part3-head"><rect fill="#E2E2F0" height="32.6211" rx="2.5" ry="2.5" style="stroke:#181818;stroke-width:0.5;" width="262.2197" x="435.9946" y="50"/><text fill="#000000" font-family="sans-serif" font-size="14" lengthAdjust="spacing" textLength="248.2197" x="442.9946" y="72.1074">GetScheduledFlightsByAircraftUseCase</text></g><g class="participant participant-tail" data-entity-uid="part3" data-qualified-name="UC" id="part3-tail"><rect fill="#E2E2F0" height="32.6211" rx="2.5" ry="2.5" style="stroke:#181818;stroke-width:0.5;" width="262.2197" x="435.9946" y="424.8223"/><text fill="#000000" font-family="sans-serif" font-size="14" lengthAdjust="spacing" textLength="248.2197" x="442.9946" y="446.9297">GetScheduledFlightsByAircraftUseCase</text></g><g class="participant participant-head" data-entity-uid="part4" data-qualified-name="Repo" id="part4-head"><rect fill="#E2E2F0" height="32.6211" rx="2.5" ry="2.5" style="stroke:#181818;stroke-width:0.5;" width="181.3164" x="736.3115" y="50"/><text fill="#000000" font-family="sans-serif" font-size="14" lengthAdjust="spacing" textLength="167.3164" x="743.3115" y="72.1074">ScheduledFlightRepository</text></g><g class="participant participant-tail" data-entity-uid="part4" data-qualified-name="Repo" id="part4-tail"><rect fill="#E2E2F0" height="32.6211" rx="2.5" ry="2.5" style="stroke:#181818;stroke-width:0.5;" width="181.3164" x="736.3115" y="424.8223"/><text fill="#000000" font-family="sans-serif" font-size="14" lengthAdjust="spacing" textLength="167.3164" x="743.3115" y="446.9297">ScheduledFlightRepository</text></g><g class="participant participant-head" data-entity-uid="part5" data-qualified-name="DB" id="part5-head"><text fill="#000000" font-family="sans-serif" font-size="14" lengthAdjust="spacing" textLength="59.9307" x="1039.4287" y="80.1074">Database</text><path d="M1054.394,29 C1054.394,19 1072.394,19 1072.394,19 C1072.394,19 1090.394,19 1090.394,29 L1090.394,55 C1090.394,65 1072.394,65 1072.394,65 C1072.394,65 1054.394,65 1054.394,55 L1054.394,29" fill="#E2E2F0" style="stroke:#181818;stroke-width:0.5;"/><path d="M1054.394,29 C1054.394,39 1072.394,39 1072.394,39 C1072.394,39 1090.394,39 1090.394,29" fill="none" style="stroke:#181818;stroke-width:0.5;"/></g><g class="participant participant-tail" data-entity-uid="part5" data-qualified-name="DB" id="part5-tail"><text fill="#000000" font-family="sans-serif" font-size="14" lengthAdjust="spacing" textLength="59.9307" x="1039.4287" y="439.9297">Database</text><path d="M1054.394,453.4434 C1054.394,443.4434 1072.394,443.4434 1072.394,443.4434 C1072.394,443.4434 1090.394,443.4434 1090.394,453.4434 L1090.394,479.4434 C1090.394,489.4434 1072.394,489.4434 1072.394,489.4434 C1072.394,489.4434 1054.394,489.4434 1054.394,479.4434 L1054.394,453.4434" fill="#E2E2F0" style="stroke:#181818;stroke-width:0.5;"/><path d="M1054.394,453.4434 C1054.394,463.4434 1072.394,463.4434 1072.394,463.4434 C1072.394,463.4434 1090.394,463.4434 1090.394,453.4434" fill="none" style="stroke:#181818;stroke-width:0.5;"/></g><g><title>ScheduledFlightController</title><rect fill="#FFFFFF" height="290.9102" style="stroke:#181818;stroke-width:1;" width="10" x="329.6948" y="116.9121"/></g><g><title>GetScheduledFlightsByAircraftUseCase</title><rect fill="#FFFFFF" height="228.3281" style="stroke:#181818;stroke-width:1;" width="10" x="562.1045" y="148.2031"/></g><g><title>ScheduledFlightRepository</title><rect fill="#FFFFFF" height="111.1641" style="stroke:#181818;stroke-width:1;" width="10" x="821.9697" y="179.4941"/></g><g><title>Database</title><rect fill="#FFFFFF" height="31.291" style="stroke:#181818;stroke-width:1;" width="10" x="1067.394" y="228.0762"/></g><g class="message" data-entity-1="part1" data-entity-2="part2" id="msg1"><polygon fill="#181818" points="317.6948,112.9121,327.6948,116.9121,317.6948,120.9121,321.6948,116.9121" style="stroke:#181818;stroke-width:1;"/><line style="stroke:#181818;stroke-width:1;" x1="27.0552" x2="323.6948" y1="116.9121" y2="116.9121"/><text fill="#000000" font-family="sans-serif" font-size="13" font-weight="bold" lengthAdjust="spacing" textLength="7.23" x="34.0552" y="111.6494">1</text><text fill="#000000" font-family="sans-serif" font-size="13" lengthAdjust="spacing" textLength="272.4097" x="45.2852" y="111.6494">GET /api/scheduled-flights/aircraft/{registration}</text></g><g class="message" data-entity-1="part2" data-entity-2="part3" id="msg2"><polygon fill="#181818" points="550.1045,144.2031,560.1045,148.2031,550.1045,152.2031,554.1045,148.2031" style="stroke:#181818;stroke-width:1;"/><line style="stroke:#181818;stroke-width:1;" x1="339.6948" x2="556.1045" y1="148.2031" y2="148.2031"/><text fill="#000000" font-family="sans-serif" font-size="13" font-weight="bold" lengthAdjust="spacing" textLength="7.23" x="346.6948" y="142.9404">2</text><text fill="#000000" font-family="sans-serif" font-size="13" lengthAdjust="spacing" textLength="118.498" x="357.9248" y="142.9404">execute(registration)</text></g><g class="message" data-entity-1="part3" data-entity-2="part4" id="msg3"><polygon fill="#181818" points="809.9697,175.4941,819.9697,179.4941,809.9697,183.4941,813.9697,179.4941" style="stroke:#181818;stroke-width:1;"/><line style="stroke:#181818;stroke-width:1;" x1="572.1045" x2="815.9697" y1="179.4941" y2="179.4941"/><text fill="#000000" font-family="sans-serif" font-size="13" font-weight="bold" lengthAdjust="spacing" textLength="7.23" x="579.1045" y="174.2314">3</text><text fill="#000000" font-family="sans-serif" font-size="13" lengthAdjust="spacing" textLength="219.6353" x="590.3345" y="174.2314">findByAircraftRegistration(registration)</text></g><g class="message" data-entity-1="part4" data-entity-2="part5" id="msg4"><polygon fill="#181818" points="1055.394,224.0762,1065.394,228.0762,1055.394,232.0762,1059.394,228.0762" style="stroke:#181818;stroke-width:1;"/><line style="stroke:#181818;stroke-width:1;" x1="831.9697" x2="1061.394" y1="228.0762" y2="228.0762"/><text fill="#000000" font-family="sans-serif" font-size="13" font-weight="bold" lengthAdjust="spacing" textLength="7.23" x="838.9697" y="214.168">4</text><text fill="#000000" font-family="sans-serif" font-size="13" lengthAdjust="spacing" textLength="205.1943" x="850.1997" y="205.5225">SELECT * FROM scheduled_flights</text><text fill="#000000" font-family="sans-serif" font-size="13" lengthAdjust="spacing" textLength="185.3135" x="850.1997" y="222.8135">WHERE aircraft_registration = ?</text></g><g class="message" data-entity-1="part5" data-entity-2="part4" id="msg5"><polygon fill="#181818" points="842.9697,255.3672,832.9697,259.3672,842.9697,263.3672,838.9697,259.3672" style="stroke:#181818;stroke-width:1;"/><line style="stroke:#181818;stroke-width:1;stroke-dasharray:2,2;" x1="836.9697" x2="1071.394" y1="259.3672" y2="259.3672"/><text fill="#000000" font-family="sans-serif" font-size="13" font-weight="bold" lengthAdjust="spacing" textLength="7.23" x="848.9697" y="254.1045">5</text><text fill="#000000" font-family="sans-serif" font-size="13" lengthAdjust="spacing" textLength="130.7935" x="860.1997" y="254.1045">list of scheduled flights</text></g><g class="message" data-entity-1="part4" data-entity-2="part3" id="msg6"><polygon fill="#181818" points="583.1045,286.6582,573.1045,290.6582,583.1045,294.6582,579.1045,290.6582" style="stroke:#181818;stroke-width:1;"/><line style="stroke:#181818;stroke-width:1;stroke-dasharray:2,2;" x1="577.1045" x2="825.9697" y1="290.6582" y2="290.6582"/><text fill="#000000" font-family="sans-serif" font-size="13" font-weight="bold" lengthAdjust="spacing" textLength="7.23" x="589.1045" y="285.3955">6</text><text fill="#000000" font-family="sans-serif" font-size="13" lengthAdjust="spacing" textLength="128.6416" x="600.3345" y="285.3955">List&lt;ScheduledFlight&gt;</text></g><path d="M577,303.6582 L577,347.6582 L795,347.6582 L795,313.6582 L785,303.6582 L577,303.6582" fill="#FEFFDD" style="stroke:#181818;stroke-width:0.5;"/><path d="M785,303.6582 L785,313.6582 L795,313.6582 L785,303.6582" fill="#FEFFDD" style="stroke:#181818;stroke-width:0.5;"/><text fill="#000000" font-family="sans-serif" font-size="13" lengthAdjust="spacing" textLength="160.4307" x="583" y="322.6865">Maps each ScheduledFlight</text><text fill="#000000" font-family="sans-serif" font-size="13" lengthAdjust="spacing" textLength="197.2725" x="583" y="339.9775">to ScheduledFlightResponse DTO</text><g class="message" data-entity-1="part3" data-entity-2="part2" id="msg7"><polygon fill="#181818" points="350.6948,372.5313,340.6948,376.5313,350.6948,380.5313,346.6948,376.5313" style="stroke:#181818;stroke-width:1;"/><line style="stroke:#181818;stroke-width:1;stroke-dasharray:2,2;" x1="344.6948" x2="566.1045" y1="376.5313" y2="376.5313"/><text fill="#000000" font-family="sans-serif" font-size="13" font-weight="bold" lengthAdjust="spacing" textLength="7.23" x="356.6948" y="371.2686">7</text><text fill="#000000" font-family="sans-serif" font-size="13" lengthAdjust="spacing" textLength="187.1797" x="367.9248" y="371.2686">List&lt;ScheduledFlightResponse&gt;</text></g><g class="message" data-entity-1="part2" data-entity-2="part1" id="msg8"><polygon fill="#181818" points="38.0552,403.8223,28.0552,407.8223,38.0552,411.8223,34.0552,407.8223" style="stroke:#181818;stroke-width:1;"/><line style="stroke:#181818;stroke-width:1;stroke-dasharray:2,2;" x1="32.0552" x2="333.6948" y1="407.8223" y2="407.8223"/><text fill="#000000" font-family="sans-serif" font-size="13" font-weight="bold" lengthAdjust="spacing" textLength="7.23" x="44.0552" y="402.5596">8</text><text fill="#000000" font-family="sans-serif" font-size="13" lengthAdjust="spacing" textLength="125.6963" x="55.2852" y="402.5596">200 OK (JSON Array)</text></g><?plantuml-src VP9TQy8m68NlyojUlDA1L7Of-q3JwjXqXTgo6q5YcsgWIqgIZidOVr-Ijcjr7tSfES_9EUzRKcd1gzSzbOYaMaWOp6AC1q0Ks0CgYTGiPINX6WQRz4Ypgg3Pec27eyQ2QocAWagdnreMv_ebrHU8cfzcJAQIv3fH51D57Phy_r14Iw6OINToQlk9CgB9tl0my9kJk_Fd2DdWCBvpWM0Aoo06ZvJCKwthEA_3UAJ9udr8Uc1AIwAPu9zs5EoDQ5ftGix862ROsD5tcbQQ3ll4g2DC5PIuvsrCeyyPpxhMKO_woyBrSxHnyUV6OnEi0Xp35IoYS0tVFNPDZor_UGYY0DewkxuntC9zvstcOnp7NRp2247adIaqfYYZVQhEqmvXPQYRYotTzGdN0N5XZj9UsYSIF8KrAHKOsH4kw2tN0dxiNPM2cntxSLXFjTlgRmbQ_LaIkv1wWGPslyOKhYSJ29zW-BW9ds4c9JcD-eYLVm40?></g></svg>