<?plantuml 1.2026.2?><svg xmlns="http://www.w3.org/2000/svg" xmlns:xlink="http://www.w3.org/1999/xlink" contentStyleType="text/css" data-diagram-type="SEQUENCE" height="526px" preserveAspectRatio="none" style="width:924px;height:526px;background:#FFFFFF;" version="1.1" viewBox="0 0 924 526" width="924px" zoomAndPan="magnify"><defs/><g><g><title>RouteController</title><rect fill="#FFFFFF" height="308.2012" style="stroke:#181818;stroke-width:1;" width="10" x="212.6377" y="116.9121"/></g><g><title>GetRouteByIdUseCase</title><rect fill="#FFFFFF" height="245.6191" style="stroke:#181818;stroke-width:1;" width="10" x="430.5874" y="148.2031"/></g><g><title>RouteRepository</title><rect fill="#FFFFFF" height="111.1641" style="stroke:#181818;stroke-width:1;" width="10" x="601.6108" y="179.4941"/></g><g><title>Database</title><rect fill="#FFFFFF" height="31.291" style="stroke:#181818;stroke-width:1;" width="10" x="884.9688" y="228.0762"/></g><g class="participant-lifeline" data-entity-uid="part1" data-qualified-name="ATCC" id="part1-lifeline"><g><title>ATCC</title><rect fill="#000000" fill-opacity="0.00000" height="359.4922" width="8" x="23.0552" y="83.6211"/><line style="stroke:#181818;stroke-width:0.5;stroke-dasharray:5,5;" x1="27" x2="27" y1="83.6211" y2="443.1133"/></g></g><g class="participant-lifeline" data-entity-uid="part2" data-qualified-name="Ctrl" id="part2-lifeline"><g><title>RouteController</title><rect fill="#000000" fill-opacity="0.00000" height="359.4922" width="8" x="213.6377" y="83.6211"/><line style="stroke:#181818;stroke-width:0.5;stroke-dasharray:5,5;" x1="217.6138" x2="217.6138" y1="83.6211" y2="443.1133"/></g></g><g class="participant-lifeline" data-entity-uid="part3" data-qualified-name="UC" id="part3-lifeline"><g><title>GetRouteByIdUseCase</title><rect fill="#000000" fill-opacity="0.00000" height="359.4922" width="8" x="431.5874" y="83.6211"/><line style="stroke:#181818;stroke-width:0.5;stroke-dasharray:5,5;" x1="434.8291" x2="434.8291" y1="83.6211" y2="443.1133"/></g></g><g class="participant-lifeline" data-entity-uid="part4" data-qualified-name="Repo" id="part4-lifeline"><g><title>RouteRepository</title><rect fill="#000000" fill-opacity="0.00000" height="359.4922" width="8" x="602.6108" y="83.6211"/><line style="stroke:#181818;stroke-width:0.5;stroke-dasharray:5,5;" x1="606.4731" x2="606.4731" y1="83.6211" y2="443.1133"/></g></g><g class="participant-lifeline" data-entity-uid="part5" data-qualified-name="DB" id="part5-lifeline"><g><title>Database</title><rect fill="#000000" fill-opacity="0.00000" height="359.4922" width="8" x="885.9688" y="83.6211"/><line style="stroke:#181818;stroke-width:0.5;stroke-dasharray:5,5;" x1="889.0034" x2="889.0034" y1="83.6211" y2="443.1133"/></g></g><g class="participant participant-head" data-entity-uid="part1" data-qualified-name="ATCC" id="part1-head"><text fill="#000000" font-family="sans-serif" font-size="14" lengthAdjust="spacing" textLength="38.1104" x="5" y="80.1074">ATCC</text><ellipse cx="27.0552" cy="13.5" fill="#E2E2F0" rx="8" ry="8" style="stroke:#181818;stroke-width:0.5;"/><path d="M27.0552,21.5 L27.0552,48.5 M14.0552,29.5 L40.0552,29.5 M27.0552,48.5 L14.0552,63.5 M27.0552,48.5 L40.0552,63.5" fill="none" style="stroke:#181818;stroke-width:0.5;"/></g><g class="participant participant-tail" data-entity-uid="part1" data-qualified-name="ATCC" id="part1-tail"><text fill="#000000" font-family="sans-serif" font-size="14" lengthAdjust="spacing" textLength="38.1104" x="5" y="457.2207">ATCC</text><ellipse cx="27.0552" cy="469.2344" fill="#E2E2F0" rx="8" ry="8" style="stroke:#181818;stroke-width:0.5;"/><path d="M27.0552,477.2344 L27.0552,504.2344 M14.0552,485.2344 L40.0552,485.2344 M27.0552,504.2344 L14.0552,519.2344 M27.0552,504.2344 L40.0552,519.2344" fill="none" style="stroke:#181818;stroke-width:0.5;"/></g><g class="participant participant-head" data-entity-uid="part2" data-qualified-name="Ctrl" id="part2-head"><rect fill="#E2E2F0" height="32.6211" rx="2.5" ry="2.5" style="stroke:#181818;stroke-width:0.5;" width="112.0479" x="161.6138" y="50"/><text fill="#000000" font-family="sans-serif" font-size="14" lengthAdjust="spacing" textLength="98.0479" x="168.6138" y="72.1074">RouteController</text></g><g class="participant participant-tail" data-entity-uid="part2" data-qualified-name="Ctrl" id="part2-tail"><rect fill="#E2E2F0" height="32.6211" rx="2.5" ry="2.5" style="stroke:#181818;stroke-width:0.5;" width="112.0479" x="161.6138" y="442.1133"/><text fill="#000000" font-family="sans-serif" font-size="14" lengthAdjust="spacing" textLength="98.0479" x="168.6138" y="464.2207">RouteController</text></g><g class="participant participant-head" data-entity-uid="part3" data-qualified-name="UC" id="part3-head"><rect fill="#E2E2F0" height="32.6211" rx="2.5" ry="2.5" style="stroke:#181818;stroke-width:0.5;" width="159.5166" x="355.8291" y="50"/><text fill="#000000" font-family="sans-serif" font-size="14" lengthAdjust="spacing" textLength="145.5166" x="362.8291" y="72.1074">GetRouteByIdUseCase</text></g><g class="participant participant-tail" data-entity-uid="part3" data-qualified-name="UC" id="part3-tail"><rect fill="#E2E2F0" height="32.6211" rx="2.5" ry="2.5" style="stroke:#181818;stroke-width:0.5;" width="159.5166" x="355.8291" y="442.1133"/><text fill="#000000" font-family="sans-serif" font-size="14" lengthAdjust="spacing" textLength="145.5166" x="362.8291" y="464.2207">GetRouteByIdUseCase</text></g><g class="participant participant-head" data-entity-uid="part4" data-qualified-name="Repo" id="part4-head"><rect fill="#E2E2F0" height="32.6211" rx="2.5" ry="2.5" style="stroke:#181818;stroke-width:0.5;" width="118.2754" x="547.4731" y="50"/><text fill="#000000" font-family="sans-serif" font-size="14" lengthAdjust="spacing" textLength="104.2754" x="554.4731" y="72.1074">RouteRepository</text></g><g class="participant participant-tail" data-entity-uid="part4" data-qualified-name="Repo" id="part4-tail"><rect fill="#E2E2F0" height="32.6211" rx="2.5" ry="2.5" style="stroke:#181818;stroke-width:0.5;" width="118.2754" x="547.4731" y="442.1133"/><text fill="#000000" font-family="sans-serif" font-size="14" lengthAdjust="spacing" textLength="104.2754" x="554.4731" y="464.2207">RouteRepository</text></g><g class="participant participant-head" data-entity-uid="part5" data-qualified-name="DB" id="part5-head"><text fill="#000000" font-family="sans-serif" font-size="14" lengthAdjust="spacing" textLength="59.9307" x="857.0034" y="80.1074">Database</text><path d="M871.9688,29 C871.9688,19 889.9688,19 889.9688,19 C889.9688,19 907.9688,19 907.9688,29 L907.9688,55 C907.9688,65 889.9688,65 889.9688,65 C889.9688,65 871.9688,65 871.9688,55 L871.9688,29" fill="#E2E2F0" style="stroke:#181818;stroke-width:0.5;"/><path d="M871.9688,29 C871.9688,39 889.9688,39 889.9688,39 C889.9688,39 907.9688,39 907.9688,29" fill="none" style="stroke:#181818;stroke-width:0.5;"/></g><g class="participant participant-tail" data-entity-uid="part5" data-qualified-name="DB" id="part5-tail"><text fill="#000000" font-family="sans-serif" font-size="14" lengthAdjust="spacing" textLength="59.9307" x="857.0034" y="457.2207">Database</text><path d="M871.9688,470.7344 C871.9688,460.7344 889.9688,460.7344 889.9688,460.7344 C889.9688,460.7344 907.9688,460.7344 907.9688,470.7344 L907.9688,496.7344 C907.9688,506.7344 889.9688,506.7344 889.9688,506.7344 C889.9688,506.7344 871.9688,506.7344 871.9688,496.7344 L871.9688,470.7344" fill="#E2E2F0" style="stroke:#181818;stroke-width:0.5;"/><path d="M871.9688,470.7344 C871.9688,480.7344 889.9688,480.7344 889.9688,480.7344 C889.9688,480.7344 907.9688,480.7344 907.9688,470.7344" fill="none" style="stroke:#181818;stroke-width:0.5;"/></g><g><title>RouteController</title><rect fill="#FFFFFF" height="308.2012" style="stroke:#181818;stroke-width:1;" width="10" x="212.6377" y="116.9121"/></g><g><title>GetRouteByIdUseCase</title><rect fill="#FFFFFF" height="245.6191" style="stroke:#181818;stroke-width:1;" width="10" x="430.5874" y="148.2031"/></g><g><title>RouteRepository</title><rect fill="#FFFFFF" height="111.1641" style="stroke:#181818;stroke-width:1;" width="10" x="601.6108" y="179.4941"/></g><g><title>Database</title><rect fill="#FFFFFF" height="31.291" style="stroke:#181818;stroke-width:1;" width="10" x="884.9688" y="228.0762"/></g><g class="message" data-entity-1="part1" data-entity-2="part2" id="msg1"><polygon fill="#181818" points="200.6377,112.9121,210.6377,116.9121,200.6377,120.9121,204.6377,116.9121" style="stroke:#181818;stroke-width:1;"/><line style="stroke:#181818;stroke-width:1;" x1="27.0552" x2="206.6377" y1="116.9121" y2="116.9121"/><text fill="#000000" font-family="sans-serif" font-size="13" font-weight="bold" lengthAdjust="spacing" textLength="7.23" x="34.0552" y="111.6494">1</text><text fill="#000000" font-family="sans-serif" font-size="13" lengthAdjust="spacing" textLength="155.3525" x="45.2852" y="111.6494">GET /api/routes/{id}/history</text></g><g class="message" data-entity-1="part2" data-entity-2="part3" id="msg2"><polygon fill="#181818" points="418.5874,144.2031,428.5874,148.2031,418.5874,152.2031,422.5874,148.2031" style="stroke:#181818;stroke-width:1;"/><line style="stroke:#181818;stroke-width:1;" x1="222.6377" x2="424.5874" y1="148.2031" y2="148.2031"/><text fill="#000000" font-family="sans-serif" font-size="13" font-weight="bold" lengthAdjust="spacing" textLength="7.23" x="229.6377" y="142.9404">2</text><text fill="#000000" font-family="sans-serif" font-size="13" lengthAdjust="spacing" textLength="94.6626" x="240.8677" y="142.9404">execute(routeId)</text></g><g class="message" data-entity-1="part3" data-entity-2="part4" id="msg3"><polygon fill="#181818" points="589.6108,175.4941,599.6108,179.4941,589.6108,183.4941,593.6108,179.4941" style="stroke:#181818;stroke-width:1;"/><line style="stroke:#181818;stroke-width:1;" x1="440.5874" x2="595.6108" y1="179.4941" y2="179.4941"/><text fill="#000000" font-family="sans-serif" font-size="13" font-weight="bold" lengthAdjust="spacing" textLength="7.23" x="447.5874" y="174.2314">3</text><text fill="#000000" font-family="sans-serif" font-size="13" lengthAdjust="spacing" textLength="130.7935" x="458.8174" y="174.2314">findByRouteId(routeId)</text></g><g class="message" data-entity-1="part4" data-entity-2="part5" id="msg4"><polygon fill="#181818" points="872.9688,224.0762,882.9688,228.0762,872.9688,232.0762,876.9688,228.0762" style="stroke:#181818;stroke-width:1;"/><line style="stroke:#181818;stroke-width:1;" x1="611.6108" x2="878.9688" y1="228.0762" y2="228.0762"/><text fill="#000000" font-family="sans-serif" font-size="13" font-weight="bold" lengthAdjust="spacing" textLength="7.23" x="618.6108" y="214.168">4</text><text fill="#000000" font-family="sans-serif" font-size="13" lengthAdjust="spacing" textLength="140.8672" x="629.8408" y="205.5225">SELECT * FROM routes</text><text fill="#000000" font-family="sans-serif" font-size="13" lengthAdjust="spacing" textLength="243.1279" x="629.8408" y="222.8135">JOIN route_versions WHERE route_id = ?</text></g><g class="message" data-entity-1="part5" data-entity-2="part4" id="msg5"><polygon fill="#181818" points="622.6108,255.3672,612.6108,259.3672,622.6108,263.3672,618.6108,259.3672" style="stroke:#181818;stroke-width:1;"/><line style="stroke:#181818;stroke-width:1;stroke-dasharray:2,2;" x1="616.6108" x2="888.9688" y1="259.3672" y2="259.3672"/><text fill="#000000" font-family="sans-serif" font-size="13" font-weight="bold" lengthAdjust="spacing" textLength="7.23" x="628.6108" y="254.1045">5</text><text fill="#000000" font-family="sans-serif" font-size="13" lengthAdjust="spacing" textLength="124.998" x="639.8408" y="254.1045">route with all versions</text></g><g class="message" data-entity-1="part4" data-entity-2="part3" id="msg6"><polygon fill="#181818" points="451.5874,286.6582,441.5874,290.6582,451.5874,294.6582,447.5874,290.6582" style="stroke:#181818;stroke-width:1;"/><line style="stroke:#181818;stroke-width:1;stroke-dasharray:2,2;" x1="445.5874" x2="605.6108" y1="290.6582" y2="290.6582"/><text fill="#000000" font-family="sans-serif" font-size="13" font-weight="bold" lengthAdjust="spacing" textLength="7.23" x="457.5874" y="285.3955">6</text><text fill="#000000" font-family="sans-serif" font-size="13" lengthAdjust="spacing" textLength="29.6309" x="468.8174" y="285.3955">route</text></g><path d="M445,303.6582 L445,364.6582 L655,364.6582 L655,313.6582 L645,303.6582 L445,303.6582" fill="#FEFFDD" style="stroke:#181818;stroke-width:0.5;"/><path d="M645,303.6582 L645,313.6582 L655,313.6582 L645,303.6582" fill="#FEFFDD" style="stroke:#181818;stroke-width:0.5;"/><text fill="#000000" font-family="sans-serif" font-size="13" lengthAdjust="spacing" textLength="137.2871" x="451" y="322.6865">Maps all RouteVersions</text><text fill="#000000" font-family="sans-serif" font-size="13" lengthAdjust="spacing" textLength="189.3125" x="451" y="339.9775">to RouteVersionResponse DTOs</text><text fill="#000000" font-family="sans-serif" font-size="13" lengthAdjust="spacing" textLength="162.5571" x="451" y="357.2686">ordered by validFrom DESC</text><g class="message" data-entity-1="part3" data-entity-2="part2" id="msg7"><polygon fill="#181818" points="233.6377,389.8223,223.6377,393.8223,233.6377,397.8223,229.6377,393.8223" style="stroke:#181818;stroke-width:1;"/><line style="stroke:#181818;stroke-width:1;stroke-dasharray:2,2;" x1="227.6377" x2="434.5874" y1="393.8223" y2="393.8223"/><text fill="#000000" font-family="sans-serif" font-size="13" font-weight="bold" lengthAdjust="spacing" textLength="7.23" x="239.6377" y="388.5596">7</text><text fill="#000000" font-family="sans-serif" font-size="13" lengthAdjust="spacing" textLength="172.7197" x="250.8677" y="388.5596">List&lt;RouteVersionResponse&gt;</text></g><g class="message" data-entity-1="part2" data-entity-2="part1" id="msg8"><polygon fill="#181818" points="38.0552,421.1133,28.0552,425.1133,38.0552,429.1133,34.0552,425.1133" style="stroke:#181818;stroke-width:1;"/><line style="stroke:#181818;stroke-width:1;stroke-dasharray:2,2;" x1="32.0552" x2="216.6377" y1="425.1133" y2="425.1133"/><text fill="#000000" font-family="sans-serif" font-size="13" font-weight="bold" lengthAdjust="spacing" textLength="7.23" x="44.0552" y="419.8506">8</text><text fill="#000000" font-family="sans-serif" font-size="13" lengthAdjust="spacing" textLength="125.6963" x="55.2852" y="419.8506">200 OK (JSON Array)</text></g><?plantuml-src RP7HQy8m4CRVyrSSFkb0b3tAvj2sEfrQg7Lx4KOqSGPgKvBeLiR-zrsk5HLykoJVxxllSlpeT7uyRAHXVEkqWSOW3O86S0k-O0KtJcrLmNC7ZKGVdGnqxepECcb85JYJtQh6qf5mM4x4oig0MqdArJstH1RQAcnSaiOVcU2ERv22HbXNz1OE6VEPeDsdhj23SPH2XnUgOxoNxVmgyTVPA-lz_3pgn9si8Z9245q52CeVkKMYITn4j2vYJCbMrCDdGUbEvM9O9fNm3a2HIOjCE4HY6SsY88K762Nn7AfewtmQJnRLuVCaZLKwj_3n6YLHVQa4FCFBnHV7HRVs9GZ9u5kvFV0iWxC94_AQgPASvoJcMa5fMQwnDEfhxq3lKDc3EIyisTAWxxNtEdVwvYQHji1xx9J6-AgDa4OAs9HmufaI8wCF44RB-WylYvhXJfxk6VMlm_c_hzQ49Asw1u_TBiHlq9mkumKCZE5bwnhnydy0?></g></svg>