<?plantuml 1.2026.2?><svg xmlns="http://www.w3.org/2000/svg" xmlns:xlink="http://www.w3.org/1999/xlink" contentStyleType="text/css" data-diagram-type="SEQUENCE" height="667px" preserveAspectRatio="none" style="width:1355px;height:667px;background:#FFFFFF;" version="1.1" viewBox="0 0 1355 667" width="1355px" zoomAndPan="magnify"><defs/><g><g><title>RouteController</title><rect fill="#FFFFFF" height="449.3652" style="stroke:#181818;stroke-width:1;" width="10" x="333.6685" y="116.9121"/></g><g><title>ListActiveRoutesSortedUseCase</title><rect fill="#FFFFFF" height="386.7832" style="stroke:#181818;stroke-width:1;" width="10" x="539.2974" y="148.2031"/></g><g><title>RouteRepository</title><rect fill="#FFFFFF" height="93.873" style="stroke:#181818;stroke-width:1;" width="10" x="716.9829" y="179.4941"/></g><g><title>ScheduledFlightRepository</title><rect fill="#FFFFFF" height="93.873" style="stroke:#181818;stroke-width:1;" width="10" x="876.7788" y="330.9492"/></g><g><title>Database</title><rect fill="#FFFFFF" height="31.291" style="stroke:#181818;stroke-width:1;" width="10" x="1301.7148" y="210.7852"/></g><g><title>Database</title><rect fill="#FFFFFF" height="31.291" style="stroke:#181818;stroke-width:1;" width="10" x="1301.7148" y="362.2402"/></g><rect fill="none" height="144.4551" style="stroke:#000000;stroke-width:1.5;" width="923.9307" x="425.7495" y="288.3672"/><g class="participant-lifeline" data-entity-uid="part1" data-qualified-name="ATCC" id="part1-lifeline"><g><title>ATCC</title><rect fill="#000000" fill-opacity="0.00000" height="500.6563" width="8" x="23.0552" y="83.6211"/><line style="stroke:#181818;stroke-width:0.5;stroke-dasharray:5,5;" x1="27" x2="27" y1="83.6211" y2="584.2773"/></g></g><g class="participant-lifeline" data-entity-uid="part2" data-qualified-name="Ctrl" id="part2-lifeline"><g><title>RouteController</title><rect fill="#000000" fill-opacity="0.00000" height="500.6563" width="8" x="334.6685" y="83.6211"/><line style="stroke:#181818;stroke-width:0.5;stroke-dasharray:5,5;" x1="338.6445" x2="338.6445" y1="83.6211" y2="584.2773"/></g></g><g class="participant-lifeline" data-entity-uid="part3" data-qualified-name="UC" id="part3-lifeline"><g><title>ListActiveRoutesSortedUseCase</title><rect fill="#000000" fill-opacity="0.00000" height="500.6563" width="8" x="540.2974" y="83.6211"/><line style="stroke:#181818;stroke-width:0.5;stroke-dasharray:5,5;" x1="543.7495" x2="543.7495" y1="83.6211" y2="584.2773"/></g></g><g class="participant-lifeline" data-entity-uid="part4" data-qualified-name="RouteRepo" id="part4-lifeline"><g><title>RouteRepository</title><rect fill="#000000" fill-opacity="0.00000" height="500.6563" width="8" x="717.9829" y="83.6211"/><line style="stroke:#181818;stroke-width:0.5;stroke-dasharray:5,5;" x1="721.8452" x2="721.8452" y1="83.6211" y2="584.2773"/></g></g><g class="participant-lifeline" data-entity-uid="part5" data-qualified-name="SFRepo" id="part5-lifeline"><g><title>ScheduledFlightRepository</title><rect fill="#000000" fill-opacity="0.00000" height="500.6563" width="8" x="877.7788" y="83.6211"/><line style="stroke:#181818;stroke-width:0.5;stroke-dasharray:5,5;" x1="881.1206" x2="881.1206" y1="83.6211" y2="584.2773"/></g></g><g class="participant-lifeline" data-entity-uid="part6" data-qualified-name="DB" id="part6-lifeline"><g><title>Database</title><rect fill="#000000" fill-opacity="0.00000" height="500.6563" width="8" x="1302.7148" y="83.6211"/><line style="stroke:#181818;stroke-width:0.5;stroke-dasharray:5,5;" x1="1305.7495" x2="1305.7495" y1="83.6211" y2="584.2773"/></g></g><g class="participant participant-head" data-entity-uid="part1" data-qualified-name="ATCC" id="part1-head"><text fill="#000000" font-family="sans-serif" font-size="14" lengthAdjust="spacing" textLength="38.1104" x="5" y="80.1074">ATCC</text><ellipse cx="27.0552" cy="13.5" fill="#E2E2F0" rx="8" ry="8" style="stroke:#181818;stroke-width:0.5;"/><path d="M27.0552,21.5 L27.0552,48.5 M14.0552,29.5 L40.0552,29.5 M27.0552,48.5 L14.0552,63.5 M27.0552,48.5 L40.0552,63.5" fill="none" style="stroke:#181818;stroke-width:0.5;"/></g><g class="participant participant-tail" data-entity-uid="part1" data-qualified-name="ATCC" id="part1-tail"><text fill="#000000" font-family="sans-serif" font-size="14" lengthAdjust="spacing" textLength="38.1104" x="5" y="598.3848">ATCC</text><ellipse cx="27.0552" cy="610.3984" fill="#E2E2F0" rx="8" ry="8" style="stroke:#181818;stroke-width:0.5;"/><path d="M27.0552,618.3984 L27.0552,645.3984 M14.0552,626.3984 L40.0552,626.3984 M27.0552,645.3984 L14.0552,660.3984 M27.0552,645.3984 L40.0552,660.3984" fill="none" style="stroke:#181818;stroke-width:0.5;"/></g><g class="participant participant-head" data-entity-uid="part2" data-qualified-name="Ctrl" id="part2-head"><rect fill="#E2E2F0" height="32.6211" rx="2.5" ry="2.5" style="stroke:#181818;stroke-width:0.5;" width="112.0479" x="282.6445" y="50"/><text fill="#000000" font-family="sans-serif" font-size="14" lengthAdjust="spacing" textLength="98.0479" x="289.6445" y="72.1074">RouteController</text></g><g class="participant participant-tail" data-entity-uid="part2" data-qualified-name="Ctrl" id="part2-tail"><rect fill="#E2E2F0" height="32.6211" rx="2.5" ry="2.5" style="stroke:#181818;stroke-width:0.5;" width="112.0479" x="282.6445" y="583.2773"/><text fill="#000000" font-family="sans-serif" font-size="14" lengthAdjust="spacing" textLength="98.0479" x="289.6445" y="605.3848">RouteController</text></g><g class="participant participant-head" data-entity-uid="part3" data-qualified-name="UC" id="part3-head"><rect fill="#E2E2F0" height="32.6211" rx="2.5" ry="2.5" style="stroke:#181818;stroke-width:0.5;" width="217.0957" x="435.7495" y="50"/><text fill="#000000" font-family="sans-serif" font-size="14" lengthAdjust="spacing" textLength="203.0957" x="442.7495" y="72.1074">ListActiveRoutesSortedUseCase</text></g><g class="participant participant-tail" data-entity-uid="part3" data-qualified-name="UC" id="part3-tail"><rect fill="#E2E2F0" height="32.6211" rx="2.5" ry="2.5" style="stroke:#181818;stroke-width:0.5;" width="217.0957" x="435.7495" y="583.2773"/><text fill="#000000" font-family="sans-serif" font-size="14" lengthAdjust="spacing" textLength="203.0957" x="442.7495" y="605.3848">ListActiveRoutesSortedUseCase</text></g><g class="participant participant-head" data-entity-uid="part4" data-qualified-name="RouteRepo" id="part4-head"><rect fill="#E2E2F0" height="32.6211" rx="2.5" ry="2.5" style="stroke:#181818;stroke-width:0.5;" width="118.2754" x="662.8452" y="50"/><text fill="#000000" font-family="sans-serif" font-size="14" lengthAdjust="spacing" textLength="104.2754" x="669.8452" y="72.1074">RouteRepository</text></g><g class="participant participant-tail" data-entity-uid="part4" data-qualified-name="RouteRepo" id="part4-tail"><rect fill="#E2E2F0" height="32.6211" rx="2.5" ry="2.5" style="stroke:#181818;stroke-width:0.5;" width="118.2754" x="662.8452" y="583.2773"/><text fill="#000000" font-family="sans-serif" font-size="14" lengthAdjust="spacing" textLength="104.2754" x="669.8452" y="605.3848">RouteRepository</text></g><g class="participant participant-head" data-entity-uid="part5" data-qualified-name="SFRepo" id="part5-head"><rect fill="#E2E2F0" height="32.6211" rx="2.5" ry="2.5" style="stroke:#181818;stroke-width:0.5;" width="181.3164" x="791.1206" y="50"/><text fill="#000000" font-family="sans-serif" font-size="14" lengthAdjust="spacing" textLength="167.3164" x="798.1206" y="72.1074">ScheduledFlightRepository</text></g><g class="participant participant-tail" data-entity-uid="part5" data-qualified-name="SFRepo" id="part5-tail"><rect fill="#E2E2F0" height="32.6211" rx="2.5" ry="2.5" style="stroke:#181818;stroke-width:0.5;" width="181.3164" x="791.1206" y="583.2773"/><text fill="#000000" font-family="sans-serif" font-size="14" lengthAdjust="spacing" textLength="167.3164" x="798.1206" y="605.3848">ScheduledFlightRepository</text></g><g class="participant participant-head" data-entity-uid="part6" data-qualified-name="DB" id="part6-head"><text fill="#000000" font-family="sans-serif" font-size="14" lengthAdjust="spacing" textLength="59.9307" x="1273.7495" y="80.1074">Database</text><path d="M1288.7148,29 C1288.7148,19 1306.7148,19 1306.7148,19 C1306.7148,19 1324.7148,19 1324.7148,29 L1324.7148,55 C1324.7148,65 1306.7148,65 1306.7148,65 C1306.7148,65 1288.7148,65 1288.7148,55 L1288.7148,29" fill="#E2E2F0" style="stroke:#181818;stroke-width:0.5;"/><path d="M1288.7148,29 C1288.7148,39 1306.7148,39 1306.7148,39 C1306.7148,39 1324.7148,39 1324.7148,29" fill="none" style="stroke:#181818;stroke-width:0.5;"/></g><g class="participant participant-tail" data-entity-uid="part6" data-qualified-name="DB" id="part6-tail"><text fill="#000000" font-family="sans-serif" font-size="14" lengthAdjust="spacing" textLength="59.9307" x="1273.7495" y="598.3848">Database</text><path d="M1288.7148,611.8984 C1288.7148,601.8984 1306.7148,601.8984 1306.7148,601.8984 C1306.7148,601.8984 1324.7148,601.8984 1324.7148,611.8984 L1324.7148,637.8984 C1324.7148,647.8984 1306.7148,647.8984 1306.7148,647.8984 C1306.7148,647.8984 1288.7148,647.8984 1288.7148,637.8984 L1288.7148,611.8984" fill="#E2E2F0" style="stroke:#181818;stroke-width:0.5;"/><path d="M1288.7148,611.8984 C1288.7148,621.8984 1306.7148,621.8984 1306.7148,621.8984 C1306.7148,621.8984 1324.7148,621.8984 1324.7148,611.8984" fill="none" style="stroke:#181818;stroke-width:0.5;"/></g><g><title>RouteController</title><rect fill="#FFFFFF" height="449.3652" style="stroke:#181818;stroke-width:1;" width="10" x="333.6685" y="116.9121"/></g><g><title>ListActiveRoutesSortedUseCase</title><rect fill="#FFFFFF" height="386.7832" style="stroke:#181818;stroke-width:1;" width="10" x="539.2974" y="148.2031"/></g><g><title>RouteRepository</title><rect fill="#FFFFFF" height="93.873" style="stroke:#181818;stroke-width:1;" width="10" x="716.9829" y="179.4941"/></g><g><title>ScheduledFlightRepository</title><rect fill="#FFFFFF" height="93.873" style="stroke:#181818;stroke-width:1;" width="10" x="876.7788" y="330.9492"/></g><g><title>Database</title><rect fill="#FFFFFF" height="31.291" style="stroke:#181818;stroke-width:1;" width="10" x="1301.7148" y="210.7852"/></g><g><title>Database</title><rect fill="#FFFFFF" height="31.291" style="stroke:#181818;stroke-width:1;" width="10" x="1301.7148" y="362.2402"/></g><g class="message" data-entity-1="part1" data-entity-2="part2" id="msg1"><polygon fill="#181818" points="321.6685,112.9121,331.6685,116.9121,321.6685,120.9121,325.6685,116.9121" style="stroke:#181818;stroke-width:1;"/><line style="stroke:#181818;stroke-width:1;" x1="27.0552" x2="327.6685" y1="116.9121" y2="116.9121"/><text fill="#000000" font-family="sans-serif" font-size="13" font-weight="bold" lengthAdjust="spacing" textLength="7.23" x="34.0552" y="111.6494">1</text><text fill="#000000" font-family="sans-serif" font-size="13" lengthAdjust="spacing" textLength="276.3833" x="45.2852" y="111.6494">GET /api/routes/active/sorted?sortBy=popularity</text></g><g class="message" data-entity-1="part2" data-entity-2="part3" id="msg2"><polygon fill="#181818" points="527.2974,144.2031,537.2974,148.2031,527.2974,152.2031,531.2974,148.2031" style="stroke:#181818;stroke-width:1;"/><line style="stroke:#181818;stroke-width:1;" x1="343.6685" x2="533.2974" y1="148.2031" y2="148.2031"/><text fill="#000000" font-family="sans-serif" font-size="13" font-weight="bold" lengthAdjust="spacing" textLength="7.23" x="350.6685" y="142.9404">2</text><text fill="#000000" font-family="sans-serif" font-size="13" lengthAdjust="spacing" textLength="91.0317" x="361.8984" y="142.9404">execute(sortBy)</text></g><g class="message" data-entity-1="part3" data-entity-2="part4" id="msg3"><polygon fill="#181818" points="704.9829,175.4941,714.9829,179.4941,704.9829,183.4941,708.9829,179.4941" style="stroke:#181818;stroke-width:1;"/><line style="stroke:#181818;stroke-width:1;" x1="549.2974" x2="710.9829" y1="179.4941" y2="179.4941"/><text fill="#000000" font-family="sans-serif" font-size="13" font-weight="bold" lengthAdjust="spacing" textLength="7.23" x="556.2974" y="174.2314">3</text><text fill="#000000" font-family="sans-serif" font-size="13" lengthAdjust="spacing" textLength="106.9199" x="567.5273" y="174.2314">findByActiveTrue()</text></g><g class="message" data-entity-1="part4" data-entity-2="part6" id="msg4"><polygon fill="#181818" points="1289.7148,206.7852,1299.7148,210.7852,1289.7148,214.7852,1293.7148,210.7852" style="stroke:#181818;stroke-width:1;"/><line style="stroke:#181818;stroke-width:1;" x1="726.9829" x2="1295.7148" y1="210.7852" y2="210.7852"/><text fill="#000000" font-family="sans-serif" font-size="13" font-weight="bold" lengthAdjust="spacing" textLength="7.23" x="733.9829" y="205.5225">4</text><text fill="#000000" font-family="sans-serif" font-size="13" lengthAdjust="spacing" textLength="284.2734" x="745.2129" y="205.5225">SELECT * FROM routes WHERE is_active = true</text></g><g class="message" data-entity-1="part6" data-entity-2="part4" id="msg5"><polygon fill="#181818" points="737.9829,238.0762,727.9829,242.0762,737.9829,246.0762,733.9829,242.0762" style="stroke:#181818;stroke-width:1;"/><line style="stroke:#181818;stroke-width:1;stroke-dasharray:2,2;" x1="731.9829" x2="1305.7148" y1="242.0762" y2="242.0762"/><text fill="#000000" font-family="sans-serif" font-size="13" font-weight="bold" lengthAdjust="spacing" textLength="7.23" x="743.9829" y="236.8135">5</text><text fill="#000000" font-family="sans-serif" font-size="13" lengthAdjust="spacing" textLength="107.6563" x="755.2129" y="236.8135">list of active routes</text></g><g class="message" data-entity-1="part4" data-entity-2="part3" id="msg6"><polygon fill="#181818" points="560.2974,269.3672,550.2974,273.3672,560.2974,277.3672,556.2974,273.3672" style="stroke:#181818;stroke-width:1;"/><line style="stroke:#181818;stroke-width:1;stroke-dasharray:2,2;" x1="554.2974" x2="720.9829" y1="273.3672" y2="273.3672"/><text fill="#000000" font-family="sans-serif" font-size="13" font-weight="bold" lengthAdjust="spacing" textLength="7.23" x="566.2974" y="268.1045">6</text><text fill="#000000" font-family="sans-serif" font-size="13" lengthAdjust="spacing" textLength="70.1035" x="577.5273" y="268.1045">List&lt;Route&gt;</text></g><path d="M425.7495,288.3672 L498.1841,288.3672 L498.1841,297.6582 L488.1841,307.6582 L425.7495,307.6582 L425.7495,288.3672" fill="#EEEEEE" style="stroke:#000000;stroke-width:1.5;"/><rect fill="none" height="144.4551" style="stroke:#000000;stroke-width:1.5;" width="923.9307" x="425.7495" y="288.3672"/><text fill="#000000" font-family="sans-serif" font-size="13" font-weight="bold" lengthAdjust="spacing" textLength="27.4346" x="440.7495" y="303.3955">loop</text><text fill="#000000" font-family="sans-serif" font-size="11" font-weight="bold" lengthAdjust="spacing" textLength="80.6738" x="513.1841" y="302.2373">[for each route]</text><g class="message" data-entity-1="part3" data-entity-2="part5" id="msg7"><polygon fill="#181818" points="864.7788,326.9492,874.7788,330.9492,864.7788,334.9492,868.7788,330.9492" style="stroke:#181818;stroke-width:1;"/><line style="stroke:#181818;stroke-width:1;" x1="549.2974" x2="870.7788" y1="330.9492" y2="330.9492"/><text fill="#000000" font-family="sans-serif" font-size="13" font-weight="bold" lengthAdjust="spacing" textLength="7.23" x="556.2974" y="325.6865">7</text><text fill="#000000" font-family="sans-serif" font-size="13" lengthAdjust="spacing" textLength="141.6353" x="567.5273" y="325.6865">countByRouteId(routeId)</text></g><g class="message" data-entity-1="part5" data-entity-2="part6" id="msg8"><polygon fill="#181818" points="1289.7148,358.2402,1299.7148,362.2402,1289.7148,366.2402,1293.7148,362.2402" style="stroke:#181818;stroke-width:1;"/><line style="stroke:#181818;stroke-width:1;" x1="886.7788" x2="1295.7148" y1="362.2402" y2="362.2402"/><text fill="#000000" font-family="sans-serif" font-size="13" font-weight="bold" lengthAdjust="spacing" textLength="7.23" x="893.7788" y="356.9775">8</text><text fill="#000000" font-family="sans-serif" font-size="13" lengthAdjust="spacing" textLength="384.7061" x="905.0088" y="356.9775">SELECT COUNT(*) FROM scheduled_flights WHERE route_id = ?</text></g><g class="message" data-entity-1="part6" data-entity-2="part5" id="msg9"><polygon fill="#181818" points="897.7788,389.5313,887.7788,393.5313,897.7788,397.5313,893.7788,393.5313" style="stroke:#181818;stroke-width:1;"/><line style="stroke:#181818;stroke-width:1;stroke-dasharray:2,2;" x1="891.7788" x2="1305.7148" y1="393.5313" y2="393.5313"/><text fill="#000000" font-family="sans-serif" font-size="13" font-weight="bold" lengthAdjust="spacing" textLength="7.23" x="903.7788" y="388.2686">9</text><text fill="#000000" font-family="sans-serif" font-size="13" lengthAdjust="spacing" textLength="70.1099" x="915.0088" y="388.2686">usageCount</text></g><g class="message" data-entity-1="part5" data-entity-2="part3" id="msg10"><polygon fill="#181818" points="560.2974,420.8223,550.2974,424.8223,560.2974,428.8223,556.2974,424.8223" style="stroke:#181818;stroke-width:1;"/><line style="stroke:#181818;stroke-width:1;stroke-dasharray:2,2;" x1="554.2974" x2="880.7788" y1="424.8223" y2="424.8223"/><text fill="#000000" font-family="sans-serif" font-size="13" font-weight="bold" lengthAdjust="spacing" textLength="14.46" x="566.2974" y="419.5596">10</text><text fill="#000000" font-family="sans-serif" font-size="13" lengthAdjust="spacing" textLength="24.5781" x="584.7573" y="419.5596">long</text></g><path d="M554,444.8223 L554,505.8223 L819,505.8223 L819,454.8223 L809,444.8223 L554,444.8223" fill="#FEFFDD" style="stroke:#181818;stroke-width:0.5;"/><path d="M809,444.8223 L809,454.8223 L819,454.8223 L809,444.8223" fill="#FEFFDD" style="stroke:#181818;stroke-width:0.5;"/><text fill="#000000" font-family="sans-serif" font-size="13" lengthAdjust="spacing" textLength="244.2134" x="560" y="463.8506">Builds RouteWithStatsDTO for each route.</text><text fill="#000000" font-family="sans-serif" font-size="13" lengthAdjust="spacing" textLength="229.7725" x="560" y="481.1416">Sorts by usageCount DESC (popularity)</text><text fill="#000000" font-family="sans-serif" font-size="13" lengthAdjust="spacing" textLength="191.4644" x="560" y="498.4326">or by distanceKm ASC (distance)</text><g class="message" data-entity-1="part3" data-entity-2="part2" id="msg11"><polygon fill="#181818" points="354.6685,530.9863,344.6685,534.9863,354.6685,538.9863,350.6685,534.9863" style="stroke:#181818;stroke-width:1;"/><line style="stroke:#181818;stroke-width:1;stroke-dasharray:2,2;" x1="348.6685" x2="543.2974" y1="534.9863" y2="534.9863"/><text fill="#000000" font-family="sans-serif" font-size="13" font-weight="bold" lengthAdjust="spacing" textLength="14.46" x="360.6685" y="529.7236">11</text><text fill="#000000" font-family="sans-serif" font-size="13" lengthAdjust="spacing" textLength="153.1689" x="379.1284" y="529.7236">List&lt;RouteWithStatsDTO&gt;</text></g><g class="message" data-entity-1="part2" data-entity-2="part1" id="msg12"><polygon fill="#181818" points="38.0552,562.2773,28.0552,566.2773,38.0552,570.2773,34.0552,566.2773" style="stroke:#181818;stroke-width:1;"/><line style="stroke:#181818;stroke-width:1;stroke-dasharray:2,2;" x1="32.0552" x2="337.6685" y1="566.2773" y2="566.2773"/><text fill="#000000" font-family="sans-serif" font-size="13" font-weight="bold" lengthAdjust="spacing" textLength="14.46" x="44.0552" y="561.0146">12</text><text fill="#000000" font-family="sans-serif" font-size="13" lengthAdjust="spacing" textLength="125.6963" x="62.5151" y="561.0146">200 OK (JSON Array)</text></g><?plantuml-src RLFRRgCm57ptLnpb2IfrK-rZj6qLBjbBkqKAeBvKYXpi99QeZMopMlv-3pO4YFQ9YsU6ENC6sbebsyyZruHMLcbOROiuNW4rqD-GXcehAj5GQM6rLwtbiP9Mgxhcsg5Yg-ibwbKOkwsi-CCTtkHAMyvAmsDgkEEK_zFTyqOPWHOwXxc-MqBpwi9PMtEsgyNvOcz8-Sun6BNqY1-3LJBSkTCa8gGV2kwVd6tOmFUqW3Ljn5exgslgVA-Di_pSNwBkiL5DMrCjR4VSERNSZqsS2ggLCMhnlxn2aS2pmWcBuvBIVVKw5C9FGhAeyq4LkkN1Z34DFp6GdaJ8ozFND2xW3dRxx3Tut_3-8zsd8Cp13m2FO55o4iJHaNn_Ow76JO4wmK3oMeJnEMrcO1oqN_0tz_vf3fvCargf1axO9ZozU5q2u3FmEqAPIhKIWtAqdopG_XeYy2evx1D6qaq6SLQ-5S5TwACmOpKE9zUDCHKdV10CGtcUY-Dm04CgLrEjeMUiE3h3msKIauinY5h9yn8s6EQI4I8Llj2zapxZCjv0r8gQ3TL-5_QIMsfDKcGtKNtvaFq_O-3OpVn0akOn15CPmm-9DCGmt0UL5N_vX6qF6Pz3NxkfxTFYvbzVBB7lgcyrqjpFie6l3m-GlK3mAy_UOAirnNBFA3ty7m00?></g></svg>