<svg xmlns="http://www.w3.org/2000/svg" xmlns:xlink="http://www.w3.org/1999/xlink" contentStyleType="text/css" data-diagram-type="SEQUENCE" height="321px" preserveAspectRatio="none" style="width:639px;height:321px;background:#FFFFFF;" version="1.1" viewBox="0 0 639 321" width="639px" zoomAndPan="magnify"><defs/><g><g><title>Backoffice Operator</title><rect fill="#FFFFFF" height="126.4551" style="stroke:#181818;stroke-width:1;" width="10" x="64.8618" y="93.6211"/></g><g><title>.System</title><rect fill="#FFFFFF" height="85.873" style="stroke:#181818;stroke-width:1;" width="10" x="421.5352" y="134.2031"/></g><g><title>Backoffice Operator</title><rect fill="#000000" fill-opacity="0.00000" height="154.4551" width="8" x="65.8618" y="83.6211"/><line style="stroke:#181818;stroke-width:0.5;stroke-dasharray:5,5;" x1="69" x2="69" y1="83.6211" y2="238.0762"/></g><g><title>.System</title><rect fill="#000000" fill-opacity="0.00000" height="154.4551" width="8" x="422.5352" y="83.6211"/><line style="stroke:#181818;stroke-width:0.5;stroke-dasharray:5,5;" x1="426.2524" x2="426.2524" y1="83.6211" y2="238.0762"/></g><g class="participant participant-head" data-participant="BO"><text fill="#000000" font-family="sans-serif" font-size="14" lengthAdjust="spacing" textLength="123.7236" x="5" y="80.1074">Backoffice Operator</text><ellipse cx="69.8618" cy="13.5" fill="#E2E2F0" rx="8" ry="8" style="stroke:#181818;stroke-width:0.5;"/><path d="M69.8618,21.5 L69.8618,48.5 M56.8618,29.5 L82.8618,29.5 M69.8618,48.5 L56.8618,63.5 M69.8618,48.5 L82.8618,63.5" fill="none" style="stroke:#181818;stroke-width:0.5;"/></g><g class="participant participant-tail" data-participant="BO"><text fill="#000000" font-family="sans-serif" font-size="14" lengthAdjust="spacing" textLength="123.7236" x="5" y="252.1836">Backoffice Operator</text><ellipse cx="69.8618" cy="264.1973" fill="#E2E2F0" rx="8" ry="8" style="stroke:#181818;stroke-width:0.5;"/><path d="M69.8618,272.1973 L69.8618,299.1973 M56.8618,280.1973 L82.8618,280.1973 M69.8618,299.1973 L56.8618,314.1973 M69.8618,299.1973 L82.8618,314.1973" fill="none" style="stroke:#181818;stroke-width:0.5;"/></g><g class="participant participant-head" data-participant="System"><rect fill="#E2E2F0" height="32.6211" rx="2.5" ry="2.5" style="stroke:#181818;stroke-width:0.5;" width="64.5654" x="394.2524" y="50"/><text fill="#000000" font-family="sans-serif" font-size="14" lengthAdjust="spacing" textLength="50.5654" x="401.2524" y="72.1074">:System</text></g><g class="participant participant-tail" data-participant="System"><rect fill="#E2E2F0" height="32.6211" rx="2.5" ry="2.5" style="stroke:#181818;stroke-width:0.5;" width="64.5654" x="394.2524" y="237.0762"/><text fill="#000000" font-family="sans-serif" font-size="14" lengthAdjust="spacing" textLength="50.5654" x="401.2524" y="259.1836">:System</text></g><g><title>Backoffice Operator</title><rect fill="#FFFFFF" height="126.4551" style="stroke:#181818;stroke-width:1;" width="10" x="64.8618" y="93.6211"/></g><g><title>.System</title><rect fill="#FFFFFF" height="85.873" style="stroke:#181818;stroke-width:1;" width="10" x="421.5352" y="134.2031"/></g><g class="message" data-participant-1="BO" data-participant-2="System"><polygon fill="#181818" points="409.5352,130.2031,419.5352,134.2031,409.5352,138.2031,413.5352,134.2031" style="stroke:#181818;stroke-width:1;"/><line style="stroke:#181818;stroke-width:1;" x1="74.8618" x2="415.5352" y1="134.2031" y2="134.2031"/><text fill="#000000" font-family="sans-serif" font-size="13" font-weight="bold" lengthAdjust="spacing" textLength="7.23" x="81.8618" y="120.2949">1</text><text fill="#000000" font-family="sans-serif" font-size="13" lengthAdjust="spacing" textLength="316.4434" x="93.0918" y="111.6494">registerAircraftModel(manufacturerName, modelName,</text><text fill="#000000" font-family="sans-serif" font-size="13" lengthAdjust="spacing" textLength="267.3442" x="96.7036" y="128.9404">fuelCapacity, maximumRange, cruisingSpeed)</text></g><path d="M436,147.2031 L436,191.2031 L632,191.2031 L632,157.2031 L622,147.2031 L436,147.2031" fill="#FEFFDD" style="stroke:#181818;stroke-width:0.5;"/><path d="M622,147.2031 L622,157.2031 L632,157.2031 L622,147.2031" fill="#FEFFDD" style="stroke:#181818;stroke-width:0.5;"/><text fill="#000000" font-family="sans-serif" font-size="13" lengthAdjust="spacing" textLength="175.5889" x="442" y="166.2314">The system validates the input</text><text fill="#000000" font-family="sans-serif" font-size="13" lengthAdjust="spacing" textLength="166.9243" x="442" y="183.5225">and registers the new model.</text><g class="message" data-participant-1="System" data-participant-2="BO"><polygon fill="#181818" points="80.8618,216.0762,70.8618,220.0762,80.8618,224.0762,76.8618,220.0762" style="stroke:#181818;stroke-width:1;"/><line style="stroke:#181818;stroke-width:1;stroke-dasharray:2,2;" x1="74.8618" x2="425.5352" y1="220.0762" y2="220.0762"/><text fill="#000000" font-family="sans-serif" font-size="13" font-weight="bold" lengthAdjust="spacing" textLength="7.23" x="86.8618" y="214.8135">2</text><text fill="#000000" font-family="sans-serif" font-size="13" lengthAdjust="spacing" textLength="306.376" x="98.0918" y="214.8135">informs operation success and returns created model</text></g><!--SRC=[NL3BJiGm3BptAwoUG6BvW1wGA6UejCjnBoPnkXORftAIXVrxt0SFSPlCUEoPO2r9QdmZRT2LfD3swDvJ2Em8XeaKZMm1C_H3Cw4MTZoX56YxmpKNYeksmcPUmHSiD0_t0-mUDWKwK1hPe3woEiLGdfEdyqr4gS5SLKbVCD8Tn9bVu54WL3e_uOIEozKa_EHOunvbj46dbJFBU9Y8_EtlwUyiakoXF9uAfB2n7RoU2FAQwO9dzkR8K8nacMev2eh_YReAGXzhgFkcsThih9ZLwymKaiOCQVaeJWAvEaSvmxh7Uacsf6Hd_BgbyVG_wX-c7xu0]--></g></svg>