<?plantuml 1.2026.2?><svg xmlns="http://www.w3.org/2000/svg" xmlns:xlink="http://www.w3.org/1999/xlink" contentStyleType="text/css" data-diagram-type="SEQUENCE" height="511px" preserveAspectRatio="none" style="width:625px;height:511px;background:#FFFFFF;" version="1.1" viewBox="0 0 625 511" width="625px" zoomAndPan="magnify"><defs/><g><g><title>ATCC . Backoffice Operator</title><rect fill="#FFFFFF" height="154.4551" style="stroke:#181818;stroke-width:1;" width="10" x="89.7515" y="93.6211"/></g><g><title>.System</title><rect fill="#FFFFFF" height="85.873" style="stroke:#181818;stroke-width:1;" width="10" x="325.064" y="162.2031"/></g><g><title>.System</title><rect fill="#FFFFFF" height="85.873" style="stroke:#181818;stroke-width:1;" width="10" x="325.064" y="324.6582"/></g><g class="participant-lifeline" data-entity-uid="part1" data-qualified-name="Actor" id="part1-lifeline"><g><title>ATCC . Backoffice Operator</title><rect fill="#000000" fill-opacity="0.00000" height="344.9102" width="8" x="90.7515" y="83.6211"/><line style="stroke:#181818;stroke-width:0.5;stroke-dasharray:5,5;" x1="94" x2="94" y1="83.6211" y2="428.5313"/></g></g><g class="participant-lifeline" data-entity-uid="part2" data-qualified-name="System" id="part2-lifeline"><g><title>.System</title><rect fill="#000000" fill-opacity="0.00000" height="344.9102" width="8" x="326.064" y="83.6211"/><line style="stroke:#181818;stroke-width:0.5;stroke-dasharray:5,5;" x1="329.7813" x2="329.7813" y1="83.6211" y2="428.5313"/></g></g><g class="participant participant-head" data-entity-uid="part1" data-qualified-name="Actor" id="part1-head"><text fill="#000000" font-family="sans-serif" font-size="14" lengthAdjust="spacing" textLength="173.5029" x="5" y="80.1074">ATCC / Backoffice Operator</text><ellipse cx="94.7515" cy="13.5" fill="#E2E2F0" rx="8" ry="8" style="stroke:#181818;stroke-width:0.5;"/><path d="M94.7515,21.5 L94.7515,48.5 M81.7515,29.5 L107.7515,29.5 M94.7515,48.5 L81.7515,63.5 M94.7515,48.5 L107.7515,63.5" fill="none" style="stroke:#181818;stroke-width:0.5;"/></g><g class="participant participant-tail" data-entity-uid="part1" data-qualified-name="Actor" id="part1-tail"><text fill="#000000" font-family="sans-serif" font-size="14" lengthAdjust="spacing" textLength="173.5029" x="5" y="442.6387">ATCC / Backoffice Operator</text><ellipse cx="94.7515" cy="454.6523" fill="#E2E2F0" rx="8" ry="8" style="stroke:#181818;stroke-width:0.5;"/><path d="M94.7515,462.6523 L94.7515,489.6523 M81.7515,470.6523 L107.7515,470.6523 M94.7515,489.6523 L81.7515,504.6523 M94.7515,489.6523 L107.7515,504.6523" fill="none" style="stroke:#181818;stroke-width:0.5;"/></g><g class="participant participant-head" data-entity-uid="part2" data-qualified-name="System" id="part2-head"><rect fill="#E2E2F0" height="32.6211" rx="2.5" ry="2.5" style="stroke:#181818;stroke-width:0.5;" width="64.5654" x="297.7813" y="50"/><text fill="#000000" font-family="sans-serif" font-size="14" lengthAdjust="spacing" textLength="50.5654" x="304.7813" y="72.1074">:System</text></g><g class="participant participant-tail" data-entity-uid="part2" data-qualified-name="System" id="part2-tail"><rect fill="#E2E2F0" height="32.6211" rx="2.5" ry="2.5" style="stroke:#181818;stroke-width:0.5;" width="64.5654" x="297.7813" y="427.5313"/><text fill="#000000" font-family="sans-serif" font-size="14" lengthAdjust="spacing" textLength="50.5654" x="304.7813" y="449.6387">:System</text></g><g><title>ATCC . Backoffice Operator</title><rect fill="#FFFFFF" height="154.4551" style="stroke:#181818;stroke-width:1;" width="10" x="89.7515" y="93.6211"/></g><g><title>.System</title><rect fill="#FFFFFF" height="85.873" style="stroke:#181818;stroke-width:1;" width="10" x="325.064" y="162.2031"/></g><g><title>.System</title><rect fill="#FFFFFF" height="85.873" style="stroke:#181818;stroke-width:1;" width="10" x="325.064" y="324.6582"/></g><rect fill="#EEEEEE" height="3" style="stroke:#EEEEEE;stroke-width:1;" width="618.916" x="0" y="115.2666"/><line style="stroke:#000000;stroke-width:1;" x1="0" x2="618.916" y1="115.2666" y2="115.2666"/><line style="stroke:#000000;stroke-width:1;" x1="0" x2="618.916" y1="118.2666" y2="118.2666"/><rect fill="#EEEEEE" height="25.291" style="stroke:#000000;stroke-width:2;" width="161.3608" x="228.7776" y="103.6211"/><text fill="#000000" font-family="sans-serif" font-size="13" font-weight="bold" lengthAdjust="spacing" textLength="143.749" x="234.7776" y="121.6494">Get Route Details by ID</text><g class="message" data-entity-1="part1" data-entity-2="part2" id="msg1"><polygon fill="#181818" points="313.064,158.2031,323.064,162.2031,313.064,166.2031,317.064,162.2031" style="stroke:#181818;stroke-width:1;"/><line style="stroke:#181818;stroke-width:1;" x1="99.7515" x2="319.064" y1="162.2031" y2="162.2031"/><text fill="#000000" font-family="sans-serif" font-size="13" font-weight="bold" lengthAdjust="spacing" textLength="7.23" x="106.7515" y="156.9404">1</text><text fill="#000000" font-family="sans-serif" font-size="13" lengthAdjust="spacing" textLength="127.9053" x="117.9814" y="156.9404">getRouteById(routeId)</text></g><path d="M340,175.2031 L340,219.2031 L536,219.2031 L536,185.2031 L526,175.2031 L340,175.2031" fill="#FEFFDD" style="stroke:#181818;stroke-width:0.5;"/><path d="M526,175.2031 L526,185.2031 L536,185.2031 L526,175.2031" fill="#FEFFDD" style="stroke:#181818;stroke-width:0.5;"/><text fill="#000000" font-family="sans-serif" font-size="13" lengthAdjust="spacing" textLength="175.5698" x="346" y="194.2314">The system retrieves the route</text><text fill="#000000" font-family="sans-serif" font-size="13" lengthAdjust="spacing" textLength="172.6943" x="346" y="211.5225">and its current version details.</text><g class="message" data-entity-1="part2" data-entity-2="part1" id="msg2"><polygon fill="#181818" points="105.7515,244.0762,95.7515,248.0762,105.7515,252.0762,101.7515,248.0762" style="stroke:#181818;stroke-width:1;"/><line style="stroke:#181818;stroke-width:1;stroke-dasharray:2,2;" x1="99.7515" x2="329.064" y1="248.0762" y2="248.0762"/><text fill="#000000" font-family="sans-serif" font-size="13" font-weight="bold" lengthAdjust="spacing" textLength="7.23" x="111.7515" y="242.8135">2</text><text fill="#000000" font-family="sans-serif" font-size="13" lengthAdjust="spacing" textLength="114.8926" x="122.9814" y="242.8135">returns route details</text></g><rect fill="#EEEEEE" height="3" style="stroke:#EEEEEE;stroke-width:1;" width="618.916" x="0" y="277.7217"/><line style="stroke:#000000;stroke-width:1;" x1="0" x2="618.916" y1="277.7217" y2="277.7217"/><line style="stroke:#000000;stroke-width:1;" x1="0" x2="618.916" y1="280.7217" y2="280.7217"/><rect fill="#EEEEEE" height="25.291" style="stroke:#000000;stroke-width:2;" width="183.7173" x="217.5994" y="266.0762"/><text fill="#000000" font-family="sans-serif" font-size="13" font-weight="bold" lengthAdjust="spacing" textLength="166.1055" x="223.5994" y="284.1045">List Routes from/to Airport</text><g class="message" data-entity-1="part1" data-entity-2="part2" id="msg3"><polygon fill="#181818" points="313.064,320.6582,323.064,324.6582,313.064,328.6582,317.064,324.6582" style="stroke:#181818;stroke-width:1;"/><line style="stroke:#181818;stroke-width:1;" x1="94.7515" x2="319.064" y1="324.6582" y2="324.6582"/><text fill="#000000" font-family="sans-serif" font-size="13" font-weight="bold" lengthAdjust="spacing" textLength="7.23" x="101.7515" y="319.3955">3</text><text fill="#000000" font-family="sans-serif" font-size="13" lengthAdjust="spacing" textLength="171.2344" x="112.9814" y="319.3955">listRoutesByAirport(iataCode)</text></g><path d="M340,337.6582 L340,381.6582 L613,381.6582 L613,347.6582 L603,337.6582 L340,337.6582" fill="#FEFFDD" style="stroke:#181818;stroke-width:0.5;"/><path d="M603,337.6582 L603,347.6582 L613,347.6582 L603,337.6582" fill="#FEFFDD" style="stroke:#181818;stroke-width:0.5;"/><text fill="#000000" font-family="sans-serif" font-size="13" lengthAdjust="spacing" textLength="177.0044" x="346" y="356.6865">The system retrieves all routes</text><text fill="#000000" font-family="sans-serif" font-size="13" lengthAdjust="spacing" textLength="252.916" x="346" y="373.9775">where the airport is the origin or destination.</text><g class="message" data-entity-1="part2" data-entity-2="part1" id="msg4"><polygon fill="#181818" points="105.7515,406.5313,95.7515,410.5313,105.7515,414.5313,101.7515,410.5313" style="stroke:#181818;stroke-width:1;"/><line style="stroke:#181818;stroke-width:1;stroke-dasharray:2,2;" x1="99.7515" x2="329.064" y1="410.5313" y2="410.5313"/><text fill="#000000" font-family="sans-serif" font-size="13" font-weight="bold" lengthAdjust="spacing" textLength="7.23" x="111.7515" y="405.2686">4</text><text fill="#000000" font-family="sans-serif" font-size="13" lengthAdjust="spacing" textLength="195.0825" x="122.9814" y="405.2686">returns list of routes for the airport</text></g><?plantuml-src fL31QiCm3BtdAqHFtQ7hFP11ci8e30PRZxseYTA8fNQGbOpy_UpOOsM3CTZ55dhIqtiFHxLcl9v9CgpL2gpAOrN15dPOlzcsvPhWUI11Zwq07PHXAXjGb6iUq2YiyjVPALqNE9PPLXJmI0elTbI2FIbox-0yms4FHH5EyOGUYMpB2vk7j0qvN4YNrTryQDOIgaDpzxMMhXZhQ-5Bfs3RrCpXs16uI2IamZIH0_NDXUTaq3J0wg0UHSZhdqWSMmDDL7cV9HKRBoWgomFHACP5Yi_9hA7lYcuwqLe8uebTIi91A_QwLGibos15GnW_tVT-8SxlvZIuPbIiR4F_IW7xFbfm9_FUaT2I2oOj76EodekD_xnFfsnGVJg_fXBqXjkIF7hmXlSFCNq0?></g></svg>