<svg xmlns="http://www.w3.org/2000/svg" xmlns:xlink="http://www.w3.org/1999/xlink" contentStyleType="text/css" data-diagram-type="SEQUENCE" height="553px" preserveAspectRatio="none" style="width:855px;height:553px;background:#FFFFFF;" version="1.1" viewBox="0 0 855 553" width="855px" zoomAndPan="magnify"><defs/><g><g><title>AircraftController</title><rect fill="#FFFFFF" height="335.2012" style="stroke:#181818;stroke-width:1;" width="10" x="247.4048" y="116.9121"/></g><g><title>GetFleetStatusUseCase</title><rect fill="#FFFFFF" height="272.6191" style="stroke:#181818;stroke-width:1;" width="10" x="412.5991" y="148.2031"/></g><g><title>AircraftRepository</title><rect fill="#FFFFFF" height="93.873" style="stroke:#181818;stroke-width:1;" width="10" x="621.8652" y="179.4941"/></g><g><title>Database</title><rect fill="#FFFFFF" height="31.291" style="stroke:#181818;stroke-width:1;" width="10" x="815.9287" y="210.7852"/></g><g><title>ATCC.Admin</title><rect fill="#000000" fill-opacity="0.00000" height="386.4922" width="8" x="44.8413" y="83.6211"/><line style="stroke:#181818;stroke-width:0.5;stroke-dasharray:5,5;" x1="48" x2="48" y1="83.6211" y2="470.1133"/></g><g><title>AircraftController</title><rect fill="#000000" fill-opacity="0.00000" height="386.4922" width="8" x="248.4048" y="83.6211"/><line style="stroke:#181818;stroke-width:0.5;stroke-dasharray:5,5;" x1="251.8911" x2="251.8911" y1="83.6211" y2="470.1133"/></g><g><title>GetFleetStatusUseCase</title><rect fill="#000000" fill-opacity="0.00000" height="386.4922" width="8" x="413.5991" y="83.6211"/><line style="stroke:#181818;stroke-width:0.5;stroke-dasharray:5,5;" x1="417.1201" x2="417.1201" y1="83.6211" y2="470.1133"/></g><g><title>AircraftRepository</title><rect fill="#000000" fill-opacity="0.00000" height="386.4922" width="8" x="622.8652" y="83.6211"/><line style="stroke:#181818;stroke-width:0.5;stroke-dasharray:5,5;" x1="626.2378" x2="626.2378" y1="83.6211" y2="470.1133"/></g><g><title>Database</title><rect fill="#000000" fill-opacity="0.00000" height="386.4922" width="8" x="816.9287" y="83.6211"/><line style="stroke:#181818;stroke-width:0.5;stroke-dasharray:5,5;" x1="819.9634" x2="819.9634" y1="83.6211" y2="470.1133"/></g><g class="participant participant-head" data-participant="ATCC"><text fill="#000000" font-family="sans-serif" font-size="14" lengthAdjust="spacing" textLength="81.6826" x="5" y="80.1074">ATCC/Admin</text><ellipse cx="48.8413" cy="13.5" fill="#E2E2F0" rx="8" ry="8" style="stroke:#181818;stroke-width:0.5;"/><path d="M48.8413,21.5 L48.8413,48.5 M35.8413,29.5 L61.8413,29.5 M48.8413,48.5 L35.8413,63.5 M48.8413,48.5 L61.8413,63.5" fill="none" style="stroke:#181818;stroke-width:0.5;"/></g><g class="participant participant-tail" data-participant="ATCC"><text fill="#000000" font-family="sans-serif" font-size="14" lengthAdjust="spacing" textLength="81.6826" x="5" y="484.2207">ATCC/Admin</text><ellipse cx="48.8413" cy="496.2344" fill="#E2E2F0" rx="8" ry="8" style="stroke:#181818;stroke-width:0.5;"/><path d="M48.8413,504.2344 L48.8413,531.2344 M35.8413,512.2344 L61.8413,512.2344 M48.8413,531.2344 L35.8413,546.2344 M48.8413,531.2344 L61.8413,546.2344" fill="none" style="stroke:#181818;stroke-width:0.5;"/></g><g class="participant participant-head" data-participant="Ctrl"><rect fill="#E2E2F0" height="32.6211" rx="2.5" ry="2.5" style="stroke:#181818;stroke-width:0.5;" width="119.0273" x="192.8911" y="50"/><text fill="#000000" font-family="sans-serif" font-size="14" lengthAdjust="spacing" textLength="105.0273" x="199.8911" y="72.1074">AircraftController</text></g><g class="participant participant-tail" data-participant="Ctrl"><rect fill="#E2E2F0" height="32.6211" rx="2.5" ry="2.5" style="stroke:#181818;stroke-width:0.5;" width="119.0273" x="192.8911" y="469.1133"/><text fill="#000000" font-family="sans-serif" font-size="14" lengthAdjust="spacing" textLength="105.0273" x="199.8911" y="491.2207">AircraftController</text></g><g class="participant participant-head" data-participant="UC"><rect fill="#E2E2F0" height="32.6211" rx="2.5" ry="2.5" style="stroke:#181818;stroke-width:0.5;" width="164.958" x="335.1201" y="50"/><text fill="#000000" font-family="sans-serif" font-size="14" lengthAdjust="spacing" textLength="150.958" x="342.1201" y="72.1074">GetFleetStatusUseCase</text></g><g class="participant participant-tail" data-participant="UC"><rect fill="#E2E2F0" height="32.6211" rx="2.5" ry="2.5" style="stroke:#181818;stroke-width:0.5;" width="164.958" x="335.1201" y="469.1133"/><text fill="#000000" font-family="sans-serif" font-size="14" lengthAdjust="spacing" textLength="150.958" x="342.1201" y="491.2207">GetFleetStatusUseCase</text></g><g class="participant participant-head" data-participant="Repo"><rect fill="#E2E2F0" height="32.6211" rx="2.5" ry="2.5" style="stroke:#181818;stroke-width:0.5;" width="125.2549" x="564.2378" y="50"/><text fill="#000000" font-family="sans-serif" font-size="14" lengthAdjust="spacing" textLength="111.2549" x="571.2378" y="72.1074">AircraftRepository</text></g><g class="participant participant-tail" data-participant="Repo"><rect fill="#E2E2F0" height="32.6211" rx="2.5" ry="2.5" style="stroke:#181818;stroke-width:0.5;" width="125.2549" x="564.2378" y="469.1133"/><text fill="#000000" font-family="sans-serif" font-size="14" lengthAdjust="spacing" textLength="111.2549" x="571.2378" y="491.2207">AircraftRepository</text></g><g class="participant participant-head" data-participant="DB"><text fill="#000000" font-family="sans-serif" font-size="14" lengthAdjust="spacing" textLength="59.9307" x="787.9634" y="80.1074">Database</text><path d="M802.9287,29 C802.9287,19 820.9287,19 820.9287,19 C820.9287,19 838.9287,19 838.9287,29 L838.9287,55 C838.9287,65 820.9287,65 820.9287,65 C820.9287,65 802.9287,65 802.9287,55 L802.9287,29" fill="#E2E2F0" style="stroke:#181818;stroke-width:0.5;"/><path d="M802.9287,29 C802.9287,39 820.9287,39 820.9287,39 C820.9287,39 838.9287,39 838.9287,29" fill="none" style="stroke:#181818;stroke-width:0.5;"/></g><g class="participant participant-tail" data-participant="DB"><text fill="#000000" font-family="sans-serif" font-size="14" lengthAdjust="spacing" textLength="59.9307" x="787.9634" y="484.2207">Database</text><path d="M802.9287,497.7344 C802.9287,487.7344 820.9287,487.7344 820.9287,487.7344 C820.9287,487.7344 838.9287,487.7344 838.9287,497.7344 L838.9287,523.7344 C838.9287,533.7344 820.9287,533.7344 820.9287,533.7344 C820.9287,533.7344 802.9287,533.7344 802.9287,523.7344 L802.9287,497.7344" fill="#E2E2F0" style="stroke:#181818;stroke-width:0.5;"/><path d="M802.9287,497.7344 C802.9287,507.7344 820.9287,507.7344 820.9287,507.7344 C820.9287,507.7344 838.9287,507.7344 838.9287,497.7344" fill="none" style="stroke:#181818;stroke-width:0.5;"/></g><g><title>AircraftController</title><rect fill="#FFFFFF" height="335.2012" style="stroke:#181818;stroke-width:1;" width="10" x="247.4048" y="116.9121"/></g><g><title>GetFleetStatusUseCase</title><rect fill="#FFFFFF" height="272.6191" style="stroke:#181818;stroke-width:1;" width="10" x="412.5991" y="148.2031"/></g><g><title>AircraftRepository</title><rect fill="#FFFFFF" height="93.873" style="stroke:#181818;stroke-width:1;" width="10" x="621.8652" y="179.4941"/></g><g><title>Database</title><rect fill="#FFFFFF" height="31.291" style="stroke:#181818;stroke-width:1;" width="10" x="815.9287" y="210.7852"/></g><g class="message" data-participant-1="ATCC" data-participant-2="Ctrl"><polygon fill="#181818" points="235.4048,112.9121,245.4048,116.9121,235.4048,120.9121,239.4048,116.9121" style="stroke:#181818;stroke-width:1;"/><line style="stroke:#181818;stroke-width:1;" x1="48.8413" x2="241.4048" y1="116.9121" y2="116.9121"/><text fill="#000000" font-family="sans-serif" font-size="13" font-weight="bold" lengthAdjust="spacing" textLength="7.23" x="55.8413" y="111.6494">1</text><text fill="#000000" font-family="sans-serif" font-size="13" lengthAdjust="spacing" textLength="168.3335" x="67.0713" y="111.6494">GET /api/aircrafts/fleet-status</text></g><g class="message" data-participant-1="Ctrl" data-participant-2="UC"><polygon fill="#181818" points="400.5991,144.2031,410.5991,148.2031,400.5991,152.2031,404.5991,148.2031" style="stroke:#181818;stroke-width:1;"/><line style="stroke:#181818;stroke-width:1;" x1="257.4048" x2="406.5991" y1="148.2031" y2="148.2031"/><text fill="#000000" font-family="sans-serif" font-size="13" font-weight="bold" lengthAdjust="spacing" textLength="7.23" x="264.4048" y="142.9404">2</text><text fill="#000000" font-family="sans-serif" font-size="13" lengthAdjust="spacing" textLength="54.1899" x="275.6348" y="142.9404">execute()</text></g><g class="message" data-participant-1="UC" data-participant-2="Repo"><polygon fill="#181818" points="609.8652,175.4941,619.8652,179.4941,609.8652,183.4941,613.8652,179.4941" style="stroke:#181818;stroke-width:1;"/><line style="stroke:#181818;stroke-width:1;" x1="422.5991" x2="615.8652" y1="179.4941" y2="179.4941"/><text fill="#000000" font-family="sans-serif" font-size="13" font-weight="bold" lengthAdjust="spacing" textLength="7.23" x="429.5991" y="174.2314">3</text><text fill="#000000" font-family="sans-serif" font-size="13" lengthAdjust="spacing" textLength="44.0654" x="440.8291" y="174.2314">findAll()</text></g><g class="message" data-participant-1="Repo" data-participant-2="DB"><polygon fill="#181818" points="803.9287,206.7852,813.9287,210.7852,803.9287,214.7852,807.9287,210.7852" style="stroke:#181818;stroke-width:1;"/><line style="stroke:#181818;stroke-width:1;" x1="631.8652" x2="809.9287" y1="210.7852" y2="210.7852"/><text fill="#000000" font-family="sans-serif" font-size="13" font-weight="bold" lengthAdjust="spacing" textLength="7.23" x="638.8652" y="205.5225">4</text><text fill="#000000" font-family="sans-serif" font-size="13" lengthAdjust="spacing" textLength="150.9663" x="650.0952" y="205.5225">SELECT * FROM aircrafts</text></g><g class="message" data-participant-1="DB" data-participant-2="Repo"><polygon fill="#181818" points="642.8652,238.0762,632.8652,242.0762,642.8652,246.0762,638.8652,242.0762" style="stroke:#181818;stroke-width:1;"/><line style="stroke:#181818;stroke-width:1;stroke-dasharray:2,2;" x1="636.8652" x2="819.9287" y1="242.0762" y2="242.0762"/><text fill="#000000" font-family="sans-serif" font-size="13" font-weight="bold" lengthAdjust="spacing" textLength="7.23" x="648.8652" y="236.8135">5</text><text fill="#000000" font-family="sans-serif" font-size="13" lengthAdjust="spacing" textLength="148.8335" x="660.0952" y="236.8135">list of all aircraft instances</text></g><g class="message" data-participant-1="Repo" data-participant-2="UC"><polygon fill="#181818" points="433.5991,269.3672,423.5991,273.3672,433.5991,277.3672,429.5991,273.3672" style="stroke:#181818;stroke-width:1;"/><line style="stroke:#181818;stroke-width:1;stroke-dasharray:2,2;" x1="427.5991" x2="625.8652" y1="273.3672" y2="273.3672"/><text fill="#000000" font-family="sans-serif" font-size="13" font-weight="bold" lengthAdjust="spacing" textLength="7.23" x="439.5991" y="268.1045">6</text><text fill="#000000" font-family="sans-serif" font-size="13" lengthAdjust="spacing" textLength="44.8018" x="450.8291" y="268.1045">fleetList</text></g><path d="M427,286.3672 L427,347.3672 L638,347.3672 L638,296.3672 L628,286.3672 L427,286.3672" fill="#FEFFDD" style="stroke:#181818;stroke-width:0.5;"/><path d="M628,286.3672 L628,296.3672 L638,296.3672 L628,286.3672" fill="#FEFFDD" style="stroke:#181818;stroke-width:0.5;"/><text fill="#000000" font-family="sans-serif" font-size="13" lengthAdjust="spacing" textLength="134.3862" x="433" y="305.3955">Computes total aircraft.</text><text fill="#000000" font-family="sans-serif" font-size="13" lengthAdjust="spacing" textLength="146.6816" x="433" y="322.6865">Groups entities by status.</text><text fill="#000000" font-family="sans-serif" font-size="13" lengthAdjust="spacing" textLength="190.7407" x="433" y="339.9775">Fills empty statuses with 0 count.</text><g class="message" data-participant-1="UC" data-participant-2="UC"><line style="stroke:#181818;stroke-width:1;" x1="422.5991" x2="464.5991" y1="376.5313" y2="376.5313"/><line style="stroke:#181818;stroke-width:1;" x1="464.5991" x2="464.5991" y1="376.5313" y2="389.5313"/><line style="stroke:#181818;stroke-width:1;" x1="423.5991" x2="464.5991" y1="389.5313" y2="389.5313"/><polygon fill="#181818" points="433.5991,385.5313,423.5991,389.5313,433.5991,393.5313,429.5991,389.5313" style="stroke:#181818;stroke-width:1;"/><text fill="#000000" font-family="sans-serif" font-size="13" font-weight="bold" lengthAdjust="spacing" textLength="7.23" x="429.5991" y="371.2686">7</text><text fill="#000000" font-family="sans-serif" font-size="13" lengthAdjust="spacing" textLength="164.0361" x="440.8291" y="371.2686">create FleetStatusResponse</text></g><g class="message" data-participant-1="UC" data-participant-2="Ctrl"><polygon fill="#181818" points="268.4048,416.8223,258.4048,420.8223,268.4048,424.8223,264.4048,420.8223" style="stroke:#181818;stroke-width:1;"/><line style="stroke:#181818;stroke-width:1;stroke-dasharray:2,2;" x1="262.4048" x2="416.5991" y1="420.8223" y2="420.8223"/><text fill="#000000" font-family="sans-serif" font-size="13" font-weight="bold" lengthAdjust="spacing" textLength="7.23" x="274.4048" y="415.5596">8</text><text fill="#000000" font-family="sans-serif" font-size="13" lengthAdjust="spacing" textLength="119.9644" x="285.6348" y="415.5596">fleetStatusResponse</text></g><g class="message" data-participant-1="Ctrl" data-participant-2="ATCC"><polygon fill="#181818" points="59.8413,448.1133,49.8413,452.1133,59.8413,456.1133,55.8413,452.1133" style="stroke:#181818;stroke-width:1;"/><line style="stroke:#181818;stroke-width:1;stroke-dasharray:2,2;" x1="53.8413" x2="251.4048" y1="452.1133" y2="452.1133"/><text fill="#000000" font-family="sans-serif" font-size="13" font-weight="bold" lengthAdjust="spacing" textLength="7.23" x="65.8413" y="446.8506">9</text><text fill="#000000" font-family="sans-serif" font-size="13" lengthAdjust="spacing" textLength="153.1753" x="77.0713" y="446.8506">200 OK (JSON Response)</text></g><!--SRC=[TP5DRy8m38Rl-HKM9vZ4XtRaC0d2XxIn8G6zxHAAEoA5f4hSRVpxEIcbdRJTclfvxSU9giZPwd94BrHEpaDlTf1oF3jTjEs12X2FebIUTAvBPOa1xNEl2fBEadV6e4-W96z-WskabK6aFIcgGXPGge29pVvfkSFI1SqQruJ5epWfKaSEGczn-qgrnLo8w0R3fpGQfh1U7c2iIZrMjtPXNCJvmv04ueBwKn7MgYAbE9r9pk8tvXLXVz1IB2cor3zwC5DeUvePqsMIeKXrvXPpflRBpL8Uu05Mk-qht5NQ39ipE6px6Xq8N07Ac3iFshArpJ684tQZjs6DTrfmmmswM6rb7Nzw_N5EpJCv1Uak9IyPW1ofTjRetQwzgye0Q4cJPk1uXVhIkBRInd3fKbBpau4lJMUOGEugIwFcdf9HxZ4wT5v-Xw5qDc2DjUzL_85qjeZtNxyHHz9JJ-5nCe7j2_IVzzitQ4A3RYecVW00]--></g></svg>