<svg xmlns="http://www.w3.org/2000/svg" xmlns:xlink="http://www.w3.org/1999/xlink" contentStyleType="text/css" data-diagram-type="SEQUENCE" height="503px" preserveAspectRatio="none" style="width:837px;height:503px;background:#FFFFFF;" version="1.1" viewBox="0 0 837 503" width="837px" zoomAndPan="magnify"><defs/><g><g><title>AircraftController</title><rect fill="#FFFFFF" height="285.9492" style="stroke:#181818;stroke-width:1;" width="10" x="255.1875" y="116.9121"/></g><g><title>GetFleetStatusUseCase</title><rect fill="#FFFFFF" height="223.3672" style="stroke:#181818;stroke-width:1;" width="10" x="420.3818" y="148.2031"/></g><g><title>AircraftRepository</title><rect fill="#FFFFFF" height="31.291" style="stroke:#181818;stroke-width:1;" width="10" x="606.4854" y="179.4941"/></g><g><title>FleetStatusResponse</title><rect fill="#FFFFFF" height="33.6211" style="stroke:#181818;stroke-width:1;" width="10" x="753.04" y="306.6582"/></g><g><title>ATCC Operator</title><rect fill="#000000" fill-opacity="0.00000" height="337.2402" width="8" x="52.624" y="83.6211"/><line style="stroke:#181818;stroke-width:0.5;stroke-dasharray:5,5;" x1="56" x2="56" y1="83.6211" y2="420.8613"/></g><g><title>AircraftController</title><rect fill="#000000" fill-opacity="0.00000" height="337.2402" width="8" x="256.1875" y="83.6211"/><line style="stroke:#181818;stroke-width:0.5;stroke-dasharray:5,5;" x1="259.6738" x2="259.6738" y1="83.6211" y2="420.8613"/></g><g><title>GetFleetStatusUseCase</title><rect fill="#000000" fill-opacity="0.00000" height="337.2402" width="8" x="421.3818" y="83.6211"/><line style="stroke:#181818;stroke-width:0.5;stroke-dasharray:5,5;" x1="424.9028" x2="424.9028" y1="83.6211" y2="420.8613"/></g><g><title>AircraftRepository</title><rect fill="#000000" fill-opacity="0.00000" height="337.2402" width="8" x="607.4854" y="83.6211"/><line style="stroke:#181818;stroke-width:0.5;stroke-dasharray:5,5;" x1="610.8579" x2="610.8579" y1="83.6211" y2="420.8613"/></g><g><title>FleetStatusResponse</title><rect fill="#000000" fill-opacity="0.00000" height="115.6836" width="8" x="754.04" y="305.1777"/><line style="stroke:#181818;stroke-width:0.5;stroke-dasharray:5,5;" x1="757.1128" x2="757.1128" y1="305.1777" y2="420.8613"/></g><g class="participant participant-head" data-participant="ATCC"><text fill="#000000" font-family="sans-serif" font-size="14" lengthAdjust="spacing" textLength="97.248" x="5" y="80.1074">ATCC Operator</text><ellipse cx="56.624" cy="13.5" fill="#E2E2F0" rx="8" ry="8" style="stroke:#181818;stroke-width:0.5;"/><path d="M56.624,21.5 L56.624,48.5 M43.624,29.5 L69.624,29.5 M56.624,48.5 L43.624,63.5 M56.624,48.5 L69.624,63.5" fill="none" style="stroke:#181818;stroke-width:0.5;"/></g><g class="participant participant-tail" data-participant="ATCC"><text fill="#000000" font-family="sans-serif" font-size="14" lengthAdjust="spacing" textLength="97.248" x="5" y="434.9688">ATCC Operator</text><ellipse cx="56.624" cy="446.9824" fill="#E2E2F0" rx="8" ry="8" style="stroke:#181818;stroke-width:0.5;"/><path d="M56.624,454.9824 L56.624,481.9824 M43.624,462.9824 L69.624,462.9824 M56.624,481.9824 L43.624,496.9824 M56.624,481.9824 L69.624,496.9824" fill="none" style="stroke:#181818;stroke-width:0.5;"/></g><g class="participant participant-head" data-participant="Controller"><rect fill="#E2E2F0" height="32.6211" rx="2.5" ry="2.5" style="stroke:#181818;stroke-width:0.5;" width="119.0273" x="200.6738" y="50"/><text fill="#000000" font-family="sans-serif" font-size="14" lengthAdjust="spacing" textLength="105.0273" x="207.6738" y="72.1074">AircraftController</text></g><g class="participant participant-tail" data-participant="Controller"><rect fill="#E2E2F0" height="32.6211" rx="2.5" ry="2.5" style="stroke:#181818;stroke-width:0.5;" width="119.0273" x="200.6738" y="419.8613"/><text fill="#000000" font-family="sans-serif" font-size="14" lengthAdjust="spacing" textLength="105.0273" x="207.6738" y="441.9688">AircraftController</text></g><g class="participant participant-head" data-participant="UseCase"><rect fill="#E2E2F0" height="32.6211" rx="2.5" ry="2.5" style="stroke:#181818;stroke-width:0.5;" width="164.958" x="342.9028" y="50"/><text fill="#000000" font-family="sans-serif" font-size="14" lengthAdjust="spacing" textLength="150.958" x="349.9028" y="72.1074">GetFleetStatusUseCase</text></g><g class="participant participant-tail" data-participant="UseCase"><rect fill="#E2E2F0" height="32.6211" rx="2.5" ry="2.5" style="stroke:#181818;stroke-width:0.5;" width="164.958" x="342.9028" y="419.8613"/><text fill="#000000" font-family="sans-serif" font-size="14" lengthAdjust="spacing" textLength="150.958" x="349.9028" y="441.9688">GetFleetStatusUseCase</text></g><g class="participant participant-head" data-participant="Repo"><rect fill="#E2E2F0" height="32.6211" rx="2.5" ry="2.5" style="stroke:#181818;stroke-width:0.5;" width="125.2549" x="548.8579" y="50"/><text fill="#000000" font-family="sans-serif" font-size="14" lengthAdjust="spacing" textLength="111.2549" x="555.8579" y="72.1074">AircraftRepository</text></g><g class="participant participant-tail" data-participant="Repo"><rect fill="#E2E2F0" height="32.6211" rx="2.5" ry="2.5" style="stroke:#181818;stroke-width:0.5;" width="125.2549" x="548.8579" y="419.8613"/><text fill="#000000" font-family="sans-serif" font-size="14" lengthAdjust="spacing" textLength="111.2549" x="555.8579" y="441.9688">AircraftRepository</text></g><g class="participant participant-tail" data-participant="ResponseDTO"><rect fill="#E2E2F0" height="32.6211" rx="2.5" ry="2.5" style="stroke:#181818;stroke-width:0.5;" width="147.8545" x="684.1128" y="419.8613"/><text fill="#000000" font-family="sans-serif" font-size="14" lengthAdjust="spacing" textLength="133.8545" x="691.1128" y="441.9688">FleetStatusResponse</text></g><g><title>AircraftController</title><rect fill="#FFFFFF" height="285.9492" style="stroke:#181818;stroke-width:1;" width="10" x="255.1875" y="116.9121"/></g><g><title>GetFleetStatusUseCase</title><rect fill="#FFFFFF" height="223.3672" style="stroke:#181818;stroke-width:1;" width="10" x="420.3818" y="148.2031"/></g><g><title>AircraftRepository</title><rect fill="#FFFFFF" height="31.291" style="stroke:#181818;stroke-width:1;" width="10" x="606.4854" y="179.4941"/></g><g><title>FleetStatusResponse</title><rect fill="#FFFFFF" height="33.6211" style="stroke:#181818;stroke-width:1;" width="10" x="753.04" y="306.6582"/></g><g class="message" data-participant-1="ATCC" data-participant-2="Controller"><polygon fill="#181818" points="243.1875,112.9121,253.1875,116.9121,243.1875,120.9121,247.1875,116.9121" style="stroke:#181818;stroke-width:1;"/><line style="stroke:#181818;stroke-width:1;" x1="56.624" x2="249.1875" y1="116.9121" y2="116.9121"/><text fill="#000000" font-family="sans-serif" font-size="13" font-weight="bold" lengthAdjust="spacing" textLength="7.23" x="63.624" y="111.6494">1</text><text fill="#000000" font-family="sans-serif" font-size="13" lengthAdjust="spacing" textLength="168.3335" x="74.854" y="111.6494">GET /api/aircrafts/fleet-status</text></g><g class="message" data-participant-1="Controller" data-participant-2="UseCase"><polygon fill="#181818" points="408.3818,144.2031,418.3818,148.2031,408.3818,152.2031,412.3818,148.2031" style="stroke:#181818;stroke-width:1;"/><line style="stroke:#181818;stroke-width:1;" x1="265.1875" x2="414.3818" y1="148.2031" y2="148.2031"/><text fill="#000000" font-family="sans-serif" font-size="13" font-weight="bold" lengthAdjust="spacing" textLength="7.23" x="272.1875" y="142.9404">2</text><text fill="#000000" font-family="sans-serif" font-size="13" lengthAdjust="spacing" textLength="54.1899" x="283.4175" y="142.9404">execute()</text></g><g class="message" data-participant-1="UseCase" data-participant-2="Repo"><polygon fill="#181818" points="594.4854,175.4941,604.4854,179.4941,594.4854,183.4941,598.4854,179.4941" style="stroke:#181818;stroke-width:1;"/><line style="stroke:#181818;stroke-width:1;" x1="430.3818" x2="600.4854" y1="179.4941" y2="179.4941"/><text fill="#000000" font-family="sans-serif" font-size="13" font-weight="bold" lengthAdjust="spacing" textLength="7.23" x="437.3818" y="174.2314">3</text><text fill="#000000" font-family="sans-serif" font-size="13" lengthAdjust="spacing" textLength="44.0654" x="448.6118" y="174.2314">findAll()</text></g><g class="message" data-participant-1="Repo" data-participant-2="UseCase"><polygon fill="#181818" points="441.3818,206.7852,431.3818,210.7852,441.3818,214.7852,437.3818,210.7852" style="stroke:#181818;stroke-width:1;"/><line style="stroke:#181818;stroke-width:1;stroke-dasharray:2,2;" x1="435.3818" x2="610.4854" y1="210.7852" y2="210.7852"/><text fill="#000000" font-family="sans-serif" font-size="13" font-weight="bold" lengthAdjust="spacing" textLength="7.23" x="447.3818" y="205.5225">4</text><text fill="#000000" font-family="sans-serif" font-size="13" lengthAdjust="spacing" textLength="140.8735" x="458.6118" y="205.5225">List&lt;Aircraft&gt; allAircrafts</text></g><path d="M435,223.7852 L435,267.7852 L632,267.7852 L632,233.7852 L622,223.7852 L435,223.7852" fill="#FEFFDD" style="stroke:#181818;stroke-width:0.5;"/><path d="M622,223.7852 L622,233.7852 L632,233.7852 L622,223.7852" fill="#FEFFDD" style="stroke:#181818;stroke-width:0.5;"/><text fill="#000000" font-family="sans-serif" font-size="13" lengthAdjust="spacing" textLength="176.3062" x="441" y="242.8135">1. Streams groupingBy count()</text><text fill="#000000" font-family="sans-serif" font-size="13" lengthAdjust="spacing" textLength="147.3989" x="441" y="260.1045">2. Streams map to details</text><g class="message" data-participant-1="UseCase" data-participant-2="ResponseDTO"><polygon fill="#181818" points="672.1128,292.6582,682.1128,296.6582,672.1128,300.6582,676.1128,296.6582" style="stroke:#181818;stroke-width:1;"/><line style="stroke:#181818;stroke-width:1;" x1="430.3818" x2="678.1128" y1="296.6582" y2="296.6582"/><text fill="#000000" font-family="sans-serif" font-size="13" font-weight="bold" lengthAdjust="spacing" textLength="7.23" x="437.3818" y="291.3955">5</text><text fill="#000000" font-family="sans-serif" font-size="13" lengthAdjust="spacing" textLength="127.8926" x="448.6118" y="291.3955">create(counts, details)</text></g><rect fill="#E2E2F0" height="32.6211" rx="2.5" ry="2.5" style="stroke:#181818;stroke-width:0.5;" width="147.8545" x="684.1128" y="273.3672"/><text fill="#000000" font-family="sans-serif" font-size="14" lengthAdjust="spacing" textLength="133.8545" x="691.1128" y="295.4746">FleetStatusResponse</text><g class="message" data-participant-1="ResponseDTO" data-participant-2="UseCase"><polygon fill="#181818" points="441.3818,336.2793,431.3818,340.2793,441.3818,344.2793,437.3818,340.2793" style="stroke:#181818;stroke-width:1;"/><line style="stroke:#181818;stroke-width:1;stroke-dasharray:2,2;" x1="435.3818" x2="757.04" y1="340.2793" y2="340.2793"/><text fill="#000000" font-family="sans-serif" font-size="13" font-weight="bold" lengthAdjust="spacing" textLength="7.23" x="447.3818" y="335.0166">6</text><text fill="#000000" font-family="sans-serif" font-size="13" lengthAdjust="spacing" textLength="119.9644" x="458.6118" y="335.0166">fleetStatusResponse</text></g><g class="message" data-participant-1="UseCase" data-participant-2="Controller"><polygon fill="#181818" points="276.1875,367.5703,266.1875,371.5703,276.1875,375.5703,272.1875,371.5703" style="stroke:#181818;stroke-width:1;"/><line style="stroke:#181818;stroke-width:1;stroke-dasharray:2,2;" x1="270.1875" x2="424.3818" y1="371.5703" y2="371.5703"/><text fill="#000000" font-family="sans-serif" font-size="13" font-weight="bold" lengthAdjust="spacing" textLength="7.23" x="282.1875" y="366.3076">7</text><text fill="#000000" font-family="sans-serif" font-size="13" lengthAdjust="spacing" textLength="119.9644" x="293.4175" y="366.3076">fleetStatusResponse</text></g><g class="message" data-participant-1="Controller" data-participant-2="ATCC"><polygon fill="#181818" points="67.624,398.8613,57.624,402.8613,67.624,406.8613,63.624,402.8613" style="stroke:#181818;stroke-width:1;"/><line style="stroke:#181818;stroke-width:1;stroke-dasharray:2,2;" x1="61.624" x2="259.1875" y1="402.8613" y2="402.8613"/><text fill="#000000" font-family="sans-serif" font-size="13" font-weight="bold" lengthAdjust="spacing" textLength="7.23" x="73.624" y="397.5986">8</text><text fill="#000000" font-family="sans-serif" font-size="13" lengthAdjust="spacing" textLength="141.6162" x="84.854" y="397.5986">200 OK (JSON Payload)</text></g><!--SRC=[XLB1Ji904BtlLqmu0H51ZeqXGLGIDM80Rrx6CgqRbjtDxjJ8tzkjBTsYYPTc1jvxVMzUiM2ZYyCxEU7tKbjqU02BwHvpsl1H4JXA6NMkI0XCsJZepRUB1QmiEIpN7g27y8iekInJQL5pYP4kTPZnmcXsHYdw0RPh5xualbT4l67amhzwMg2dYb7FVwkloHelInV72XlMBZ0INPEtHjUgpNAxNGbHvHdD8dC9BE-sC4OhnrY_oe-pe3NobLWuXVn4fZYHQESWLpjFWBueBPZwWvRLf1Br4F31VGAPrBkvKZ6uYXKUC8fbdwJdw-OICq2bciMB7NNPGfjoT3B_O31Pgt5r2HjsX0SFkJE5bJg_EK9g2itzmPkUjdyVq08Rs16ZLFxC-EcOms42QKaeqrOY_g9XTFAqnu_cRhhiTtFTL5619ozd9VwZSIeXxgsK2Dz30jF915QFq7_Oh9xX1O_Au6uGqwFclm40]--></g></svg>