<svg xmlns="http://www.w3.org/2000/svg" xmlns:xlink="http://www.w3.org/1999/xlink" contentStyleType="text/css" data-diagram-type="DESCRIPTION" height="442px" preserveAspectRatio="none" style="width:448px;height:442px;background:#FFFFFF;" version="1.1" viewBox="0 0 448 442" width="448px" zoomAndPan="magnify"><defs/><g><!--cluster AISafe - WP#1A: Aircraft Management--><g class="cluster" data-entity="AISafe - WP.1A. Aircraft Management" data-source-line="8" data-uid="ent0005" id="cluster_AISafe - WP.1A. Aircraft Management"><rect fill="none" height="429" rx="2.5" ry="2.5" style="stroke:#181818;stroke-width:1;" width="268" x="174" y="7"/><text fill="#000000" font-family="sans-serif" font-size="14" font-weight="bold" lengthAdjust="spacing" textLength="252.0547" x="181.9727" y="24.1074">AISafe - WP#1A: Aircraft Management</text></g><!--entity UC101--><g class="entity" data-entity="UC101" data-source-line="9" data-uid="ent0006" id="entity_UC101"><ellipse cx="308.1262" cy="68.9252" fill="#F1F1F1" rx="110.1262" ry="24.4252" style="stroke:#181818;stroke-width:0.5;"/><text fill="#000000" font-family="sans-serif" font-size="14" lengthAdjust="spacing" textLength="192.9648" x="211.6437" y="74.7358">US101: Register Aircraft Model</text></g><!--entity UC102--><g class="entity" data-entity="UC102" data-source-line="10" data-uid="ent0007" id="entity_UC102"><ellipse cx="307.8331" cy="316.7666" fill="#F1F1F1" rx="116.8331" ry="25.7666" style="stroke:#181818;stroke-width:0.5;"/><text fill="#000000" font-family="sans-serif" font-size="14" lengthAdjust="spacing" textLength="207.7578" x="203.9542" y="322.5772">US102: Register Aircraft Instance</text></g><!--entity UC103--><g class="entity" data-entity="UC103" data-source-line="11" data-uid="ent0008" id="entity_UC103"><ellipse cx="308.0642" cy="151.2128" fill="#F1F1F1" rx="99.0642" ry="22.2128" style="stroke:#181818;stroke-width:0.5;"/><text fill="#000000" font-family="sans-serif" font-size="14" lengthAdjust="spacing" textLength="168.0615" x="224.0334" y="157.0234">US103: Get Aircraft Details</text></g><!--entity UC104--><g class="entity" data-entity="UC104" data-source-line="12" data-uid="ent0009" id="entity_UC104"><ellipse cx="307.8462" cy="399.1692" fill="#F1F1F1" rx="91.3462" ry="20.6692" style="stroke:#181818;stroke-width:0.5;"/><text fill="#000000" font-family="sans-serif" font-size="14" lengthAdjust="spacing" textLength="150.1719" x="232.7603" y="404.9798">US104: Search Aircrafts</text></g><!--entity UC105--><g class="entity" data-entity="UC105" data-source-line="13" data-uid="ent0010" id="entity_UC105"><ellipse cx="308.1886" cy="231.9377" fill="#F1F1F1" rx="107.6886" ry="23.9377" style="stroke:#181818;stroke-width:0.5;"/><text fill="#000000" font-family="sans-serif" font-size="14" lengthAdjust="spacing" textLength="187.5371" x="214.42" y="237.7483">US105: Update Aircraft Status</text></g><!--entity Admin--><g class="entity" data-entity="Admin" data-source-line="4" data-uid="ent0002" id="entity_Admin"><ellipse cx="67.8413" cy="172" fill="#F1F1F1" rx="8" ry="8" style="stroke:#181818;stroke-width:0.5;"/><path d="M67.8413,180 L67.8413,207 M54.8413,188 L80.8413,188 M67.8413,207 L54.8413,222 M67.8413,207 L80.8413,222" fill="none" style="stroke:#181818;stroke-width:0.5;"/><text fill="#000000" font-family="sans-serif" font-size="14" lengthAdjust="spacing" textLength="39.6826" x="48" y="238.6074">Admin</text></g><!--entity BO--><g class="entity" data-entity="BO" data-source-line="5" data-uid="ent0003" id="entity_BO"><ellipse cx="67.8618" cy="48" fill="#F1F1F1" rx="8" ry="8" style="stroke:#181818;stroke-width:0.5;"/><path d="M67.8618,56 L67.8618,83 M54.8618,64 L80.8618,64 M67.8618,83 L54.8618,98 M67.8618,83 L80.8618,98" fill="none" style="stroke:#181818;stroke-width:0.5;"/><text fill="#000000" font-family="sans-serif" font-size="14" lengthAdjust="spacing" textLength="123.7236" x="6" y="114.6074">Backoffice Operator</text></g><!--entity ATCC--><g class="entity" data-entity="ATCC" data-source-line="6" data-uid="ent0004" id="entity_ATCC"><ellipse cx="68.0552" cy="286" fill="#F1F1F1" rx="8" ry="8" style="stroke:#181818;stroke-width:0.5;"/><path d="M68.0552,294 L68.0552,321 M55.0552,302 L81.0552,302 M68.0552,321 L55.0552,336 M68.0552,321 L81.0552,336" fill="none" style="stroke:#181818;stroke-width:0.5;"/><text fill="#000000" font-family="sans-serif" font-size="14" lengthAdjust="spacing" textLength="38.1104" x="49" y="352.6074">ATCC</text></g><!--link BO to UC101--><g class="link" data-entity-1="BO" data-entity-2="UC101" data-source-line="17" data-uid="lnk11" id="link_BO_UC101"><path d="M130.29,76.42 C151.5,75.53 169.9453,74.7619 193.7453,73.7619" fill="none" id="BO-to-UC101" style="stroke:#181818;stroke-width:1;"/><polygon fill="#181818" points="199.74,73.51,190.58,69.8913,194.7444,73.7199,190.9159,77.8843,199.74,73.51" style="stroke:#181818;stroke-width:1;"/></g><!--link Admin to UC101--><g class="link" data-entity-1="Admin" data-entity-2="UC101" data-source-line="18" data-uid="lnk12" id="link_Admin_UC101"><path d="M88.19,179.34 C106.24,158.55 135.06,128.89 166,111 C184.68,100.2 200.6523,93.6715 221.3523,87.4715" fill="none" id="Admin-to-UC101" style="stroke:#181818;stroke-width:1;"/><polygon fill="#181818" points="227.1,85.75,217.3307,84.5005,222.3102,87.1846,219.6261,92.1641,227.1,85.75" style="stroke:#181818;stroke-width:1;"/></g><!--link ATCC to UC102--><g class="link" data-entity-1="ATCC" data-entity-2="UC102" data-source-line="20" data-uid="lnk13" id="link_ATCC_UC102"><path d="M87.28,317 C109.98,317 144.62,317 184.84,317" fill="none" id="ATCC-to-UC102" style="stroke:#181818;stroke-width:1;"/><polygon fill="#181818" points="190.84,317,181.84,313,185.84,317,181.84,321,190.84,317" style="stroke:#181818;stroke-width:1;"/></g><!--link Admin to UC102--><g class="link" data-entity-1="Admin" data-entity-2="UC102" data-source-line="21" data-uid="lnk14" id="link_Admin_UC102"><path d="M88.22,219.77 C106.96,235.39 136.84,258.41 166,273 C185.72,282.87 202.3807,289.2883 223.4107,295.8283" fill="none" id="Admin-to-UC102" style="stroke:#181818;stroke-width:1;"/><polygon fill="#181818" points="229.14,297.61,221.7338,291.1178,224.3655,296.1252,219.3582,298.757,229.14,297.61" style="stroke:#181818;stroke-width:1;"/></g><!--link ATCC to UC103--><g class="link" data-entity-1="ATCC" data-entity-2="UC103" data-source-line="23" data-uid="lnk15" id="link_ATCC_UC103"><path d="M87.13,302.93 C100.18,292.16 117.59,276.42 130,260 C151.09,232.09 138.86,212.07 166,190 C182.26,176.78 196.912,169.6825 217.122,163.8925" fill="none" id="ATCC-to-UC103" style="stroke:#181818;stroke-width:1;"/><polygon fill="#181818" points="222.89,162.24,213.1364,160.8734,218.0834,163.6171,215.3397,168.564,222.89,162.24" style="stroke:#181818;stroke-width:1;"/></g><!--link BO to UC103--><g class="link" data-entity-1="BO" data-entity-2="UC103" data-source-line="24" data-uid="lnk16" id="link_BO_UC103"><path d="M130.19,99.62 C142.04,103.49 154.39,107.44 166,111 C191.67,118.87 214.3425,125.4312 238.9325,132.3212" fill="none" id="BO-to-UC103" style="stroke:#181818;stroke-width:1;"/><polygon fill="#181818" points="244.71,133.94,237.123,127.6601,239.8954,132.591,234.9645,135.3634,244.71,133.94" style="stroke:#181818;stroke-width:1;"/></g><!--link Admin to UC103--><g class="link" data-entity-1="Admin" data-entity-2="UC103" data-source-line="25" data-uid="lnk17" id="link_Admin_UC103"><path d="M88.07,198.83 C119.95,191.87 179.7284,178.8114 230.8684,167.6314" fill="none" id="Admin-to-UC103" style="stroke:#181818;stroke-width:1;"/><polygon fill="#181818" points="236.73,166.35,227.0834,164.3644,231.8454,167.4179,228.7919,172.1799,236.73,166.35" style="stroke:#181818;stroke-width:1;"/></g><!--link ATCC to UC104--><g class="link" data-entity-1="ATCC" data-entity-2="UC104" data-source-line="27" data-uid="lnk18" id="link_ATCC_UC104"><path d="M87.27,326.07 C106.52,335.4 137.9,349.95 166,360 C191.59,369.15 214.6193,375.9365 239.5093,382.5165" fill="none" id="ATCC-to-UC104" style="stroke:#181818;stroke-width:1;"/><polygon fill="#181818" points="245.31,384.05,237.6312,377.8826,240.4761,382.7721,235.5866,385.6169,245.31,384.05" style="stroke:#181818;stroke-width:1;"/></g><!--link Admin to UC104--><g class="link" data-entity-1="Admin" data-entity-2="UC104" data-source-line="28" data-uid="lnk19" id="link_Admin_UC104"><path d="M88.06,216.84 C101.4,227.37 118.76,242.93 130,260 C155.98,299.45 131.36,327.89 166,360 C182.3,375.11 198.1347,382.8963 219.5447,388.6363" fill="none" id="Admin-to-UC104" style="stroke:#181818;stroke-width:1;"/><polygon fill="#181818" points="225.34,390.19,217.6828,383.9959,220.5106,388.8952,215.6112,391.723,225.34,390.19" style="stroke:#181818;stroke-width:1;"/></g><!--link ATCC to UC105--><g class="link" data-entity-1="ATCC" data-entity-2="UC105" data-source-line="30" data-uid="lnk20" id="link_ATCC_UC105"><path d="M87.27,307.76 C106.52,298.25 137.91,283.4 166,273 C188.83,264.55 208.4793,258.343 231.3793,251.823" fill="none" id="ATCC-to-UC105" style="stroke:#181818;stroke-width:1;"/><polygon fill="#181818" points="237.15,250.18,227.3987,248.7974,232.3411,251.5492,229.5893,256.4916,237.15,250.18" style="stroke:#181818;stroke-width:1;"/></g><!--link Admin to UC105--><g class="link" data-entity-1="Admin" data-entity-2="UC105" data-source-line="31" data-uid="lnk21" id="link_Admin_UC105"><path d="M88.07,205.32 C115.26,208.64 161.0641,214.2141 207.4241,219.8641" fill="none" id="Admin-to-UC105" style="stroke:#181818;stroke-width:1;"/><polygon fill="#181818" points="213.38,220.59,204.93,215.5306,208.4167,219.9851,203.9622,223.4718,213.38,220.59" style="stroke:#181818;stroke-width:1;"/></g><!--SRC=[RP5DRuCm38Rl-HLMTqOQNnSEau1AKmzJfp6qinKCZKe3Ijp3DEs_BsKTeB2SRB_lOyT9Joq33s1KTs9eb279Qj32dfKUqU05HfHdxAZYpvxW9gFkUX829Gy6TdbpKNe7Q66A_ig5euQsLPBWE991LvnCnN46tylobtE14FSnhdwei2K8uEFr8Smpo9MH1jqjNr0xmuKqx-1BW3jNInAjO-egV0mpUADEMIQpOeQ6-cbANJhBbeh-emxQkYqbpM2q1UCCdeaNPa-CghSp4c-H98EAqCZJJ2tsP6jFCwZ71fcM8HKZNnSe5Tz2YE88GV1qNt3wX5KkRgyxvv6dHvuUhvl5dZdsp8cd9vwUUdegVW00]--></g></svg>