<svg xmlns="http://www.w3.org/2000/svg" xmlns:xlink="http://www.w3.org/1999/xlink" contentStyleType="text/css" data-diagram-type="SEQUENCE" height="321px" preserveAspectRatio="none" style="width:739px;height:321px;background:#FFFFFF;" version="1.1" viewBox="0 0 739 321" width="739px" zoomAndPan="magnify"><defs/><g><g><title>Backoffice Operator</title><rect fill="#FFFFFF" height="126.4551" style="stroke:#181818;stroke-width:1;" width="10" x="64.8618" y="93.6211"/></g><g><title>.System</title><rect fill="#FFFFFF" height="103.1641" style="stroke:#181818;stroke-width:1;" width="10" x="441.7651" y="116.9121"/></g><g><title>Backoffice Operator</title><rect fill="#000000" fill-opacity="0.00000" height="154.4551" width="8" x="65.8618" y="83.6211"/><line style="stroke:#181818;stroke-width:0.5;stroke-dasharray:5,5;" x1="69" x2="69" y1="83.6211" y2="238.0762"/></g><g><title>.System</title><rect fill="#000000" fill-opacity="0.00000" height="154.4551" width="8" x="442.7651" y="83.6211"/><line style="stroke:#181818;stroke-width:0.5;stroke-dasharray:5,5;" x1="446.4824" x2="446.4824" y1="83.6211" y2="238.0762"/></g><g class="participant participant-head" data-participant="BO"><text fill="#000000" font-family="sans-serif" font-size="14" lengthAdjust="spacing" textLength="123.7236" x="5" y="80.1074">Backoffice Operator</text><ellipse cx="69.8618" cy="13.5" fill="#E2E2F0" rx="8" ry="8" style="stroke:#181818;stroke-width:0.5;"/><path d="M69.8618,21.5 L69.8618,48.5 M56.8618,29.5 L82.8618,29.5 M69.8618,48.5 L56.8618,63.5 M69.8618,48.5 L82.8618,63.5" fill="none" style="stroke:#181818;stroke-width:0.5;"/></g><g class="participant participant-tail" data-participant="BO"><text fill="#000000" font-family="sans-serif" font-size="14" lengthAdjust="spacing" textLength="123.7236" x="5" y="252.1836">Backoffice Operator</text><ellipse cx="69.8618" cy="264.1973" fill="#E2E2F0" rx="8" ry="8" style="stroke:#181818;stroke-width:0.5;"/><path d="M69.8618,272.1973 L69.8618,299.1973 M56.8618,280.1973 L82.8618,280.1973 M69.8618,299.1973 L56.8618,314.1973 M69.8618,299.1973 L82.8618,314.1973" fill="none" style="stroke:#181818;stroke-width:0.5;"/></g><g class="participant participant-head" data-participant="System"><rect fill="#E2E2F0" height="32.6211" rx="2.5" ry="2.5" style="stroke:#181818;stroke-width:0.5;" width="64.5654" x="414.4824" y="50"/><text fill="#000000" font-family="sans-serif" font-size="14" lengthAdjust="spacing" textLength="50.5654" x="421.4824" y="72.1074">:System</text></g><g class="participant participant-tail" data-participant="System"><rect fill="#E2E2F0" height="32.6211" rx="2.5" ry="2.5" style="stroke:#181818;stroke-width:0.5;" width="64.5654" x="414.4824" y="237.0762"/><text fill="#000000" font-family="sans-serif" font-size="14" lengthAdjust="spacing" textLength="50.5654" x="421.4824" y="259.1836">:System</text></g><g><title>Backoffice Operator</title><rect fill="#FFFFFF" height="126.4551" style="stroke:#181818;stroke-width:1;" width="10" x="64.8618" y="93.6211"/></g><g><title>.System</title><rect fill="#FFFFFF" height="103.1641" style="stroke:#181818;stroke-width:1;" width="10" x="441.7651" y="116.9121"/></g><g class="message" data-participant-1="BO" data-participant-2="System"><polygon fill="#181818" points="429.7651,112.9121,439.7651,116.9121,429.7651,120.9121,433.7651,116.9121" style="stroke:#181818;stroke-width:1;"/><line style="stroke:#181818;stroke-width:1;" x1="74.8618" x2="435.7651" y1="116.9121" y2="116.9121"/><text fill="#000000" font-family="sans-serif" font-size="13" font-weight="bold" lengthAdjust="spacing" textLength="7.23" x="81.8618" y="111.6494">1</text><text fill="#000000" font-family="sans-serif" font-size="13" lengthAdjust="spacing" textLength="336.6733" x="93.0918" y="111.6494">ask to view the Top 5 most utilized aircraft models (sortBy)</text></g><path d="M456,129.9121 L456,190.9121 L732,190.9121 L732,139.9121 L722,129.9121 L456,129.9121" fill="#FEFFDD" style="stroke:#181818;stroke-width:0.5;"/><path d="M722,129.9121 L722,139.9121 L732,139.9121 L722,129.9121" fill="#FEFFDD" style="stroke:#181818;stroke-width:0.5;"/><text fill="#000000" font-family="sans-serif" font-size="13" lengthAdjust="spacing" textLength="203.0488" x="462" y="148.9404">The system aggregates flight hours</text><text fill="#000000" font-family="sans-serif" font-size="13" lengthAdjust="spacing" textLength="255.0806" x="462" y="166.2314">and assignments per model across the fleet,</text><text fill="#000000" font-family="sans-serif" font-size="13" lengthAdjust="spacing" textLength="208.8062" x="462" y="183.5225">sorts them, and limits the result to 5.</text><g class="message" data-participant-1="System" data-participant-2="BO"><polygon fill="#181818" points="80.8618,216.0762,70.8618,220.0762,80.8618,224.0762,76.8618,220.0762" style="stroke:#181818;stroke-width:1;"/><line style="stroke:#181818;stroke-width:1;stroke-dasharray:2,2;" x1="74.8618" x2="445.7651" y1="220.0762" y2="220.0762"/><text fill="#000000" font-family="sans-serif" font-size="13" font-weight="bold" lengthAdjust="spacing" textLength="7.23" x="86.8618" y="214.8135">2</text><text fill="#000000" font-family="sans-serif" font-size="13" lengthAdjust="spacing" textLength="195.1016" x="98.0918" y="214.8135">displays the Top 5 utilized models</text></g><!--SRC=[NO-zRiCm38HtFGMHgGMIR5ayTF0BU6Z6BAnCsKHaoI3f5ExJL_vf6tIJZiSxVZXPJjFmGUBGMnOurEZlEGJs1Cr8WaKy02hKZHjHZ3sFc0mErVkiHiCwsvvkYU076Ytcke7Jspw1ghZkO1aUJ9zWFS4rZt218Ql1P1pvYrf05YyOhCWjHOKNpMBr_FgN-rEKSla8Txr13hjQmRNawbQ8NIVKbHM545TVdoVHMy9KUbIvImCbKoY8MnsWbwow7XSYaHrlQUbVbU48osBaWJS1X7IAjY1TpixjcAT2NBWhQ5d7YBC-eVvIRd2kfVzKJqhTV0C0]--></g></svg>