<svg xmlns="http://www.w3.org/2000/svg" xmlns:xlink="http://www.w3.org/1999/xlink" contentStyleType="text/css" data-diagram-type="SEQUENCE" height="563px" preserveAspectRatio="none" style="width:1082px;height:563px;background:#FFFFFF;" version="1.1" viewBox="0 0 1082 563" width="1082px" zoomAndPan="magnify"><defs/><g><g><title>AircraftController</title><rect fill="#FFFFFF" height="345.4922" style="stroke:#181818;stroke-width:1;" width="10" x="349.5752" y="116.9121"/></g><g><title>SearchAircraftsUseCase</title><rect fill="#FFFFFF" height="228.3281" style="stroke:#181818;stroke-width:1;" width="10" x="553.8223" y="202.7852"/></g><g><title>AircraftRepository</title><rect fill="#FFFFFF" height="165.7461" style="stroke:#181818;stroke-width:1;" width="10" x="799.2275" y="234.0762"/></g><g><title>Database</title><rect fill="#FFFFFF" height="31.291" style="stroke:#181818;stroke-width:1;" width="10" x="1042.4238" y="337.2402"/></g><g><title>ATCC . Admin</title><rect fill="#000000" fill-opacity="0.00000" height="396.7832" width="8" x="48.731" y="83.6211"/><line style="stroke:#181818;stroke-width:0.5;stroke-dasharray:5,5;" x1="52" x2="52" y1="83.6211" y2="480.4043"/></g><g><title>AircraftController</title><rect fill="#000000" fill-opacity="0.00000" height="396.7832" width="8" x="350.5752" y="83.6211"/><line style="stroke:#181818;stroke-width:0.5;stroke-dasharray:5,5;" x1="354.0615" x2="354.0615" y1="83.6211" y2="480.4043"/></g><g><title>SearchAircraftsUseCase</title><rect fill="#000000" fill-opacity="0.00000" height="396.7832" width="8" x="554.8223" y="83.6211"/><line style="stroke:#181818;stroke-width:0.5;stroke-dasharray:5,5;" x1="558.1846" x2="558.1846" y1="83.6211" y2="480.4043"/></g><g><title>AircraftRepository</title><rect fill="#000000" fill-opacity="0.00000" height="396.7832" width="8" x="800.2275" y="83.6211"/><line style="stroke:#181818;stroke-width:0.5;stroke-dasharray:5,5;" x1="803.6001" x2="803.6001" y1="83.6211" y2="480.4043"/></g><g><title>Database</title><rect fill="#000000" fill-opacity="0.00000" height="396.7832" width="8" x="1043.4238" y="83.6211"/><line style="stroke:#181818;stroke-width:0.5;stroke-dasharray:5,5;" x1="1046.4585" x2="1046.4585" y1="83.6211" y2="480.4043"/></g><g class="participant participant-head" data-participant="User"><text fill="#000000" font-family="sans-serif" font-size="14" lengthAdjust="spacing" textLength="89.4619" x="5" y="80.1074">ATCC / Admin</text><ellipse cx="52.731" cy="13.5" fill="#E2E2F0" rx="8" ry="8" style="stroke:#181818;stroke-width:0.5;"/><path d="M52.731,21.5 L52.731,48.5 M39.731,29.5 L65.731,29.5 M52.731,48.5 L39.731,63.5 M52.731,48.5 L65.731,63.5" fill="none" style="stroke:#181818;stroke-width:0.5;"/></g><g class="participant participant-tail" data-participant="User"><text fill="#000000" font-family="sans-serif" font-size="14" lengthAdjust="spacing" textLength="89.4619" x="5" y="494.5117">ATCC / Admin</text><ellipse cx="52.731" cy="506.5254" fill="#E2E2F0" rx="8" ry="8" style="stroke:#181818;stroke-width:0.5;"/><path d="M52.731,514.5254 L52.731,541.5254 M39.731,522.5254 L65.731,522.5254 M52.731,541.5254 L39.731,556.5254 M52.731,541.5254 L65.731,556.5254" fill="none" style="stroke:#181818;stroke-width:0.5;"/></g><g class="participant participant-head" data-participant="Ctrl"><rect fill="#E2E2F0" height="32.6211" rx="2.5" ry="2.5" style="stroke:#181818;stroke-width:0.5;" width="119.0273" x="295.0615" y="50"/><text fill="#000000" font-family="sans-serif" font-size="14" lengthAdjust="spacing" textLength="105.0273" x="302.0615" y="72.1074">AircraftController</text></g><g class="participant participant-tail" data-participant="Ctrl"><rect fill="#E2E2F0" height="32.6211" rx="2.5" ry="2.5" style="stroke:#181818;stroke-width:0.5;" width="119.0273" x="295.0615" y="479.4043"/><text fill="#000000" font-family="sans-serif" font-size="14" lengthAdjust="spacing" textLength="105.0273" x="302.0615" y="501.5117">AircraftController</text></g><g class="participant participant-head" data-participant="UC"><rect fill="#E2E2F0" height="32.6211" rx="2.5" ry="2.5" style="stroke:#181818;stroke-width:0.5;" width="167.2754" x="475.1846" y="50"/><text fill="#000000" font-family="sans-serif" font-size="14" lengthAdjust="spacing" textLength="153.2754" x="482.1846" y="72.1074">SearchAircraftsUseCase</text></g><g class="participant participant-tail" data-participant="UC"><rect fill="#E2E2F0" height="32.6211" rx="2.5" ry="2.5" style="stroke:#181818;stroke-width:0.5;" width="167.2754" x="475.1846" y="479.4043"/><text fill="#000000" font-family="sans-serif" font-size="14" lengthAdjust="spacing" textLength="153.2754" x="482.1846" y="501.5117">SearchAircraftsUseCase</text></g><g class="participant participant-head" data-participant="Repo"><rect fill="#E2E2F0" height="32.6211" rx="2.5" ry="2.5" style="stroke:#181818;stroke-width:0.5;" width="125.2549" x="741.6001" y="50"/><text fill="#000000" font-family="sans-serif" font-size="14" lengthAdjust="spacing" textLength="111.2549" x="748.6001" y="72.1074">AircraftRepository</text></g><g class="participant participant-tail" data-participant="Repo"><rect fill="#E2E2F0" height="32.6211" rx="2.5" ry="2.5" style="stroke:#181818;stroke-width:0.5;" width="125.2549" x="741.6001" y="479.4043"/><text fill="#000000" font-family="sans-serif" font-size="14" lengthAdjust="spacing" textLength="111.2549" x="748.6001" y="501.5117">AircraftRepository</text></g><g class="participant participant-head" data-participant="DB"><text fill="#000000" font-family="sans-serif" font-size="14" lengthAdjust="spacing" textLength="59.9307" x="1014.4585" y="80.1074">Database</text><path d="M1029.4238,29 C1029.4238,19 1047.4238,19 1047.4238,19 C1047.4238,19 1065.4238,19 1065.4238,29 L1065.4238,55 C1065.4238,65 1047.4238,65 1047.4238,65 C1047.4238,65 1029.4238,65 1029.4238,55 L1029.4238,29" fill="#E2E2F0" style="stroke:#181818;stroke-width:0.5;"/><path d="M1029.4238,29 C1029.4238,39 1047.4238,39 1047.4238,39 C1047.4238,39 1065.4238,39 1065.4238,29" fill="none" style="stroke:#181818;stroke-width:0.5;"/></g><g class="participant participant-tail" data-participant="DB"><text fill="#000000" font-family="sans-serif" font-size="14" lengthAdjust="spacing" textLength="59.9307" x="1014.4585" y="494.5117">Database</text><path d="M1029.4238,508.0254 C1029.4238,498.0254 1047.4238,498.0254 1047.4238,498.0254 C1047.4238,498.0254 1065.4238,498.0254 1065.4238,508.0254 L1065.4238,534.0254 C1065.4238,544.0254 1047.4238,544.0254 1047.4238,544.0254 C1047.4238,544.0254 1029.4238,544.0254 1029.4238,534.0254 L1029.4238,508.0254" fill="#E2E2F0" style="stroke:#181818;stroke-width:0.5;"/><path d="M1029.4238,508.0254 C1029.4238,518.0254 1047.4238,518.0254 1047.4238,518.0254 C1047.4238,518.0254 1065.4238,518.0254 1065.4238,508.0254" fill="none" style="stroke:#181818;stroke-width:0.5;"/></g><g><title>AircraftController</title><rect fill="#FFFFFF" height="345.4922" style="stroke:#181818;stroke-width:1;" width="10" x="349.5752" y="116.9121"/></g><g><title>SearchAircraftsUseCase</title><rect fill="#FFFFFF" height="228.3281" style="stroke:#181818;stroke-width:1;" width="10" x="553.8223" y="202.7852"/></g><g><title>AircraftRepository</title><rect fill="#FFFFFF" height="165.7461" style="stroke:#181818;stroke-width:1;" width="10" x="799.2275" y="234.0762"/></g><g><title>Database</title><rect fill="#FFFFFF" height="31.291" style="stroke:#181818;stroke-width:1;" width="10" x="1042.4238" y="337.2402"/></g><g class="message" data-participant-1="User" data-participant-2="Ctrl"><polygon fill="#181818" points="337.5752,112.9121,347.5752,116.9121,337.5752,120.9121,341.5752,116.9121" style="stroke:#181818;stroke-width:1;"/><line style="stroke:#181818;stroke-width:1;" x1="52.731" x2="343.5752" y1="116.9121" y2="116.9121"/><text fill="#000000" font-family="sans-serif" font-size="13" font-weight="bold" lengthAdjust="spacing" textLength="7.23" x="59.731" y="111.6494">1</text><text fill="#000000" font-family="sans-serif" font-size="13" lengthAdjust="spacing" textLength="266.6143" x="70.9609" y="111.6494">GET /api/aircrafts/search?model=...&amp;status=...</text></g><path d="M364,129.9121 L364,173.9121 L572,173.9121 L572,139.9121 L562,129.9121 L364,129.9121" fill="#FEFFDD" style="stroke:#181818;stroke-width:0.5;"/><path d="M562,129.9121 L562,139.9121 L572,139.9121 L562,129.9121" fill="#FEFFDD" style="stroke:#181818;stroke-width:0.5;"/><text fill="#000000" font-family="sans-serif" font-size="13" lengthAdjust="spacing" textLength="132.2344" x="370" y="148.9404">Extracts optional query</text><text fill="#000000" font-family="sans-serif" font-size="13" lengthAdjust="spacing" textLength="187.8462" x="370" y="166.2314">parameters (model, status, year)</text><g class="message" data-participant-1="Ctrl" data-participant-2="UC"><polygon fill="#181818" points="541.8223,198.7852,551.8223,202.7852,541.8223,206.7852,545.8223,202.7852" style="stroke:#181818;stroke-width:1;"/><line style="stroke:#181818;stroke-width:1;" x1="359.5752" x2="547.8223" y1="202.7852" y2="202.7852"/><text fill="#000000" font-family="sans-serif" font-size="13" font-weight="bold" lengthAdjust="spacing" textLength="7.23" x="366.5752" y="197.5225">2</text><text fill="#000000" font-family="sans-serif" font-size="13" lengthAdjust="spacing" textLength="164.0171" x="377.8052" y="197.5225">execute(model, status, year)</text></g><g class="message" data-participant-1="UC" data-participant-2="Repo"><polygon fill="#181818" points="787.2275,230.0762,797.2275,234.0762,787.2275,238.0762,791.2275,234.0762" style="stroke:#181818;stroke-width:1;"/><line style="stroke:#181818;stroke-width:1;" x1="563.8223" x2="793.2275" y1="234.0762" y2="234.0762"/><text fill="#000000" font-family="sans-serif" font-size="13" font-weight="bold" lengthAdjust="spacing" textLength="7.23" x="570.8223" y="228.8135">3</text><text fill="#000000" font-family="sans-serif" font-size="13" lengthAdjust="spacing" textLength="205.1753" x="582.0522" y="228.8135">searchAircrafts(model, status, year)</text></g><path d="M814,247.0762 L814,291.0762 L1044,291.0762 L1044,257.0762 L1034,247.0762 L814,247.0762" fill="#FEFFDD" style="stroke:#181818;stroke-width:0.5;"/><path d="M1034,247.0762 L1034,257.0762 L1044,257.0762 L1034,247.0762" fill="#FEFFDD" style="stroke:#181818;stroke-width:0.5;"/><text fill="#000000" font-family="sans-serif" font-size="13" lengthAdjust="spacing" textLength="209.0029" x="820" y="266.1045">Executes the custom JPQL @Query</text><text fill="#000000" font-family="sans-serif" font-size="13" lengthAdjust="spacing" textLength="176.3188" x="820" y="283.3955">to filter directly in the database</text><g class="message" data-participant-1="Repo" data-participant-2="DB"><polygon fill="#181818" points="1030.4238,333.2402,1040.4238,337.2402,1030.4238,341.2402,1034.4238,337.2402" style="stroke:#181818;stroke-width:1;"/><line style="stroke:#181818;stroke-width:1;" x1="809.2275" x2="1036.4238" y1="337.2402" y2="337.2402"/><text fill="#000000" font-family="sans-serif" font-size="13" font-weight="bold" lengthAdjust="spacing" textLength="7.23" x="816.2275" y="323.332">4</text><text fill="#000000" font-family="sans-serif" font-size="13" lengthAdjust="spacing" textLength="202.9663" x="827.4575" y="314.6865">SELECT * FROM aircrafts WHERE</text><text fill="#000000" font-family="sans-serif" font-size="13" lengthAdjust="spacing" textLength="180.6162" x="827.4575" y="331.9775">(model = ?) AND (status = ?) ...</text></g><g class="message" data-participant-1="DB" data-participant-2="Repo"><polygon fill="#181818" points="820.2275,364.5313,810.2275,368.5313,820.2275,372.5313,816.2275,368.5313" style="stroke:#181818;stroke-width:1;"/><line style="stroke:#181818;stroke-width:1;stroke-dasharray:2,2;" x1="814.2275" x2="1046.4238" y1="368.5313" y2="368.5313"/><text fill="#000000" font-family="sans-serif" font-size="13" font-weight="bold" lengthAdjust="spacing" textLength="7.23" x="826.2275" y="363.2686">5</text><text fill="#000000" font-family="sans-serif" font-size="13" lengthAdjust="spacing" textLength="174.8335" x="837.4575" y="363.2686">List&lt;Aircraft&gt; (filtered records)</text></g><g class="message" data-participant-1="Repo" data-participant-2="UC"><polygon fill="#181818" points="574.8223,395.8223,564.8223,399.8223,574.8223,403.8223,570.8223,399.8223" style="stroke:#181818;stroke-width:1;"/><line style="stroke:#181818;stroke-width:1;stroke-dasharray:2,2;" x1="568.8223" x2="803.2275" y1="399.8223" y2="399.8223"/><text fill="#000000" font-family="sans-serif" font-size="13" font-weight="bold" lengthAdjust="spacing" textLength="7.23" x="580.8223" y="394.5596">6</text><text fill="#000000" font-family="sans-serif" font-size="13" lengthAdjust="spacing" textLength="76.5845" x="592.0522" y="394.5596">List&lt;Aircraft&gt;</text></g><g class="message" data-participant-1="UC" data-participant-2="Ctrl"><polygon fill="#181818" points="370.5752,427.1133,360.5752,431.1133,370.5752,435.1133,366.5752,431.1133" style="stroke:#181818;stroke-width:1;"/><line style="stroke:#181818;stroke-width:1;stroke-dasharray:2,2;" x1="364.5752" x2="557.8223" y1="431.1133" y2="431.1133"/><text fill="#000000" font-family="sans-serif" font-size="13" font-weight="bold" lengthAdjust="spacing" textLength="7.23" x="376.5752" y="425.8506">7</text><text fill="#000000" font-family="sans-serif" font-size="13" lengthAdjust="spacing" textLength="76.5845" x="387.8052" y="425.8506">List&lt;Aircraft&gt;</text></g><g class="message" data-participant-1="Ctrl" data-participant-2="User"><polygon fill="#181818" points="63.731,458.4043,53.731,462.4043,63.731,466.4043,59.731,462.4043" style="stroke:#181818;stroke-width:1;"/><line style="stroke:#181818;stroke-width:1;stroke-dasharray:2,2;" x1="57.731" x2="353.5752" y1="462.4043" y2="462.4043"/><text fill="#000000" font-family="sans-serif" font-size="13" font-weight="bold" lengthAdjust="spacing" textLength="7.23" x="69.731" y="457.1416">8</text><text fill="#000000" font-family="sans-serif" font-size="13" lengthAdjust="spacing" textLength="187.8462" x="80.9609" y="457.1416">200 OK (JSON Array Response)</text></g><!--SRC=[XP9HJzim58NV_IkE-Z2r4xHeZzM0bJJRn3ewsgAzy68ITxMKs9bzCv5_pxLDW4mWtXpxtEFl74UsP4rRtoadP47MORJOPHbcM9IrDYD8ZnlFXurqf0lTI4CiqQvmSa-PDUHiLIaNXHcvQYZSAkcAGo_tx9H9hv9hzhhdHZNMQoRfeYnyYbAIlED1Z9QFgtYsl10YmE7uBDwDERxbEynaesUoltFc8yDvRKjLdKwdqm-U9BK-B4Da_K-IIkZ2M5uw_UT0iFkuDqT-Juvb7hOXROsiyBTLhhirJ2zhHSfvZAFv4PBp4Jg-SY94P6Ascup9rBqgMbAlIvyuk1N1SXuAmNdC3njyPposzL-Ci1TYnEizwA1Gj9viZSjVrojykKvno6AlAuw3KZjLKDL1cwZksnSYCZ7RyeB9jlagptRuYA-RzKyyzOtVt_DDVciIAKvnFi7YQebnGauRW-xv6Tdm-3dpIdlwt4S-mpXngHBCPLtf9w9KBwSVkVgcX-CljQcUqE_p7_EsEhn5UiBW7FwpEJwTd63z0-FBxVeA2-TanwQ-iSQh0LMOUm00]--></g></svg>