<svg xmlns="http://www.w3.org/2000/svg" xmlns:xlink="http://www.w3.org/1999/xlink" contentStyleType="text/css" data-diagram-type="SEQUENCE" height="767px" preserveAspectRatio="none" style="width:1599px;height:767px;background:#FFFFFF;" version="1.1" viewBox="0 0 1599 767" width="1599px" zoomAndPan="magnify"><defs/><g><g><title>AircraftModelController</title><rect fill="#FFFFFF" height="549.2383" style="stroke:#181818;stroke-width:1;" width="10" x="409.4077" y="116.9121"/></g><g><title>UpdateAircraftModelSpecsUseCase</title><rect fill="#FFFFFF" height="486.6563" style="stroke:#181818;stroke-width:1;" width="10" x="624.4966" y="148.2031"/></g><g><title>AircraftModel</title><rect fill="#FFFFFF" height="85.873" style="stroke:#181818;stroke-width:1;" width="10" x="1012.2925" y="385.5313"/></g><g><title>AircraftModelRepository</title><rect fill="#FFFFFF" height="93.873" style="stroke:#181818;stroke-width:1;" width="10" x="1152.2197" y="234.0762"/></g><g><title>AircraftModelRepository</title><rect fill="#FFFFFF" height="93.873" style="stroke:#181818;stroke-width:1;" width="10" x="1152.2197" y="509.6953"/></g><g><title>Database</title><rect fill="#FFFFFF" height="31.291" style="stroke:#181818;stroke-width:1;" width="10" x="1559.084" y="265.3672"/></g><g><title>Database</title><rect fill="#FFFFFF" height="31.291" style="stroke:#181818;stroke-width:1;" width="10" x="1559.084" y="540.9863"/></g><rect fill="none" height="136.4551" style="stroke:#000000;stroke-width:1.5;" width="732.4199" x="500.4453" y="342.9492"/><g><title>Backoffice Operator.Admin</title><rect fill="#000000" fill-opacity="0.00000" height="600.5293" width="8" x="87.6479" y="83.6211"/><line style="stroke:#181818;stroke-width:0.5;stroke-dasharray:5,5;" x1="91" x2="91" y1="83.6211" y2="684.1504"/></g><g><title>AircraftModelController</title><rect fill="#000000" fill-opacity="0.00000" height="600.5293" width="8" x="410.4077" y="83.6211"/><line style="stroke:#181818;stroke-width:0.5;stroke-dasharray:5,5;" x1="413.8286" x2="413.8286" y1="83.6211" y2="684.1504"/></g><g><title>UpdateAircraftModelSpecsUseCase</title><rect fill="#000000" fill-opacity="0.00000" height="600.5293" width="8" x="625.4966" y="83.6211"/><line style="stroke:#181818;stroke-width:0.5;stroke-dasharray:5,5;" x1="629.4453" x2="629.4453" y1="83.6211" y2="684.1504"/></g><g><title>AircraftModel</title><rect fill="#000000" fill-opacity="0.00000" height="600.5293" width="8" x="1013.2925" y="83.6211"/><line style="stroke:#181818;stroke-width:0.5;stroke-dasharray:5,5;" x1="1017.0581" x2="1017.0581" y1="83.6211" y2="684.1504"/></g><g><title>AircraftModelRepository</title><rect fill="#000000" fill-opacity="0.00000" height="600.5293" width="8" x="1153.2197" y="83.6211"/><line style="stroke:#181818;stroke-width:0.5;stroke-dasharray:5,5;" x1="1156.5269" x2="1156.5269" y1="83.6211" y2="684.1504"/></g><g><title>Database</title><rect fill="#000000" fill-opacity="0.00000" height="600.5293" width="8" x="1560.084" y="83.6211"/><line style="stroke:#181818;stroke-width:0.5;stroke-dasharray:5,5;" x1="1563.1187" x2="1563.1187" y1="83.6211" y2="684.1504"/></g><g class="participant participant-head" data-participant="BO"><text fill="#000000" font-family="sans-serif" font-size="14" lengthAdjust="spacing" textLength="167.2959" x="5" y="80.1074">Backoffice Operator/Admin</text><ellipse cx="91.6479" cy="13.5" fill="#E2E2F0" rx="8" ry="8" style="stroke:#181818;stroke-width:0.5;"/><path d="M91.6479,21.5 L91.6479,48.5 M78.6479,29.5 L104.6479,29.5 M91.6479,48.5 L78.6479,63.5 M91.6479,48.5 L104.6479,63.5" fill="none" style="stroke:#181818;stroke-width:0.5;"/></g><g class="participant participant-tail" data-participant="BO"><text fill="#000000" font-family="sans-serif" font-size="14" lengthAdjust="spacing" textLength="167.2959" x="5" y="698.2578">Backoffice Operator/Admin</text><ellipse cx="91.6479" cy="710.2715" fill="#E2E2F0" rx="8" ry="8" style="stroke:#181818;stroke-width:0.5;"/><path d="M91.6479,718.2715 L91.6479,745.2715 M78.6479,726.2715 L104.6479,726.2715 M91.6479,745.2715 L78.6479,760.2715 M91.6479,745.2715 L104.6479,760.2715" fill="none" style="stroke:#181818;stroke-width:0.5;"/></g><g class="participant participant-head" data-participant="Ctrl"><rect fill="#E2E2F0" height="32.6211" rx="2.5" ry="2.5" style="stroke:#181818;stroke-width:0.5;" width="157.1582" x="335.8286" y="50"/><text fill="#000000" font-family="sans-serif" font-size="14" lengthAdjust="spacing" textLength="143.1582" x="342.8286" y="72.1074">AircraftModelController</text></g><g class="participant participant-tail" data-participant="Ctrl"><rect fill="#E2E2F0" height="32.6211" rx="2.5" ry="2.5" style="stroke:#181818;stroke-width:0.5;" width="157.1582" x="335.8286" y="683.1504"/><text fill="#000000" font-family="sans-serif" font-size="14" lengthAdjust="spacing" textLength="143.1582" x="342.8286" y="705.2578">AircraftModelController</text></g><g class="participant participant-head" data-participant="UC"><rect fill="#E2E2F0" height="32.6211" rx="2.5" ry="2.5" style="stroke:#181818;stroke-width:0.5;" width="238.1025" x="510.4453" y="50"/><text fill="#000000" font-family="sans-serif" font-size="14" lengthAdjust="spacing" textLength="224.1025" x="517.4453" y="72.1074">UpdateAircraftModelSpecsUseCase</text></g><g class="participant participant-tail" data-participant="UC"><rect fill="#E2E2F0" height="32.6211" rx="2.5" ry="2.5" style="stroke:#181818;stroke-width:0.5;" width="238.1025" x="510.4453" y="683.1504"/><text fill="#000000" font-family="sans-serif" font-size="14" lengthAdjust="spacing" textLength="224.1025" x="517.4453" y="705.2578">UpdateAircraftModelSpecsUseCase</text></g><g class="participant participant-head" data-participant="Entity"><rect fill="#E2E2F0" height="51.2422" rx="2.5" ry="2.5" style="stroke:#181818;stroke-width:0.5;" width="96.4688" x="969.0581" y="31.3789"/><text fill="#000000" font-family="sans-serif" font-size="14" lengthAdjust="spacing" textLength="82.4688" x="976.0581" y="53.4863">AircraftModel</text><text fill="#000000" font-family="sans-serif" font-size="14" lengthAdjust="spacing" textLength="44.3379" x="995.1235" y="72.1074">(Entity)</text></g><g class="participant participant-tail" data-participant="Entity"><rect fill="#E2E2F0" height="51.2422" rx="2.5" ry="2.5" style="stroke:#181818;stroke-width:0.5;" width="96.4688" x="969.0581" y="683.1504"/><text fill="#000000" font-family="sans-serif" font-size="14" lengthAdjust="spacing" textLength="82.4688" x="976.0581" y="705.2578">AircraftModel</text><text fill="#000000" font-family="sans-serif" font-size="14" lengthAdjust="spacing" textLength="44.3379" x="995.1235" y="723.8789">(Entity)</text></g><g class="participant participant-head" data-participant="Repo"><rect fill="#E2E2F0" height="32.6211" rx="2.5" ry="2.5" style="stroke:#181818;stroke-width:0.5;" width="163.3857" x="1075.5269" y="50"/><text fill="#000000" font-family="sans-serif" font-size="14" lengthAdjust="spacing" textLength="149.3857" x="1082.5269" y="72.1074">AircraftModelRepository</text></g><g class="participant participant-tail" data-participant="Repo"><rect fill="#E2E2F0" height="32.6211" rx="2.5" ry="2.5" style="stroke:#181818;stroke-width:0.5;" width="163.3857" x="1075.5269" y="683.1504"/><text fill="#000000" font-family="sans-serif" font-size="14" lengthAdjust="spacing" textLength="149.3857" x="1082.5269" y="705.2578">AircraftModelRepository</text></g><g class="participant participant-head" data-participant="DB"><text fill="#000000" font-family="sans-serif" font-size="14" lengthAdjust="spacing" textLength="59.9307" x="1531.1187" y="80.1074">Database</text><path d="M1546.084,29 C1546.084,19 1564.084,19 1564.084,19 C1564.084,19 1582.084,19 1582.084,29 L1582.084,55 C1582.084,65 1564.084,65 1564.084,65 C1564.084,65 1546.084,65 1546.084,55 L1546.084,29" fill="#E2E2F0" style="stroke:#181818;stroke-width:0.5;"/><path d="M1546.084,29 C1546.084,39 1564.084,39 1564.084,39 C1564.084,39 1582.084,39 1582.084,29" fill="none" style="stroke:#181818;stroke-width:0.5;"/></g><g class="participant participant-tail" data-participant="DB"><text fill="#000000" font-family="sans-serif" font-size="14" lengthAdjust="spacing" textLength="59.9307" x="1531.1187" y="698.2578">Database</text><path d="M1546.084,711.7715 C1546.084,701.7715 1564.084,701.7715 1564.084,701.7715 C1564.084,701.7715 1582.084,701.7715 1582.084,711.7715 L1582.084,737.7715 C1582.084,747.7715 1564.084,747.7715 1564.084,747.7715 C1564.084,747.7715 1546.084,747.7715 1546.084,737.7715 L1546.084,711.7715" fill="#E2E2F0" style="stroke:#181818;stroke-width:0.5;"/><path d="M1546.084,711.7715 C1546.084,721.7715 1564.084,721.7715 1564.084,721.7715 C1564.084,721.7715 1582.084,721.7715 1582.084,711.7715" fill="none" style="stroke:#181818;stroke-width:0.5;"/></g><g><title>AircraftModelController</title><rect fill="#FFFFFF" height="549.2383" style="stroke:#181818;stroke-width:1;" width="10" x="409.4077" y="116.9121"/></g><g><title>UpdateAircraftModelSpecsUseCase</title><rect fill="#FFFFFF" height="486.6563" style="stroke:#181818;stroke-width:1;" width="10" x="624.4966" y="148.2031"/></g><g><title>AircraftModel</title><rect fill="#FFFFFF" height="85.873" style="stroke:#181818;stroke-width:1;" width="10" x="1012.2925" y="385.5313"/></g><g><title>AircraftModelRepository</title><rect fill="#FFFFFF" height="93.873" style="stroke:#181818;stroke-width:1;" width="10" x="1152.2197" y="234.0762"/></g><g><title>AircraftModelRepository</title><rect fill="#FFFFFF" height="93.873" style="stroke:#181818;stroke-width:1;" width="10" x="1152.2197" y="509.6953"/></g><g><title>Database</title><rect fill="#FFFFFF" height="31.291" style="stroke:#181818;stroke-width:1;" width="10" x="1559.084" y="265.3672"/></g><g><title>Database</title><rect fill="#FFFFFF" height="31.291" style="stroke:#181818;stroke-width:1;" width="10" x="1559.084" y="540.9863"/></g><g class="message" data-participant-1="BO" data-participant-2="Ctrl"><polygon fill="#181818" points="397.4077,112.9121,407.4077,116.9121,397.4077,120.9121,401.4077,116.9121" style="stroke:#181818;stroke-width:1;"/><line style="stroke:#181818;stroke-width:1;" x1="91.6479" x2="403.4077" y1="116.9121" y2="116.9121"/><text fill="#000000" font-family="sans-serif" font-size="13" font-weight="bold" lengthAdjust="spacing" textLength="7.23" x="98.6479" y="111.6494">1</text><text fill="#000000" font-family="sans-serif" font-size="13" lengthAdjust="spacing" textLength="287.5298" x="109.8779" y="111.6494">PATCH /api/aircraft-models/{modelName} (JSON)</text></g><g class="message" data-participant-1="Ctrl" data-participant-2="UC"><polygon fill="#181818" points="612.4966,144.2031,622.4966,148.2031,612.4966,152.2031,616.4966,148.2031" style="stroke:#181818;stroke-width:1;"/><line style="stroke:#181818;stroke-width:1;" x1="419.4077" x2="618.4966" y1="148.2031" y2="148.2031"/><text fill="#000000" font-family="sans-serif" font-size="13" font-weight="bold" lengthAdjust="spacing" textLength="7.23" x="426.4077" y="142.9404">2</text><text fill="#000000" font-family="sans-serif" font-size="13" lengthAdjust="spacing" textLength="174.8589" x="437.6377" y="142.9404">execute(modelName, request)</text></g><path d="M639,161.2031 L639,205.2031 L796,205.2031 L796,171.2031 L786,161.2031 L639,161.2031" fill="#FEFFDD" style="stroke:#181818;stroke-width:0.5;"/><path d="M786,161.2031 L786,171.2031 L796,171.2031 L786,161.2031" fill="#FEFFDD" style="stroke:#181818;stroke-width:0.5;"/><text fill="#000000" font-family="sans-serif" font-size="13" lengthAdjust="spacing" textLength="136.5317" x="645" y="180.2314">Extracts data from DTO</text><text fill="#000000" font-family="sans-serif" font-size="13" lengthAdjust="spacing" textLength="52.019" x="645" y="197.5225">(request)</text><g class="message" data-participant-1="UC" data-participant-2="Repo"><polygon fill="#181818" points="1140.2197,230.0762,1150.2197,234.0762,1140.2197,238.0762,1144.2197,234.0762" style="stroke:#181818;stroke-width:1;"/><line style="stroke:#181818;stroke-width:1;" x1="634.4966" x2="1146.2197" y1="234.0762" y2="234.0762"/><text fill="#000000" font-family="sans-serif" font-size="13" font-weight="bold" lengthAdjust="spacing" textLength="7.23" x="641.4966" y="228.8135">3</text><text fill="#000000" font-family="sans-serif" font-size="13" lengthAdjust="spacing" textLength="184.958" x="652.7266" y="228.8135">findByModelName(modelName)</text></g><g class="message" data-participant-1="Repo" data-participant-2="DB"><polygon fill="#181818" points="1547.084,261.3672,1557.084,265.3672,1547.084,269.3672,1551.084,265.3672" style="stroke:#181818;stroke-width:1;"/><line style="stroke:#181818;stroke-width:1;" x1="1162.2197" x2="1553.084" y1="265.3672" y2="265.3672"/><text fill="#000000" font-family="sans-serif" font-size="13" font-weight="bold" lengthAdjust="spacing" textLength="7.23" x="1169.2197" y="260.1045">4</text><text fill="#000000" font-family="sans-serif" font-size="13" lengthAdjust="spacing" textLength="366.6343" x="1180.4497" y="260.1045">SELECT * FROM aircraft_models WHERE name = modelName</text></g><g class="message" data-participant-1="DB" data-participant-2="Repo"><polygon fill="#181818" points="1173.2197,292.6582,1163.2197,296.6582,1173.2197,300.6582,1169.2197,296.6582" style="stroke:#181818;stroke-width:1;"/><line style="stroke:#181818;stroke-width:1;stroke-dasharray:2,2;" x1="1167.2197" x2="1563.084" y1="296.6582" y2="296.6582"/><text fill="#000000" font-family="sans-serif" font-size="13" font-weight="bold" lengthAdjust="spacing" textLength="7.23" x="1179.2197" y="291.3955">5</text><text fill="#000000" font-family="sans-serif" font-size="13" lengthAdjust="spacing" textLength="84.5381" x="1190.4497" y="291.3955">existing record</text></g><g class="message" data-participant-1="Repo" data-participant-2="UC"><polygon fill="#181818" points="645.4966,323.9492,635.4966,327.9492,645.4966,331.9492,641.4966,327.9492" style="stroke:#181818;stroke-width:1;"/><line style="stroke:#181818;stroke-width:1;stroke-dasharray:2,2;" x1="639.4966" x2="1156.2197" y1="327.9492" y2="327.9492"/><text fill="#000000" font-family="sans-serif" font-size="13" font-weight="bold" lengthAdjust="spacing" textLength="7.23" x="651.4966" y="322.6865">6</text><text fill="#000000" font-family="sans-serif" font-size="13" lengthAdjust="spacing" textLength="79.4854" x="662.7266" y="322.6865">existingModel</text></g><path d="M500.4453,342.9492 L565.6563,342.9492 L565.6563,352.2402 L555.6563,362.2402 L500.4453,362.2402 L500.4453,342.9492" fill="#EEEEEE" style="stroke:#000000;stroke-width:1.5;"/><rect fill="none" height="136.4551" style="stroke:#000000;stroke-width:1.5;" width="732.4199" x="500.4453" y="342.9492"/><text fill="#000000" font-family="sans-serif" font-size="13" font-weight="bold" lengthAdjust="spacing" textLength="20.2109" x="515.4453" y="357.9775">opt</text><text fill="#000000" font-family="sans-serif" font-size="11" font-weight="bold" lengthAdjust="spacing" textLength="150.96" x="580.6563" y="356.8193">[if request fields are not null]</text><g class="message" data-participant-1="UC" data-participant-2="Entity"><polygon fill="#181818" points="1000.2925,381.5313,1010.2925,385.5313,1000.2925,389.5313,1004.2925,385.5313" style="stroke:#181818;stroke-width:1;"/><line style="stroke:#181818;stroke-width:1;" x1="634.4966" x2="1006.2925" y1="385.5313" y2="385.5313"/><text fill="#000000" font-family="sans-serif" font-size="13" font-weight="bold" lengthAdjust="spacing" textLength="7.23" x="641.4966" y="380.2686">7</text><text fill="#000000" font-family="sans-serif" font-size="13" lengthAdjust="spacing" textLength="347.5659" x="652.7266" y="380.2686">updateSpecs(fuelCapacity, maximumRange, cruisingSpeed)</text></g><path d="M1027,398.5313 L1027,442.5313 L1222,442.5313 L1222,408.5313 L1212,398.5313 L1027,398.5313" fill="#FEFFDD" style="stroke:#181818;stroke-width:0.5;"/><path d="M1212,398.5313 L1212,408.5313 L1222,408.5313 L1212,398.5313" fill="#FEFFDD" style="stroke:#181818;stroke-width:0.5;"/><text fill="#000000" font-family="sans-serif" font-size="13" lengthAdjust="spacing" textLength="174.8652" x="1033" y="417.5596">Domain validation occurs here</text><text fill="#000000" font-family="sans-serif" font-size="13" lengthAdjust="spacing" textLength="162.2207" x="1033" y="434.8506">(e.g., checking if values &gt; 0)</text><g class="message" data-participant-1="Entity" data-participant-2="UC"><polygon fill="#181818" points="645.4966,467.4043,635.4966,471.4043,645.4966,475.4043,641.4966,471.4043" style="stroke:#181818;stroke-width:1;"/><line style="stroke:#181818;stroke-width:1;stroke-dasharray:2,2;" x1="639.4966" x2="1016.2925" y1="471.4043" y2="471.4043"/><text fill="#000000" font-family="sans-serif" font-size="13" font-weight="bold" lengthAdjust="spacing" textLength="7.23" x="651.4966" y="466.1416">8</text><text fill="#000000" font-family="sans-serif" font-size="13" lengthAdjust="spacing" textLength="82.3989" x="662.7266" y="466.1416">updatedModel</text></g><g class="message" data-participant-1="UC" data-participant-2="Repo"><polygon fill="#181818" points="1140.2197,505.6953,1150.2197,509.6953,1140.2197,513.6953,1144.2197,509.6953" style="stroke:#181818;stroke-width:1;"/><line style="stroke:#181818;stroke-width:1;" x1="634.4966" x2="1146.2197" y1="509.6953" y2="509.6953"/><text fill="#000000" font-family="sans-serif" font-size="13" font-weight="bold" lengthAdjust="spacing" textLength="7.23" x="641.4966" y="504.4326">9</text><text fill="#000000" font-family="sans-serif" font-size="13" lengthAdjust="spacing" textLength="118.5171" x="652.7266" y="504.4326">save(updatedModel)</text></g><g class="message" data-participant-1="Repo" data-participant-2="DB"><polygon fill="#181818" points="1547.084,536.9863,1557.084,540.9863,1547.084,544.9863,1551.084,540.9863" style="stroke:#181818;stroke-width:1;"/><line style="stroke:#181818;stroke-width:1;" x1="1162.2197" x2="1553.084" y1="540.9863" y2="540.9863"/><text fill="#000000" font-family="sans-serif" font-size="13" font-weight="bold" lengthAdjust="spacing" textLength="14.46" x="1169.2197" y="535.7236">10</text><text fill="#000000" font-family="sans-serif" font-size="13" lengthAdjust="spacing" textLength="188.5508" x="1187.6797" y="535.7236">UPDATE aircraft_models SET ...</text></g><g class="message" data-participant-1="DB" data-participant-2="Repo"><polygon fill="#181818" points="1173.2197,568.2773,1163.2197,572.2773,1173.2197,576.2773,1169.2197,572.2773" style="stroke:#181818;stroke-width:1;"/><line style="stroke:#181818;stroke-width:1;stroke-dasharray:2,2;" x1="1167.2197" x2="1563.084" y1="572.2773" y2="572.2773"/><text fill="#000000" font-family="sans-serif" font-size="13" font-weight="bold" lengthAdjust="spacing" textLength="14.46" x="1179.2197" y="567.0146">11</text><text fill="#000000" font-family="sans-serif" font-size="13" lengthAdjust="spacing" textLength="87.4517" x="1197.6797" y="567.0146">updated record</text></g><g class="message" data-participant-1="Repo" data-participant-2="UC"><polygon fill="#181818" points="645.4966,599.5684,635.4966,603.5684,645.4966,607.5684,641.4966,603.5684" style="stroke:#181818;stroke-width:1;"/><line style="stroke:#181818;stroke-width:1;stroke-dasharray:2,2;" x1="639.4966" x2="1156.2197" y1="603.5684" y2="603.5684"/><text fill="#000000" font-family="sans-serif" font-size="13" font-weight="bold" lengthAdjust="spacing" textLength="14.46" x="651.4966" y="598.3057">12</text><text fill="#000000" font-family="sans-serif" font-size="13" lengthAdjust="spacing" textLength="70.0972" x="669.9565" y="598.3057">savedModel</text></g><g class="message" data-participant-1="UC" data-participant-2="Ctrl"><polygon fill="#181818" points="430.4077,630.8594,420.4077,634.8594,430.4077,638.8594,426.4077,634.8594" style="stroke:#181818;stroke-width:1;"/><line style="stroke:#181818;stroke-width:1;stroke-dasharray:2,2;" x1="424.4077" x2="628.4966" y1="634.8594" y2="634.8594"/><text fill="#000000" font-family="sans-serif" font-size="13" font-weight="bold" lengthAdjust="spacing" textLength="14.46" x="436.4077" y="629.5967">13</text><text fill="#000000" font-family="sans-serif" font-size="13" lengthAdjust="spacing" textLength="70.0972" x="454.8677" y="629.5967">savedModel</text></g><g class="message" data-participant-1="Ctrl" data-participant-2="BO"><polygon fill="#181818" points="102.6479,662.1504,92.6479,666.1504,102.6479,670.1504,98.6479,666.1504" style="stroke:#181818;stroke-width:1;"/><line style="stroke:#181818;stroke-width:1;stroke-dasharray:2,2;" x1="96.6479" x2="413.4077" y1="666.1504" y2="666.1504"/><text fill="#000000" font-family="sans-serif" font-size="13" font-weight="bold" lengthAdjust="spacing" textLength="14.46" x="108.6479" y="660.8877">14</text><text fill="#000000" font-family="sans-serif" font-size="13" lengthAdjust="spacing" textLength="153.1753" x="127.1079" y="660.8877">200 OK (JSON Response)</text></g><!--SRC=[ZLFRYjim47ttLmnvIihcGXy3NOWlPMcRzP8B-r8eMdcSYBKbLv93bj9_xqXo4gUNqBn4biwSCtDcXhLMoRP-GHqnRfM6GSpugofBmH7o1ZMZo-cYg8KS03CGvr73j1LSD4nQ62o4vfgLTgaAh18bhLPLXTfZ4wkhQ_IsAPZ5gvXrWzni3IRCe8_Q9ZSKlifX9gsmRoEF3USR-1KsoWWguStZtMT4AR0NKeD1sftyMnf7KPp3-Dxd3NDuMcoI1vYoHanPnpck7QcP_l3_Zwp6dp3yjCuVHyuzSQ3YGjMHvo2kRK9CU4JUMXoUe-v0u_SMZUt5KTsHL7JGOhUte4gwcKDsj9eW1bpMK6fLGxh9oOOpGKGI9EHA8wbIo29-Mvw4Bf8z9Uz2v0CeC8qfR9rzoP8Dl8EFgtm9ftA_XNBX-I5RPI291Jx0cV52IDOHo_YI1Hw5iKBkg4okT14LsCTsqXTt0jWdtOU6F5LZGPGdmwX0h0e3J2EGMo3Rgeg0Vi65C114slf9yyCrB5iQJTOmJaztKBEZgDjwnUIE-i1rAmo94nABaMSwwtVJvI-lEnDUvf2gcWa91rO9aXDAWkAyrGRsg96QX9FTX3Jso5-T6rG6GQaCk8VPA11t6P_T28aNmGm7w1dI9OIo-AthXXrms8-ytUtjKxhOP7-qUPrjO3APtEXh9_5VRNKv5V_egKl-icX_Hxfz25j4I5hCERoVpI3_71QEY4oZfA6vxiKu_2y0]--></g></svg>