<?plantuml 1.2026.2?><svg xmlns="http://www.w3.org/2000/svg" xmlns:xlink="http://www.w3.org/1999/xlink" contentStyleType="text/css" data-diagram-type="SEQUENCE" height="1273px" preserveAspectRatio="none" style="width:1475px;height:1273px;background:#FFFFFF;" version="1.1" viewBox="0 0 1475 1273" width="1475px" zoomAndPan="magnify"><defs/><g><g><title>ScheduledFlightController</title><rect fill="#FFFFFF" height="1055.5547" style="stroke:#181818;stroke-width:1;" width="10" x="265.3613" y="116.9121"/></g><g><title>CreateScheduledFlightUseCase</title><rect fill="#FFFFFF" height="992.9727" style="stroke:#181818;stroke-width:1;" width="10" x="469.9053" y="148.2031"/></g><g><title>RouteRepository</title><rect fill="#FFFFFF" height="93.873" style="stroke:#181818;stroke-width:1;" width="10" x="829.4268" y="179.4941"/></g><g><title>AircraftGateway</title><rect fill="#FFFFFF" height="31.291" style="stroke:#181818;stroke-width:1;" width="10" x="955.3574" y="403.5313"/></g><g><title>ScheduledFlightRepository</title><rect fill="#FFFFFF" height="128.4551" style="stroke:#181818;stroke-width:1;" width="10" x="1112.8086" y="663.8594"/></g><g><title>ScheduledFlightRepository</title><rect fill="#FFFFFF" height="93.873" style="stroke:#181818;stroke-width:1;" width="10" x="1112.8086" y="1016.0117"/></g><g><title>ScheduledFlight</title><rect fill="#FFFFFF" height="52.2422" style="stroke:#181818;stroke-width:1;" width="10" x="1274.1631" y="932.4785"/></g><g><title>Database</title><rect fill="#FFFFFF" height="31.291" style="stroke:#181818;stroke-width:1;" width="10" x="1435.5537" y="210.7852"/></g><g><title>Database</title><rect fill="#FFFFFF" height="31.291" style="stroke:#181818;stroke-width:1;" width="10" x="1435.5537" y="729.7324"/></g><g><title>Database</title><rect fill="#FFFFFF" height="31.291" style="stroke:#181818;stroke-width:1;" width="10" x="1435.5537" y="1047.3027"/></g><g class="participant-lifeline" data-entity-uid="part1" data-qualified-name="ATCC" id="part1-lifeline"><g><title>ATCC</title><rect fill="#000000" fill-opacity="0.00000" height="1106.8457" width="8" x="23.0552" y="83.6211"/><line style="stroke:#181818;stroke-width:0.5;stroke-dasharray:5,5;" x1="27" x2="27" y1="83.6211" y2="1190.4668"/></g></g><g class="participant-lifeline" data-entity-uid="part2" data-qualified-name="Ctrl" id="part2-lifeline"><g><title>ScheduledFlightController</title><rect fill="#000000" fill-opacity="0.00000" height="1106.8457" width="8" x="266.3613" y="83.6211"/><line style="stroke:#181818;stroke-width:0.5;stroke-dasharray:5,5;" x1="269.8169" x2="269.8169" y1="83.6211" y2="1190.4668"/></g></g><g class="participant-lifeline" data-entity-uid="part3" data-qualified-name="UC" id="part3-lifeline"><g><title>CreateScheduledFlightUseCase</title><rect fill="#000000" fill-opacity="0.00000" height="1106.8457" width="8" x="470.9053" y="83.6211"/><line style="stroke:#181818;stroke-width:0.5;stroke-dasharray:5,5;" x1="473.9058" x2="473.9058" y1="83.6211" y2="1190.4668"/></g></g><g class="participant-lifeline" data-entity-uid="part4" data-qualified-name="RouteRepo" id="part4-lifeline"><g><title>RouteRepository</title><rect fill="#000000" fill-opacity="0.00000" height="1106.8457" width="8" x="830.4268" y="83.6211"/><line style="stroke:#181818;stroke-width:0.5;stroke-dasharray:5,5;" x1="834.2891" x2="834.2891" y1="83.6211" y2="1190.4668"/></g></g><g class="participant-lifeline" data-entity-uid="part5" data-qualified-name="Gateway" id="part5-lifeline"><g><title>AircraftGateway</title><rect fill="#000000" fill-opacity="0.00000" height="1106.8457" width="8" x="956.3574" y="83.6211"/><line style="stroke:#181818;stroke-width:0.5;stroke-dasharray:5,5;" x1="959.5645" x2="959.5645" y1="83.6211" y2="1190.4668"/></g></g><g class="participant-lifeline" data-entity-uid="part6" data-qualified-name="SFRepo" id="part6-lifeline"><g><title>ScheduledFlightRepository</title><rect fill="#000000" fill-opacity="0.00000" height="1106.8457" width="8" x="1113.8086" y="83.6211"/><line style="stroke:#181818;stroke-width:0.5;stroke-dasharray:5,5;" x1="1117.1504" x2="1117.1504" y1="83.6211" y2="1190.4668"/></g></g><g class="participant-lifeline" data-entity-uid="part7" data-qualified-name="SF" id="part7-lifeline"><g><title>ScheduledFlight</title><rect fill="#000000" fill-opacity="0.00000" height="250.1582" width="8" x="1275.1631" y="940.3086"/><line style="stroke:#181818;stroke-width:0.5;stroke-dasharray:5,5;" x1="1278.4668" x2="1278.4668" y1="940.3086" y2="1190.4668"/></g></g><g class="participant-lifeline" data-entity-uid="part8" data-qualified-name="DB" id="part8-lifeline"><g><title>Database</title><rect fill="#000000" fill-opacity="0.00000" height="1106.8457" width="8" x="1436.5537" y="83.6211"/><line style="stroke:#181818;stroke-width:0.5;stroke-dasharray:5,5;" x1="1439.5884" x2="1439.5884" y1="83.6211" y2="1190.4668"/></g></g><g class="participant participant-head" data-entity-uid="part1" data-qualified-name="ATCC" id="part1-head"><text fill="#000000" font-family="sans-serif" font-size="14" lengthAdjust="spacing" textLength="38.1104" x="5" y="80.1074">ATCC</text><ellipse cx="27.0552" cy="13.5" fill="#E2E2F0" rx="8" ry="8" style="stroke:#181818;stroke-width:0.5;"/><path d="M27.0552,21.5 L27.0552,48.5 M14.0552,29.5 L40.0552,29.5 M27.0552,48.5 L14.0552,63.5 M27.0552,48.5 L40.0552,63.5" fill="none" style="stroke:#181818;stroke-width:0.5;"/></g><g class="participant participant-tail" data-entity-uid="part1" data-qualified-name="ATCC" id="part1-tail"><text fill="#000000" font-family="sans-serif" font-size="14" lengthAdjust="spacing" textLength="38.1104" x="5" y="1204.5742">ATCC</text><ellipse cx="27.0552" cy="1216.5879" fill="#E2E2F0" rx="8" ry="8" style="stroke:#181818;stroke-width:0.5;"/><path d="M27.0552,1224.5879 L27.0552,1251.5879 M14.0552,1232.5879 L40.0552,1232.5879 M27.0552,1251.5879 L14.0552,1266.5879 M27.0552,1251.5879 L40.0552,1266.5879" fill="none" style="stroke:#181818;stroke-width:0.5;"/></g><g class="participant participant-head" data-entity-uid="part2" data-qualified-name="Ctrl" id="part2-head"><rect fill="#E2E2F0" height="32.6211" rx="2.5" ry="2.5" style="stroke:#181818;stroke-width:0.5;" width="175.0889" x="182.8169" y="50"/><text fill="#000000" font-family="sans-serif" font-size="14" lengthAdjust="spacing" textLength="161.0889" x="189.8169" y="72.1074">ScheduledFlightController</text></g><g class="participant participant-tail" data-entity-uid="part2" data-qualified-name="Ctrl" id="part2-tail"><rect fill="#E2E2F0" height="32.6211" rx="2.5" ry="2.5" style="stroke:#181818;stroke-width:0.5;" width="175.0889" x="182.8169" y="1189.4668"/><text fill="#000000" font-family="sans-serif" font-size="14" lengthAdjust="spacing" textLength="161.0889" x="189.8169" y="1211.5742">ScheduledFlightController</text></g><g class="participant participant-head" data-entity-uid="part3" data-qualified-name="UC" id="part3-head"><rect fill="#E2E2F0" height="32.6211" rx="2.5" ry="2.5" style="stroke:#181818;stroke-width:0.5;" width="213.999" x="367.9058" y="50"/><text fill="#000000" font-family="sans-serif" font-size="14" lengthAdjust="spacing" textLength="199.999" x="374.9058" y="72.1074">CreateScheduledFlightUseCase</text></g><g class="participant participant-tail" data-entity-uid="part3" data-qualified-name="UC" id="part3-tail"><rect fill="#E2E2F0" height="32.6211" rx="2.5" ry="2.5" style="stroke:#181818;stroke-width:0.5;" width="213.999" x="367.9058" y="1189.4668"/><text fill="#000000" font-family="sans-serif" font-size="14" lengthAdjust="spacing" textLength="199.999" x="374.9058" y="1211.5742">CreateScheduledFlightUseCase</text></g><g class="participant participant-head" data-entity-uid="part4" data-qualified-name="RouteRepo" id="part4-head"><rect fill="#E2E2F0" height="32.6211" rx="2.5" ry="2.5" style="stroke:#181818;stroke-width:0.5;" width="118.2754" x="775.2891" y="50"/><text fill="#000000" font-family="sans-serif" font-size="14" lengthAdjust="spacing" textLength="104.2754" x="782.2891" y="72.1074">RouteRepository</text></g><g class="participant participant-tail" data-entity-uid="part4" data-qualified-name="RouteRepo" id="part4-tail"><rect fill="#E2E2F0" height="32.6211" rx="2.5" ry="2.5" style="stroke:#181818;stroke-width:0.5;" width="118.2754" x="775.2891" y="1189.4668"/><text fill="#000000" font-family="sans-serif" font-size="14" lengthAdjust="spacing" textLength="104.2754" x="782.2891" y="1211.5742">RouteRepository</text></g><g class="participant participant-head" data-entity-uid="part5" data-qualified-name="Gateway" id="part5-head"><rect fill="#E2E2F0" height="32.6211" rx="2.5" ry="2.5" style="stroke:#181818;stroke-width:0.5;" width="113.5859" x="903.5645" y="50"/><text fill="#000000" font-family="sans-serif" font-size="14" lengthAdjust="spacing" textLength="99.5859" x="910.5645" y="72.1074">AircraftGateway</text></g><g class="participant participant-tail" data-entity-uid="part5" data-qualified-name="Gateway" id="part5-tail"><rect fill="#E2E2F0" height="32.6211" rx="2.5" ry="2.5" style="stroke:#181818;stroke-width:0.5;" width="113.5859" x="903.5645" y="1189.4668"/><text fill="#000000" font-family="sans-serif" font-size="14" lengthAdjust="spacing" textLength="99.5859" x="910.5645" y="1211.5742">AircraftGateway</text></g><g class="participant participant-head" data-entity-uid="part6" data-qualified-name="SFRepo" id="part6-head"><rect fill="#E2E2F0" height="32.6211" rx="2.5" ry="2.5" style="stroke:#181818;stroke-width:0.5;" width="181.3164" x="1027.1504" y="50"/><text fill="#000000" font-family="sans-serif" font-size="14" lengthAdjust="spacing" textLength="167.3164" x="1034.1504" y="72.1074">ScheduledFlightRepository</text></g><g class="participant participant-tail" data-entity-uid="part6" data-qualified-name="SFRepo" id="part6-tail"><rect fill="#E2E2F0" height="32.6211" rx="2.5" ry="2.5" style="stroke:#181818;stroke-width:0.5;" width="181.3164" x="1027.1504" y="1189.4668"/><text fill="#000000" font-family="sans-serif" font-size="14" lengthAdjust="spacing" textLength="167.3164" x="1034.1504" y="1211.5742">ScheduledFlightRepository</text></g><g class="participant participant-tail" data-entity-uid="part7" data-qualified-name="SF" id="part7-tail"><rect fill="#E2E2F0" height="51.2422" rx="2.5" ry="2.5" style="stroke:#181818;stroke-width:0.5;" width="121.3926" x="1218.4668" y="1189.4668"/><text fill="#000000" font-family="sans-serif" font-size="14" lengthAdjust="spacing" textLength="100.3994" x="1228.9634" y="1211.5742">ScheduledFlight</text><text fill="#000000" font-family="sans-serif" font-size="14" lengthAdjust="spacing" textLength="107.3926" x="1225.4668" y="1230.1953">(Aggregate Root)</text></g><g class="participant participant-head" data-entity-uid="part8" data-qualified-name="DB" id="part8-head"><text fill="#000000" font-family="sans-serif" font-size="14" lengthAdjust="spacing" textLength="59.9307" x="1407.5884" y="80.1074">Database</text><path d="M1422.5537,29 C1422.5537,19 1440.5537,19 1440.5537,19 C1440.5537,19 1458.5537,19 1458.5537,29 L1458.5537,55 C1458.5537,65 1440.5537,65 1440.5537,65 C1440.5537,65 1422.5537,65 1422.5537,55 L1422.5537,29" fill="#E2E2F0" style="stroke:#181818;stroke-width:0.5;"/><path d="M1422.5537,29 C1422.5537,39 1440.5537,39 1440.5537,39 C1440.5537,39 1458.5537,39 1458.5537,29" fill="none" style="stroke:#181818;stroke-width:0.5;"/></g><g class="participant participant-tail" data-entity-uid="part8" data-qualified-name="DB" id="part8-tail"><text fill="#000000" font-family="sans-serif" font-size="14" lengthAdjust="spacing" textLength="59.9307" x="1407.5884" y="1204.5742">Database</text><path d="M1422.5537,1218.0879 C1422.5537,1208.0879 1440.5537,1208.0879 1440.5537,1208.0879 C1440.5537,1208.0879 1458.5537,1208.0879 1458.5537,1218.0879 L1458.5537,1244.0879 C1458.5537,1254.0879 1440.5537,1254.0879 1440.5537,1254.0879 C1440.5537,1254.0879 1422.5537,1254.0879 1422.5537,1244.0879 L1422.5537,1218.0879" fill="#E2E2F0" style="stroke:#181818;stroke-width:0.5;"/><path d="M1422.5537,1218.0879 C1422.5537,1228.0879 1440.5537,1228.0879 1440.5537,1228.0879 C1440.5537,1228.0879 1458.5537,1228.0879 1458.5537,1218.0879" fill="none" style="stroke:#181818;stroke-width:0.5;"/></g><g><title>ScheduledFlightController</title><rect fill="#FFFFFF" height="1055.5547" style="stroke:#181818;stroke-width:1;" width="10" x="265.3613" y="116.9121"/></g><g><title>CreateScheduledFlightUseCase</title><rect fill="#FFFFFF" height="992.9727" style="stroke:#181818;stroke-width:1;" width="10" x="469.9053" y="148.2031"/></g><g><title>RouteRepository</title><rect fill="#FFFFFF" height="93.873" style="stroke:#181818;stroke-width:1;" width="10" x="829.4268" y="179.4941"/></g><g><title>AircraftGateway</title><rect fill="#FFFFFF" height="31.291" style="stroke:#181818;stroke-width:1;" width="10" x="955.3574" y="403.5313"/></g><g><title>ScheduledFlightRepository</title><rect fill="#FFFFFF" height="128.4551" style="stroke:#181818;stroke-width:1;" width="10" x="1112.8086" y="663.8594"/></g><g><title>ScheduledFlightRepository</title><rect fill="#FFFFFF" height="93.873" style="stroke:#181818;stroke-width:1;" width="10" x="1112.8086" y="1016.0117"/></g><g><title>ScheduledFlight</title><rect fill="#FFFFFF" height="52.2422" style="stroke:#181818;stroke-width:1;" width="10" x="1274.1631" y="932.4785"/></g><g><title>Database</title><rect fill="#FFFFFF" height="31.291" style="stroke:#181818;stroke-width:1;" width="10" x="1435.5537" y="210.7852"/></g><g><title>Database</title><rect fill="#FFFFFF" height="31.291" style="stroke:#181818;stroke-width:1;" width="10" x="1435.5537" y="729.7324"/></g><g><title>Database</title><rect fill="#FFFFFF" height="31.291" style="stroke:#181818;stroke-width:1;" width="10" x="1435.5537" y="1047.3027"/></g><g class="message" data-entity-1="part1" data-entity-2="part2" id="msg1"><polygon fill="#181818" points="253.3613,112.9121,263.3613,116.9121,253.3613,120.9121,257.3613,116.9121" style="stroke:#181818;stroke-width:1;"/><line style="stroke:#181818;stroke-width:1;" x1="27.0552" x2="259.3613" y1="116.9121" y2="116.9121"/><text fill="#000000" font-family="sans-serif" font-size="13" font-weight="bold" lengthAdjust="spacing" textLength="7.23" x="34.0552" y="111.6494">1</text><text fill="#000000" font-family="sans-serif" font-size="13" lengthAdjust="spacing" textLength="208.0762" x="45.2852" y="111.6494">POST /api/scheduled-flights (JSON)</text></g><g class="message" data-entity-1="part2" data-entity-2="part3" id="msg2"><polygon fill="#181818" points="457.9053,144.2031,467.9053,148.2031,457.9053,152.2031,461.9053,148.2031" style="stroke:#181818;stroke-width:1;"/><line style="stroke:#181818;stroke-width:1;" x1="275.3613" x2="463.9053" y1="148.2031" y2="148.2031"/><text fill="#000000" font-family="sans-serif" font-size="13" font-weight="bold" lengthAdjust="spacing" textLength="7.23" x="282.3613" y="142.9404">2</text><text fill="#000000" font-family="sans-serif" font-size="13" lengthAdjust="spacing" textLength="97.5508" x="293.5913" y="142.9404">execute(request)</text></g><g class="message" data-entity-1="part3" data-entity-2="part4" id="msg3"><polygon fill="#181818" points="817.4268,175.4941,827.4268,179.4941,817.4268,183.4941,821.4268,179.4941" style="stroke:#181818;stroke-width:1;"/><line style="stroke:#181818;stroke-width:1;" x1="479.9053" x2="823.4268" y1="179.4941" y2="179.4941"/><text fill="#000000" font-family="sans-serif" font-size="13" font-weight="bold" lengthAdjust="spacing" textLength="7.23" x="486.9053" y="174.2314">3</text><text fill="#000000" font-family="sans-serif" font-size="13" lengthAdjust="spacing" textLength="130.7935" x="498.1353" y="174.2314">findByRouteId(routeId)</text></g><g class="message" data-entity-1="part4" data-entity-2="part8" id="msg4"><polygon fill="#181818" points="1423.5537,206.7852,1433.5537,210.7852,1423.5537,214.7852,1427.5537,210.7852" style="stroke:#181818;stroke-width:1;"/><line style="stroke:#181818;stroke-width:1;" x1="839.4268" x2="1429.5537" y1="210.7852" y2="210.7852"/><text fill="#000000" font-family="sans-serif" font-size="13" font-weight="bold" lengthAdjust="spacing" textLength="7.23" x="846.4268" y="205.5225">4</text><text fill="#000000" font-family="sans-serif" font-size="13" lengthAdjust="spacing" textLength="265.5034" x="857.6567" y="205.5225">SELECT * FROM routes WHERE route_id = ?</text></g><g class="message" data-entity-1="part8" data-entity-2="part4" id="msg5"><polygon fill="#181818" points="850.4268,238.0762,840.4268,242.0762,850.4268,246.0762,846.4268,242.0762" style="stroke:#181818;stroke-width:1;"/><line style="stroke:#181818;stroke-width:1;stroke-dasharray:2,2;" x1="844.4268" x2="1439.5537" y1="242.0762" y2="242.0762"/><text fill="#000000" font-family="sans-serif" font-size="13" font-weight="bold" lengthAdjust="spacing" textLength="7.23" x="856.4268" y="236.8135">5</text><text fill="#000000" font-family="sans-serif" font-size="13" lengthAdjust="spacing" textLength="29.6309" x="867.6567" y="236.8135">route</text></g><g class="message" data-entity-1="part4" data-entity-2="part3" id="msg6"><polygon fill="#181818" points="490.9053,269.3672,480.9053,273.3672,490.9053,277.3672,486.9053,273.3672" style="stroke:#181818;stroke-width:1;"/><line style="stroke:#181818;stroke-width:1;stroke-dasharray:2,2;" x1="484.9053" x2="833.4268" y1="273.3672" y2="273.3672"/><text fill="#000000" font-family="sans-serif" font-size="13" font-weight="bold" lengthAdjust="spacing" textLength="7.23" x="496.9053" y="268.1045">6</text><text fill="#000000" font-family="sans-serif" font-size="13" lengthAdjust="spacing" textLength="29.6309" x="508.1353" y="268.1045">route</text></g><g class="message" data-entity-1="part3" data-entity-2="part3" id="msg7"><line style="stroke:#181818;stroke-width:1;" x1="479.9053" x2="521.9053" y1="304.6582" y2="304.6582"/><line style="stroke:#181818;stroke-width:1;" x1="521.9053" x2="521.9053" y1="304.6582" y2="317.6582"/><line style="stroke:#181818;stroke-width:1;" x1="480.9053" x2="521.9053" y1="317.6582" y2="317.6582"/><polygon fill="#181818" points="490.9053,313.6582,480.9053,317.6582,490.9053,321.6582,486.9053,317.6582" style="stroke:#181818;stroke-width:1;"/><text fill="#000000" font-family="sans-serif" font-size="13" font-weight="bold" lengthAdjust="spacing" textLength="7.23" x="486.9053" y="299.3955">7</text><text fill="#000000" font-family="sans-serif" font-size="13" lengthAdjust="spacing" textLength="121.3608" x="498.1353" y="299.3955">verify route.isActive()</text></g><path d="M484,330.6582 L484,374.6582 L672,374.6582 L672,340.6582 L662,330.6582 L484,330.6582" fill="#FEFFDD" style="stroke:#181818;stroke-width:0.5;"/><path d="M662,330.6582 L662,340.6582 L672,340.6582 L662,330.6582" fill="#FEFFDD" style="stroke:#181818;stroke-width:0.5;"/><text fill="#000000" font-family="sans-serif" font-size="13" lengthAdjust="spacing" textLength="167.6416" x="490" y="349.6865">Throws IllegalStateException</text><text fill="#000000" font-family="sans-serif" font-size="13" lengthAdjust="spacing" textLength="111.998" x="490" y="366.9775">if route is not active</text><g class="message" data-entity-1="part3" data-entity-2="part5" id="msg8"><polygon fill="#181818" points="943.3574,399.5313,953.3574,403.5313,943.3574,407.5313,947.3574,403.5313" style="stroke:#181818;stroke-width:1;"/><line style="stroke:#181818;stroke-width:1;" x1="479.9053" x2="949.3574" y1="403.5313" y2="403.5313"/><text fill="#000000" font-family="sans-serif" font-size="13" font-weight="bold" lengthAdjust="spacing" textLength="7.23" x="486.9053" y="398.2686">8</text><text fill="#000000" font-family="sans-serif" font-size="13" lengthAdjust="spacing" textLength="223.2534" x="498.1353" y="398.2686">findByRegistration(aircraftRegistration)</text></g><g class="message" data-entity-1="part5" data-entity-2="part3" id="msg9"><polygon fill="#181818" points="490.9053,430.8223,480.9053,434.8223,490.9053,438.8223,486.9053,434.8223" style="stroke:#181818;stroke-width:1;"/><line style="stroke:#181818;stroke-width:1;stroke-dasharray:2,2;" x1="484.9053" x2="959.3574" y1="434.8223" y2="434.8223"/><text fill="#000000" font-family="sans-serif" font-size="13" font-weight="bold" lengthAdjust="spacing" textLength="7.23" x="496.9053" y="429.5596">9</text><text fill="#000000" font-family="sans-serif" font-size="13" lengthAdjust="spacing" textLength="268.7915" x="508.1353" y="429.5596">AircraftInfo(maxRangeKm, underMaintenance)</text></g><g class="message" data-entity-1="part3" data-entity-2="part3" id="msg10"><line style="stroke:#181818;stroke-width:1;" x1="479.9053" x2="521.9053" y1="466.1133" y2="466.1133"/><line style="stroke:#181818;stroke-width:1;" x1="521.9053" x2="521.9053" y1="466.1133" y2="479.1133"/><line style="stroke:#181818;stroke-width:1;" x1="480.9053" x2="521.9053" y1="479.1133" y2="479.1133"/><polygon fill="#181818" points="490.9053,475.1133,480.9053,479.1133,490.9053,483.1133,486.9053,479.1133" style="stroke:#181818;stroke-width:1;"/><text fill="#000000" font-family="sans-serif" font-size="13" font-weight="bold" lengthAdjust="spacing" textLength="14.46" x="486.9053" y="460.8506">10</text><text fill="#000000" font-family="sans-serif" font-size="13" lengthAdjust="spacing" textLength="307.0615" x="505.3652" y="460.8506">verify aircraft.maxRangeKm &gt;= route.minimumRange</text></g><path d="M484,492.1133 L484,536.1133 L698,536.1133 L698,502.1133 L688,492.1133 L484,492.1133" fill="#FEFFDD" style="stroke:#181818;stroke-width:0.5;"/><path d="M688,492.1133 L688,502.1133 L698,502.1133 L688,492.1133" fill="#FEFFDD" style="stroke:#181818;stroke-width:0.5;"/><text fill="#000000" font-family="sans-serif" font-size="13" lengthAdjust="spacing" textLength="193.6479" x="490" y="511.1416">Throws IllegalArgumentException</text><text fill="#000000" font-family="sans-serif" font-size="13" lengthAdjust="spacing" textLength="121.3926" x="490" y="528.4326">if range is insufficient</text><g class="message" data-entity-1="part3" data-entity-2="part3" id="msg11"><line style="stroke:#181818;stroke-width:1;" x1="479.9053" x2="521.9053" y1="564.9863" y2="564.9863"/><line style="stroke:#181818;stroke-width:1;" x1="521.9053" x2="521.9053" y1="564.9863" y2="577.9863"/><line style="stroke:#181818;stroke-width:1;" x1="480.9053" x2="521.9053" y1="577.9863" y2="577.9863"/><polygon fill="#181818" points="490.9053,573.9863,480.9053,577.9863,490.9053,581.9863,486.9053,577.9863" style="stroke:#181818;stroke-width:1;"/><text fill="#000000" font-family="sans-serif" font-size="13" font-weight="bold" lengthAdjust="spacing" textLength="14.46" x="486.9053" y="559.7236">11</text><text fill="#000000" font-family="sans-serif" font-size="13" lengthAdjust="spacing" textLength="197.9707" x="505.3652" y="559.7236">verify !aircraft.underMaintenance()</text></g><path d="M484,590.9863 L484,634.9863 L682,634.9863 L682,600.9863 L672,590.9863 L484,590.9863" fill="#FEFFDD" style="stroke:#181818;stroke-width:0.5;"/><path d="M672,590.9863 L672,600.9863 L682,600.9863 L672,590.9863" fill="#FEFFDD" style="stroke:#181818;stroke-width:0.5;"/><text fill="#000000" font-family="sans-serif" font-size="13" lengthAdjust="spacing" textLength="167.6416" x="490" y="610.0146">Throws IllegalStateException</text><text fill="#000000" font-family="sans-serif" font-size="13" lengthAdjust="spacing" textLength="177.7534" x="490" y="627.3057">if aircraft is under maintenance</text><g class="message" data-entity-1="part3" data-entity-2="part6" id="msg12"><polygon fill="#181818" points="1100.8086,659.8594,1110.8086,663.8594,1100.8086,667.8594,1104.8086,663.8594" style="stroke:#181818;stroke-width:1;"/><line style="stroke:#181818;stroke-width:1;" x1="479.9053" x2="1106.8086" y1="663.8594" y2="663.8594"/><text fill="#000000" font-family="sans-serif" font-size="13" font-weight="bold" lengthAdjust="spacing" textLength="14.46" x="486.9053" y="658.5967">12</text><text fill="#000000" font-family="sans-serif" font-size="13" lengthAdjust="spacing" textLength="562.8848" x="505.3652" y="658.5967">findByAircraftRegistrationAndScheduledDateTimeBetween(registration, windowStart, windowEnd)</text></g><g class="message" data-entity-1="part6" data-entity-2="part8" id="msg13"><polygon fill="#181818" points="1423.5537,725.7324,1433.5537,729.7324,1423.5537,733.7324,1427.5537,729.7324" style="stroke:#181818;stroke-width:1;"/><line style="stroke:#181818;stroke-width:1;" x1="1122.8086" x2="1429.5537" y1="729.7324" y2="729.7324"/><text fill="#000000" font-family="sans-serif" font-size="13" font-weight="bold" lengthAdjust="spacing" textLength="14.46" x="1129.8086" y="707.1787">13</text><text fill="#000000" font-family="sans-serif" font-size="13" lengthAdjust="spacing" textLength="205.1943" x="1148.2686" y="689.8877">SELECT * FROM scheduled_flights</text><text fill="#000000" font-family="sans-serif" font-size="13" lengthAdjust="spacing" textLength="185.3135" x="1148.2686" y="707.1787">WHERE aircraft_registration = ?</text><text fill="#000000" font-family="sans-serif" font-size="13" lengthAdjust="spacing" textLength="275.2852" x="1148.2686" y="724.4697">AND scheduled_date_time BETWEEN ? AND ?</text></g><g class="message" data-entity-1="part8" data-entity-2="part6" id="msg14"><polygon fill="#181818" points="1133.8086,757.0234,1123.8086,761.0234,1133.8086,765.0234,1129.8086,761.0234" style="stroke:#181818;stroke-width:1;"/><line style="stroke:#181818;stroke-width:1;stroke-dasharray:2,2;" x1="1127.8086" x2="1439.5537" y1="761.0234" y2="761.0234"/><text fill="#000000" font-family="sans-serif" font-size="13" font-weight="bold" lengthAdjust="spacing" textLength="14.46" x="1139.8086" y="755.7607">14</text><text fill="#000000" font-family="sans-serif" font-size="13" lengthAdjust="spacing" textLength="66.46" x="1158.2686" y="755.7607">conflicts list</text></g><g class="message" data-entity-1="part6" data-entity-2="part3" id="msg15"><polygon fill="#181818" points="490.9053,788.3145,480.9053,792.3145,490.9053,796.3145,486.9053,792.3145" style="stroke:#181818;stroke-width:1;"/><line style="stroke:#181818;stroke-width:1;stroke-dasharray:2,2;" x1="484.9053" x2="1116.8086" y1="792.3145" y2="792.3145"/><text fill="#000000" font-family="sans-serif" font-size="13" font-weight="bold" lengthAdjust="spacing" textLength="14.46" x="496.9053" y="787.0518">15</text><text fill="#000000" font-family="sans-serif" font-size="13" lengthAdjust="spacing" textLength="128.6416" x="515.3652" y="787.0518">List&lt;ScheduledFlight&gt;</text></g><g class="message" data-entity-1="part3" data-entity-2="part3" id="msg16"><line style="stroke:#181818;stroke-width:1;" x1="479.9053" x2="521.9053" y1="823.6055" y2="823.6055"/><line style="stroke:#181818;stroke-width:1;" x1="521.9053" x2="521.9053" y1="823.6055" y2="836.6055"/><line style="stroke:#181818;stroke-width:1;" x1="480.9053" x2="521.9053" y1="836.6055" y2="836.6055"/><polygon fill="#181818" points="490.9053,832.6055,480.9053,836.6055,490.9053,840.6055,486.9053,836.6055" style="stroke:#181818;stroke-width:1;"/><text fill="#000000" font-family="sans-serif" font-size="13" font-weight="bold" lengthAdjust="spacing" textLength="14.46" x="486.9053" y="818.3428">16</text><text fill="#000000" font-family="sans-serif" font-size="13" lengthAdjust="spacing" textLength="140.1309" x="505.3652" y="818.3428">verify conflicts.isEmpty()</text></g><path d="M484,849.6055 L484,893.6055 L749,893.6055 L749,859.6055 L739,849.6055 L484,849.6055" fill="#FEFFDD" style="stroke:#181818;stroke-width:0.5;"/><path d="M739,849.6055 L739,859.6055 L749,859.6055 L739,849.6055" fill="#FEFFDD" style="stroke:#181818;stroke-width:0.5;"/><text fill="#000000" font-family="sans-serif" font-size="13" lengthAdjust="spacing" textLength="167.6416" x="490" y="868.6338">Throws IllegalStateException</text><text fill="#000000" font-family="sans-serif" font-size="13" lengthAdjust="spacing" textLength="244.9561" x="490" y="885.9248">if aircraft already has a flight in the window</text><g class="message" data-entity-1="part3" data-entity-2="part7" id="msg17"><polygon fill="#181818" points="1206.4668,918.4785,1216.4668,922.4785,1206.4668,926.4785,1210.4668,922.4785" style="stroke:#181818;stroke-width:1;"/><line style="stroke:#181818;stroke-width:1;" x1="479.9053" x2="1212.4668" y1="922.4785" y2="922.4785"/><text fill="#000000" font-family="sans-serif" font-size="13" font-weight="bold" lengthAdjust="spacing" textLength="14.46" x="486.9053" y="917.2158">17</text><text fill="#000000" font-family="sans-serif" font-size="13" lengthAdjust="spacing" textLength="408.9795" x="505.3652" y="917.2158">new ScheduledFlight(routeId, aircraftRegistration, scheduledDateTime)</text></g><rect fill="#E2E2F0" height="51.2422" rx="2.5" ry="2.5" style="stroke:#181818;stroke-width:0.5;" width="121.3926" x="1218.4668" y="899.1875"/><text fill="#000000" font-family="sans-serif" font-size="14" lengthAdjust="spacing" textLength="100.3994" x="1228.9634" y="921.2949">ScheduledFlight</text><text fill="#000000" font-family="sans-serif" font-size="14" lengthAdjust="spacing" textLength="107.3926" x="1225.4668" y="939.916">(Aggregate Root)</text><g class="message" data-entity-1="part7" data-entity-2="part3" id="msg19"><polygon fill="#181818" points="490.9053,980.7207,480.9053,984.7207,490.9053,988.7207,486.9053,984.7207" style="stroke:#181818;stroke-width:1;"/><line style="stroke:#181818;stroke-width:1;stroke-dasharray:2,2;" x1="484.9053" x2="1278.1631" y1="984.7207" y2="984.7207"/><text fill="#000000" font-family="sans-serif" font-size="13" font-weight="bold" lengthAdjust="spacing" textLength="14.46" x="496.9053" y="979.458">18</text><text fill="#000000" font-family="sans-serif" font-size="13" lengthAdjust="spacing" textLength="91.0571" x="515.3652" y="979.458">scheduledFlight</text></g><g class="message" data-entity-1="part3" data-entity-2="part6" id="msg20"><polygon fill="#181818" points="1100.8086,1012.0117,1110.8086,1016.0117,1100.8086,1020.0117,1104.8086,1016.0117" style="stroke:#181818;stroke-width:1;"/><line style="stroke:#181818;stroke-width:1;" x1="479.9053" x2="1106.8086" y1="1016.0117" y2="1016.0117"/><text fill="#000000" font-family="sans-serif" font-size="13" font-weight="bold" lengthAdjust="spacing" textLength="14.46" x="486.9053" y="1010.749">19</text><text fill="#000000" font-family="sans-serif" font-size="13" lengthAdjust="spacing" textLength="127.1753" x="505.3652" y="1010.749">save(scheduledFlight)</text></g><g class="message" data-entity-1="part6" data-entity-2="part8" id="msg21"><polygon fill="#181818" points="1423.5537,1043.3027,1433.5537,1047.3027,1423.5537,1051.3027,1427.5537,1047.3027" style="stroke:#181818;stroke-width:1;"/><line style="stroke:#181818;stroke-width:1;" x1="1122.8086" x2="1429.5537" y1="1047.3027" y2="1047.3027"/><text fill="#000000" font-family="sans-serif" font-size="13" font-weight="bold" lengthAdjust="spacing" textLength="14.46" x="1129.8086" y="1042.04">20</text><text fill="#000000" font-family="sans-serif" font-size="13" lengthAdjust="spacing" textLength="209.5107" x="1148.2686" y="1042.04">INSERT INTO scheduled_flights (...)</text></g><g class="message" data-entity-1="part8" data-entity-2="part6" id="msg22"><polygon fill="#181818" points="1133.8086,1074.5938,1123.8086,1078.5938,1133.8086,1082.5938,1129.8086,1078.5938" style="stroke:#181818;stroke-width:1;"/><line style="stroke:#181818;stroke-width:1;stroke-dasharray:2,2;" x1="1127.8086" x2="1439.5537" y1="1078.5938" y2="1078.5938"/><text fill="#000000" font-family="sans-serif" font-size="13" font-weight="bold" lengthAdjust="spacing" textLength="14.46" x="1139.8086" y="1073.3311">21</text><text fill="#000000" font-family="sans-serif" font-size="13" lengthAdjust="spacing" textLength="75.1499" x="1158.2686" y="1073.3311">saved record</text></g><g class="message" data-entity-1="part6" data-entity-2="part3" id="msg23"><polygon fill="#181818" points="490.9053,1105.8848,480.9053,1109.8848,490.9053,1113.8848,486.9053,1109.8848" style="stroke:#181818;stroke-width:1;"/><line style="stroke:#181818;stroke-width:1;stroke-dasharray:2,2;" x1="484.9053" x2="1116.8086" y1="1109.8848" y2="1109.8848"/><text fill="#000000" font-family="sans-serif" font-size="13" font-weight="bold" lengthAdjust="spacing" textLength="14.46" x="496.9053" y="1104.6221">22</text><text fill="#000000" font-family="sans-serif" font-size="13" lengthAdjust="spacing" textLength="127.918" x="515.3652" y="1104.6221">savedScheduledFlight</text></g><g class="message" data-entity-1="part3" data-entity-2="part2" id="msg24"><polygon fill="#181818" points="286.3613,1137.1758,276.3613,1141.1758,286.3613,1145.1758,282.3613,1141.1758" style="stroke:#181818;stroke-width:1;"/><line style="stroke:#181818;stroke-width:1;stroke-dasharray:2,2;" x1="280.3613" x2="473.9053" y1="1141.1758" y2="1141.1758"/><text fill="#000000" font-family="sans-serif" font-size="13" font-weight="bold" lengthAdjust="spacing" textLength="14.46" x="292.3613" y="1135.9131">23</text><text fill="#000000" font-family="sans-serif" font-size="13" lengthAdjust="spacing" textLength="151.7661" x="310.8213" y="1135.9131">ScheduledFlightResponse</text></g><g class="message" data-entity-1="part2" data-entity-2="part1" id="msg25"><polygon fill="#181818" points="38.0552,1168.4668,28.0552,1172.4668,38.0552,1176.4668,34.0552,1172.4668" style="stroke:#181818;stroke-width:1;"/><line style="stroke:#181818;stroke-width:1;stroke-dasharray:2,2;" x1="32.0552" x2="269.3613" y1="1172.4668" y2="1172.4668"/><text fill="#000000" font-family="sans-serif" font-size="13" font-weight="bold" lengthAdjust="spacing" textLength="14.46" x="44.0552" y="1167.2041">24</text><text fill="#000000" font-family="sans-serif" font-size="13" lengthAdjust="spacing" textLength="180.6416" x="62.5151" y="1167.2041">201 Created (JSON Response)</text></g><?plantuml-src fLN1Rjf04BtxAwQS82AaxJ5g4XbmshG9L62K2nBQs6DO2U_ItNK8Vz_nsciRWnAfFTcOzzxCl9dPPPcH8ajVK7aiCb91nmz7emum3VcBjsFAy8Zlc33GcKSRZBCjnlTRljwOaHH6oUqMbSMFZDeUuqSAcS4MQw5nn3HQog8LO2OpWpFSISqfbuF5LD-EeJvNaMA9-KuHzgo0bk_l9jrIdz-VIhSOIz7rrsk5QrAdRAJfbKmlPeQzK2tG6PTlzf_nqFDoy-3orfe2r_1xEW_XYktubNRYbubLrz3zEPzEUhdz_3KFONtqB9445YEYunj6v49NuPyCjMc0oK5lOIDLFX4-uI8U7koNXxYhYcU3LNjQiqXYF2JkF7WCHY5SmFri-WIMg-7vHp0BYXyh7iCDtDLYL2uHBrifMAmNOnFM2EOgEu7LgPLrMTWhAfuS2lI0Qpz7OxVd2KaKbVi8CY7eDOGR9VSQ7cWirsmxDwGPl4MuCroAfU19eG5S0t71XaKNgfoVsa1SSsqKoxbTLWvSysF3KZTxJgEgq0tgWqXaDsLlCoRM-2ljGoPYL4-C2uE2YGXxJHkSt1aJN2A3MWnkRqflKYvucgNs-uVk-6gTfIXCow2Scnl4XSwIXDQ28ESI-LHbqYxbtphZvFBOLX7IMj8bK2nirIB_J5Ty4LShJ8k98KznY6QFA6Y3QbmVzgGXzvIACkv789gBKXuFPT3pAr9jzAhSwAKeriNLise6pNTdAVp9kC6ZSmHNXhA4OH0-1y44xY17d5sooe182WeOqGco9VNMghcCNSiU2VAjTR3TDZbbfMVQNCMXnGlIdJdyPtVPbgw5-00REYeP59xHh87PODc3kjTmSK692Dn3AtTtgFNXt5xsQtFT01mrbUofhT77oiUcd8oTPdJmj2WV3ip3P1xCGdg4qzDnWUvWCEYzs-eyQ0mA8wdY3nfjeVFtIghxNDzF9vUatacXZmxc_AOfBYMYsUlj6hv-_WB59HyNrnWuvj5XbjF-0W00?></g></svg>