<svg xmlns="http://www.w3.org/2000/svg" xmlns:xlink="http://www.w3.org/1999/xlink" contentStyleType="text/css" data-diagram-type="SEQUENCE" height="702px" preserveAspectRatio="none" style="width:1453px;height:702px;background:#FFFFFF;" version="1.1" viewBox="0 0 1453 702" width="1453px" zoomAndPan="magnify"><defs/><g><g><title>AircraftModelController</title><rect fill="#FFFFFF" height="484.3164" style="stroke:#181818;stroke-width:1;" width="10" x="318.3633" y="116.9121"/></g><g><title>RegisterAircraftModelUseCase</title><rect fill="#FFFFFF" height="421.7344" style="stroke:#181818;stroke-width:1;" width="10" x="510.0317" y="148.2031"/></g><g><title>AircraftModel</title><rect fill="#FFFFFF" height="106.8242" style="stroke:#181818;stroke-width:1;" width="10" x="1009.6211" y="306.6582"/></g><g><title>AircraftModelRepository</title><rect fill="#FFFFFF" height="31.291" style="stroke:#181818;stroke-width:1;" width="10" x="1149.5483" y="234.0762"/></g><g><title>AircraftModelRepository</title><rect fill="#FFFFFF" height="93.873" style="stroke:#181818;stroke-width:1;" width="10" x="1149.5483" y="444.7734"/></g><g><title>Database</title><rect fill="#FFFFFF" height="31.291" style="stroke:#181818;stroke-width:1;" width="10" x="1413.7217" y="476.0645"/></g><g><title>Backoffice Operator.Admin</title><rect fill="#000000" fill-opacity="0.00000" height="535.6074" width="8" x="87.6479" y="83.6211"/><line style="stroke:#181818;stroke-width:0.5;stroke-dasharray:5,5;" x1="91" x2="91" y1="83.6211" y2="619.2285"/></g><g><title>AircraftModelController</title><rect fill="#000000" fill-opacity="0.00000" height="535.6074" width="8" x="319.3633" y="83.6211"/><line style="stroke:#181818;stroke-width:0.5;stroke-dasharray:5,5;" x1="322.7842" x2="322.7842" y1="83.6211" y2="619.2285"/></g><g><title>RegisterAircraftModelUseCase</title><rect fill="#000000" fill-opacity="0.00000" height="535.6074" width="8" x="511.0317" y="83.6211"/><line style="stroke:#181818;stroke-width:0.5;stroke-dasharray:5,5;" x1="514.9424" x2="514.9424" y1="83.6211" y2="619.2285"/></g><g><title>AircraftModel</title><rect fill="#000000" fill-opacity="0.00000" height="304.7402" width="8" x="1010.6211" y="314.4883"/><line style="stroke:#181818;stroke-width:0.5;stroke-dasharray:5,5;" x1="1014.3867" x2="1014.3867" y1="314.4883" y2="619.2285"/></g><g><title>AircraftModelRepository</title><rect fill="#000000" fill-opacity="0.00000" height="535.6074" width="8" x="1150.5483" y="83.6211"/><line style="stroke:#181818;stroke-width:0.5;stroke-dasharray:5,5;" x1="1153.8555" x2="1153.8555" y1="83.6211" y2="619.2285"/></g><g><title>Database</title><rect fill="#000000" fill-opacity="0.00000" height="535.6074" width="8" x="1414.7217" y="83.6211"/><line style="stroke:#181818;stroke-width:0.5;stroke-dasharray:5,5;" x1="1417.7563" x2="1417.7563" y1="83.6211" y2="619.2285"/></g><g class="participant participant-head" data-participant="BO"><text fill="#000000" font-family="sans-serif" font-size="14" lengthAdjust="spacing" textLength="167.2959" x="5" y="80.1074">Backoffice Operator/Admin</text><ellipse cx="91.6479" cy="13.5" fill="#E2E2F0" rx="8" ry="8" style="stroke:#181818;stroke-width:0.5;"/><path d="M91.6479,21.5 L91.6479,48.5 M78.6479,29.5 L104.6479,29.5 M91.6479,48.5 L78.6479,63.5 M91.6479,48.5 L104.6479,63.5" fill="none" style="stroke:#181818;stroke-width:0.5;"/></g><g class="participant participant-tail" data-participant="BO"><text fill="#000000" font-family="sans-serif" font-size="14" lengthAdjust="spacing" textLength="167.2959" x="5" y="633.3359">Backoffice Operator/Admin</text><ellipse cx="91.6479" cy="645.3496" fill="#E2E2F0" rx="8" ry="8" style="stroke:#181818;stroke-width:0.5;"/><path d="M91.6479,653.3496 L91.6479,680.3496 M78.6479,661.3496 L104.6479,661.3496 M91.6479,680.3496 L78.6479,695.3496 M91.6479,680.3496 L104.6479,695.3496" fill="none" style="stroke:#181818;stroke-width:0.5;"/></g><g class="participant participant-head" data-participant="Ctrl"><rect fill="#E2E2F0" height="32.6211" rx="2.5" ry="2.5" style="stroke:#181818;stroke-width:0.5;" width="157.1582" x="244.7842" y="50"/><text fill="#000000" font-family="sans-serif" font-size="14" lengthAdjust="spacing" textLength="143.1582" x="251.7842" y="72.1074">AircraftModelController</text></g><g class="participant participant-tail" data-participant="Ctrl"><rect fill="#E2E2F0" height="32.6211" rx="2.5" ry="2.5" style="stroke:#181818;stroke-width:0.5;" width="157.1582" x="244.7842" y="618.2285"/><text fill="#000000" font-family="sans-serif" font-size="14" lengthAdjust="spacing" textLength="143.1582" x="251.7842" y="640.3359">AircraftModelController</text></g><g class="participant participant-head" data-participant="UC"><rect fill="#E2E2F0" height="32.6211" rx="2.5" ry="2.5" style="stroke:#181818;stroke-width:0.5;" width="206.1787" x="411.9424" y="50"/><text fill="#000000" font-family="sans-serif" font-size="14" lengthAdjust="spacing" textLength="192.1787" x="418.9424" y="72.1074">RegisterAircraftModelUseCase</text></g><g class="participant participant-tail" data-participant="UC"><rect fill="#E2E2F0" height="32.6211" rx="2.5" ry="2.5" style="stroke:#181818;stroke-width:0.5;" width="206.1787" x="411.9424" y="618.2285"/><text fill="#000000" font-family="sans-serif" font-size="14" lengthAdjust="spacing" textLength="192.1787" x="418.9424" y="640.3359">RegisterAircraftModelUseCase</text></g><g class="participant participant-tail" data-participant="Entity"><rect fill="#E2E2F0" height="51.2422" rx="2.5" ry="2.5" style="stroke:#181818;stroke-width:0.5;" width="96.4688" x="966.3867" y="618.2285"/><text fill="#000000" font-family="sans-serif" font-size="14" lengthAdjust="spacing" textLength="82.4688" x="973.3867" y="640.3359">AircraftModel</text><text fill="#000000" font-family="sans-serif" font-size="14" lengthAdjust="spacing" textLength="44.3379" x="992.4521" y="658.957">(Entity)</text></g><g class="participant participant-head" data-participant="Repo"><rect fill="#E2E2F0" height="32.6211" rx="2.5" ry="2.5" style="stroke:#181818;stroke-width:0.5;" width="163.3857" x="1072.8555" y="50"/><text fill="#000000" font-family="sans-serif" font-size="14" lengthAdjust="spacing" textLength="149.3857" x="1079.8555" y="72.1074">AircraftModelRepository</text></g><g class="participant participant-tail" data-participant="Repo"><rect fill="#E2E2F0" height="32.6211" rx="2.5" ry="2.5" style="stroke:#181818;stroke-width:0.5;" width="163.3857" x="1072.8555" y="618.2285"/><text fill="#000000" font-family="sans-serif" font-size="14" lengthAdjust="spacing" textLength="149.3857" x="1079.8555" y="640.3359">AircraftModelRepository</text></g><g class="participant participant-head" data-participant="DB"><text fill="#000000" font-family="sans-serif" font-size="14" lengthAdjust="spacing" textLength="59.9307" x="1385.7563" y="80.1074">Database</text><path d="M1400.7217,29 C1400.7217,19 1418.7217,19 1418.7217,19 C1418.7217,19 1436.7217,19 1436.7217,29 L1436.7217,55 C1436.7217,65 1418.7217,65 1418.7217,65 C1418.7217,65 1400.7217,65 1400.7217,55 L1400.7217,29" fill="#E2E2F0" style="stroke:#181818;stroke-width:0.5;"/><path d="M1400.7217,29 C1400.7217,39 1418.7217,39 1418.7217,39 C1418.7217,39 1436.7217,39 1436.7217,29" fill="none" style="stroke:#181818;stroke-width:0.5;"/></g><g class="participant participant-tail" data-participant="DB"><text fill="#000000" font-family="sans-serif" font-size="14" lengthAdjust="spacing" textLength="59.9307" x="1385.7563" y="633.3359">Database</text><path d="M1400.7217,646.8496 C1400.7217,636.8496 1418.7217,636.8496 1418.7217,636.8496 C1418.7217,636.8496 1436.7217,636.8496 1436.7217,646.8496 L1436.7217,672.8496 C1436.7217,682.8496 1418.7217,682.8496 1418.7217,682.8496 C1418.7217,682.8496 1400.7217,682.8496 1400.7217,672.8496 L1400.7217,646.8496" fill="#E2E2F0" style="stroke:#181818;stroke-width:0.5;"/><path d="M1400.7217,646.8496 C1400.7217,656.8496 1418.7217,656.8496 1418.7217,656.8496 C1418.7217,656.8496 1436.7217,656.8496 1436.7217,646.8496" fill="none" style="stroke:#181818;stroke-width:0.5;"/></g><g><title>AircraftModelController</title><rect fill="#FFFFFF" height="484.3164" style="stroke:#181818;stroke-width:1;" width="10" x="318.3633" y="116.9121"/></g><g><title>RegisterAircraftModelUseCase</title><rect fill="#FFFFFF" height="421.7344" style="stroke:#181818;stroke-width:1;" width="10" x="510.0317" y="148.2031"/></g><g><title>AircraftModel</title><rect fill="#FFFFFF" height="106.8242" style="stroke:#181818;stroke-width:1;" width="10" x="1009.6211" y="306.6582"/></g><g><title>AircraftModelRepository</title><rect fill="#FFFFFF" height="31.291" style="stroke:#181818;stroke-width:1;" width="10" x="1149.5483" y="234.0762"/></g><g><title>AircraftModelRepository</title><rect fill="#FFFFFF" height="93.873" style="stroke:#181818;stroke-width:1;" width="10" x="1149.5483" y="444.7734"/></g><g><title>Database</title><rect fill="#FFFFFF" height="31.291" style="stroke:#181818;stroke-width:1;" width="10" x="1413.7217" y="476.0645"/></g><g class="message" data-participant-1="BO" data-participant-2="Ctrl"><polygon fill="#181818" points="306.3633,112.9121,316.3633,116.9121,306.3633,120.9121,310.3633,116.9121" style="stroke:#181818;stroke-width:1;"/><line style="stroke:#181818;stroke-width:1;" x1="91.6479" x2="312.3633" y1="116.9121" y2="116.9121"/><text fill="#000000" font-family="sans-serif" font-size="13" font-weight="bold" lengthAdjust="spacing" textLength="7.23" x="98.6479" y="111.6494">1</text><text fill="#000000" font-family="sans-serif" font-size="13" lengthAdjust="spacing" textLength="196.4854" x="109.8779" y="111.6494">POST /api/aircraft-models (JSON)</text></g><g class="message" data-participant-1="Ctrl" data-participant-2="UC"><polygon fill="#181818" points="498.0317,144.2031,508.0317,148.2031,498.0317,152.2031,502.0317,148.2031" style="stroke:#181818;stroke-width:1;"/><line style="stroke:#181818;stroke-width:1;" x1="328.3633" x2="504.0317" y1="148.2031" y2="148.2031"/><text fill="#000000" font-family="sans-serif" font-size="13" font-weight="bold" lengthAdjust="spacing" textLength="7.23" x="335.3633" y="142.9404">2</text><text fill="#000000" font-family="sans-serif" font-size="13" lengthAdjust="spacing" textLength="97.5508" x="346.5933" y="142.9404">execute(request)</text></g><path d="M525,161.2031 L525,205.2031 L726,205.2031 L726,171.2031 L716,161.2031 L525,161.2031" fill="#FEFFDD" style="stroke:#181818;stroke-width:0.5;"/><path d="M716,161.2031 L716,171.2031 L726,171.2031 L716,161.2031" fill="#FEFFDD" style="stroke:#181818;stroke-width:0.5;"/><text fill="#000000" font-family="sans-serif" font-size="13" lengthAdjust="spacing" textLength="136.5317" x="531" y="180.2314">Extracts data from DTO</text><text fill="#000000" font-family="sans-serif" font-size="13" lengthAdjust="spacing" textLength="180.6606" x="531" y="197.5225">including optional diagram URL</text><g class="message" data-participant-1="UC" data-participant-2="Repo"><polygon fill="#181818" points="1137.5483,230.0762,1147.5483,234.0762,1137.5483,238.0762,1141.5483,234.0762" style="stroke:#181818;stroke-width:1;"/><line style="stroke:#181818;stroke-width:1;" x1="520.0317" x2="1143.5483" y1="234.0762" y2="234.0762"/><text fill="#000000" font-family="sans-serif" font-size="13" font-weight="bold" lengthAdjust="spacing" textLength="7.23" x="527.0317" y="228.8135">3</text><text fill="#000000" font-family="sans-serif" font-size="13" lengthAdjust="spacing" textLength="231.9307" x="538.2617" y="228.8135">findByModelName(request.modelName)</text></g><g class="message" data-participant-1="Repo" data-participant-2="UC"><polygon fill="#181818" points="531.0317,261.3672,521.0317,265.3672,531.0317,269.3672,527.0317,265.3672" style="stroke:#181818;stroke-width:1;"/><line style="stroke:#181818;stroke-width:1;stroke-dasharray:2,2;" x1="525.0317" x2="1153.5483" y1="265.3672" y2="265.3672"/><text fill="#000000" font-family="sans-serif" font-size="13" font-weight="bold" lengthAdjust="spacing" textLength="7.23" x="537.0317" y="260.1045">4</text><text fill="#000000" font-family="sans-serif" font-size="13" lengthAdjust="spacing" textLength="96.0908" x="548.2617" y="260.1045">Optional.empty()</text></g><g class="message" data-participant-1="UC" data-participant-2="Entity"><polygon fill="#181818" points="954.3867,292.6582,964.3867,296.6582,954.3867,300.6582,958.3867,296.6582" style="stroke:#181818;stroke-width:1;"/><line style="stroke:#181818;stroke-width:1;" x1="520.0317" x2="960.3867" y1="296.6582" y2="296.6582"/><text fill="#000000" font-family="sans-serif" font-size="13" font-weight="bold" lengthAdjust="spacing" textLength="7.23" x="527.0317" y="291.3955">5</text><text fill="#000000" font-family="sans-serif" font-size="13" lengthAdjust="spacing" textLength="411.125" x="538.2617" y="291.3955">new AircraftModel(name, fuel, range, speed, manufacturer, diagramUrl)</text></g><rect fill="#E2E2F0" height="51.2422" rx="2.5" ry="2.5" style="stroke:#181818;stroke-width:0.5;" width="96.4688" x="966.3867" y="273.3672"/><text fill="#000000" font-family="sans-serif" font-size="14" lengthAdjust="spacing" textLength="82.4688" x="973.3867" y="295.4746">AircraftModel</text><text fill="#000000" font-family="sans-serif" font-size="14" lengthAdjust="spacing" textLength="44.3379" x="992.4521" y="314.0957">(Entity)</text><path d="M1024,340.6094 L1024,384.6094 L1253,384.6094 L1253,350.6094 L1243,340.6094 L1024,340.6094" fill="#FEFFDD" style="stroke:#181818;stroke-width:0.5;"/><path d="M1243,340.6094 L1243,350.6094 L1253,350.6094 L1243,340.6094" fill="#FEFFDD" style="stroke:#181818;stroke-width:0.5;"/><text fill="#000000" font-family="sans-serif" font-size="13" lengthAdjust="spacing" textLength="178.4771" x="1030" y="359.6377">Domain validation occurs here.</text><text fill="#000000" font-family="sans-serif" font-size="13" lengthAdjust="spacing" textLength="208.6284" x="1030" y="376.9287">If diagramUrl is null, sets to "empty".</text><g class="message" data-participant-1="Entity" data-participant-2="UC"><polygon fill="#181818" points="531.0317,409.4824,521.0317,413.4824,531.0317,417.4824,527.0317,413.4824" style="stroke:#181818;stroke-width:1;"/><line style="stroke:#181818;stroke-width:1;stroke-dasharray:2,2;" x1="525.0317" x2="1013.6211" y1="413.4824" y2="413.4824"/><text fill="#000000" font-family="sans-serif" font-size="13" font-weight="bold" lengthAdjust="spacing" textLength="7.23" x="537.0317" y="408.2197">6</text><text fill="#000000" font-family="sans-serif" font-size="13" lengthAdjust="spacing" textLength="177.7471" x="548.2617" y="408.2197">aircraftModel (validated object)</text></g><g class="message" data-participant-1="UC" data-participant-2="Repo"><polygon fill="#181818" points="1137.5483,440.7734,1147.5483,444.7734,1137.5483,448.7734,1141.5483,444.7734" style="stroke:#181818;stroke-width:1;"/><line style="stroke:#181818;stroke-width:1;" x1="520.0317" x2="1143.5483" y1="444.7734" y2="444.7734"/><text fill="#000000" font-family="sans-serif" font-size="13" font-weight="bold" lengthAdjust="spacing" textLength="7.23" x="527.0317" y="439.5107">7</text><text fill="#000000" font-family="sans-serif" font-size="13" lengthAdjust="spacing" textLength="111.2554" x="538.2617" y="439.5107">save(aircraftModel)</text></g><g class="message" data-participant-1="Repo" data-participant-2="DB"><polygon fill="#181818" points="1401.7217,472.0645,1411.7217,476.0645,1401.7217,480.0645,1405.7217,476.0645" style="stroke:#181818;stroke-width:1;"/><line style="stroke:#181818;stroke-width:1;" x1="1159.5483" x2="1407.7217" y1="476.0645" y2="476.0645"/><text fill="#000000" font-family="sans-serif" font-size="13" font-weight="bold" lengthAdjust="spacing" textLength="7.23" x="1166.5483" y="470.8018">8</text><text fill="#000000" font-family="sans-serif" font-size="13" lengthAdjust="spacing" textLength="197.9199" x="1177.7783" y="470.8018">INSERT INTO aircraft_models (...)</text></g><g class="message" data-participant-1="DB" data-participant-2="Repo"><polygon fill="#181818" points="1170.5483,503.3555,1160.5483,507.3555,1170.5483,511.3555,1166.5483,507.3555" style="stroke:#181818;stroke-width:1;"/><line style="stroke:#181818;stroke-width:1;stroke-dasharray:2,2;" x1="1164.5483" x2="1417.7217" y1="507.3555" y2="507.3555"/><text fill="#000000" font-family="sans-serif" font-size="13" font-weight="bold" lengthAdjust="spacing" textLength="7.23" x="1176.5483" y="502.0928">9</text><text fill="#000000" font-family="sans-serif" font-size="13" lengthAdjust="spacing" textLength="218.9434" x="1187.7783" y="502.0928">saved record (with auto-generated ID)</text></g><g class="message" data-participant-1="Repo" data-participant-2="UC"><polygon fill="#181818" points="531.0317,534.6465,521.0317,538.6465,531.0317,542.6465,527.0317,538.6465" style="stroke:#181818;stroke-width:1;"/><line style="stroke:#181818;stroke-width:1;stroke-dasharray:2,2;" x1="525.0317" x2="1153.5483" y1="538.6465" y2="538.6465"/><text fill="#000000" font-family="sans-serif" font-size="13" font-weight="bold" lengthAdjust="spacing" textLength="14.46" x="537.0317" y="533.3838">10</text><text fill="#000000" font-family="sans-serif" font-size="13" lengthAdjust="spacing" textLength="70.0972" x="555.4917" y="533.3838">savedModel</text></g><g class="message" data-participant-1="UC" data-participant-2="Ctrl"><polygon fill="#181818" points="339.3633,565.9375,329.3633,569.9375,339.3633,573.9375,335.3633,569.9375" style="stroke:#181818;stroke-width:1;"/><line style="stroke:#181818;stroke-width:1;stroke-dasharray:2,2;" x1="333.3633" x2="514.0317" y1="569.9375" y2="569.9375"/><text fill="#000000" font-family="sans-serif" font-size="13" font-weight="bold" lengthAdjust="spacing" textLength="14.46" x="345.3633" y="564.6748">11</text><text fill="#000000" font-family="sans-serif" font-size="13" lengthAdjust="spacing" textLength="128.6353" x="363.8232" y="564.6748">savedModelResponse</text></g><g class="message" data-participant-1="Ctrl" data-participant-2="BO"><polygon fill="#181818" points="102.6479,597.2285,92.6479,601.2285,102.6479,605.2285,98.6479,601.2285" style="stroke:#181818;stroke-width:1;"/><line style="stroke:#181818;stroke-width:1;stroke-dasharray:2,2;" x1="96.6479" x2="322.3633" y1="601.2285" y2="601.2285"/><text fill="#000000" font-family="sans-serif" font-size="13" font-weight="bold" lengthAdjust="spacing" textLength="14.46" x="108.6479" y="595.9658">12</text><text fill="#000000" font-family="sans-serif" font-size="13" lengthAdjust="spacing" textLength="180.6416" x="127.1079" y="595.9658">201 Created (JSON Response)</text></g><!--SRC=[VLDDZvim4BtxLumuaLL2sXvpM6b3SaZLXYeVjqYh2Gp4BTZKDjdDl-_Wm2wigZrXxFVclNaUO-EqQgep6O6fqmQ29QP_T9xBb22foI1lpf-oIge0qC8o4JKQ9rDPet8GF4cJ6ipTJvrH6MlbZ2vBCXuRErEEqJigf7LaHgoZfHWjUSen_gJyIOLhvQIxJJpsllu4lwDQMyd-RnxV_eeC7PvP3O9Lj_9dgwKGomHcZzuqBE1NiZ_076ivnwxah6fhMWY_xvFjf4rBNj7HlKlXQKm_naocLqeRHw6XlmrPDm1pVq9fNXXPN1ped7SMi7vrXY4MMdUG6rt1wf2Sb5HfsMHI5Q1h9xN24ZA9XS4AZhiVGh0OIxPziMWkLRQy-SQtMBs9HrM_Cx3Xe_2yMUyvwHGYgcft2oSYep6yKxkd3WyFp57q0gF4GyKwKyWRAgTWK1NyOskYR0eLgYRdYeqXC-tRE9fouAgxq0y1tNSNiD8LIWLNB2N7n5v1fsbZB5p8K7HIctnG5QG5rPJimXBdwZG4lgyW4gBhuArp77O0OIT06UZpRqhTA8dUuYXvYrSAHrK-Hjrb_SXpnlZDTh_U7VXpIDx4d_lfYg9emEQvPCfih9M1eLIR3C8NwIw0_8Hd1QdshVBPPZLot4xs-APz2M_p_tVy_WZUaJkojLQMXensbkzZpmn-F0luzkKhn8Qy3VzCeEUDBBMaVm00]--></g></svg>