<svg xmlns="http://www.w3.org/2000/svg" xmlns:xlink="http://www.w3.org/1999/xlink" contentStyleType="text/css" data-diagram-type="SEQUENCE" height="532px" preserveAspectRatio="none" style="width:937px;height:532px;background:#FFFFFF;" version="1.1" viewBox="0 0 937 532" width="937px" zoomAndPan="magnify"><defs/><g><g><title>AircraftModelController</title><rect fill="#FFFFFF" height="314.9102" style="stroke:#181818;stroke-width:1;" width="10" x="333.5405" y="116.9121"/></g><g><title>RegisterAircraftModelUseCase</title><rect fill="#FFFFFF" height="252.3281" style="stroke:#181818;stroke-width:1;" width="10" x="525.209" y="148.2031"/></g><rect fill="none" height="81.873" style="stroke:#000000;stroke-width:1.5;" width="351.2959" x="417.1196" y="225.7852"/><g><title>Backoffice Operator.Admin</title><rect fill="#000000" fill-opacity="0.00000" height="366.2012" width="8" x="87.6479" y="83.6211"/><line style="stroke:#181818;stroke-width:0.5;stroke-dasharray:5,5;" x1="91" x2="91" y1="83.6211" y2="449.8223"/></g><g><title>AircraftModelController</title><rect fill="#000000" fill-opacity="0.00000" height="366.2012" width="8" x="334.5405" y="83.6211"/><line style="stroke:#181818;stroke-width:0.5;stroke-dasharray:5,5;" x1="337.9614" x2="337.9614" y1="83.6211" y2="449.8223"/></g><g><title>RegisterAircraftModelUseCase</title><rect fill="#000000" fill-opacity="0.00000" height="366.2012" width="8" x="526.209" y="83.6211"/><line style="stroke:#181818;stroke-width:0.5;stroke-dasharray:5,5;" x1="530.1196" x2="530.1196" y1="83.6211" y2="449.8223"/></g><g><title>FileSystem .I.O.</title><rect fill="#000000" fill-opacity="0.00000" height="366.2012" width="8" x="696.8569" y="83.6211"/><line style="stroke:#181818;stroke-width:0.5;stroke-dasharray:5,5;" x1="700.2983" x2="700.2983" y1="83.6211" y2="449.8223"/></g><g><title>AircraftModelRepository</title><rect fill="#000000" fill-opacity="0.00000" height="366.2012" width="8" x="846.1084" y="83.6211"/><line style="stroke:#181818;stroke-width:0.5;stroke-dasharray:5,5;" x1="849.4155" x2="849.4155" y1="83.6211" y2="449.8223"/></g><g class="participant participant-head" data-participant="Operator"><text fill="#000000" font-family="sans-serif" font-size="14" lengthAdjust="spacing" textLength="167.2959" x="5" y="80.1074">Backoffice Operator/Admin</text><ellipse cx="91.6479" cy="13.5" fill="#E2E2F0" rx="8" ry="8" style="stroke:#181818;stroke-width:0.5;"/><path d="M91.6479,21.5 L91.6479,48.5 M78.6479,29.5 L104.6479,29.5 M91.6479,48.5 L78.6479,63.5 M91.6479,48.5 L104.6479,63.5" fill="none" style="stroke:#181818;stroke-width:0.5;"/></g><g class="participant participant-tail" data-participant="Operator"><text fill="#000000" font-family="sans-serif" font-size="14" lengthAdjust="spacing" textLength="167.2959" x="5" y="463.9297">Backoffice Operator/Admin</text><ellipse cx="91.6479" cy="475.9434" fill="#E2E2F0" rx="8" ry="8" style="stroke:#181818;stroke-width:0.5;"/><path d="M91.6479,483.9434 L91.6479,510.9434 M78.6479,491.9434 L104.6479,491.9434 M91.6479,510.9434 L78.6479,525.9434 M91.6479,510.9434 L104.6479,525.9434" fill="none" style="stroke:#181818;stroke-width:0.5;"/></g><g class="participant participant-head" data-participant="Controller"><rect fill="#E2E2F0" height="32.6211" rx="2.5" ry="2.5" style="stroke:#181818;stroke-width:0.5;" width="157.1582" x="259.9614" y="50"/><text fill="#000000" font-family="sans-serif" font-size="14" lengthAdjust="spacing" textLength="143.1582" x="266.9614" y="72.1074">AircraftModelController</text></g><g class="participant participant-tail" data-participant="Controller"><rect fill="#E2E2F0" height="32.6211" rx="2.5" ry="2.5" style="stroke:#181818;stroke-width:0.5;" width="157.1582" x="259.9614" y="448.8223"/><text fill="#000000" font-family="sans-serif" font-size="14" lengthAdjust="spacing" textLength="143.1582" x="266.9614" y="470.9297">AircraftModelController</text></g><g class="participant participant-head" data-participant="UseCase"><rect fill="#E2E2F0" height="32.6211" rx="2.5" ry="2.5" style="stroke:#181818;stroke-width:0.5;" width="206.1787" x="427.1196" y="50"/><text fill="#000000" font-family="sans-serif" font-size="14" lengthAdjust="spacing" textLength="192.1787" x="434.1196" y="72.1074">RegisterAircraftModelUseCase</text></g><g class="participant participant-tail" data-participant="UseCase"><rect fill="#E2E2F0" height="32.6211" rx="2.5" ry="2.5" style="stroke:#181818;stroke-width:0.5;" width="206.1787" x="427.1196" y="448.8223"/><text fill="#000000" font-family="sans-serif" font-size="14" lengthAdjust="spacing" textLength="192.1787" x="434.1196" y="470.9297">RegisterAircraftModelUseCase</text></g><g class="participant participant-head" data-participant="Disk"><rect fill="#E2E2F0" height="32.6211" rx="2.5" ry="2.5" style="stroke:#181818;stroke-width:0.5;" width="115.1172" x="643.2983" y="50"/><text fill="#000000" font-family="sans-serif" font-size="14" lengthAdjust="spacing" textLength="101.1172" x="650.2983" y="72.1074">FileSystem (I/O)</text></g><g class="participant participant-tail" data-participant="Disk"><rect fill="#E2E2F0" height="32.6211" rx="2.5" ry="2.5" style="stroke:#181818;stroke-width:0.5;" width="115.1172" x="643.2983" y="448.8223"/><text fill="#000000" font-family="sans-serif" font-size="14" lengthAdjust="spacing" textLength="101.1172" x="650.2983" y="470.9297">FileSystem (I/O)</text></g><g class="participant participant-head" data-participant="Repo"><rect fill="#E2E2F0" height="32.6211" rx="2.5" ry="2.5" style="stroke:#181818;stroke-width:0.5;" width="163.3857" x="768.4155" y="50"/><text fill="#000000" font-family="sans-serif" font-size="14" lengthAdjust="spacing" textLength="149.3857" x="775.4155" y="72.1074">AircraftModelRepository</text></g><g class="participant participant-tail" data-participant="Repo"><rect fill="#E2E2F0" height="32.6211" rx="2.5" ry="2.5" style="stroke:#181818;stroke-width:0.5;" width="163.3857" x="768.4155" y="448.8223"/><text fill="#000000" font-family="sans-serif" font-size="14" lengthAdjust="spacing" textLength="149.3857" x="775.4155" y="470.9297">AircraftModelRepository</text></g><g><title>AircraftModelController</title><rect fill="#FFFFFF" height="314.9102" style="stroke:#181818;stroke-width:1;" width="10" x="333.5405" y="116.9121"/></g><g><title>RegisterAircraftModelUseCase</title><rect fill="#FFFFFF" height="252.3281" style="stroke:#181818;stroke-width:1;" width="10" x="525.209" y="148.2031"/></g><g class="message" data-participant-1="Operator" data-participant-2="Controller"><polygon fill="#181818" points="321.5405,112.9121,331.5405,116.9121,321.5405,120.9121,325.5405,116.9121" style="stroke:#181818;stroke-width:1;"/><line style="stroke:#181818;stroke-width:1;" x1="91.6479" x2="327.5405" y1="116.9121" y2="116.9121"/><text fill="#000000" font-family="sans-serif" font-size="13" font-weight="bold" lengthAdjust="spacing" textLength="7.23" x="98.6479" y="111.6494">1</text><text fill="#000000" font-family="sans-serif" font-size="13" lengthAdjust="spacing" textLength="211.6626" x="109.8779" y="111.6494">POST /api/aircraft-models (multipart)</text></g><g class="message" data-participant-1="Controller" data-participant-2="UseCase"><polygon fill="#181818" points="513.209,144.2031,523.209,148.2031,513.209,152.2031,517.209,148.2031" style="stroke:#181818;stroke-width:1;"/><line style="stroke:#181818;stroke-width:1;" x1="343.5405" x2="519.209" y1="148.2031" y2="148.2031"/><text fill="#000000" font-family="sans-serif" font-size="13" font-weight="bold" lengthAdjust="spacing" textLength="7.23" x="350.5405" y="142.9404">2</text><text fill="#000000" font-family="sans-serif" font-size="13" lengthAdjust="spacing" textLength="96.1035" x="361.7705" y="142.9404">execute(dto, file)</text></g><g class="message" data-participant-1="UseCase" data-participant-2="Repo"><polygon fill="#181818" points="838.1084,175.4941,848.1084,179.4941,838.1084,183.4941,842.1084,179.4941" style="stroke:#181818;stroke-width:1;"/><line style="stroke:#181818;stroke-width:1;" x1="535.209" x2="844.1084" y1="179.4941" y2="179.4941"/><text fill="#000000" font-family="sans-serif" font-size="13" font-weight="bold" lengthAdjust="spacing" textLength="7.23" x="542.209" y="174.2314">3</text><text fill="#000000" font-family="sans-serif" font-size="13" lengthAdjust="spacing" textLength="114.8735" x="553.439" y="174.2314">findByModelName()</text></g><g class="message" data-participant-1="Repo" data-participant-2="UseCase"><polygon fill="#181818" points="546.209,206.7852,536.209,210.7852,546.209,214.7852,542.209,210.7852" style="stroke:#181818;stroke-width:1;"/><line style="stroke:#181818;stroke-width:1;stroke-dasharray:2,2;" x1="540.209" x2="849.1084" y1="210.7852" y2="210.7852"/><text fill="#000000" font-family="sans-serif" font-size="13" font-weight="bold" lengthAdjust="spacing" textLength="7.23" x="552.209" y="205.5225">4</text><text fill="#000000" font-family="sans-serif" font-size="13" lengthAdjust="spacing" textLength="87.4326" x="563.439" y="205.5225">Optional.empty</text></g><path d="M417.1196,225.7852 L477.2905,225.7852 L477.2905,235.0762 L467.2905,245.0762 L417.1196,245.0762 L417.1196,225.7852" fill="#EEEEEE" style="stroke:#000000;stroke-width:1.5;"/><rect fill="none" height="81.873" style="stroke:#000000;stroke-width:1.5;" width="351.2959" x="417.1196" y="225.7852"/><text fill="#000000" font-family="sans-serif" font-size="13" font-weight="bold" lengthAdjust="spacing" textLength="15.1709" x="432.1196" y="240.8135">alt</text><text fill="#000000" font-family="sans-serif" font-size="11" font-weight="bold" lengthAdjust="spacing" textLength="67.2407" x="492.2905" y="239.6553">[if file exists]</text><g class="message" data-participant-1="UseCase" data-participant-2="Disk"><polygon fill="#181818" points="688.8569,264.3672,698.8569,268.3672,688.8569,272.3672,692.8569,268.3672" style="stroke:#181818;stroke-width:1;"/><line style="stroke:#181818;stroke-width:1;" x1="535.209" x2="694.8569" y1="268.3672" y2="268.3672"/><text fill="#000000" font-family="sans-serif" font-size="13" font-weight="bold" lengthAdjust="spacing" textLength="7.23" x="542.209" y="263.1045">5</text><text fill="#000000" font-family="sans-serif" font-size="13" lengthAdjust="spacing" textLength="85.2617" x="553.439" y="263.1045">copy(file, path)</text></g><g class="message" data-participant-1="Disk" data-participant-2="UseCase"><polygon fill="#181818" points="546.209,295.6582,536.209,299.6582,546.209,303.6582,542.209,299.6582" style="stroke:#181818;stroke-width:1;"/><line style="stroke:#181818;stroke-width:1;stroke-dasharray:2,2;" x1="540.209" x2="699.8569" y1="299.6582" y2="299.6582"/><text fill="#000000" font-family="sans-serif" font-size="13" font-weight="bold" lengthAdjust="spacing" textLength="7.23" x="552.209" y="294.3955">6</text><text fill="#000000" font-family="sans-serif" font-size="13" lengthAdjust="spacing" textLength="46.96" x="563.439" y="294.3955">success</text></g><g class="message" data-participant-1="UseCase" data-participant-2="Repo"><polygon fill="#181818" points="838.1084,333.9492,848.1084,337.9492,838.1084,341.9492,842.1084,337.9492" style="stroke:#181818;stroke-width:1;"/><line style="stroke:#181818;stroke-width:1;" x1="535.209" x2="844.1084" y1="337.9492" y2="337.9492"/><text fill="#000000" font-family="sans-serif" font-size="13" font-weight="bold" lengthAdjust="spacing" textLength="7.23" x="542.209" y="332.6865">7</text><text fill="#000000" font-family="sans-serif" font-size="13" lengthAdjust="spacing" textLength="71.5254" x="553.439" y="332.6865">save(model)</text></g><g class="message" data-participant-1="Repo" data-participant-2="UseCase"><polygon fill="#181818" points="546.209,365.2402,536.209,369.2402,546.209,373.2402,542.209,369.2402" style="stroke:#181818;stroke-width:1;"/><line style="stroke:#181818;stroke-width:1;stroke-dasharray:2,2;" x1="540.209" x2="849.1084" y1="369.2402" y2="369.2402"/><text fill="#000000" font-family="sans-serif" font-size="13" font-weight="bold" lengthAdjust="spacing" textLength="7.23" x="552.209" y="363.9775">8</text><text fill="#000000" font-family="sans-serif" font-size="13" lengthAdjust="spacing" textLength="70.0972" x="563.439" y="363.9775">savedModel</text></g><g class="message" data-participant-1="UseCase" data-participant-2="Controller"><polygon fill="#181818" points="354.5405,396.5313,344.5405,400.5313,354.5405,404.5313,350.5405,400.5313" style="stroke:#181818;stroke-width:1;"/><line style="stroke:#181818;stroke-width:1;stroke-dasharray:2,2;" x1="348.5405" x2="529.209" y1="400.5313" y2="400.5313"/><text fill="#000000" font-family="sans-serif" font-size="13" font-weight="bold" lengthAdjust="spacing" textLength="7.23" x="360.5405" y="395.2686">9</text><text fill="#000000" font-family="sans-serif" font-size="13" lengthAdjust="spacing" textLength="135.1162" x="371.7705" y="395.2686">AircraftModelResponse</text></g><g class="message" data-participant-1="Controller" data-participant-2="Operator"><polygon fill="#181818" points="102.6479,427.8223,92.6479,431.8223,102.6479,435.8223,98.6479,431.8223" style="stroke:#181818;stroke-width:1;"/><line style="stroke:#181818;stroke-width:1;stroke-dasharray:2,2;" x1="96.6479" x2="337.5405" y1="431.8223" y2="431.8223"/><text fill="#000000" font-family="sans-serif" font-size="13" font-weight="bold" lengthAdjust="spacing" textLength="14.46" x="108.6479" y="426.5596">10</text><text fill="#000000" font-family="sans-serif" font-size="13" lengthAdjust="spacing" textLength="71.5508" x="127.1079" y="426.5596">201 Created</text></g><!--SRC=[VL51JiCm4Bpx5QkU4gabm34795g4n062MdZ0Oc_0Qc9RjbEHtsDRANLAXK_hzSpix1W7hzNGVv1boBssi5WZt-ksbPoWCMGnDAjxqKkr07I_BMRGUicbGULXSIyjjzZwPosessZbhUuwiebnkiuvM_gKpfETSTyTRT1H8axrdFKeEzgDWTT3yLGrPK8-IBV_nz2MZ7Ooc1uJEbuPEou2gxlCOWslpUuDAZIomabZrKSH1qK_T5x6CMNCIXxGKxuTEzLHTB9V0tqJ7pmLmkibjC5_HZ_koAOY4gE_EW2LM8_9_mlsL9Gizc6LApV6IwsmkwBU-94nx3p8Diq8KqEwZa4ucNPCgWQkpLX4r18C-gyoeUBJNDuDd9DpZ9IuOD3XWOeKpILhyLKazndrBEgpJt96gn25eB_fvCa6aUFVrN1xVGCRIm4iSk89_mC0]--></g></svg>