<svg xmlns="http://www.w3.org/2000/svg" xmlns:xlink="http://www.w3.org/1999/xlink" contentStyleType="text/css" data-diagram-type="SEQUENCE" height="321px" preserveAspectRatio="none" style="width:622px;height:321px;background:#FFFFFF;" version="1.1" viewBox="0 0 622 321" width="622px" zoomAndPan="magnify"><defs/><g><g><title>ATCC</title><rect fill="#FFFFFF" height="126.4551" style="stroke:#181818;stroke-width:1;" width="10" x="22.0552" y="93.6211"/></g><g><title>.System</title><rect fill="#FFFFFF" height="103.1641" style="stroke:#181818;stroke-width:1;" width="10" x="381.6147" y="116.9121"/></g><g><title>ATCC</title><rect fill="#000000" fill-opacity="0.00000" height="154.4551" width="8" x="23.0552" y="83.6211"/><line style="stroke:#181818;stroke-width:0.5;stroke-dasharray:5,5;" x1="27" x2="27" y1="83.6211" y2="238.0762"/></g><g><title>.System</title><rect fill="#000000" fill-opacity="0.00000" height="154.4551" width="8" x="382.6147" y="83.6211"/><line style="stroke:#181818;stroke-width:0.5;stroke-dasharray:5,5;" x1="386.332" x2="386.332" y1="83.6211" y2="238.0762"/></g><g class="participant participant-head" data-participant="ATCC"><text fill="#000000" font-family="sans-serif" font-size="14" lengthAdjust="spacing" textLength="38.1104" x="5" y="80.1074">ATCC</text><ellipse cx="27.0552" cy="13.5" fill="#E2E2F0" rx="8" ry="8" style="stroke:#181818;stroke-width:0.5;"/><path d="M27.0552,21.5 L27.0552,48.5 M14.0552,29.5 L40.0552,29.5 M27.0552,48.5 L14.0552,63.5 M27.0552,48.5 L40.0552,63.5" fill="none" style="stroke:#181818;stroke-width:0.5;"/></g><g class="participant participant-tail" data-participant="ATCC"><text fill="#000000" font-family="sans-serif" font-size="14" lengthAdjust="spacing" textLength="38.1104" x="5" y="252.1836">ATCC</text><ellipse cx="27.0552" cy="264.1973" fill="#E2E2F0" rx="8" ry="8" style="stroke:#181818;stroke-width:0.5;"/><path d="M27.0552,272.1973 L27.0552,299.1973 M14.0552,280.1973 L40.0552,280.1973 M27.0552,299.1973 L14.0552,314.1973 M27.0552,299.1973 L40.0552,314.1973" fill="none" style="stroke:#181818;stroke-width:0.5;"/></g><g class="participant participant-head" data-participant="System"><rect fill="#E2E2F0" height="32.6211" rx="2.5" ry="2.5" style="stroke:#181818;stroke-width:0.5;" width="64.5654" x="354.332" y="50"/><text fill="#000000" font-family="sans-serif" font-size="14" lengthAdjust="spacing" textLength="50.5654" x="361.332" y="72.1074">:System</text></g><g class="participant participant-tail" data-participant="System"><rect fill="#E2E2F0" height="32.6211" rx="2.5" ry="2.5" style="stroke:#181818;stroke-width:0.5;" width="64.5654" x="354.332" y="237.0762"/><text fill="#000000" font-family="sans-serif" font-size="14" lengthAdjust="spacing" textLength="50.5654" x="361.332" y="259.1836">:System</text></g><g><title>ATCC</title><rect fill="#FFFFFF" height="126.4551" style="stroke:#181818;stroke-width:1;" width="10" x="22.0552" y="93.6211"/></g><g><title>.System</title><rect fill="#FFFFFF" height="103.1641" style="stroke:#181818;stroke-width:1;" width="10" x="381.6147" y="116.9121"/></g><g class="message" data-participant-1="ATCC" data-participant-2="System"><polygon fill="#181818" points="369.6147,112.9121,379.6147,116.9121,369.6147,120.9121,373.6147,116.9121" style="stroke:#181818;stroke-width:1;"/><line style="stroke:#181818;stroke-width:1;" x1="32.0552" x2="375.6147" y1="116.9121" y2="116.9121"/><text fill="#000000" font-family="sans-serif" font-size="13" font-weight="bold" lengthAdjust="spacing" textLength="7.23" x="39.0552" y="111.6494">1</text><text fill="#000000" font-family="sans-serif" font-size="13" lengthAdjust="spacing" textLength="304.916" x="50.2852" y="111.6494">updateAircraftStatus(registrationNumber, newStatus)</text></g><path d="M396,129.9121 L396,190.9121 L615,190.9121 L615,139.9121 L605,129.9121 L396,129.9121" fill="#FEFFDD" style="stroke:#181818;stroke-width:0.5;"/><path d="M605,129.9121 L605,139.9121 L615,139.9121 L605,129.9121" fill="#FEFFDD" style="stroke:#181818;stroke-width:0.5;"/><text fill="#000000" font-family="sans-serif" font-size="13" lengthAdjust="spacing" textLength="179.2007" x="402" y="148.9404">The system validates the input,</text><text fill="#000000" font-family="sans-serif" font-size="13" lengthAdjust="spacing" textLength="182.0952" x="402" y="166.2314">finds the corresponding aircraft,</text><text fill="#000000" font-family="sans-serif" font-size="13" lengthAdjust="spacing" textLength="198.0215" x="402" y="183.5225">and updates its operational status.</text><g class="message" data-participant-1="System" data-participant-2="ATCC"><polygon fill="#181818" points="38.0552,216.0762,28.0552,220.0762,38.0552,224.0762,34.0552,220.0762" style="stroke:#181818;stroke-width:1;"/><line style="stroke:#181818;stroke-width:1;stroke-dasharray:2,2;" x1="32.0552" x2="385.6147" y1="220.0762" y2="220.0762"/><text fill="#000000" font-family="sans-serif" font-size="13" font-weight="bold" lengthAdjust="spacing" textLength="7.23" x="44.0552" y="214.8135">2</text><text fill="#000000" font-family="sans-serif" font-size="13" lengthAdjust="spacing" textLength="314.3296" x="55.2852" y="214.8135">informs operation success and returns updated aircraft</text></g><!--SRC=[NKyzJmCn3DtpAwnE8BNyW1kGgkuixSXYajpLKi-9RAU8Vqzo2L2nHCvxzll0OedB-X75eRSai3jUJgSTe48RN4OnyfIH3NRJ-KijhXlRHzUkw8uM-tfxuF0wM9YWv5398uaNdEriQ4MV92wa9cYK-6qptmF7pyu-_qd-U72g7w7bQf3cWKvmkKRGxdF76pKV1QiWSIwsV-UPE7J49v6eEN4WNW17chg274P41JA5b6EFXJVGBSwBSwFCeVRQ-atLOKwoFgo35k-ZAZH1YLQ4TGY7NpyNulzg3qYJ_WO0]--></g></svg>