<?plantuml 1.2026.2?><svg xmlns="http://www.w3.org/2000/svg" xmlns:xlink="http://www.w3.org/1999/xlink" contentStyleType="text/css" data-diagram-type="SEQUENCE" height="303px" preserveAspectRatio="none" style="width:564px;height:303px;background:#FFFFFF;" version="1.1" viewBox="0 0 564 303" width="564px" zoomAndPan="magnify"><defs/><g><g><title>ATCC</title><rect fill="#FFFFFF" height="109.1641" style="stroke:#181818;stroke-width:1;" width="10" x="22.0552" y="93.6211"/></g><g><title>.System</title><rect fill="#FFFFFF" height="85.873" style="stroke:#181818;stroke-width:1;" width="10" x="277.5195" y="116.9121"/></g><g class="participant-lifeline" data-entity-uid="part1" data-qualified-name="ATCC" id="part1-lifeline"><g><title>ATCC</title><rect fill="#000000" fill-opacity="0.00000" height="137.1641" width="8" x="23.0552" y="83.6211"/><line style="stroke:#181818;stroke-width:0.5;stroke-dasharray:5,5;" x1="27" x2="27" y1="83.6211" y2="220.7852"/></g></g><g class="participant-lifeline" data-entity-uid="part2" data-qualified-name="System" id="part2-lifeline"><g><title>.System</title><rect fill="#000000" fill-opacity="0.00000" height="137.1641" width="8" x="278.5195" y="83.6211"/><line style="stroke:#181818;stroke-width:0.5;stroke-dasharray:5,5;" x1="282.2368" x2="282.2368" y1="83.6211" y2="220.7852"/></g></g><g class="participant participant-head" data-entity-uid="part1" data-qualified-name="ATCC" id="part1-head"><text fill="#000000" font-family="sans-serif" font-size="14" lengthAdjust="spacing" textLength="38.1104" x="5" y="80.1074">ATCC</text><ellipse cx="27.0552" cy="13.5" fill="#E2E2F0" rx="8" ry="8" style="stroke:#181818;stroke-width:0.5;"/><path d="M27.0552,21.5 L27.0552,48.5 M14.0552,29.5 L40.0552,29.5 M27.0552,48.5 L14.0552,63.5 M27.0552,48.5 L40.0552,63.5" fill="none" style="stroke:#181818;stroke-width:0.5;"/></g><g class="participant participant-tail" data-entity-uid="part1" data-qualified-name="ATCC" id="part1-tail"><text fill="#000000" font-family="sans-serif" font-size="14" lengthAdjust="spacing" textLength="38.1104" x="5" y="234.8926">ATCC</text><ellipse cx="27.0552" cy="246.9063" fill="#E2E2F0" rx="8" ry="8" style="stroke:#181818;stroke-width:0.5;"/><path d="M27.0552,254.9063 L27.0552,281.9063 M14.0552,262.9063 L40.0552,262.9063 M27.0552,281.9063 L14.0552,296.9063 M27.0552,281.9063 L40.0552,296.9063" fill="none" style="stroke:#181818;stroke-width:0.5;"/></g><g class="participant participant-head" data-entity-uid="part2" data-qualified-name="System" id="part2-head"><rect fill="#E2E2F0" height="32.6211" rx="2.5" ry="2.5" style="stroke:#181818;stroke-width:0.5;" width="64.5654" x="250.2368" y="50"/><text fill="#000000" font-family="sans-serif" font-size="14" lengthAdjust="spacing" textLength="50.5654" x="257.2368" y="72.1074">:System</text></g><g class="participant participant-tail" data-entity-uid="part2" data-qualified-name="System" id="part2-tail"><rect fill="#E2E2F0" height="32.6211" rx="2.5" ry="2.5" style="stroke:#181818;stroke-width:0.5;" width="64.5654" x="250.2368" y="219.7852"/><text fill="#000000" font-family="sans-serif" font-size="14" lengthAdjust="spacing" textLength="50.5654" x="257.2368" y="241.8926">:System</text></g><g><title>ATCC</title><rect fill="#FFFFFF" height="109.1641" style="stroke:#181818;stroke-width:1;" width="10" x="22.0552" y="93.6211"/></g><g><title>.System</title><rect fill="#FFFFFF" height="85.873" style="stroke:#181818;stroke-width:1;" width="10" x="277.5195" y="116.9121"/></g><g class="message" data-entity-1="part1" data-entity-2="part2" id="msg1"><polygon fill="#181818" points="265.5195,112.9121,275.5195,116.9121,265.5195,120.9121,269.5195,116.9121" style="stroke:#181818;stroke-width:1;"/><line style="stroke:#181818;stroke-width:1;" x1="32.0552" x2="271.5195" y1="116.9121" y2="116.9121"/><text fill="#000000" font-family="sans-serif" font-size="13" font-weight="bold" lengthAdjust="spacing" textLength="7.23" x="39.0552" y="111.6494">1</text><text fill="#000000" font-family="sans-serif" font-size="13" lengthAdjust="spacing" textLength="142.3398" x="50.2852" y="111.6494">getRouteHistory(routeId)</text></g><path d="M292,129.9121 L292,173.9121 L557,173.9121 L557,139.9121 L547,129.9121 L292,129.9121" fill="#FEFFDD" style="stroke:#181818;stroke-width:0.5;"/><path d="M547,129.9121 L547,139.9121 L557,139.9121 L547,129.9121" fill="#FEFFDD" style="stroke:#181818;stroke-width:0.5;"/><text fill="#000000" font-family="sans-serif" font-size="13" lengthAdjust="spacing" textLength="244.188" x="298" y="148.9404">The system retrieves all historical versions</text><text fill="#000000" font-family="sans-serif" font-size="13" lengthAdjust="spacing" textLength="237.7769" x="298" y="166.2314">of the route, ordered by date descending.</text><g class="message" data-entity-1="part2" data-entity-2="part1" id="msg2"><polygon fill="#181818" points="38.0552,198.7852,28.0552,202.7852,38.0552,206.7852,34.0552,202.7852" style="stroke:#181818;stroke-width:1;"/><line style="stroke:#181818;stroke-width:1;stroke-dasharray:2,2;" x1="32.0552" x2="281.5195" y1="202.7852" y2="202.7852"/><text fill="#000000" font-family="sans-serif" font-size="13" font-weight="bold" lengthAdjust="spacing" textLength="7.23" x="44.0552" y="197.5225">2</text><text fill="#000000" font-family="sans-serif" font-size="13" lengthAdjust="spacing" textLength="210.2344" x="55.2852" y="197.5225">returns list of route versions (history)</text></g><?plantuml-src NOwzRiCm38HtFSN1Km8qVG0F1O8ixTfcxA9Oh4t0aGAIDk2thoIxIT25uDzzTtwo5AVhXSJvpfAWEPvFfmPUKHftysBSySr7GzD-BMfqhTUrTKN5ipTQtql1uMsxeaLFzfacetVMJ5zsKeQFi7_e_a0nvK6u7mpfPzksE0y4NM529ampAVmuOgX0xlo8cKGvHVsEMMXPK4rUa2IGKC1bGIXEWRIZ63Zshyvj2GyvR0tT5luaKJ5cSebGANSuTglZidU1_eT_sXJOBm00?></g></svg>