<svg xmlns="http://www.w3.org/2000/svg" xmlns:xlink="http://www.w3.org/1999/xlink" contentStyleType="text/css" data-diagram-type="SEQUENCE" height="657px" preserveAspectRatio="none" style="width:1291px;height:657px;background:#FFFFFF;" version="1.1" viewBox="0 0 1291 657" width="1291px" zoomAndPan="magnify"><defs/><g><g><title>AircraftController</title><rect fill="#FFFFFF" height="439.0254" style="stroke:#181818;stroke-width:1;" width="10" x="345.0654" y="116.9121"/></g><g><title>GetAircraftByRegistrationUseCase</title><rect fill="#FFFFFF" height="376.4434" style="stroke:#181818;stroke-width:1;" width="10" x="529.3408" y="148.2031"/></g><g><title>RegistrationNumber</title><rect fill="#FFFFFF" height="106.8242" style="stroke:#181818;stroke-width:1;" width="10" x="880.1313" y="244.0762"/></g><g><title>AircraftRepository</title><rect fill="#FFFFFF" height="111.1641" style="stroke:#181818;stroke-width:1;" width="10" x="1022.0068" y="382.1914"/></g><g><title>Database</title><rect fill="#FFFFFF" height="31.291" style="stroke:#181818;stroke-width:1;" width="10" x="1251.8984" y="430.7734"/></g><g><title>ATCC . Backoffice . Admin</title><rect fill="#000000" fill-opacity="0.00000" height="490.3164" width="8" x="86.8584" y="83.6211"/><line style="stroke:#181818;stroke-width:0.5;stroke-dasharray:5,5;" x1="90" x2="90" y1="83.6211" y2="573.9375"/></g><g><title>AircraftController</title><rect fill="#000000" fill-opacity="0.00000" height="490.3164" width="8" x="346.0654" y="83.6211"/><line style="stroke:#181818;stroke-width:0.5;stroke-dasharray:5,5;" x1="349.5518" x2="349.5518" y1="83.6211" y2="573.9375"/></g><g><title>GetAircraftByRegistrationUseCase</title><rect fill="#000000" fill-opacity="0.00000" height="490.3164" width="8" x="530.3408" y="83.6211"/><line style="stroke:#181818;stroke-width:0.5;stroke-dasharray:5,5;" x1="533.5791" x2="533.5791" y1="83.6211" y2="573.9375"/></g><g><title>RegistrationNumber</title><rect fill="#000000" fill-opacity="0.00000" height="322.0313" width="8" x="881.1313" y="251.9063"/><line style="stroke:#181818;stroke-width:0.5;stroke-dasharray:5,5;" x1="884.8833" x2="884.8833" y1="251.9063" y2="573.9375"/></g><g><title>AircraftRepository</title><rect fill="#000000" fill-opacity="0.00000" height="490.3164" width="8" x="1023.0068" y="83.6211"/><line style="stroke:#181818;stroke-width:0.5;stroke-dasharray:5,5;" x1="1026.3794" x2="1026.3794" y1="83.6211" y2="573.9375"/></g><g><title>Database</title><rect fill="#000000" fill-opacity="0.00000" height="490.3164" width="8" x="1252.8984" y="83.6211"/><line style="stroke:#181818;stroke-width:0.5;stroke-dasharray:5,5;" x1="1255.9331" x2="1255.9331" y1="83.6211" y2="573.9375"/></g><g class="participant participant-head" data-participant="User"><text fill="#000000" font-family="sans-serif" font-size="14" lengthAdjust="spacing" textLength="165.7168" x="5" y="80.1074">ATCC / Backoffice / Admin</text><ellipse cx="90.8584" cy="13.5" fill="#E2E2F0" rx="8" ry="8" style="stroke:#181818;stroke-width:0.5;"/><path d="M90.8584,21.5 L90.8584,48.5 M77.8584,29.5 L103.8584,29.5 M90.8584,48.5 L77.8584,63.5 M90.8584,48.5 L103.8584,63.5" fill="none" style="stroke:#181818;stroke-width:0.5;"/></g><g class="participant participant-tail" data-participant="User"><text fill="#000000" font-family="sans-serif" font-size="14" lengthAdjust="spacing" textLength="165.7168" x="5" y="588.0449">ATCC / Backoffice / Admin</text><ellipse cx="90.8584" cy="600.0586" fill="#E2E2F0" rx="8" ry="8" style="stroke:#181818;stroke-width:0.5;"/><path d="M90.8584,608.0586 L90.8584,635.0586 M77.8584,616.0586 L103.8584,616.0586 M90.8584,635.0586 L77.8584,650.0586 M90.8584,635.0586 L103.8584,650.0586" fill="none" style="stroke:#181818;stroke-width:0.5;"/></g><g class="participant participant-head" data-participant="Ctrl"><rect fill="#E2E2F0" height="32.6211" rx="2.5" ry="2.5" style="stroke:#181818;stroke-width:0.5;" width="119.0273" x="290.5518" y="50"/><text fill="#000000" font-family="sans-serif" font-size="14" lengthAdjust="spacing" textLength="105.0273" x="297.5518" y="72.1074">AircraftController</text></g><g class="participant participant-tail" data-participant="Ctrl"><rect fill="#E2E2F0" height="32.6211" rx="2.5" ry="2.5" style="stroke:#181818;stroke-width:0.5;" width="119.0273" x="290.5518" y="572.9375"/><text fill="#000000" font-family="sans-serif" font-size="14" lengthAdjust="spacing" textLength="105.0273" x="297.5518" y="595.0449">AircraftController</text></g><g class="participant participant-head" data-participant="UC"><rect fill="#E2E2F0" height="32.6211" rx="2.5" ry="2.5" style="stroke:#181818;stroke-width:0.5;" width="229.5234" x="419.5791" y="50"/><text fill="#000000" font-family="sans-serif" font-size="14" lengthAdjust="spacing" textLength="215.5234" x="426.5791" y="72.1074">GetAircraftByRegistrationUseCase</text></g><g class="participant participant-tail" data-participant="UC"><rect fill="#E2E2F0" height="32.6211" rx="2.5" ry="2.5" style="stroke:#181818;stroke-width:0.5;" width="229.5234" x="419.5791" y="572.9375"/><text fill="#000000" font-family="sans-serif" font-size="14" lengthAdjust="spacing" textLength="215.5234" x="426.5791" y="595.0449">GetAircraftByRegistrationUseCase</text></g><g class="participant participant-tail" data-participant="VO"><rect fill="#E2E2F0" height="51.2422" rx="2.5" ry="2.5" style="stroke:#181818;stroke-width:0.5;" width="138.4961" x="815.8833" y="572.9375"/><text fill="#000000" font-family="sans-serif" font-size="14" lengthAdjust="spacing" textLength="124.4961" x="822.8833" y="595.0449">RegistrationNumber</text><text fill="#000000" font-family="sans-serif" font-size="14" lengthAdjust="spacing" textLength="89.4824" x="840.3901" y="613.666">(Value Object)</text></g><g class="participant participant-head" data-participant="Repo"><rect fill="#E2E2F0" height="32.6211" rx="2.5" ry="2.5" style="stroke:#181818;stroke-width:0.5;" width="125.2549" x="964.3794" y="50"/><text fill="#000000" font-family="sans-serif" font-size="14" lengthAdjust="spacing" textLength="111.2549" x="971.3794" y="72.1074">AircraftRepository</text></g><g class="participant participant-tail" data-participant="Repo"><rect fill="#E2E2F0" height="32.6211" rx="2.5" ry="2.5" style="stroke:#181818;stroke-width:0.5;" width="125.2549" x="964.3794" y="572.9375"/><text fill="#000000" font-family="sans-serif" font-size="14" lengthAdjust="spacing" textLength="111.2549" x="971.3794" y="595.0449">AircraftRepository</text></g><g class="participant participant-head" data-participant="DB"><text fill="#000000" font-family="sans-serif" font-size="14" lengthAdjust="spacing" textLength="59.9307" x="1223.9331" y="80.1074">Database</text><path d="M1238.8984,29 C1238.8984,19 1256.8984,19 1256.8984,19 C1256.8984,19 1274.8984,19 1274.8984,29 L1274.8984,55 C1274.8984,65 1256.8984,65 1256.8984,65 C1256.8984,65 1238.8984,65 1238.8984,55 L1238.8984,29" fill="#E2E2F0" style="stroke:#181818;stroke-width:0.5;"/><path d="M1238.8984,29 C1238.8984,39 1256.8984,39 1256.8984,39 C1256.8984,39 1274.8984,39 1274.8984,29" fill="none" style="stroke:#181818;stroke-width:0.5;"/></g><g class="participant participant-tail" data-participant="DB"><text fill="#000000" font-family="sans-serif" font-size="14" lengthAdjust="spacing" textLength="59.9307" x="1223.9331" y="588.0449">Database</text><path d="M1238.8984,601.5586 C1238.8984,591.5586 1256.8984,591.5586 1256.8984,591.5586 C1256.8984,591.5586 1274.8984,591.5586 1274.8984,601.5586 L1274.8984,627.5586 C1274.8984,637.5586 1256.8984,637.5586 1256.8984,637.5586 C1256.8984,637.5586 1238.8984,637.5586 1238.8984,627.5586 L1238.8984,601.5586" fill="#E2E2F0" style="stroke:#181818;stroke-width:0.5;"/><path d="M1238.8984,601.5586 C1238.8984,611.5586 1256.8984,611.5586 1256.8984,611.5586 C1256.8984,611.5586 1274.8984,611.5586 1274.8984,601.5586" fill="none" style="stroke:#181818;stroke-width:0.5;"/></g><g><title>AircraftController</title><rect fill="#FFFFFF" height="439.0254" style="stroke:#181818;stroke-width:1;" width="10" x="345.0654" y="116.9121"/></g><g><title>GetAircraftByRegistrationUseCase</title><rect fill="#FFFFFF" height="376.4434" style="stroke:#181818;stroke-width:1;" width="10" x="529.3408" y="148.2031"/></g><g><title>RegistrationNumber</title><rect fill="#FFFFFF" height="106.8242" style="stroke:#181818;stroke-width:1;" width="10" x="880.1313" y="244.0762"/></g><g><title>AircraftRepository</title><rect fill="#FFFFFF" height="111.1641" style="stroke:#181818;stroke-width:1;" width="10" x="1022.0068" y="382.1914"/></g><g><title>Database</title><rect fill="#FFFFFF" height="31.291" style="stroke:#181818;stroke-width:1;" width="10" x="1251.8984" y="430.7734"/></g><g class="message" data-participant-1="User" data-participant-2="Ctrl"><polygon fill="#181818" points="333.0654,112.9121,343.0654,116.9121,333.0654,120.9121,337.0654,116.9121" style="stroke:#181818;stroke-width:1;"/><line style="stroke:#181818;stroke-width:1;" x1="90.8584" x2="339.0654" y1="116.9121" y2="116.9121"/><text fill="#000000" font-family="sans-serif" font-size="13" font-weight="bold" lengthAdjust="spacing" textLength="7.23" x="97.8584" y="111.6494">1</text><text fill="#000000" font-family="sans-serif" font-size="13" lengthAdjust="spacing" textLength="223.9771" x="109.0884" y="111.6494">GET /api/aircrafts/{registrationNumber}</text></g><g class="message" data-participant-1="Ctrl" data-participant-2="UC"><polygon fill="#181818" points="517.3408,144.2031,527.3408,148.2031,517.3408,152.2031,521.3408,148.2031" style="stroke:#181818;stroke-width:1;"/><line style="stroke:#181818;stroke-width:1;" x1="355.0654" x2="523.3408" y1="148.2031" y2="148.2031"/><text fill="#000000" font-family="sans-serif" font-size="13" font-weight="bold" lengthAdjust="spacing" textLength="7.23" x="362.0654" y="142.9404">2</text><text fill="#000000" font-family="sans-serif" font-size="13" lengthAdjust="spacing" textLength="143.7808" x="373.2954" y="142.9404">execute(registrationText)</text></g><path d="M544,161.2031 L544,205.2031 L740,205.2031 L740,171.2031 L730,161.2031 L544,161.2031" fill="#FEFFDD" style="stroke:#181818;stroke-width:0.5;"/><path d="M730,161.2031 L730,171.2031 L740,171.2031 L730,161.2031" fill="#FEFFDD" style="stroke:#181818;stroke-width:0.5;"/><text fill="#000000" font-family="sans-serif" font-size="13" lengthAdjust="spacing" textLength="175.5635" x="550" y="180.2314">registrationText is a raw String</text><text fill="#000000" font-family="sans-serif" font-size="13" lengthAdjust="spacing" textLength="94.4658" x="550" y="197.5225">(e.g., "CS-TPA")</text><g class="message" data-participant-1="UC" data-participant-2="VO"><polygon fill="#181818" points="803.8833,230.0762,813.8833,234.0762,803.8833,238.0762,807.8833,234.0762" style="stroke:#181818;stroke-width:1;"/><line style="stroke:#181818;stroke-width:1;" x1="539.3408" x2="809.8833" y1="234.0762" y2="234.0762"/><text fill="#000000" font-family="sans-serif" font-size="13" font-weight="bold" lengthAdjust="spacing" textLength="7.23" x="546.3408" y="228.8135">3</text><text fill="#000000" font-family="sans-serif" font-size="13" lengthAdjust="spacing" textLength="241.3125" x="557.5708" y="228.8135">new RegistrationNumber(registrationText)</text></g><rect fill="#E2E2F0" height="51.2422" rx="2.5" ry="2.5" style="stroke:#181818;stroke-width:0.5;" width="138.4961" x="815.8833" y="210.7852"/><text fill="#000000" font-family="sans-serif" font-size="14" lengthAdjust="spacing" textLength="124.4961" x="822.8833" y="232.8926">RegistrationNumber</text><text fill="#000000" font-family="sans-serif" font-size="14" lengthAdjust="spacing" textLength="89.4824" x="840.3901" y="251.5137">(Value Object)</text><path d="M895,278.0273 L895,322.0273 L1049,322.0273 L1049,288.0273 L1039,278.0273 L895,278.0273" fill="#FEFFDD" style="stroke:#181818;stroke-width:0.5;"/><path d="M1039,278.0273 L1039,288.0273 L1049,288.0273 L1039,278.0273" fill="#FEFFDD" style="stroke:#181818;stroke-width:0.5;"/><text fill="#000000" font-family="sans-serif" font-size="13" lengthAdjust="spacing" textLength="132.9707" x="901" y="297.0557">Value Object validation</text><text fill="#000000" font-family="sans-serif" font-size="13" lengthAdjust="spacing" textLength="133.6816" x="901" y="314.3467">(e.g., cannot be empty)</text><g class="message" data-participant-1="VO" data-participant-2="UC"><polygon fill="#181818" points="550.3408,346.9004,540.3408,350.9004,550.3408,354.9004,546.3408,350.9004" style="stroke:#181818;stroke-width:1;"/><line style="stroke:#181818;stroke-width:1;stroke-dasharray:2,2;" x1="544.3408" x2="884.1313" y1="350.9004" y2="350.9004"/><text fill="#000000" font-family="sans-serif" font-size="13" font-weight="bold" lengthAdjust="spacing" textLength="7.23" x="556.3408" y="345.6377">4</text><text fill="#000000" font-family="sans-serif" font-size="13" lengthAdjust="spacing" textLength="151.728" x="567.5708" y="345.6377">regNumber (validated VO)</text></g><g class="message" data-participant-1="UC" data-participant-2="Repo"><polygon fill="#181818" points="1010.0068,378.1914,1020.0068,382.1914,1010.0068,386.1914,1014.0068,382.1914" style="stroke:#181818;stroke-width:1;"/><line style="stroke:#181818;stroke-width:1;" x1="539.3408" x2="1016.0068" y1="382.1914" y2="382.1914"/><text fill="#000000" font-family="sans-serif" font-size="13" font-weight="bold" lengthAdjust="spacing" textLength="7.23" x="546.3408" y="376.9287">5</text><text fill="#000000" font-family="sans-serif" font-size="13" lengthAdjust="spacing" textLength="225.418" x="557.5708" y="376.9287">findByRegistrationNumber(regNumber)</text></g><g class="message" data-participant-1="Repo" data-participant-2="DB"><polygon fill="#181818" points="1239.8984,426.7734,1249.8984,430.7734,1239.8984,434.7734,1243.8984,430.7734" style="stroke:#181818;stroke-width:1;"/><line style="stroke:#181818;stroke-width:1;" x1="1032.0068" x2="1245.8984" y1="430.7734" y2="430.7734"/><text fill="#000000" font-family="sans-serif" font-size="13" font-weight="bold" lengthAdjust="spacing" textLength="7.23" x="1039.0068" y="416.8652">6</text><text fill="#000000" font-family="sans-serif" font-size="13" lengthAdjust="spacing" textLength="150.9663" x="1050.2368" y="408.2197">SELECT * FROM aircrafts</text><text fill="#000000" font-family="sans-serif" font-size="13" lengthAdjust="spacing" textLength="189.6616" x="1050.2368" y="425.5107">WHERE registration_number = ?</text></g><g class="message" data-participant-1="DB" data-participant-2="Repo"><polygon fill="#181818" points="1043.0068,458.0645,1033.0068,462.0645,1043.0068,466.0645,1039.0068,462.0645" style="stroke:#181818;stroke-width:1;"/><line style="stroke:#181818;stroke-width:1;stroke-dasharray:2,2;" x1="1037.0068" x2="1255.8984" y1="462.0645" y2="462.0645"/><text fill="#000000" font-family="sans-serif" font-size="13" font-weight="bold" lengthAdjust="spacing" textLength="7.23" x="1049.0068" y="456.8018">7</text><text fill="#000000" font-family="sans-serif" font-size="13" lengthAdjust="spacing" textLength="80.1899" x="1060.2368" y="456.8018">aircraft record</text></g><g class="message" data-participant-1="Repo" data-participant-2="UC"><polygon fill="#181818" points="550.3408,489.3555,540.3408,493.3555,550.3408,497.3555,546.3408,493.3555" style="stroke:#181818;stroke-width:1;"/><line style="stroke:#181818;stroke-width:1;stroke-dasharray:2,2;" x1="544.3408" x2="1026.0068" y1="493.3555" y2="493.3555"/><text fill="#000000" font-family="sans-serif" font-size="13" font-weight="bold" lengthAdjust="spacing" textLength="7.23" x="556.3408" y="488.0928">8</text><text fill="#000000" font-family="sans-serif" font-size="13" lengthAdjust="spacing" textLength="84.5127" x="567.5708" y="488.0928">aircraft (Entity)</text></g><g class="message" data-participant-1="UC" data-participant-2="Ctrl"><polygon fill="#181818" points="366.0654,520.6465,356.0654,524.6465,366.0654,528.6465,362.0654,524.6465" style="stroke:#181818;stroke-width:1;"/><line style="stroke:#181818;stroke-width:1;stroke-dasharray:2,2;" x1="360.0654" x2="533.3408" y1="524.6465" y2="524.6465"/><text fill="#000000" font-family="sans-serif" font-size="13" font-weight="bold" lengthAdjust="spacing" textLength="7.23" x="372.0654" y="519.3838">9</text><text fill="#000000" font-family="sans-serif" font-size="13" lengthAdjust="spacing" textLength="39.73" x="383.2954" y="519.3838">aircraft</text></g><g class="message" data-participant-1="Ctrl" data-participant-2="User"><polygon fill="#181818" points="101.8584,551.9375,91.8584,555.9375,101.8584,559.9375,97.8584,555.9375" style="stroke:#181818;stroke-width:1;"/><line style="stroke:#181818;stroke-width:1;stroke-dasharray:2,2;" x1="95.8584" x2="349.0654" y1="555.9375" y2="555.9375"/><text fill="#000000" font-family="sans-serif" font-size="13" font-weight="bold" lengthAdjust="spacing" textLength="14.46" x="107.8584" y="550.6748">10</text><text fill="#000000" font-family="sans-serif" font-size="13" lengthAdjust="spacing" textLength="153.1753" x="126.3184" y="550.6748">200 OK (JSON Response)</text></g><!--SRC=[VL9BZvim4BxpAqQS86esgnuZjLNYqAtwMAg4JIyhLHCOKhV4HiRPtMZL_zwn2G6wLMysVAyPVtYqMXqFEp81vbOR21UP43239UQ_T5dAdFYoA0vIXO0Dt3MChD5OcSiQbMMyDBd1qWgjhD5LHSO3XJNL67X3jiCkJslQoyOQj58hrXJOKAilngGXxjRdl5VH5giZGRhxIRcDFMsR_ZlKcchTI9xhv67k6XHeSST-4AxE9_zljGm2DnrCt_hmC8UR98CPrdA6PxbczcnU1FhjDYSVq58xTE3Ph78dM8EUA3zQYeQyZ9vitBDuva1fFXYv_s51b_nb3dyJG3Q0OF0HDjP8jUSzqDN-wXM4OZFDlYx2cFCBvxjDOJ9XQqMFy79__ql2Qnm7sQPp66uR7h2IXQTU_7DKJ88T0HrgUue3zfzsuxDPQmlHcKe5gyP1GKFNStBtFamgfIh65UcZjwT1Pl-cWMUomch9_4toEH4PJE3zElq2byUxLzy-9EjajDdlRVdX3Rph9RaAh3Fj0tKIJCsrAORXNMrQysxa2pXAb9Lk8GDuczPDszUi8mnnhXDjZvoig-KSNbzVG_e9ee-Rz9Q5cbghXaRgZl47]--></g></svg>