<svg xmlns="http://www.w3.org/2000/svg" xmlns:xlink="http://www.w3.org/1999/xlink" contentStyleType="text/css" data-diagram-type="SEQUENCE" height="587px" preserveAspectRatio="none" style="width:1134px;height:587px;background:#FFFFFF;" version="1.1" viewBox="0 0 1134 587" width="1134px" zoomAndPan="magnify"><defs/><g><g><title>AircraftModelController</title><rect fill="#FFFFFF" height="369.7832" style="stroke:#181818;stroke-width:1;" width="10" x="413.4131" y="116.9121"/></g><g><title>GetTopUtilizedModelsUseCase</title><rect fill="#FFFFFF" height="307.2012" style="stroke:#181818;stroke-width:1;" width="10" x="653.0273" y="148.2031"/></g><g><title>AircraftRepository</title><rect fill="#FFFFFF" height="93.873" style="stroke:#181818;stroke-width:1;" width="10" x="900.5825" y="179.4941"/></g><g><title>Database</title><rect fill="#FFFFFF" height="31.291" style="stroke:#181818;stroke-width:1;" width="10" x="1094.646" y="210.7852"/></g><g><title>Backoffice Operator.Admin</title><rect fill="#000000" fill-opacity="0.00000" height="421.0742" width="8" x="87.6479" y="83.6211"/><line style="stroke:#181818;stroke-width:0.5;stroke-dasharray:5,5;" x1="91" x2="91" y1="83.6211" y2="504.6953"/></g><g><title>AircraftModelController</title><rect fill="#000000" fill-opacity="0.00000" height="421.0742" width="8" x="414.4131" y="83.6211"/><line style="stroke:#181818;stroke-width:0.5;stroke-dasharray:5,5;" x1="417.834" x2="417.834" y1="83.6211" y2="504.6953"/></g><g><title>GetTopUtilizedModelsUseCase</title><rect fill="#000000" fill-opacity="0.00000" height="421.0742" width="8" x="654.0273" y="83.6211"/><line style="stroke:#181818;stroke-width:0.5;stroke-dasharray:5,5;" x1="657.376" x2="657.376" y1="83.6211" y2="504.6953"/></g><g><title>AircraftRepository</title><rect fill="#000000" fill-opacity="0.00000" height="421.0742" width="8" x="901.5825" y="83.6211"/><line style="stroke:#181818;stroke-width:0.5;stroke-dasharray:5,5;" x1="904.9551" x2="904.9551" y1="83.6211" y2="504.6953"/></g><g><title>Database</title><rect fill="#000000" fill-opacity="0.00000" height="421.0742" width="8" x="1095.646" y="83.6211"/><line style="stroke:#181818;stroke-width:0.5;stroke-dasharray:5,5;" x1="1098.6807" x2="1098.6807" y1="83.6211" y2="504.6953"/></g><g class="participant participant-head" data-participant="BO"><text fill="#000000" font-family="sans-serif" font-size="14" lengthAdjust="spacing" textLength="167.2959" x="5" y="80.1074">Backoffice Operator/Admin</text><ellipse cx="91.6479" cy="13.5" fill="#E2E2F0" rx="8" ry="8" style="stroke:#181818;stroke-width:0.5;"/><path d="M91.6479,21.5 L91.6479,48.5 M78.6479,29.5 L104.6479,29.5 M91.6479,48.5 L78.6479,63.5 M91.6479,48.5 L104.6479,63.5" fill="none" style="stroke:#181818;stroke-width:0.5;"/></g><g class="participant participant-tail" data-participant="BO"><text fill="#000000" font-family="sans-serif" font-size="14" lengthAdjust="spacing" textLength="167.2959" x="5" y="518.8027">Backoffice Operator/Admin</text><ellipse cx="91.6479" cy="530.8164" fill="#E2E2F0" rx="8" ry="8" style="stroke:#181818;stroke-width:0.5;"/><path d="M91.6479,538.8164 L91.6479,565.8164 M78.6479,546.8164 L104.6479,546.8164 M91.6479,565.8164 L78.6479,580.8164 M91.6479,565.8164 L104.6479,580.8164" fill="none" style="stroke:#181818;stroke-width:0.5;"/></g><g class="participant participant-head" data-participant="Ctrl"><rect fill="#E2E2F0" height="32.6211" rx="2.5" ry="2.5" style="stroke:#181818;stroke-width:0.5;" width="157.1582" x="339.834" y="50"/><text fill="#000000" font-family="sans-serif" font-size="14" lengthAdjust="spacing" textLength="143.1582" x="346.834" y="72.1074">AircraftModelController</text></g><g class="participant participant-tail" data-participant="Ctrl"><rect fill="#E2E2F0" height="32.6211" rx="2.5" ry="2.5" style="stroke:#181818;stroke-width:0.5;" width="157.1582" x="339.834" y="503.6953"/><text fill="#000000" font-family="sans-serif" font-size="14" lengthAdjust="spacing" textLength="143.1582" x="346.834" y="525.8027">AircraftModelController</text></g><g class="participant participant-head" data-participant="UC"><rect fill="#E2E2F0" height="32.6211" rx="2.5" ry="2.5" style="stroke:#181818;stroke-width:0.5;" width="209.3027" x="553.376" y="50"/><text fill="#000000" font-family="sans-serif" font-size="14" lengthAdjust="spacing" textLength="195.3027" x="560.376" y="72.1074">GetTopUtilizedModelsUseCase</text></g><g class="participant participant-tail" data-participant="UC"><rect fill="#E2E2F0" height="32.6211" rx="2.5" ry="2.5" style="stroke:#181818;stroke-width:0.5;" width="209.3027" x="553.376" y="503.6953"/><text fill="#000000" font-family="sans-serif" font-size="14" lengthAdjust="spacing" textLength="195.3027" x="560.376" y="525.8027">GetTopUtilizedModelsUseCase</text></g><g class="participant participant-head" data-participant="Repo"><rect fill="#E2E2F0" height="32.6211" rx="2.5" ry="2.5" style="stroke:#181818;stroke-width:0.5;" width="125.2549" x="842.9551" y="50"/><text fill="#000000" font-family="sans-serif" font-size="14" lengthAdjust="spacing" textLength="111.2549" x="849.9551" y="72.1074">AircraftRepository</text></g><g class="participant participant-tail" data-participant="Repo"><rect fill="#E2E2F0" height="32.6211" rx="2.5" ry="2.5" style="stroke:#181818;stroke-width:0.5;" width="125.2549" x="842.9551" y="503.6953"/><text fill="#000000" font-family="sans-serif" font-size="14" lengthAdjust="spacing" textLength="111.2549" x="849.9551" y="525.8027">AircraftRepository</text></g><g class="participant participant-head" data-participant="DB"><text fill="#000000" font-family="sans-serif" font-size="14" lengthAdjust="spacing" textLength="59.9307" x="1066.6807" y="80.1074">Database</text><path d="M1081.646,29 C1081.646,19 1099.646,19 1099.646,19 C1099.646,19 1117.646,19 1117.646,29 L1117.646,55 C1117.646,65 1099.646,65 1099.646,65 C1099.646,65 1081.646,65 1081.646,55 L1081.646,29" fill="#E2E2F0" style="stroke:#181818;stroke-width:0.5;"/><path d="M1081.646,29 C1081.646,39 1099.646,39 1099.646,39 C1099.646,39 1117.646,39 1117.646,29" fill="none" style="stroke:#181818;stroke-width:0.5;"/></g><g class="participant participant-tail" data-participant="DB"><text fill="#000000" font-family="sans-serif" font-size="14" lengthAdjust="spacing" textLength="59.9307" x="1066.6807" y="518.8027">Database</text><path d="M1081.646,532.3164 C1081.646,522.3164 1099.646,522.3164 1099.646,522.3164 C1099.646,522.3164 1117.646,522.3164 1117.646,532.3164 L1117.646,558.3164 C1117.646,568.3164 1099.646,568.3164 1099.646,568.3164 C1099.646,568.3164 1081.646,568.3164 1081.646,558.3164 L1081.646,532.3164" fill="#E2E2F0" style="stroke:#181818;stroke-width:0.5;"/><path d="M1081.646,532.3164 C1081.646,542.3164 1099.646,542.3164 1099.646,542.3164 C1099.646,542.3164 1117.646,542.3164 1117.646,532.3164" fill="none" style="stroke:#181818;stroke-width:0.5;"/></g><g><title>AircraftModelController</title><rect fill="#FFFFFF" height="369.7832" style="stroke:#181818;stroke-width:1;" width="10" x="413.4131" y="116.9121"/></g><g><title>GetTopUtilizedModelsUseCase</title><rect fill="#FFFFFF" height="307.2012" style="stroke:#181818;stroke-width:1;" width="10" x="653.0273" y="148.2031"/></g><g><title>AircraftRepository</title><rect fill="#FFFFFF" height="93.873" style="stroke:#181818;stroke-width:1;" width="10" x="900.5825" y="179.4941"/></g><g><title>Database</title><rect fill="#FFFFFF" height="31.291" style="stroke:#181818;stroke-width:1;" width="10" x="1094.646" y="210.7852"/></g><g class="message" data-participant-1="BO" data-participant-2="Ctrl"><polygon fill="#181818" points="401.4131,112.9121,411.4131,116.9121,401.4131,120.9121,405.4131,116.9121" style="stroke:#181818;stroke-width:1;"/><line style="stroke:#181818;stroke-width:1;" x1="91.6479" x2="407.4131" y1="116.9121" y2="116.9121"/><text fill="#000000" font-family="sans-serif" font-size="13" font-weight="bold" lengthAdjust="spacing" textLength="7.23" x="98.6479" y="111.6494">1</text><text fill="#000000" font-family="sans-serif" font-size="13" lengthAdjust="spacing" textLength="291.5352" x="109.8779" y="111.6494">GET /api/aircraft-models/top-utilized?sortBy=hours</text></g><g class="message" data-participant-1="Ctrl" data-participant-2="UC"><polygon fill="#181818" points="641.0273,144.2031,651.0273,148.2031,641.0273,152.2031,645.0273,148.2031" style="stroke:#181818;stroke-width:1;"/><line style="stroke:#181818;stroke-width:1;" x1="423.4131" x2="647.0273" y1="148.2031" y2="148.2031"/><text fill="#000000" font-family="sans-serif" font-size="13" font-weight="bold" lengthAdjust="spacing" textLength="7.23" x="430.4131" y="142.9404">2</text><text fill="#000000" font-family="sans-serif" font-size="13" lengthAdjust="spacing" textLength="95.9385" x="441.6431" y="142.9404">execute("hours")</text></g><g class="message" data-participant-1="UC" data-participant-2="Repo"><polygon fill="#181818" points="888.5825,175.4941,898.5825,179.4941,888.5825,183.4941,892.5825,179.4941" style="stroke:#181818;stroke-width:1;"/><line style="stroke:#181818;stroke-width:1;" x1="663.0273" x2="894.5825" y1="179.4941" y2="179.4941"/><text fill="#000000" font-family="sans-serif" font-size="13" font-weight="bold" lengthAdjust="spacing" textLength="7.23" x="670.0273" y="174.2314">3</text><text fill="#000000" font-family="sans-serif" font-size="13" lengthAdjust="spacing" textLength="44.0654" x="681.2573" y="174.2314">findAll()</text></g><g class="message" data-participant-1="Repo" data-participant-2="DB"><polygon fill="#181818" points="1082.646,206.7852,1092.646,210.7852,1082.646,214.7852,1086.646,210.7852" style="stroke:#181818;stroke-width:1;"/><line style="stroke:#181818;stroke-width:1;" x1="910.5825" x2="1088.646" y1="210.7852" y2="210.7852"/><text fill="#000000" font-family="sans-serif" font-size="13" font-weight="bold" lengthAdjust="spacing" textLength="7.23" x="917.5825" y="205.5225">4</text><text fill="#000000" font-family="sans-serif" font-size="13" lengthAdjust="spacing" textLength="150.9663" x="928.8125" y="205.5225">SELECT * FROM aircrafts</text></g><g class="message" data-participant-1="DB" data-participant-2="Repo"><polygon fill="#181818" points="921.5825,238.0762,911.5825,242.0762,921.5825,246.0762,917.5825,242.0762" style="stroke:#181818;stroke-width:1;"/><line style="stroke:#181818;stroke-width:1;stroke-dasharray:2,2;" x1="915.5825" x2="1098.646" y1="242.0762" y2="242.0762"/><text fill="#000000" font-family="sans-serif" font-size="13" font-weight="bold" lengthAdjust="spacing" textLength="7.23" x="927.5825" y="236.8135">5</text><text fill="#000000" font-family="sans-serif" font-size="13" lengthAdjust="spacing" textLength="148.8335" x="938.8125" y="236.8135">list of all aircraft instances</text></g><g class="message" data-participant-1="Repo" data-participant-2="UC"><polygon fill="#181818" points="674.0273,269.3672,664.0273,273.3672,674.0273,277.3672,670.0273,273.3672" style="stroke:#181818;stroke-width:1;"/><line style="stroke:#181818;stroke-width:1;stroke-dasharray:2,2;" x1="668.0273" x2="904.5825" y1="273.3672" y2="273.3672"/><text fill="#000000" font-family="sans-serif" font-size="13" font-weight="bold" lengthAdjust="spacing" textLength="7.23" x="680.0273" y="268.1045">6</text><text fill="#000000" font-family="sans-serif" font-size="13" lengthAdjust="spacing" textLength="76.5845" x="691.2573" y="268.1045">List&lt;Aircraft&gt;</text></g><path d="M668,286.3672 L668,382.3672 L886,382.3672 L886,296.3672 L876,286.3672 L668,286.3672" fill="#FEFFDD" style="stroke:#181818;stroke-width:0.5;"/><path d="M876,286.3672 L876,296.3672 L886,296.3672 L876,286.3672" fill="#FEFFDD" style="stroke:#181818;stroke-width:0.5;"/><text fill="#000000" font-family="sans-serif" font-size="13" lengthAdjust="spacing" textLength="152.4453" x="674" y="305.3955">Groups aircrafts by model.</text><text fill="#000000" font-family="sans-serif" font-size="13" lengthAdjust="spacing" textLength="153.1816" x="674" y="322.6865">Sums totalFlightHours and</text><text fill="#000000" font-family="sans-serif" font-size="13" lengthAdjust="spacing" textLength="197.2534" x="674" y="339.9775">numberOfAssignments per model.</text><text fill="#000000" font-family="sans-serif" font-size="13" lengthAdjust="spacing" textLength="179.1753" x="674" y="357.2686">Sorts by chosen criteria DESC.</text><text fill="#000000" font-family="sans-serif" font-size="13" lengthAdjust="spacing" textLength="105.4854" x="674" y="374.5596">Limits to 5 entries.</text><g class="message" data-participant-1="UC" data-participant-2="UC"><line style="stroke:#181818;stroke-width:1;" x1="663.0273" x2="705.0273" y1="411.1133" y2="411.1133"/><line style="stroke:#181818;stroke-width:1;" x1="705.0273" x2="705.0273" y1="411.1133" y2="424.1133"/><line style="stroke:#181818;stroke-width:1;" x1="664.0273" x2="705.0273" y1="424.1133" y2="424.1133"/><polygon fill="#181818" points="674.0273,420.1133,664.0273,424.1133,674.0273,428.1133,670.0273,424.1133" style="stroke:#181818;stroke-width:1;"/><text fill="#000000" font-family="sans-serif" font-size="13" font-weight="bold" lengthAdjust="spacing" textLength="7.23" x="670.0273" y="405.8506">7</text><text fill="#000000" font-family="sans-serif" font-size="13" lengthAdjust="spacing" textLength="202.3252" x="681.2573" y="405.8506">map to TopUtilizedModelResponse</text></g><g class="message" data-participant-1="UC" data-participant-2="Ctrl"><polygon fill="#181818" points="434.4131,451.4043,424.4131,455.4043,434.4131,459.4043,430.4131,455.4043" style="stroke:#181818;stroke-width:1;"/><line style="stroke:#181818;stroke-width:1;stroke-dasharray:2,2;" x1="428.4131" x2="657.0273" y1="455.4043" y2="455.4043"/><text fill="#000000" font-family="sans-serif" font-size="13" font-weight="bold" lengthAdjust="spacing" textLength="7.23" x="440.4131" y="450.1416">8</text><text fill="#000000" font-family="sans-serif" font-size="13" lengthAdjust="spacing" textLength="194.3843" x="451.6431" y="450.1416">List&lt;TopUtilizedModelResponse&gt;</text></g><g class="message" data-participant-1="Ctrl" data-participant-2="BO"><polygon fill="#181818" points="102.6479,482.6953,92.6479,486.6953,102.6479,490.6953,98.6479,486.6953" style="stroke:#181818;stroke-width:1;"/><line style="stroke:#181818;stroke-width:1;stroke-dasharray:2,2;" x1="96.6479" x2="417.4131" y1="486.6953" y2="486.6953"/><text fill="#000000" font-family="sans-serif" font-size="13" font-weight="bold" lengthAdjust="spacing" textLength="7.23" x="108.6479" y="481.4326">9</text><text fill="#000000" font-family="sans-serif" font-size="13" lengthAdjust="spacing" textLength="151.7217" x="119.8779" y="481.4326">200 OK (JSON Collection)</text></g><!--SRC=[TP91Rzim38Nl_XM4J-c0D4M1NOgjG-oa7RPq1fBurWjZqurGMJ8aUbZswqV9IUqEsqqslqS-FH5xjgPl3-GIhDWwI3EiNctJg8gWwCYX_5miwrQP5D13LYGTEbQLwj0mf4lbAeSDFzcQT6uDEwirkSZcxFHx-f5uRxkIbLQ_gOuQNthAqLDKbFc_ks-firw9arF4mcTI8-D1X92kpgTOMsL9aXKmlu_ZuGuUrtjOOASMU6usR-FS1Tjktf-jVF7MSNRwVBIzyo49zHEPXXiaiP4qB7DfHx-ewfbcQKJJgn4MyuaW0WP_WZRAr4kjPnCcEazYNRXL9jHklLddU_W03zlY2Iuc9oRaHWBEnxvQUGRR06hzneCodj5Kv9EQfjBpi8lzZMW_NMAzdxA3DMFbwDJBCKueSydFsRxpep4ud20cUFriTdthWIsZVj11ypLa0cZgPpCiLT4ilLSlfYKZIbcdKIg1nrxLqNeoK3d5v1J2QhtBfRvHhUBG73w2Y9qYVtt9DzwanIvK_zwdBVdE6ay3Ewv1lFZ_u7T1X7SSdbpKiaftS7jp0yLtc7tR5JyW3mikh3LNKrLG_040]--></g></svg>