<?plantuml 1.2026.2?><svg xmlns="http://www.w3.org/2000/svg" xmlns:xlink="http://www.w3.org/1999/xlink" contentStyleType="text/css" data-diagram-type="SEQUENCE" height="939px" preserveAspectRatio="none" style="width:1252px;height:939px;background:#FFFFFF;" version="1.1" viewBox="0 0 1252 939" width="1252px" zoomAndPan="magnify"><defs/><g><g><title>RouteController</title><rect fill="#FFFFFF" height="308.2012" style="stroke:#181818;stroke-width:1;" width="10" x="289.7349" y="162.2031"/></g><g><title>RouteController</title><rect fill="#FFFFFF" height="290.9102" style="stroke:#181818;stroke-width:1;" width="10" x="289.7349" y="546.9863"/></g><g><title>GetRouteByIdUseCase</title><rect fill="#FFFFFF" height="245.6191" style="stroke:#181818;stroke-width:1;" width="10" x="435.5171" y="193.4941"/></g><g><title>ListRoutesByAirportUseCase</title><rect fill="#FFFFFF" height="228.3281" style="stroke:#181818;stroke-width:1;" width="10" x="622.9233" y="578.2773"/></g><g><title>RouteRepository</title><rect fill="#FFFFFF" height="111.1641" style="stroke:#181818;stroke-width:1;" width="10" x="881.3667" y="224.7852"/></g><g><title>RouteRepository</title><rect fill="#FFFFFF" height="111.1641" style="stroke:#181818;stroke-width:1;" width="10" x="881.3667" y="609.5684"/></g><g><title>Database</title><rect fill="#FFFFFF" height="31.291" style="stroke:#181818;stroke-width:1;" width="10" x="1202.6963" y="273.3672"/></g><g><title>Database</title><rect fill="#FFFFFF" height="31.291" style="stroke:#181818;stroke-width:1;" width="10" x="1202.6963" y="658.1504"/></g><g class="participant-lifeline" data-entity-uid="part1" data-qualified-name="Actor" id="part1-lifeline"><g><title>ATCC . Backoffice Operator</title><rect fill="#000000" fill-opacity="0.00000" height="772.2754" width="8" x="90.7515" y="83.6211"/><line style="stroke:#181818;stroke-width:0.5;stroke-dasharray:5,5;" x1="94" x2="94" y1="83.6211" y2="855.8965"/></g></g><g class="participant-lifeline" data-entity-uid="part2" data-qualified-name="Ctrl" id="part2-lifeline"><g><title>RouteController</title><rect fill="#000000" fill-opacity="0.00000" height="772.2754" width="8" x="290.7349" y="83.6211"/><line style="stroke:#181818;stroke-width:0.5;stroke-dasharray:5,5;" x1="294.7109" x2="294.7109" y1="83.6211" y2="855.8965"/></g></g><g class="participant-lifeline" data-entity-uid="part3" data-qualified-name="UC1" id="part3-lifeline"><g><title>GetRouteByIdUseCase</title><rect fill="#000000" fill-opacity="0.00000" height="772.2754" width="8" x="436.5171" y="83.6211"/><line style="stroke:#181818;stroke-width:0.5;stroke-dasharray:5,5;" x1="439.7588" x2="439.7588" y1="83.6211" y2="855.8965"/></g></g><g class="participant-lifeline" data-entity-uid="part4" data-qualified-name="UC2" id="part4-lifeline"><g><title>ListRoutesByAirportUseCase</title><rect fill="#000000" fill-opacity="0.00000" height="772.2754" width="8" x="623.9233" y="83.6211"/><line style="stroke:#181818;stroke-width:0.5;stroke-dasharray:5,5;" x1="627.2754" x2="627.2754" y1="83.6211" y2="855.8965"/></g></g><g class="participant-lifeline" data-entity-uid="part5" data-qualified-name="Repo" id="part5-lifeline"><g><title>RouteRepository</title><rect fill="#000000" fill-opacity="0.00000" height="772.2754" width="8" x="882.3667" y="83.6211"/><line style="stroke:#181818;stroke-width:0.5;stroke-dasharray:5,5;" x1="886.229" x2="886.229" y1="83.6211" y2="855.8965"/></g></g><g class="participant-lifeline" data-entity-uid="part6" data-qualified-name="DB" id="part6-lifeline"><g><title>Database</title><rect fill="#000000" fill-opacity="0.00000" height="772.2754" width="8" x="1203.6963" y="83.6211"/><line style="stroke:#181818;stroke-width:0.5;stroke-dasharray:5,5;" x1="1206.731" x2="1206.731" y1="83.6211" y2="855.8965"/></g></g><g class="participant participant-head" data-entity-uid="part1" data-qualified-name="Actor" id="part1-head"><text fill="#000000" font-family="sans-serif" font-size="14" lengthAdjust="spacing" textLength="173.5029" x="5" y="80.1074">ATCC / Backoffice Operator</text><ellipse cx="94.7515" cy="13.5" fill="#E2E2F0" rx="8" ry="8" style="stroke:#181818;stroke-width:0.5;"/><path d="M94.7515,21.5 L94.7515,48.5 M81.7515,29.5 L107.7515,29.5 M94.7515,48.5 L81.7515,63.5 M94.7515,48.5 L107.7515,63.5" fill="none" style="stroke:#181818;stroke-width:0.5;"/></g><g class="participant participant-tail" data-entity-uid="part1" data-qualified-name="Actor" id="part1-tail"><text fill="#000000" font-family="sans-serif" font-size="14" lengthAdjust="spacing" textLength="173.5029" x="5" y="870.0039">ATCC / Backoffice Operator</text><ellipse cx="94.7515" cy="882.0176" fill="#E2E2F0" rx="8" ry="8" style="stroke:#181818;stroke-width:0.5;"/><path d="M94.7515,890.0176 L94.7515,917.0176 M81.7515,898.0176 L107.7515,898.0176 M94.7515,917.0176 L81.7515,932.0176 M94.7515,917.0176 L107.7515,932.0176" fill="none" style="stroke:#181818;stroke-width:0.5;"/></g><g class="participant participant-head" data-entity-uid="part2" data-qualified-name="Ctrl" id="part2-head"><rect fill="#E2E2F0" height="32.6211" rx="2.5" ry="2.5" style="stroke:#181818;stroke-width:0.5;" width="112.0479" x="238.7109" y="50"/><text fill="#000000" font-family="sans-serif" font-size="14" lengthAdjust="spacing" textLength="98.0479" x="245.7109" y="72.1074">RouteController</text></g><g class="participant participant-tail" data-entity-uid="part2" data-qualified-name="Ctrl" id="part2-tail"><rect fill="#E2E2F0" height="32.6211" rx="2.5" ry="2.5" style="stroke:#181818;stroke-width:0.5;" width="112.0479" x="238.7109" y="854.8965"/><text fill="#000000" font-family="sans-serif" font-size="14" lengthAdjust="spacing" textLength="98.0479" x="245.7109" y="877.0039">RouteController</text></g><g class="participant participant-head" data-entity-uid="part3" data-qualified-name="UC1" id="part3-head"><rect fill="#E2E2F0" height="32.6211" rx="2.5" ry="2.5" style="stroke:#181818;stroke-width:0.5;" width="159.5166" x="360.7588" y="50"/><text fill="#000000" font-family="sans-serif" font-size="14" lengthAdjust="spacing" textLength="145.5166" x="367.7588" y="72.1074">GetRouteByIdUseCase</text></g><g class="participant participant-tail" data-entity-uid="part3" data-qualified-name="UC1" id="part3-tail"><rect fill="#E2E2F0" height="32.6211" rx="2.5" ry="2.5" style="stroke:#181818;stroke-width:0.5;" width="159.5166" x="360.7588" y="854.8965"/><text fill="#000000" font-family="sans-serif" font-size="14" lengthAdjust="spacing" textLength="145.5166" x="367.7588" y="877.0039">GetRouteByIdUseCase</text></g><g class="participant participant-head" data-entity-uid="part4" data-qualified-name="UC2" id="part4-head"><rect fill="#E2E2F0" height="32.6211" rx="2.5" ry="2.5" style="stroke:#181818;stroke-width:0.5;" width="195.2959" x="530.2754" y="50"/><text fill="#000000" font-family="sans-serif" font-size="14" lengthAdjust="spacing" textLength="181.2959" x="537.2754" y="72.1074">ListRoutesByAirportUseCase</text></g><g class="participant participant-tail" data-entity-uid="part4" data-qualified-name="UC2" id="part4-tail"><rect fill="#E2E2F0" height="32.6211" rx="2.5" ry="2.5" style="stroke:#181818;stroke-width:0.5;" width="195.2959" x="530.2754" y="854.8965"/><text fill="#000000" font-family="sans-serif" font-size="14" lengthAdjust="spacing" textLength="181.2959" x="537.2754" y="877.0039">ListRoutesByAirportUseCase</text></g><g class="participant participant-head" data-entity-uid="part5" data-qualified-name="Repo" id="part5-head"><rect fill="#E2E2F0" height="32.6211" rx="2.5" ry="2.5" style="stroke:#181818;stroke-width:0.5;" width="118.2754" x="827.229" y="50"/><text fill="#000000" font-family="sans-serif" font-size="14" lengthAdjust="spacing" textLength="104.2754" x="834.229" y="72.1074">RouteRepository</text></g><g class="participant participant-tail" data-entity-uid="part5" data-qualified-name="Repo" id="part5-tail"><rect fill="#E2E2F0" height="32.6211" rx="2.5" ry="2.5" style="stroke:#181818;stroke-width:0.5;" width="118.2754" x="827.229" y="854.8965"/><text fill="#000000" font-family="sans-serif" font-size="14" lengthAdjust="spacing" textLength="104.2754" x="834.229" y="877.0039">RouteRepository</text></g><g class="participant participant-head" data-entity-uid="part6" data-qualified-name="DB" id="part6-head"><text fill="#000000" font-family="sans-serif" font-size="14" lengthAdjust="spacing" textLength="59.9307" x="1174.731" y="80.1074">Database</text><path d="M1189.6963,29 C1189.6963,19 1207.6963,19 1207.6963,19 C1207.6963,19 1225.6963,19 1225.6963,29 L1225.6963,55 C1225.6963,65 1207.6963,65 1207.6963,65 C1207.6963,65 1189.6963,65 1189.6963,55 L1189.6963,29" fill="#E2E2F0" style="stroke:#181818;stroke-width:0.5;"/><path d="M1189.6963,29 C1189.6963,39 1207.6963,39 1207.6963,39 C1207.6963,39 1225.6963,39 1225.6963,29" fill="none" style="stroke:#181818;stroke-width:0.5;"/></g><g class="participant participant-tail" data-entity-uid="part6" data-qualified-name="DB" id="part6-tail"><text fill="#000000" font-family="sans-serif" font-size="14" lengthAdjust="spacing" textLength="59.9307" x="1174.731" y="870.0039">Database</text><path d="M1189.6963,883.5176 C1189.6963,873.5176 1207.6963,873.5176 1207.6963,873.5176 C1207.6963,873.5176 1225.6963,873.5176 1225.6963,883.5176 L1225.6963,909.5176 C1225.6963,919.5176 1207.6963,919.5176 1207.6963,919.5176 C1207.6963,919.5176 1189.6963,919.5176 1189.6963,909.5176 L1189.6963,883.5176" fill="#E2E2F0" style="stroke:#181818;stroke-width:0.5;"/><path d="M1189.6963,883.5176 C1189.6963,893.5176 1207.6963,893.5176 1207.6963,893.5176 C1207.6963,893.5176 1225.6963,893.5176 1225.6963,883.5176" fill="none" style="stroke:#181818;stroke-width:0.5;"/></g><g><title>RouteController</title><rect fill="#FFFFFF" height="308.2012" style="stroke:#181818;stroke-width:1;" width="10" x="289.7349" y="162.2031"/></g><g><title>RouteController</title><rect fill="#FFFFFF" height="290.9102" style="stroke:#181818;stroke-width:1;" width="10" x="289.7349" y="546.9863"/></g><g><title>GetRouteByIdUseCase</title><rect fill="#FFFFFF" height="245.6191" style="stroke:#181818;stroke-width:1;" width="10" x="435.5171" y="193.4941"/></g><g><title>ListRoutesByAirportUseCase</title><rect fill="#FFFFFF" height="228.3281" style="stroke:#181818;stroke-width:1;" width="10" x="622.9233" y="578.2773"/></g><g><title>RouteRepository</title><rect fill="#FFFFFF" height="111.1641" style="stroke:#181818;stroke-width:1;" width="10" x="881.3667" y="224.7852"/></g><g><title>RouteRepository</title><rect fill="#FFFFFF" height="111.1641" style="stroke:#181818;stroke-width:1;" width="10" x="881.3667" y="609.5684"/></g><g><title>Database</title><rect fill="#FFFFFF" height="31.291" style="stroke:#181818;stroke-width:1;" width="10" x="1202.6963" y="273.3672"/></g><g><title>Database</title><rect fill="#FFFFFF" height="31.291" style="stroke:#181818;stroke-width:1;" width="10" x="1202.6963" y="658.1504"/></g><rect fill="#EEEEEE" height="3" style="stroke:#EEEEEE;stroke-width:1;" width="1245.6616" x="0" y="115.2666"/><line style="stroke:#000000;stroke-width:1;" x1="0" x2="1245.6616" y1="115.2666" y2="115.2666"/><line style="stroke:#000000;stroke-width:1;" x1="0" x2="1245.6616" y1="118.2666" y2="118.2666"/><rect fill="#EEEEEE" height="25.291" style="stroke:#000000;stroke-width:2;" width="161.3608" x="542.1504" y="103.6211"/><text fill="#000000" font-family="sans-serif" font-size="13" font-weight="bold" lengthAdjust="spacing" textLength="143.749" x="548.1504" y="121.6494">Get Route Details by ID</text><g class="message" data-entity-1="part1" data-entity-2="part2" id="msg1"><polygon fill="#181818" points="277.7349,158.2031,287.7349,162.2031,277.7349,166.2031,281.7349,162.2031" style="stroke:#181818;stroke-width:1;"/><line style="stroke:#181818;stroke-width:1;" x1="94.7515" x2="283.7349" y1="162.2031" y2="162.2031"/><text fill="#000000" font-family="sans-serif" font-size="13" font-weight="bold" lengthAdjust="spacing" textLength="7.23" x="101.7515" y="156.9404">1</text><text fill="#000000" font-family="sans-serif" font-size="13" lengthAdjust="spacing" textLength="113.4517" x="112.9814" y="156.9404">GET /api/routes/{id}</text></g><g class="message" data-entity-1="part2" data-entity-2="part3" id="msg2"><polygon fill="#181818" points="423.5171,189.4941,433.5171,193.4941,423.5171,197.4941,427.5171,193.4941" style="stroke:#181818;stroke-width:1;"/><line style="stroke:#181818;stroke-width:1;" x1="299.7349" x2="429.5171" y1="193.4941" y2="193.4941"/><text fill="#000000" font-family="sans-serif" font-size="13" font-weight="bold" lengthAdjust="spacing" textLength="7.23" x="306.7349" y="188.2314">2</text><text fill="#000000" font-family="sans-serif" font-size="13" lengthAdjust="spacing" textLength="94.6626" x="317.9648" y="188.2314">execute(routeId)</text></g><g class="message" data-entity-1="part3" data-entity-2="part5" id="msg3"><polygon fill="#181818" points="869.3667,220.7852,879.3667,224.7852,869.3667,228.7852,873.3667,224.7852" style="stroke:#181818;stroke-width:1;"/><line style="stroke:#181818;stroke-width:1;" x1="445.5171" x2="875.3667" y1="224.7852" y2="224.7852"/><text fill="#000000" font-family="sans-serif" font-size="13" font-weight="bold" lengthAdjust="spacing" textLength="7.23" x="452.5171" y="219.5225">3</text><text fill="#000000" font-family="sans-serif" font-size="13" lengthAdjust="spacing" textLength="130.7935" x="463.7471" y="219.5225">findByRouteId(routeId)</text></g><g class="message" data-entity-1="part5" data-entity-2="part6" id="msg4"><polygon fill="#181818" points="1190.6963,269.3672,1200.6963,273.3672,1190.6963,277.3672,1194.6963,273.3672" style="stroke:#181818;stroke-width:1;"/><line style="stroke:#181818;stroke-width:1;" x1="891.3667" x2="1196.6963" y1="273.3672" y2="273.3672"/><text fill="#000000" font-family="sans-serif" font-size="13" font-weight="bold" lengthAdjust="spacing" textLength="7.23" x="898.3667" y="259.459">4</text><text fill="#000000" font-family="sans-serif" font-size="13" lengthAdjust="spacing" textLength="140.8672" x="909.5967" y="250.8135">SELECT * FROM routes</text><text fill="#000000" font-family="sans-serif" font-size="13" lengthAdjust="spacing" textLength="243.1279" x="909.5967" y="268.1045">JOIN route_versions WHERE route_id = ?</text></g><g class="message" data-entity-1="part6" data-entity-2="part5" id="msg5"><polygon fill="#181818" points="902.3667,300.6582,892.3667,304.6582,902.3667,308.6582,898.3667,304.6582" style="stroke:#181818;stroke-width:1;"/><line style="stroke:#181818;stroke-width:1;stroke-dasharray:2,2;" x1="896.3667" x2="1206.6963" y1="304.6582" y2="304.6582"/><text fill="#000000" font-family="sans-serif" font-size="13" font-weight="bold" lengthAdjust="spacing" textLength="7.23" x="908.3667" y="299.3955">5</text><text fill="#000000" font-family="sans-serif" font-size="13" lengthAdjust="spacing" textLength="145.9517" x="919.5967" y="299.3955">route with current version</text></g><g class="message" data-entity-1="part5" data-entity-2="part3" id="msg6"><polygon fill="#181818" points="456.5171,331.9492,446.5171,335.9492,456.5171,339.9492,452.5171,335.9492" style="stroke:#181818;stroke-width:1;"/><line style="stroke:#181818;stroke-width:1;stroke-dasharray:2,2;" x1="450.5171" x2="885.3667" y1="335.9492" y2="335.9492"/><text fill="#000000" font-family="sans-serif" font-size="13" font-weight="bold" lengthAdjust="spacing" textLength="7.23" x="462.5171" y="330.6865">6</text><text fill="#000000" font-family="sans-serif" font-size="13" lengthAdjust="spacing" textLength="29.6309" x="473.7471" y="330.6865">route</text></g><path d="M450,348.9492 L450,409.9492 L652,409.9492 L652,358.9492 L642,348.9492 L450,348.9492" fill="#FEFFDD" style="stroke:#181818;stroke-width:0.5;"/><path d="M642,348.9492 L642,358.9492 L652,358.9492 L642,348.9492" fill="#FEFFDD" style="stroke:#181818;stroke-width:0.5;"/><text fill="#000000" font-family="sans-serif" font-size="13" lengthAdjust="spacing" textLength="181.3843" x="456" y="367.9775">Maps Route to RouteResponse</text><text fill="#000000" font-family="sans-serif" font-size="13" lengthAdjust="spacing" textLength="166.9243" x="456" y="385.2686">Includes current version data</text><text fill="#000000" font-family="sans-serif" font-size="13" lengthAdjust="spacing" textLength="181.3398" x="456" y="402.5596">(distance, estimatedFlightTime)</text><g class="message" data-entity-1="part3" data-entity-2="part2" id="msg7"><polygon fill="#181818" points="310.7349,435.1133,300.7349,439.1133,310.7349,443.1133,306.7349,439.1133" style="stroke:#181818;stroke-width:1;"/><line style="stroke:#181818;stroke-width:1;stroke-dasharray:2,2;" x1="304.7349" x2="439.5171" y1="439.1133" y2="439.1133"/><text fill="#000000" font-family="sans-serif" font-size="13" font-weight="bold" lengthAdjust="spacing" textLength="7.23" x="316.7349" y="433.8506">7</text><text fill="#000000" font-family="sans-serif" font-size="13" lengthAdjust="spacing" textLength="93.228" x="327.9648" y="433.8506">RouteResponse</text></g><g class="message" data-entity-1="part2" data-entity-2="part1" id="msg8"><polygon fill="#181818" points="105.7515,466.4043,95.7515,470.4043,105.7515,474.4043,101.7515,470.4043" style="stroke:#181818;stroke-width:1;"/><line style="stroke:#181818;stroke-width:1;stroke-dasharray:2,2;" x1="99.7515" x2="293.7349" y1="470.4043" y2="470.4043"/><text fill="#000000" font-family="sans-serif" font-size="13" font-weight="bold" lengthAdjust="spacing" textLength="7.23" x="111.7515" y="465.1416">8</text><text fill="#000000" font-family="sans-serif" font-size="13" lengthAdjust="spacing" textLength="153.1753" x="122.9814" y="465.1416">200 OK (JSON Response)</text></g><rect fill="#EEEEEE" height="3" style="stroke:#EEEEEE;stroke-width:1;" width="1245.6616" x="0" y="500.0498"/><line style="stroke:#000000;stroke-width:1;" x1="0" x2="1245.6616" y1="500.0498" y2="500.0498"/><line style="stroke:#000000;stroke-width:1;" x1="0" x2="1245.6616" y1="503.0498" y2="503.0498"/><rect fill="#EEEEEE" height="25.291" style="stroke:#000000;stroke-width:2;" width="268.249" x="488.7063" y="488.4043"/><text fill="#000000" font-family="sans-serif" font-size="13" font-weight="bold" lengthAdjust="spacing" textLength="250.6372" x="494.7063" y="506.4326">List All Routes from/to a Specific Airport</text><g class="message" data-entity-1="part1" data-entity-2="part2" id="msg9"><polygon fill="#181818" points="277.7349,542.9863,287.7349,546.9863,277.7349,550.9863,281.7349,546.9863" style="stroke:#181818;stroke-width:1;"/><line style="stroke:#181818;stroke-width:1;" x1="94.7515" x2="283.7349" y1="546.9863" y2="546.9863"/><text fill="#000000" font-family="sans-serif" font-size="13" font-weight="bold" lengthAdjust="spacing" textLength="7.23" x="101.7515" y="541.7236">9</text><text fill="#000000" font-family="sans-serif" font-size="13" lengthAdjust="spacing" textLength="164.7534" x="112.9814" y="541.7236">GET /api/routes/airport/{iata}</text></g><g class="message" data-entity-1="part2" data-entity-2="part4" id="msg10"><polygon fill="#181818" points="610.9233,574.2773,620.9233,578.2773,610.9233,582.2773,614.9233,578.2773" style="stroke:#181818;stroke-width:1;"/><line style="stroke:#181818;stroke-width:1;" x1="299.7349" x2="616.9233" y1="578.2773" y2="578.2773"/><text fill="#000000" font-family="sans-serif" font-size="13" font-weight="bold" lengthAdjust="spacing" textLength="14.46" x="306.7349" y="573.0146">10</text><text fill="#000000" font-family="sans-serif" font-size="13" lengthAdjust="spacing" textLength="106.228" x="325.1948" y="573.0146">execute(iataCode)</text></g><g class="message" data-entity-1="part4" data-entity-2="part5" id="msg11"><polygon fill="#181818" points="869.3667,605.5684,879.3667,609.5684,869.3667,613.5684,873.3667,609.5684" style="stroke:#181818;stroke-width:1;"/><line style="stroke:#181818;stroke-width:1;" x1="632.9233" x2="875.3667" y1="609.5684" y2="609.5684"/><text fill="#000000" font-family="sans-serif" font-size="13" font-weight="bold" lengthAdjust="spacing" textLength="14.46" x="639.9233" y="604.3057">11</text><text fill="#000000" font-family="sans-serif" font-size="13" lengthAdjust="spacing" textLength="210.9834" x="658.3833" y="604.3057">findByOriginOrDestination(iataCode)</text></g><g class="message" data-entity-1="part5" data-entity-2="part6" id="msg12"><polygon fill="#181818" points="1190.6963,654.1504,1200.6963,658.1504,1190.6963,662.1504,1194.6963,658.1504" style="stroke:#181818;stroke-width:1;"/><line style="stroke:#181818;stroke-width:1;" x1="891.3667" x2="1196.6963" y1="658.1504" y2="658.1504"/><text fill="#000000" font-family="sans-serif" font-size="13" font-weight="bold" lengthAdjust="spacing" textLength="14.46" x="898.3667" y="644.2422">12</text><text fill="#000000" font-family="sans-serif" font-size="13" lengthAdjust="spacing" textLength="140.8672" x="916.8267" y="635.5967">SELECT * FROM routes</text><text fill="#000000" font-family="sans-serif" font-size="13" lengthAdjust="spacing" textLength="273.8696" x="916.8267" y="652.8877">WHERE origin_iata = ? OR destination_iata = ?</text></g><g class="message" data-entity-1="part6" data-entity-2="part5" id="msg13"><polygon fill="#181818" points="902.3667,685.4414,892.3667,689.4414,902.3667,693.4414,898.3667,689.4414" style="stroke:#181818;stroke-width:1;"/><line style="stroke:#181818;stroke-width:1;stroke-dasharray:2,2;" x1="896.3667" x2="1206.6963" y1="689.4414" y2="689.4414"/><text fill="#000000" font-family="sans-serif" font-size="13" font-weight="bold" lengthAdjust="spacing" textLength="14.46" x="908.3667" y="684.1787">13</text><text fill="#000000" font-family="sans-serif" font-size="13" lengthAdjust="spacing" textLength="70.0845" x="926.8267" y="684.1787">list of routes</text></g><g class="message" data-entity-1="part5" data-entity-2="part4" id="msg14"><polygon fill="#181818" points="643.9233,716.7324,633.9233,720.7324,643.9233,724.7324,639.9233,720.7324" style="stroke:#181818;stroke-width:1;"/><line style="stroke:#181818;stroke-width:1;stroke-dasharray:2,2;" x1="637.9233" x2="885.3667" y1="720.7324" y2="720.7324"/><text fill="#000000" font-family="sans-serif" font-size="13" font-weight="bold" lengthAdjust="spacing" textLength="14.46" x="649.9233" y="715.4697">14</text><text fill="#000000" font-family="sans-serif" font-size="13" lengthAdjust="spacing" textLength="70.1035" x="668.3833" y="715.4697">List&lt;Route&gt;</text></g><path d="M637,733.7324 L637,777.7324 L796,777.7324 L796,743.7324 L786,733.7324 L637,733.7324" fill="#FEFFDD" style="stroke:#181818;stroke-width:0.5;"/><path d="M786,733.7324 L786,743.7324 L796,743.7324 L786,733.7324" fill="#FEFFDD" style="stroke:#181818;stroke-width:0.5;"/><text fill="#000000" font-family="sans-serif" font-size="13" lengthAdjust="spacing" textLength="101.8926" x="643" y="752.7607">Maps each Route</text><text fill="#000000" font-family="sans-serif" font-size="13" lengthAdjust="spacing" textLength="138.7344" x="643" y="770.0518">to RouteResponse DTO</text><g class="message" data-entity-1="part4" data-entity-2="part2" id="msg15"><polygon fill="#181818" points="310.7349,802.6055,300.7349,806.6055,310.7349,810.6055,306.7349,806.6055" style="stroke:#181818;stroke-width:1;"/><line style="stroke:#181818;stroke-width:1;stroke-dasharray:2,2;" x1="304.7349" x2="626.9233" y1="806.6055" y2="806.6055"/><text fill="#000000" font-family="sans-serif" font-size="13" font-weight="bold" lengthAdjust="spacing" textLength="14.46" x="316.7349" y="801.3428">15</text><text fill="#000000" font-family="sans-serif" font-size="13" lengthAdjust="spacing" textLength="128.6416" x="335.1948" y="801.3428">List&lt;RouteResponse&gt;</text></g><g class="message" data-entity-1="part2" data-entity-2="part1" id="msg16"><polygon fill="#181818" points="105.7515,833.8965,95.7515,837.8965,105.7515,841.8965,101.7515,837.8965" style="stroke:#181818;stroke-width:1;"/><line style="stroke:#181818;stroke-width:1;stroke-dasharray:2,2;" x1="99.7515" x2="293.7349" y1="837.8965" y2="837.8965"/><text fill="#000000" font-family="sans-serif" font-size="13" font-weight="bold" lengthAdjust="spacing" textLength="14.46" x="111.7515" y="832.6338">16</text><text fill="#000000" font-family="sans-serif" font-size="13" lengthAdjust="spacing" textLength="125.6963" x="130.2114" y="832.6338">200 OK (JSON Array)</text></g><?plantuml-src ZPDVRzem5CNV_IckU89f5LqUqM3A7zhHjOqKgFQ2L9dO36l1ZcpJBPhstNTjfmrfMTkt9FwTwtlFFQ47g-HXl-6QqD8g3ODubQOmXeIMFzLsAqeEUSqrnRC1K0EneqXDjHMbgAcqC2ZKmV9KIQjLLV60fLPNVUgIMmycpOBT6PvImprvbtxgWzV21D8aJInqhRJjyz69wmjUAoEmjSP3xfKmQka6PJ38sYT_bYM4JAU0_O2NGiOj5PM1JGEB3APJGloGS3RpOy04BkSh6DDQZBNlQ_n7iB_EB_50KUzd9Hv52Sw32lwRbuWElM31HXtjvYKEGjQrYV1MI9OqHK1FIFmqdaLDbg1YER-Ufolu01T5VWEXgxMyoXUtuUN-WMiZb3Jm_UkycBSV1OCfVEdgeXDOxQnhn6FmIzWTb0UjEThR5YAC7yj2Cq_JUjqnuZicKk6Z5Zzs5jJMeHEueRLfRRSAsjMP6ZlbQxcGPNLWt3o_7DmcrtB8C1bKblmZS6F57YzY5vKhln9xFcfTxRRMgtxSdLz1s1VIOTaJYCxF8Vy6mwjbVWkFij6nBYmQi-CY2d5LXIiCRBNQZt4U2ikQbmB_6cYJ-wuuqS1Yh73ELu8L7GNBeQbYl9Uio7aGlKXMZZiGCjUPiqrIYvQUqhytPY5IoXUzTtLSgY0lW7Nrdxw_ahRAkOZ127N_dp0tjdFyitTxzdREeZPdoEt2YjRoUTeWM-MjMzrYkbiUiLa_Dz5RkOcrfisBqFm3?></g></svg>