<?plantuml 1.2026.2?><svg xmlns="http://www.w3.org/2000/svg" xmlns:xlink="http://www.w3.org/1999/xlink" contentStyleType="text/css" data-diagram-type="SEQUENCE" height="1390px" preserveAspectRatio="none" style="width:1856px;height:1390px;background:#FFFFFF;" version="1.1" viewBox="0 0 1856 1390" width="1856px" zoomAndPan="magnify"><defs/><g><g><title>RouteController</title><rect fill="#FFFFFF" height="589.4805" style="stroke:#181818;stroke-width:1;" width="10" x="317.2075" y="162.2031"/></g><g><title>RouteController</title><rect fill="#FFFFFF" height="461.3652" style="stroke:#181818;stroke-width:1;" width="10" x="317.2075" y="828.2656"/></g><g><title>UpdateRouteUseCase</title><rect fill="#FFFFFF" height="526.8984" style="stroke:#181818;stroke-width:1;" width="10" x="502.6846" y="193.4941"/></g><g><title>Route</title><rect fill="#FFFFFF" height="196.6973" style="stroke:#181818;stroke-width:1;" width="10" x="881.0986" y="349.9492"/></g><g><title>Route</title><rect fill="#FFFFFF" height="85.873" style="stroke:#181818;stroke-width:1;" width="10" x="881.0986" y="1016.0117"/></g><g><title>RouteVersion</title><rect fill="#FFFFFF" height="52.2422" style="stroke:#181818;stroke-width:1;" width="10" x="1323.3735" y="463.1133"/></g><g><title>RouteRepository</title><rect fill="#FFFFFF" height="93.873" style="stroke:#181818;stroke-width:1;" width="10" x="1441.9248" y="224.7852"/></g><g><title>RouteRepository</title><rect fill="#FFFFFF" height="111.1641" style="stroke:#181818;stroke-width:1;" width="10" x="1441.9248" y="577.9375"/></g><g><title>RouteRepository</title><rect fill="#FFFFFF" height="93.873" style="stroke:#181818;stroke-width:1;" width="10" x="1441.9248" y="890.8477"/></g><g><title>RouteRepository</title><rect fill="#FFFFFF" height="93.873" style="stroke:#181818;stroke-width:1;" width="10" x="1441.9248" y="1133.1758"/></g><g><title>Database</title><rect fill="#FFFFFF" height="31.291" style="stroke:#181818;stroke-width:1;" width="10" x="1754.8882" y="256.0762"/></g><g><title>Database</title><rect fill="#FFFFFF" height="31.291" style="stroke:#181818;stroke-width:1;" width="10" x="1754.8882" y="626.5195"/></g><g><title>Database</title><rect fill="#FFFFFF" height="31.291" style="stroke:#181818;stroke-width:1;" width="10" x="1754.8882" y="922.1387"/></g><g><title>Database</title><rect fill="#FFFFFF" height="31.291" style="stroke:#181818;stroke-width:1;" width="10" x="1754.8882" y="1164.4668"/></g><g><title>UC2</title><rect fill="#FFFFFF" height="398.7832" style="stroke:#181818;stroke-width:1;" width="10" x="1818.8569" y="859.5566"/></g><g class="participant-lifeline" data-entity-uid="part1" data-qualified-name="Actor" id="part1-lifeline"><g><title>ATCC . Backoffice Operator</title><rect fill="#000000" fill-opacity="0.00000" height="1224.0098" width="8" x="90.7515" y="83.6211"/><line style="stroke:#181818;stroke-width:0.5;stroke-dasharray:5,5;" x1="94" x2="94" y1="83.6211" y2="1307.6309"/></g></g><g class="participant-lifeline" data-entity-uid="part2" data-qualified-name="Ctrl" id="part2-lifeline"><g><title>RouteController</title><rect fill="#000000" fill-opacity="0.00000" height="1224.0098" width="8" x="318.2075" y="83.6211"/><line style="stroke:#181818;stroke-width:0.5;stroke-dasharray:5,5;" x1="322.1836" x2="322.1836" y1="83.6211" y2="1307.6309"/></g></g><g class="participant-lifeline" data-entity-uid="part3" data-qualified-name="UC" id="part3-lifeline"><g><title>UpdateRouteUseCase</title><rect fill="#000000" fill-opacity="0.00000" height="1224.0098" width="8" x="503.6846" y="83.6211"/><line style="stroke:#181818;stroke-width:0.5;stroke-dasharray:5,5;" x1="507.6436" x2="507.6436" y1="83.6211" y2="1307.6309"/></g></g><g class="participant-lifeline" data-entity-uid="part4" data-qualified-name="Route" id="part4-lifeline"><g><title>Route</title><rect fill="#000000" fill-opacity="0.00000" height="1224.0098" width="8" x="882.0986" y="83.6211"/><line style="stroke:#181818;stroke-width:0.5;stroke-dasharray:5,5;" x1="885.4023" x2="885.4023" y1="83.6211" y2="1307.6309"/></g></g><g class="participant-lifeline" data-entity-uid="part5" data-qualified-name="Version" id="part5-lifeline"><g><title>RouteVersion</title><rect fill="#000000" fill-opacity="0.00000" height="836.6875" width="8" x="1324.3735" y="470.9434"/><line style="stroke:#181818;stroke-width:0.5;stroke-dasharray:5,5;" x1="1327.96" x2="1327.96" y1="470.9434" y2="1307.6309"/></g></g><g class="participant-lifeline" data-entity-uid="part6" data-qualified-name="Repo" id="part6-lifeline"><g><title>RouteRepository</title><rect fill="#000000" fill-opacity="0.00000" height="1224.0098" width="8" x="1442.9248" y="83.6211"/><line style="stroke:#181818;stroke-width:0.5;stroke-dasharray:5,5;" x1="1446.7871" x2="1446.7871" y1="83.6211" y2="1307.6309"/></g></g><g class="participant-lifeline" data-entity-uid="part7" data-qualified-name="DB" id="part7-lifeline"><g><title>Database</title><rect fill="#000000" fill-opacity="0.00000" height="1224.0098" width="8" x="1755.8882" y="83.6211"/><line style="stroke:#181818;stroke-width:0.5;stroke-dasharray:5,5;" x1="1758.9229" x2="1758.9229" y1="83.6211" y2="1307.6309"/></g></g><g class="participant-lifeline" data-entity-uid="part8" data-qualified-name="UC2" id="part8-lifeline"><g><title>UC2</title><rect fill="#000000" fill-opacity="0.00000" height="1224.0098" width="8" x="1819.8569" y="83.6211"/><line style="stroke:#181818;stroke-width:0.5;stroke-dasharray:5,5;" x1="1823.8535" x2="1823.8535" y1="83.6211" y2="1307.6309"/></g></g><g class="participant participant-head" data-entity-uid="part1" data-qualified-name="Actor" id="part1-head"><text fill="#000000" font-family="sans-serif" font-size="14" lengthAdjust="spacing" textLength="173.5029" x="5" y="80.1074">ATCC / Backoffice Operator</text><ellipse cx="94.7515" cy="13.5" fill="#E2E2F0" rx="8" ry="8" style="stroke:#181818;stroke-width:0.5;"/><path d="M94.7515,21.5 L94.7515,48.5 M81.7515,29.5 L107.7515,29.5 M94.7515,48.5 L81.7515,63.5 M94.7515,48.5 L107.7515,63.5" fill="none" style="stroke:#181818;stroke-width:0.5;"/></g><g class="participant participant-tail" data-entity-uid="part1" data-qualified-name="Actor" id="part1-tail"><text fill="#000000" font-family="sans-serif" font-size="14" lengthAdjust="spacing" textLength="173.5029" x="5" y="1321.7383">ATCC / Backoffice Operator</text><ellipse cx="94.7515" cy="1333.752" fill="#E2E2F0" rx="8" ry="8" style="stroke:#181818;stroke-width:0.5;"/><path d="M94.7515,1341.752 L94.7515,1368.752 M81.7515,1349.752 L107.7515,1349.752 M94.7515,1368.752 L81.7515,1383.752 M94.7515,1368.752 L107.7515,1383.752" fill="none" style="stroke:#181818;stroke-width:0.5;"/></g><g class="participant participant-head" data-entity-uid="part2" data-qualified-name="Ctrl" id="part2-head"><rect fill="#E2E2F0" height="32.6211" rx="2.5" ry="2.5" style="stroke:#181818;stroke-width:0.5;" width="112.0479" x="266.1836" y="50"/><text fill="#000000" font-family="sans-serif" font-size="14" lengthAdjust="spacing" textLength="98.0479" x="273.1836" y="72.1074">RouteController</text></g><g class="participant participant-tail" data-entity-uid="part2" data-qualified-name="Ctrl" id="part2-tail"><rect fill="#E2E2F0" height="32.6211" rx="2.5" ry="2.5" style="stroke:#181818;stroke-width:0.5;" width="112.0479" x="266.1836" y="1306.6309"/><text fill="#000000" font-family="sans-serif" font-size="14" lengthAdjust="spacing" textLength="98.0479" x="273.1836" y="1328.7383">RouteController</text></g><g class="participant participant-head" data-entity-uid="part3" data-qualified-name="UC" id="part3-head"><rect fill="#E2E2F0" height="32.6211" rx="2.5" ry="2.5" style="stroke:#181818;stroke-width:0.5;" width="154.082" x="430.6436" y="50"/><text fill="#000000" font-family="sans-serif" font-size="14" lengthAdjust="spacing" textLength="140.082" x="437.6436" y="72.1074">UpdateRouteUseCase</text></g><g class="participant participant-tail" data-entity-uid="part3" data-qualified-name="UC" id="part3-tail"><rect fill="#E2E2F0" height="32.6211" rx="2.5" ry="2.5" style="stroke:#181818;stroke-width:0.5;" width="154.082" x="430.6436" y="1306.6309"/><text fill="#000000" font-family="sans-serif" font-size="14" lengthAdjust="spacing" textLength="140.082" x="437.6436" y="1328.7383">UpdateRouteUseCase</text></g><g class="participant participant-head" data-entity-uid="part4" data-qualified-name="Route" id="part4-head"><rect fill="#E2E2F0" height="51.2422" rx="2.5" ry="2.5" style="stroke:#181818;stroke-width:0.5;" width="121.3926" x="825.4023" y="31.3789"/><text fill="#000000" font-family="sans-serif" font-size="14" lengthAdjust="spacing" textLength="37.3584" x="867.4194" y="53.4863">Route</text><text fill="#000000" font-family="sans-serif" font-size="14" lengthAdjust="spacing" textLength="107.3926" x="832.4023" y="72.1074">(Aggregate Root)</text></g><g class="participant participant-tail" data-entity-uid="part4" data-qualified-name="Route" id="part4-tail"><rect fill="#E2E2F0" height="51.2422" rx="2.5" ry="2.5" style="stroke:#181818;stroke-width:0.5;" width="121.3926" x="825.4023" y="1306.6309"/><text fill="#000000" font-family="sans-serif" font-size="14" lengthAdjust="spacing" textLength="37.3584" x="867.4194" y="1328.7383">Route</text><text fill="#000000" font-family="sans-serif" font-size="14" lengthAdjust="spacing" textLength="107.3926" x="832.4023" y="1347.3594">(Aggregate Root)</text></g><g class="participant participant-tail" data-entity-uid="part5" data-qualified-name="Version" id="part5-tail"><rect fill="#E2E2F0" height="51.2422" rx="2.5" ry="2.5" style="stroke:#181818;stroke-width:0.5;" width="98.8271" x="1278.96" y="1306.6309"/><text fill="#000000" font-family="sans-serif" font-size="14" lengthAdjust="spacing" textLength="84.8271" x="1285.96" y="1328.7383">RouteVersion</text><text fill="#000000" font-family="sans-serif" font-size="14" lengthAdjust="spacing" textLength="44.3379" x="1306.2046" y="1347.3594">(Entity)</text></g><g class="participant participant-head" data-entity-uid="part6" data-qualified-name="Repo" id="part6-head"><rect fill="#E2E2F0" height="32.6211" rx="2.5" ry="2.5" style="stroke:#181818;stroke-width:0.5;" width="118.2754" x="1387.7871" y="50"/><text fill="#000000" font-family="sans-serif" font-size="14" lengthAdjust="spacing" textLength="104.2754" x="1394.7871" y="72.1074">RouteRepository</text></g><g class="participant participant-tail" data-entity-uid="part6" data-qualified-name="Repo" id="part6-tail"><rect fill="#E2E2F0" height="32.6211" rx="2.5" ry="2.5" style="stroke:#181818;stroke-width:0.5;" width="118.2754" x="1387.7871" y="1306.6309"/><text fill="#000000" font-family="sans-serif" font-size="14" lengthAdjust="spacing" textLength="104.2754" x="1394.7871" y="1328.7383">RouteRepository</text></g><g class="participant participant-head" data-entity-uid="part7" data-qualified-name="DB" id="part7-head"><text fill="#000000" font-family="sans-serif" font-size="14" lengthAdjust="spacing" textLength="59.9307" x="1726.9229" y="80.1074">Database</text><path d="M1741.8882,29 C1741.8882,19 1759.8882,19 1759.8882,19 C1759.8882,19 1777.8882,19 1777.8882,29 L1777.8882,55 C1777.8882,65 1759.8882,65 1759.8882,65 C1759.8882,65 1741.8882,65 1741.8882,55 L1741.8882,29" fill="#E2E2F0" style="stroke:#181818;stroke-width:0.5;"/><path d="M1741.8882,29 C1741.8882,39 1759.8882,39 1759.8882,39 C1759.8882,39 1777.8882,39 1777.8882,29" fill="none" style="stroke:#181818;stroke-width:0.5;"/></g><g class="participant participant-tail" data-entity-uid="part7" data-qualified-name="DB" id="part7-tail"><text fill="#000000" font-family="sans-serif" font-size="14" lengthAdjust="spacing" textLength="59.9307" x="1726.9229" y="1321.7383">Database</text><path d="M1741.8882,1335.252 C1741.8882,1325.252 1759.8882,1325.252 1759.8882,1325.252 C1759.8882,1325.252 1777.8882,1325.252 1777.8882,1335.252 L1777.8882,1361.252 C1777.8882,1371.252 1759.8882,1371.252 1759.8882,1371.252 C1759.8882,1371.252 1741.8882,1371.252 1741.8882,1361.252 L1741.8882,1335.252" fill="#E2E2F0" style="stroke:#181818;stroke-width:0.5;"/><path d="M1741.8882,1335.252 C1741.8882,1345.252 1759.8882,1345.252 1759.8882,1345.252 C1759.8882,1345.252 1777.8882,1345.252 1777.8882,1335.252" fill="none" style="stroke:#181818;stroke-width:0.5;"/></g><g class="participant participant-head" data-entity-uid="part8" data-qualified-name="UC2" id="part8-head"><rect fill="#E2E2F0" height="32.6211" rx="2.5" ry="2.5" style="stroke:#181818;stroke-width:0.5;" width="42.0068" x="1802.8535" y="50"/><text fill="#000000" font-family="sans-serif" font-size="14" lengthAdjust="spacing" textLength="28.0068" x="1809.8535" y="72.1074">UC2</text></g><g class="participant participant-tail" data-entity-uid="part8" data-qualified-name="UC2" id="part8-tail"><rect fill="#E2E2F0" height="32.6211" rx="2.5" ry="2.5" style="stroke:#181818;stroke-width:0.5;" width="42.0068" x="1802.8535" y="1306.6309"/><text fill="#000000" font-family="sans-serif" font-size="14" lengthAdjust="spacing" textLength="28.0068" x="1809.8535" y="1328.7383">UC2</text></g><g><title>RouteController</title><rect fill="#FFFFFF" height="589.4805" style="stroke:#181818;stroke-width:1;" width="10" x="317.2075" y="162.2031"/></g><g><title>RouteController</title><rect fill="#FFFFFF" height="461.3652" style="stroke:#181818;stroke-width:1;" width="10" x="317.2075" y="828.2656"/></g><g><title>UpdateRouteUseCase</title><rect fill="#FFFFFF" height="526.8984" style="stroke:#181818;stroke-width:1;" width="10" x="502.6846" y="193.4941"/></g><g><title>Route</title><rect fill="#FFFFFF" height="196.6973" style="stroke:#181818;stroke-width:1;" width="10" x="881.0986" y="349.9492"/></g><g><title>Route</title><rect fill="#FFFFFF" height="85.873" style="stroke:#181818;stroke-width:1;" width="10" x="881.0986" y="1016.0117"/></g><g><title>RouteVersion</title><rect fill="#FFFFFF" height="52.2422" style="stroke:#181818;stroke-width:1;" width="10" x="1323.3735" y="463.1133"/></g><g><title>RouteRepository</title><rect fill="#FFFFFF" height="93.873" style="stroke:#181818;stroke-width:1;" width="10" x="1441.9248" y="224.7852"/></g><g><title>RouteRepository</title><rect fill="#FFFFFF" height="111.1641" style="stroke:#181818;stroke-width:1;" width="10" x="1441.9248" y="577.9375"/></g><g><title>RouteRepository</title><rect fill="#FFFFFF" height="93.873" style="stroke:#181818;stroke-width:1;" width="10" x="1441.9248" y="890.8477"/></g><g><title>RouteRepository</title><rect fill="#FFFFFF" height="93.873" style="stroke:#181818;stroke-width:1;" width="10" x="1441.9248" y="1133.1758"/></g><g><title>Database</title><rect fill="#FFFFFF" height="31.291" style="stroke:#181818;stroke-width:1;" width="10" x="1754.8882" y="256.0762"/></g><g><title>Database</title><rect fill="#FFFFFF" height="31.291" style="stroke:#181818;stroke-width:1;" width="10" x="1754.8882" y="626.5195"/></g><g><title>Database</title><rect fill="#FFFFFF" height="31.291" style="stroke:#181818;stroke-width:1;" width="10" x="1754.8882" y="922.1387"/></g><g><title>Database</title><rect fill="#FFFFFF" height="31.291" style="stroke:#181818;stroke-width:1;" width="10" x="1754.8882" y="1164.4668"/></g><g><title>UC2</title><rect fill="#FFFFFF" height="398.7832" style="stroke:#181818;stroke-width:1;" width="10" x="1818.8569" y="859.5566"/></g><rect fill="#EEEEEE" height="3" style="stroke:#EEEEEE;stroke-width:1;" width="1849.8604" x="0" y="115.2666"/><line style="stroke:#000000;stroke-width:1;" x1="0" x2="1849.8604" y1="115.2666" y2="115.2666"/><line style="stroke:#000000;stroke-width:1;" x1="0" x2="1849.8604" y1="118.2666" y2="118.2666"/><rect fill="#EEEEEE" height="25.291" style="stroke:#000000;stroke-width:2;" width="102.1118" x="873.8743" y="103.6211"/><text fill="#000000" font-family="sans-serif" font-size="13" font-weight="bold" lengthAdjust="spacing" textLength="84.5" x="879.8743" y="121.6494">Update Route</text><g class="message" data-entity-1="part1" data-entity-2="part2" id="msg1"><polygon fill="#181818" points="305.2075,158.2031,315.2075,162.2031,305.2075,166.2031,309.2075,162.2031" style="stroke:#181818;stroke-width:1;"/><line style="stroke:#181818;stroke-width:1;" x1="94.7515" x2="311.2075" y1="162.2031" y2="162.2031"/><text fill="#000000" font-family="sans-serif" font-size="13" font-weight="bold" lengthAdjust="spacing" textLength="7.23" x="101.7515" y="156.9404">1</text><text fill="#000000" font-family="sans-serif" font-size="13" lengthAdjust="spacing" textLength="177.728" x="112.9814" y="156.9404">PATCH /api/routes/{id} (JSON)</text></g><g class="message" data-entity-1="part2" data-entity-2="part3" id="msg2"><polygon fill="#181818" points="490.6846,189.4941,500.6846,193.4941,490.6846,197.4941,494.6846,193.4941" style="stroke:#181818;stroke-width:1;"/><line style="stroke:#181818;stroke-width:1;" x1="327.2075" x2="496.6846" y1="193.4941" y2="193.4941"/><text fill="#000000" font-family="sans-serif" font-size="13" font-weight="bold" lengthAdjust="spacing" textLength="7.23" x="334.2075" y="188.2314">2</text><text fill="#000000" font-family="sans-serif" font-size="13" lengthAdjust="spacing" textLength="145.2471" x="345.4375" y="188.2314">execute(routeId, request)</text></g><g class="message" data-entity-1="part3" data-entity-2="part6" id="msg3"><polygon fill="#181818" points="1429.9248,220.7852,1439.9248,224.7852,1429.9248,228.7852,1433.9248,224.7852" style="stroke:#181818;stroke-width:1;"/><line style="stroke:#181818;stroke-width:1;" x1="512.6846" x2="1435.9248" y1="224.7852" y2="224.7852"/><text fill="#000000" font-family="sans-serif" font-size="13" font-weight="bold" lengthAdjust="spacing" textLength="7.23" x="519.6846" y="219.5225">3</text><text fill="#000000" font-family="sans-serif" font-size="13" lengthAdjust="spacing" textLength="130.7935" x="530.9146" y="219.5225">findByRouteId(routeId)</text></g><g class="message" data-entity-1="part6" data-entity-2="part7" id="msg4"><polygon fill="#181818" points="1742.8882,252.0762,1752.8882,256.0762,1742.8882,260.0762,1746.8882,256.0762" style="stroke:#181818;stroke-width:1;"/><line style="stroke:#181818;stroke-width:1;" x1="1451.9248" x2="1748.8882" y1="256.0762" y2="256.0762"/><text fill="#000000" font-family="sans-serif" font-size="13" font-weight="bold" lengthAdjust="spacing" textLength="7.23" x="1458.9248" y="250.8135">4</text><text fill="#000000" font-family="sans-serif" font-size="13" lengthAdjust="spacing" textLength="265.5034" x="1470.1548" y="250.8135">SELECT * FROM routes WHERE route_id = ?</text></g><g class="message" data-entity-1="part7" data-entity-2="part6" id="msg5"><polygon fill="#181818" points="1462.9248,283.3672,1452.9248,287.3672,1462.9248,291.3672,1458.9248,287.3672" style="stroke:#181818;stroke-width:1;"/><line style="stroke:#181818;stroke-width:1;stroke-dasharray:2,2;" x1="1456.9248" x2="1758.8882" y1="287.3672" y2="287.3672"/><text fill="#000000" font-family="sans-serif" font-size="13" font-weight="bold" lengthAdjust="spacing" textLength="7.23" x="1468.9248" y="282.1045">5</text><text fill="#000000" font-family="sans-serif" font-size="13" lengthAdjust="spacing" textLength="29.6309" x="1480.1548" y="282.1045">route</text></g><g class="message" data-entity-1="part6" data-entity-2="part3" id="msg6"><polygon fill="#181818" points="523.6846,314.6582,513.6846,318.6582,523.6846,322.6582,519.6846,318.6582" style="stroke:#181818;stroke-width:1;"/><line style="stroke:#181818;stroke-width:1;stroke-dasharray:2,2;" x1="517.6846" x2="1445.9248" y1="318.6582" y2="318.6582"/><text fill="#000000" font-family="sans-serif" font-size="13" font-weight="bold" lengthAdjust="spacing" textLength="7.23" x="529.6846" y="313.3955">6</text><text fill="#000000" font-family="sans-serif" font-size="13" lengthAdjust="spacing" textLength="29.6309" x="540.9146" y="313.3955">route</text></g><g class="message" data-entity-1="part3" data-entity-2="part4" id="msg7"><polygon fill="#181818" points="869.0986,345.9492,879.0986,349.9492,869.0986,353.9492,873.0986,349.9492" style="stroke:#181818;stroke-width:1;"/><line style="stroke:#181818;stroke-width:1;" x1="512.6846" x2="875.0986" y1="349.9492" y2="349.9492"/><text fill="#000000" font-family="sans-serif" font-size="13" font-weight="bold" lengthAdjust="spacing" textLength="7.23" x="519.6846" y="344.6865">7</text><text fill="#000000" font-family="sans-serif" font-size="13" lengthAdjust="spacing" textLength="338.1841" x="530.9146" y="344.6865">update(distance, flightTime, requirements, changeReason)</text></g><path d="M896,362.9492 L896,423.9492 L1083,423.9492 L1083,372.9492 L1073,362.9492 L896,362.9492" fill="#FEFFDD" style="stroke:#181818;stroke-width:0.5;"/><path d="M1073,362.9492 L1073,372.9492 L1083,372.9492 L1073,362.9492" fill="#FEFFDD" style="stroke:#181818;stroke-width:0.5;"/><text fill="#000000" font-family="sans-serif" font-size="13" lengthAdjust="spacing" textLength="166.188" x="902" y="381.9775">Closes current RouteVersion</text><text fill="#000000" font-family="sans-serif" font-size="13" lengthAdjust="spacing" textLength="127.5181" x="902" y="399.2686">(sets validUntil = now)</text><text fill="#000000" font-family="sans-serif" font-size="13" lengthAdjust="spacing" textLength="155.3589" x="902" y="416.5596">Creates new RouteVersion</text><g class="message" data-entity-1="part4" data-entity-2="part5" id="msg8"><polygon fill="#181818" points="1266.96,449.1133,1276.96,453.1133,1266.96,457.1133,1270.96,453.1133" style="stroke:#181818;stroke-width:1;"/><line style="stroke:#181818;stroke-width:1;" x1="891.0986" x2="1272.96" y1="453.1133" y2="453.1133"/><text fill="#000000" font-family="sans-serif" font-size="13" font-weight="bold" lengthAdjust="spacing" textLength="7.23" x="898.0986" y="447.8506">8</text><text fill="#000000" font-family="sans-serif" font-size="13" lengthAdjust="spacing" textLength="352.6313" x="909.3286" y="447.8506">new RouteVersion(distance, flightTime, now, changeReason)</text></g><rect fill="#E2E2F0" height="51.2422" rx="2.5" ry="2.5" style="stroke:#181818;stroke-width:0.5;" width="98.8271" x="1278.96" y="429.8223"/><text fill="#000000" font-family="sans-serif" font-size="14" lengthAdjust="spacing" textLength="84.8271" x="1285.96" y="451.9297">RouteVersion</text><text fill="#000000" font-family="sans-serif" font-size="14" lengthAdjust="spacing" textLength="44.3379" x="1306.2046" y="470.5508">(Entity)</text><g class="message" data-entity-1="part5" data-entity-2="part4" id="msg10"><polygon fill="#181818" points="902.0986,511.3555,892.0986,515.3555,902.0986,519.3555,898.0986,515.3555" style="stroke:#181818;stroke-width:1;"/><line style="stroke:#181818;stroke-width:1;stroke-dasharray:2,2;" x1="896.0986" x2="1327.3735" y1="515.3555" y2="515.3555"/><text fill="#000000" font-family="sans-serif" font-size="13" font-weight="bold" lengthAdjust="spacing" textLength="7.23" x="908.0986" y="510.0928">9</text><text fill="#000000" font-family="sans-serif" font-size="13" lengthAdjust="spacing" textLength="67.9263" x="919.3286" y="510.0928">newVersion</text></g><g class="message" data-entity-1="part4" data-entity-2="part3" id="msg11"><polygon fill="#181818" points="523.6846,542.6465,513.6846,546.6465,523.6846,550.6465,519.6846,546.6465" style="stroke:#181818;stroke-width:1;"/><line style="stroke:#181818;stroke-width:1;stroke-dasharray:2,2;" x1="517.6846" x2="885.0986" y1="546.6465" y2="546.6465"/><text fill="#000000" font-family="sans-serif" font-size="13" font-weight="bold" lengthAdjust="spacing" textLength="14.46" x="529.6846" y="541.3838">10</text><text fill="#000000" font-family="sans-serif" font-size="13" lengthAdjust="spacing" textLength="80.2344" x="548.1445" y="541.3838">updated route</text></g><g class="message" data-entity-1="part3" data-entity-2="part6" id="msg12"><polygon fill="#181818" points="1429.9248,573.9375,1439.9248,577.9375,1429.9248,581.9375,1433.9248,577.9375" style="stroke:#181818;stroke-width:1;"/><line style="stroke:#181818;stroke-width:1;" x1="512.6846" x2="1435.9248" y1="577.9375" y2="577.9375"/><text fill="#000000" font-family="sans-serif" font-size="13" font-weight="bold" lengthAdjust="spacing" textLength="14.46" x="519.6846" y="572.6748">11</text><text fill="#000000" font-family="sans-serif" font-size="13" lengthAdjust="spacing" textLength="65.749" x="538.1445" y="572.6748">save(route)</text></g><g class="message" data-entity-1="part6" data-entity-2="part7" id="msg13"><polygon fill="#181818" points="1742.8882,622.5195,1752.8882,626.5195,1742.8882,630.5195,1746.8882,626.5195" style="stroke:#181818;stroke-width:1;"/><line style="stroke:#181818;stroke-width:1;" x1="1451.9248" x2="1748.8882" y1="626.5195" y2="626.5195"/><text fill="#000000" font-family="sans-serif" font-size="13" font-weight="bold" lengthAdjust="spacing" textLength="14.46" x="1458.9248" y="612.6113">12</text><text fill="#000000" font-family="sans-serif" font-size="13" lengthAdjust="spacing" textLength="206.6226" x="1477.3848" y="603.9658">UPDATE route_versions (validUntil)</text><text fill="#000000" font-family="sans-serif" font-size="13" lengthAdjust="spacing" textLength="194.3208" x="1477.3848" y="621.2568">INSERT INTO route_versions (...)</text></g><g class="message" data-entity-1="part7" data-entity-2="part6" id="msg14"><polygon fill="#181818" points="1462.9248,653.8105,1452.9248,657.8105,1462.9248,661.8105,1458.9248,657.8105" style="stroke:#181818;stroke-width:1;"/><line style="stroke:#181818;stroke-width:1;stroke-dasharray:2,2;" x1="1456.9248" x2="1758.8882" y1="657.8105" y2="657.8105"/><text fill="#000000" font-family="sans-serif" font-size="13" font-weight="bold" lengthAdjust="spacing" textLength="14.46" x="1468.9248" y="652.5479">13</text><text fill="#000000" font-family="sans-serif" font-size="13" lengthAdjust="spacing" textLength="75.1499" x="1487.3848" y="652.5479">saved record</text></g><g class="message" data-entity-1="part6" data-entity-2="part3" id="msg15"><polygon fill="#181818" points="523.6846,685.1016,513.6846,689.1016,523.6846,693.1016,519.6846,689.1016" style="stroke:#181818;stroke-width:1;"/><line style="stroke:#181818;stroke-width:1;stroke-dasharray:2,2;" x1="517.6846" x2="1445.9248" y1="689.1016" y2="689.1016"/><text fill="#000000" font-family="sans-serif" font-size="13" font-weight="bold" lengthAdjust="spacing" textLength="14.46" x="529.6846" y="683.8389">14</text><text fill="#000000" font-family="sans-serif" font-size="13" lengthAdjust="spacing" textLength="69.3799" x="548.1445" y="683.8389">savedRoute</text></g><g class="message" data-entity-1="part3" data-entity-2="part2" id="msg16"><polygon fill="#181818" points="338.2075,716.3926,328.2075,720.3926,338.2075,724.3926,334.2075,720.3926" style="stroke:#181818;stroke-width:1;"/><line style="stroke:#181818;stroke-width:1;stroke-dasharray:2,2;" x1="332.2075" x2="506.6846" y1="720.3926" y2="720.3926"/><text fill="#000000" font-family="sans-serif" font-size="13" font-weight="bold" lengthAdjust="spacing" textLength="14.46" x="344.2075" y="715.1299">15</text><text fill="#000000" font-family="sans-serif" font-size="13" lengthAdjust="spacing" textLength="69.3799" x="362.6675" y="715.1299">savedRoute</text></g><g class="message" data-entity-1="part2" data-entity-2="part1" id="msg17"><polygon fill="#181818" points="105.7515,747.6836,95.7515,751.6836,105.7515,755.6836,101.7515,751.6836" style="stroke:#181818;stroke-width:1;"/><line style="stroke:#181818;stroke-width:1;stroke-dasharray:2,2;" x1="99.7515" x2="321.2075" y1="751.6836" y2="751.6836"/><text fill="#000000" font-family="sans-serif" font-size="13" font-weight="bold" lengthAdjust="spacing" textLength="14.46" x="111.7515" y="746.4209">16</text><text fill="#000000" font-family="sans-serif" font-size="13" lengthAdjust="spacing" textLength="153.1753" x="130.2114" y="746.4209">200 OK (JSON Response)</text></g><rect fill="#EEEEEE" height="3" style="stroke:#EEEEEE;stroke-width:1;" width="1849.8604" x="0" y="781.3291"/><line style="stroke:#000000;stroke-width:1;" x1="0" x2="1849.8604" y1="781.3291" y2="781.3291"/><line style="stroke:#000000;stroke-width:1;" x1="0" x2="1849.8604" y1="784.3291" y2="784.3291"/><rect fill="#EEEEEE" height="25.291" style="stroke:#000000;stroke-width:2;" width="123.0908" x="863.3848" y="769.6836"/><text fill="#000000" font-family="sans-serif" font-size="13" font-weight="bold" lengthAdjust="spacing" textLength="105.479" x="869.3848" y="787.7119">Deactivate Route</text><g class="message" data-entity-1="part1" data-entity-2="part2" id="msg18"><polygon fill="#181818" points="305.2075,824.2656,315.2075,828.2656,305.2075,832.2656,309.2075,828.2656" style="stroke:#181818;stroke-width:1;"/><line style="stroke:#181818;stroke-width:1;" x1="94.7515" x2="311.2075" y1="828.2656" y2="828.2656"/><text fill="#000000" font-family="sans-serif" font-size="13" font-weight="bold" lengthAdjust="spacing" textLength="14.46" x="101.7515" y="823.0029">17</text><text fill="#000000" font-family="sans-serif" font-size="13" lengthAdjust="spacing" textLength="184.9961" x="120.2114" y="823.0029">POST /api/routes/{id}/deactivate</text></g><g class="message" data-entity-1="part2" data-entity-2="part8" id="msg19"><polygon fill="#181818" points="1806.8569,855.5566,1816.8569,859.5566,1806.8569,863.5566,1810.8569,859.5566" style="stroke:#181818;stroke-width:1;"/><line style="stroke:#181818;stroke-width:1;" x1="327.2075" x2="1812.8569" y1="859.5566" y2="859.5566"/><text fill="#000000" font-family="sans-serif" font-size="13" font-weight="bold" lengthAdjust="spacing" textLength="14.46" x="334.2075" y="854.2939">18</text><text fill="#000000" font-family="sans-serif" font-size="13" lengthAdjust="spacing" textLength="94.6626" x="352.6675" y="854.2939">execute(routeId)</text></g><g class="message" data-entity-1="part8" data-entity-2="part6" id="msg20"><polygon fill="#181818" points="1462.9248,886.8477,1452.9248,890.8477,1462.9248,894.8477,1458.9248,890.8477" style="stroke:#181818;stroke-width:1;"/><line style="stroke:#181818;stroke-width:1;" x1="1456.9248" x2="1817.8569" y1="890.8477" y2="890.8477"/><text fill="#000000" font-family="sans-serif" font-size="13" font-weight="bold" lengthAdjust="spacing" textLength="14.46" x="1468.9248" y="885.585">19</text><text fill="#000000" font-family="sans-serif" font-size="13" lengthAdjust="spacing" textLength="130.7935" x="1487.3848" y="885.585">findByRouteId(routeId)</text></g><g class="message" data-entity-1="part6" data-entity-2="part7" id="msg21"><polygon fill="#181818" points="1742.8882,918.1387,1752.8882,922.1387,1742.8882,926.1387,1746.8882,922.1387" style="stroke:#181818;stroke-width:1;"/><line style="stroke:#181818;stroke-width:1;" x1="1451.9248" x2="1748.8882" y1="922.1387" y2="922.1387"/><text fill="#000000" font-family="sans-serif" font-size="13" font-weight="bold" lengthAdjust="spacing" textLength="14.46" x="1458.9248" y="916.876">20</text><text fill="#000000" font-family="sans-serif" font-size="13" lengthAdjust="spacing" textLength="265.5034" x="1477.3848" y="916.876">SELECT * FROM routes WHERE route_id = ?</text></g><g class="message" data-entity-1="part7" data-entity-2="part6" id="msg22"><polygon fill="#181818" points="1462.9248,949.4297,1452.9248,953.4297,1462.9248,957.4297,1458.9248,953.4297" style="stroke:#181818;stroke-width:1;"/><line style="stroke:#181818;stroke-width:1;stroke-dasharray:2,2;" x1="1456.9248" x2="1758.8882" y1="953.4297" y2="953.4297"/><text fill="#000000" font-family="sans-serif" font-size="13" font-weight="bold" lengthAdjust="spacing" textLength="14.46" x="1468.9248" y="948.167">21</text><text fill="#000000" font-family="sans-serif" font-size="13" lengthAdjust="spacing" textLength="29.6309" x="1487.3848" y="948.167">route</text></g><g class="message" data-entity-1="part6" data-entity-2="part8" id="msg23"><polygon fill="#181818" points="1806.8569,980.7207,1816.8569,984.7207,1806.8569,988.7207,1810.8569,984.7207" style="stroke:#181818;stroke-width:1;"/><line style="stroke:#181818;stroke-width:1;stroke-dasharray:2,2;" x1="1446.9248" x2="1812.8569" y1="984.7207" y2="984.7207"/><text fill="#000000" font-family="sans-serif" font-size="13" font-weight="bold" lengthAdjust="spacing" textLength="14.46" x="1453.9248" y="979.458">22</text><text fill="#000000" font-family="sans-serif" font-size="13" lengthAdjust="spacing" textLength="29.6309" x="1472.3848" y="979.458">route</text></g><g class="message" data-entity-1="part8" data-entity-2="part4" id="msg24"><polygon fill="#181818" points="902.0986,1012.0117,892.0986,1016.0117,902.0986,1020.0117,898.0986,1016.0117" style="stroke:#181818;stroke-width:1;"/><line style="stroke:#181818;stroke-width:1;" x1="896.0986" x2="1817.8569" y1="1016.0117" y2="1016.0117"/><text fill="#000000" font-family="sans-serif" font-size="13" font-weight="bold" lengthAdjust="spacing" textLength="14.46" x="908.0986" y="1010.749">23</text><text fill="#000000" font-family="sans-serif" font-size="13" lengthAdjust="spacing" textLength="67.9199" x="926.5586" y="1010.749">deactivate()</text></g><path d="M896,1029.0117 L896,1073.0117 L1042,1073.0117 L1042,1039.0117 L1032,1029.0117 L896,1029.0117" fill="#FEFFDD" style="stroke:#181818;stroke-width:0.5;"/><path d="M1032,1029.0117 L1032,1039.0117 L1042,1039.0117 L1032,1029.0117" fill="#FEFFDD" style="stroke:#181818;stroke-width:0.5;"/><text fill="#000000" font-family="sans-serif" font-size="13" lengthAdjust="spacing" textLength="116.689" x="902" y="1048.04">Sets isActive = false</text><text fill="#000000" font-family="sans-serif" font-size="13" lengthAdjust="spacing" textLength="125.0044" x="902" y="1065.3311">Route is NOT deleted</text><g class="message" data-entity-1="part4" data-entity-2="part8" id="msg25"><polygon fill="#181818" points="1806.8569,1097.8848,1816.8569,1101.8848,1806.8569,1105.8848,1810.8569,1101.8848" style="stroke:#181818;stroke-width:1;"/><line style="stroke:#181818;stroke-width:1;stroke-dasharray:2,2;" x1="886.0986" x2="1812.8569" y1="1101.8848" y2="1101.8848"/><text fill="#000000" font-family="sans-serif" font-size="13" font-weight="bold" lengthAdjust="spacing" textLength="14.46" x="893.0986" y="1096.6221">24</text><text fill="#000000" font-family="sans-serif" font-size="13" lengthAdjust="spacing" textLength="13.73" x="911.5586" y="1096.6221">ok</text></g><g class="message" data-entity-1="part8" data-entity-2="part6" id="msg26"><polygon fill="#181818" points="1462.9248,1129.1758,1452.9248,1133.1758,1462.9248,1137.1758,1458.9248,1133.1758" style="stroke:#181818;stroke-width:1;"/><line style="stroke:#181818;stroke-width:1;" x1="1456.9248" x2="1817.8569" y1="1133.1758" y2="1133.1758"/><text fill="#000000" font-family="sans-serif" font-size="13" font-weight="bold" lengthAdjust="spacing" textLength="14.46" x="1468.9248" y="1127.9131">25</text><text fill="#000000" font-family="sans-serif" font-size="13" lengthAdjust="spacing" textLength="65.749" x="1487.3848" y="1127.9131">save(route)</text></g><g class="message" data-entity-1="part6" data-entity-2="part7" id="msg27"><polygon fill="#181818" points="1742.8882,1160.4668,1752.8882,1164.4668,1742.8882,1168.4668,1746.8882,1164.4668" style="stroke:#181818;stroke-width:1;"/><line style="stroke:#181818;stroke-width:1;" x1="1451.9248" x2="1748.8882" y1="1164.4668" y2="1164.4668"/><text fill="#000000" font-family="sans-serif" font-size="13" font-weight="bold" lengthAdjust="spacing" textLength="14.46" x="1458.9248" y="1159.2041">26</text><text fill="#000000" font-family="sans-serif" font-size="13" lengthAdjust="spacing" textLength="217.8325" x="1477.3848" y="1159.2041">UPDATE routes SET is_active = false</text></g><g class="message" data-entity-1="part7" data-entity-2="part6" id="msg28"><polygon fill="#181818" points="1462.9248,1191.7578,1452.9248,1195.7578,1462.9248,1199.7578,1458.9248,1195.7578" style="stroke:#181818;stroke-width:1;"/><line style="stroke:#181818;stroke-width:1;stroke-dasharray:2,2;" x1="1456.9248" x2="1758.8882" y1="1195.7578" y2="1195.7578"/><text fill="#000000" font-family="sans-serif" font-size="13" font-weight="bold" lengthAdjust="spacing" textLength="14.46" x="1468.9248" y="1190.4951">27</text><text fill="#000000" font-family="sans-serif" font-size="13" lengthAdjust="spacing" textLength="34.6899" x="1487.3848" y="1190.4951">saved</text></g><g class="message" data-entity-1="part6" data-entity-2="part8" id="msg29"><polygon fill="#181818" points="1806.8569,1223.0488,1816.8569,1227.0488,1806.8569,1231.0488,1810.8569,1227.0488" style="stroke:#181818;stroke-width:1;"/><line style="stroke:#181818;stroke-width:1;stroke-dasharray:2,2;" x1="1446.9248" x2="1812.8569" y1="1227.0488" y2="1227.0488"/><text fill="#000000" font-family="sans-serif" font-size="13" font-weight="bold" lengthAdjust="spacing" textLength="14.46" x="1453.9248" y="1221.7861">28</text><text fill="#000000" font-family="sans-serif" font-size="13" lengthAdjust="spacing" textLength="13.73" x="1472.3848" y="1221.7861">ok</text></g><g class="message" data-entity-1="part8" data-entity-2="part2" id="msg30"><polygon fill="#181818" points="338.2075,1254.3398,328.2075,1258.3398,338.2075,1262.3398,334.2075,1258.3398" style="stroke:#181818;stroke-width:1;"/><line style="stroke:#181818;stroke-width:1;stroke-dasharray:2,2;" x1="332.2075" x2="1822.8569" y1="1258.3398" y2="1258.3398"/><text fill="#000000" font-family="sans-serif" font-size="13" font-weight="bold" lengthAdjust="spacing" textLength="14.46" x="344.2075" y="1253.0771">29</text><text fill="#000000" font-family="sans-serif" font-size="13" lengthAdjust="spacing" textLength="23.8481" x="362.6675" y="1253.0771">void</text></g><g class="message" data-entity-1="part2" data-entity-2="part1" id="msg31"><polygon fill="#181818" points="105.7515,1285.6309,95.7515,1289.6309,105.7515,1293.6309,101.7515,1289.6309" style="stroke:#181818;stroke-width:1;"/><line style="stroke:#181818;stroke-width:1;stroke-dasharray:2,2;" x1="99.7515" x2="321.2075" y1="1289.6309" y2="1289.6309"/><text fill="#000000" font-family="sans-serif" font-size="13" font-weight="bold" lengthAdjust="spacing" textLength="14.46" x="111.7515" y="1284.3682">30</text><text fill="#000000" font-family="sans-serif" font-size="13" lengthAdjust="spacing" textLength="91.0635" x="130.2114" y="1284.3682">204 No Content</text></g><?plantuml-src pLLDZzem5BpxLpnnWjNkiefwGg8L1Agb7sGLGdjPQULD36jji5FRi4LL_tkVRQ8a4EYXbzuWddcUDymGkZLIR3VFJ16Q6gcWCqh24FemfkchNAruoY0gcA9urW6gOMHHfA3Ay9GNL1Zen79hM2Y5KJBFcOU5HkLDrBB8g64EkzGif9evu39i6VOekgFrMh4rCY2MqlGSrfsrmBynfRaKo9eAmytUemzFM_0nAwJckCVUZyMl1CNHPnG5dSdXapkRZ0aP3i6Bzm9WE2J4sG0txzsYC807jEqU-hJWVML1kl-BPx-X-saHpNlMMhwp0vmjn76GkmoHoNwo50bTHvjbrw3OZotJfiP2ZmXYaM6b8cV5HJRUnvvHCci4jv738cSoHiPY-cKQ9d057-FeAtY9yFr-6a_zboUUmH0-L2DmSIJUL7Sw6CbO7U6lA3SvGJWPfN9dtG2spibknhMX8cNNiChv-iKaVCFywbon3HD6NqFwGiKQVoogfQWlvwuXGk9dPRaWL_xX0C9SQbmitIg5C-0e7PeP3JkQyso9ESbnOI7VUeyYL8nQFmHxQr08yQfH_k49N5tX3iUuCzlWyBDBb3UKSszg5k7uyhXcvh6cqdLlQDRYllUf4HnDTuUaNKpByc4oIifaxFp56hgLTMZQRBwOnWdCvabq0hozlUrTY99LWO9PAbLsCL4E69-FLTM_TgGjZYyR8drb1n3StK7qsLSJP-a29QCTDPflATP-SkHcU_MZHNBI_7urxdpxWzFwDreVs2s3_xltmQNY1_NcL-VTapQtbdbXwyhro4BHUbZHNEEhmS_Z6kPHWaDpXkblbC9Aag-jLGZ-hGiQ_KpmwYVQqFItg5zsxqXgPLqLiPtaMJFNGMkmty5SWdqJuv_VSQ3_0000?></g></svg>