<?plantuml 1.2026.2?><svg xmlns="http://www.w3.org/2000/svg" xmlns:xlink="http://www.w3.org/1999/xlink" contentStyleType="text/css" data-diagram-type="SEQUENCE" height="369.6px" preserveAspectRatio="none" style="width:709px;height:369px;background:#FFFFFF;" version="1.1" viewBox="0 0 709 369" width="709.1px" zoomAndPan="magnify"><defs/><g><g><title>ATCC . Backoffice Operator</title><rect fill="#FFFFFF" height="120.2223" style="stroke:#181818;stroke-width:0.7;" width="7" x="62.826" y="65.5348"/></g><g><title>.System</title><rect fill="#FFFFFF" height="72.2148" style="stroke:#181818;stroke-width:0.7;" width="7" x="515.8521" y="113.5422"/></g><g><title>.System</title><rect fill="#FFFFFF" height="60.1111" style="stroke:#181818;stroke-width:0.7;" width="7" x="515.8521" y="239.3645"/></g><g class="participant-lifeline" data-entity-uid="part1" data-qualified-name="Actor" id="part1-lifeline"><g><title>ATCC . Backoffice Operator</title><rect fill="#000000" fill-opacity="0.00000" height="253.5408" width="5.6" x="63.526" y="58.5348"/><line style="stroke:#181818;stroke-width:0.35;stroke-dasharray:3.5,3.5;" x1="65.8" x2="65.8" y1="58.5348" y2="312.0756"/></g></g><g class="participant-lifeline" data-entity-uid="part2" data-qualified-name="System" id="part2-lifeline"><g><title>.System</title><rect fill="#000000" fill-opacity="0.00000" height="253.5408" width="5.6" x="516.5521" y="58.5348"/><line style="stroke:#181818;stroke-width:0.35;stroke-dasharray:3.5,3.5;" x1="519.1542" x2="519.1542" y1="58.5348" y2="312.0756"/></g></g><g class="participant participant-head" data-entity-uid="part1" data-qualified-name="Actor" id="part1-head"><text fill="#000000" font-family="sans-serif" font-size="9.8" lengthAdjust="spacing" textLength="121.4521" x="3.5" y="56.0752">ATCC / Backoffice Operator</text><ellipse cx="66.326" cy="9.45" fill="#E2E2F0" rx="5.6" ry="5.6" style="stroke:#181818;stroke-width:0.35;"/><path d="M66.326,15.05 L66.326,33.95 M57.226,20.65 L75.426,20.65 M66.326,33.95 L57.226,44.45 M66.326,33.95 L75.426,44.45" fill="none" style="stroke:#181818;stroke-width:0.35;"/></g><g class="participant participant-tail" data-entity-uid="part1" data-qualified-name="Actor" id="part1-tail"><text fill="#000000" font-family="sans-serif" font-size="9.8" lengthAdjust="spacing" textLength="121.4521" x="3.5" y="321.9508">ATCC / Backoffice Operator</text><ellipse cx="66.326" cy="330.3604" fill="#E2E2F0" rx="5.6" ry="5.6" style="stroke:#181818;stroke-width:0.35;"/><path d="M66.326,335.9604 L66.326,354.8604 M57.226,341.5604 L75.426,341.5604 M66.326,354.8604 L57.226,365.3604 M66.326,354.8604 L75.426,365.3604" fill="none" style="stroke:#181818;stroke-width:0.35;"/></g><g class="participant participant-head" data-entity-uid="part2" data-qualified-name="System" id="part2-head"><rect fill="#E2E2F0" height="22.8348" rx="1.75" ry="1.75" style="stroke:#181818;stroke-width:0.35;" width="45.1958" x="496.7542" y="35"/><text fill="#000000" font-family="sans-serif" font-size="9.8" lengthAdjust="spacing" textLength="35.3958" x="501.6542" y="50.4752">:System</text></g><g class="participant participant-tail" data-entity-uid="part2" data-qualified-name="System" id="part2-tail"><rect fill="#E2E2F0" height="22.8348" rx="1.75" ry="1.75" style="stroke:#181818;stroke-width:0.35;" width="45.1958" x="496.7542" y="311.3756"/><text fill="#000000" font-family="sans-serif" font-size="9.8" lengthAdjust="spacing" textLength="35.3958" x="501.6542" y="326.8508">:System</text></g><g><title>ATCC . Backoffice Operator</title><rect fill="#FFFFFF" height="120.2223" style="stroke:#181818;stroke-width:0.7;" width="7" x="62.826" y="65.5348"/></g><g><title>.System</title><rect fill="#FFFFFF" height="72.2148" style="stroke:#181818;stroke-width:0.7;" width="7" x="515.8521" y="113.5422"/></g><g><title>.System</title><rect fill="#FFFFFF" height="60.1111" style="stroke:#181818;stroke-width:0.7;" width="7" x="515.8521" y="239.3645"/></g><rect fill="#EEEEEE" height="2.1" style="stroke:#EEEEEE;stroke-width:0.7;" width="704.7274" x="0" y="80.6866"/><line style="stroke:#000000;stroke-width:0.7;" x1="0" x2="704.7274" y1="80.6866" y2="80.6866"/><line style="stroke:#000000;stroke-width:0.7;" x1="0" x2="704.7274" y1="82.7866" y2="82.7866"/><rect fill="#EEEEEE" height="17.7037" style="stroke:#000000;stroke-width:1.4;" width="71.4783" x="316.6246" y="72.5348"/><text fill="#000000" font-family="sans-serif" font-size="9.1" font-weight="bold" lengthAdjust="spacing" textLength="59.15" x="320.8246" y="85.1546">Update Route</text><g class="message" data-entity-1="part1" data-entity-2="part2" id="msg1"><polygon fill="#181818" points="507.4521,110.7422,514.4521,113.5422,507.4521,116.3422,510.2521,113.5422" style="stroke:#181818;stroke-width:0.7;"/><line style="stroke:#181818;stroke-width:0.7;" x1="69.826" x2="511.6521" y1="113.5422" y2="113.5422"/><text fill="#000000" font-family="sans-serif" font-size="9.1" font-weight="bold" lengthAdjust="spacing" textLength="5.061" x="74.726" y="109.8583">1</text><text fill="#000000" font-family="sans-serif" font-size="9.1" lengthAdjust="spacing" textLength="424.8651" x="82.587" y="109.8583">updateRoute(routeId, distance, estimatedFlightTime, minimumRange, minimumCapacity, changeReason)</text></g><path d="M525.7,122.6422 L525.7,165.3422 L674.8,165.3422 L674.8,129.6422 L667.8,122.6422 L525.7,122.6422" fill="#FEFFDD" style="stroke:#181818;stroke-width:0.35;"/><path d="M667.8,122.6422 L667.8,129.6422 L674.8,129.6422 L667.8,122.6422" fill="#FEFFDD" style="stroke:#181818;stroke-width:0.35;"/><text fill="#000000" font-family="sans-serif" font-size="9.1" lengthAdjust="spacing" textLength="125.4405" x="529.9" y="135.962">The system validates the input,</text><text fill="#000000" font-family="sans-serif" font-size="9.1" lengthAdjust="spacing" textLength="106.2141" x="529.9" y="148.0657">closes the current version,</text><text fill="#000000" font-family="sans-serif" font-size="9.1" lengthAdjust="spacing" textLength="134.5583" x="529.9" y="160.1694">and creates a new RouteVersion.</text><g class="message" data-entity-1="part2" data-entity-2="part1" id="msg2"><polygon fill="#181818" points="74.026,182.957,67.026,185.757,74.026,188.557,71.226,185.757" style="stroke:#181818;stroke-width:0.7;"/><line style="stroke:#181818;stroke-width:0.7;stroke-dasharray:1.4,1.4;" x1="69.826" x2="518.6521" y1="185.757" y2="185.757"/><text fill="#000000" font-family="sans-serif" font-size="9.1" font-weight="bold" lengthAdjust="spacing" textLength="5.061" x="78.226" y="182.0731">2</text><text fill="#000000" font-family="sans-serif" font-size="9.1" lengthAdjust="spacing" textLength="212.9613" x="86.087" y="182.0731">informs operation success and returns updated route</text></g><rect fill="#EEEEEE" height="2.1" style="stroke:#EEEEEE;stroke-width:0.7;" width="704.7274" x="0" y="206.5089"/><line style="stroke:#000000;stroke-width:0.7;" x1="0" x2="704.7274" y1="206.5089" y2="206.5089"/><line style="stroke:#000000;stroke-width:0.7;" x1="0" x2="704.7274" y1="208.6089" y2="208.6089"/><rect fill="#EEEEEE" height="17.7037" style="stroke:#000000;stroke-width:1.4;" width="86.1636" x="309.2819" y="198.357"/><text fill="#000000" font-family="sans-serif" font-size="9.1" font-weight="bold" lengthAdjust="spacing" textLength="73.8353" x="313.4819" y="210.9769">Deactivate Route</text><g class="message" data-entity-1="part1" data-entity-2="part2" id="msg3"><polygon fill="#181818" points="507.4521,236.5645,514.4521,239.3645,507.4521,242.1645,510.2521,239.3645" style="stroke:#181818;stroke-width:0.7;"/><line style="stroke:#181818;stroke-width:0.7;" x1="66.326" x2="511.6521" y1="239.3645" y2="239.3645"/><text fill="#000000" font-family="sans-serif" font-size="9.1" font-weight="bold" lengthAdjust="spacing" textLength="5.061" x="71.226" y="235.6806">3</text><text fill="#000000" font-family="sans-serif" font-size="9.1" lengthAdjust="spacing" textLength="100.1578" x="79.087" y="235.6806">deactivateRoute(routeId)</text></g><path d="M525.7,248.4645 L525.7,279.2645 L700.7,279.2645 L700.7,255.4645 L693.7,248.4645 L525.7,248.4645" fill="#FEFFDD" style="stroke:#181818;stroke-width:0.35;"/><path d="M693.7,248.4645 L693.7,255.4645 L700.7,255.4645 L693.7,248.4645" fill="#FEFFDD" style="stroke:#181818;stroke-width:0.35;"/><text fill="#000000" font-family="sans-serif" font-size="9.1" lengthAdjust="spacing" textLength="160.8274" x="529.9" y="261.7843">The system marks the route as inactive.</text><text fill="#000000" font-family="sans-serif" font-size="9.1" lengthAdjust="spacing" textLength="104.6989" x="529.9" y="273.888">The route is NOT deleted.</text><g class="message" data-entity-1="part2" data-entity-2="part1" id="msg4"><polygon fill="#181818" points="74.026,296.6756,67.026,299.4756,74.026,302.2756,71.226,299.4756" style="stroke:#181818;stroke-width:0.7;"/><line style="stroke:#181818;stroke-width:0.7;stroke-dasharray:1.4,1.4;" x1="69.826" x2="518.6521" y1="299.4756" y2="299.4756"/><text fill="#000000" font-family="sans-serif" font-size="9.1" font-weight="bold" lengthAdjust="spacing" textLength="5.061" x="78.226" y="295.7917">4</text><text fill="#000000" font-family="sans-serif" font-size="9.1" lengthAdjust="spacing" textLength="178.041" x="86.087" y="295.7917">informs operation success (204 No Content)</text></g><?plantuml-src dP9DJyCm38Rl_HNMJflK3OGuLHhIA4BYiacZSDh5fEuMhKcgV0pjt-CqrSh71RXOoMlxhVsa6BpHGRsHpL1uOs6ogieIhk0UnT4qZHG4cuuiScu2w60Lgx8EhPT2TgWzJ8hdi_Ea-dGwPjbo2IzTZPvWQmB7vJBworDKaaKVONutj401eM_ewwSsngSwXrewZrfG3kIyL5nGFxPoV_2LL2mggQKAQejwFzvAx518Vyv1769YI-YCdeqJ35DgmsSRpS0qWrX0TI1mQQOJjZBEvC2pA7KNVBxJeZLka4ImbfZ1YQoJHdCITGt2Kj-4eEaz0NXD1Ojis7REYoS21VisnYe7fkVCLU224EJOWCqi-M2r6-ZmFTfbDNrVvfEI0CStU1Z5oply13-sVe7_3s0AxJ6HwJtY7o5rxqABdQukkdImtbJyuPPufpzIcTvStyBQG6cqP_YpNy3u0000?></g></svg>