<?plantuml 1.2026.2?><svg xmlns="http://www.w3.org/2000/svg" xmlns:xlink="http://www.w3.org/1999/xlink" contentStyleType="text/css" data-diagram-type="SEQUENCE" height="839px" preserveAspectRatio="none" style="width:1395px;height:839px;background:#FFFFFF;" version="1.1" viewBox="0 0 1395 839" width="1395px" zoomAndPan="magnify"><defs/><g><g><title>RouteController</title><rect fill="#FFFFFF" height="621.7227" style="stroke:#181818;stroke-width:1;" width="10" x="250.1567" y="116.9121"/></g><g><title>CreateRouteUseCase</title><rect fill="#FFFFFF" height="559.1406" style="stroke:#181818;stroke-width:1;" width="10" x="391.6597" y="148.2031"/></g><g><title>RouteRequirements</title><rect fill="#FFFFFF" height="106.8242" style="stroke:#181818;stroke-width:1;" width="10" x="850.856" y="244.0762"/></g><g><title>Route</title><rect fill="#FFFFFF" height="141.4063" style="stroke:#181818;stroke-width:1;" width="10" x="990.8071" y="392.1914"/></g><g><title>RouteRepository</title><rect fill="#FFFFFF" height="111.1641" style="stroke:#181818;stroke-width:1;" width="10" x="1120.6411" y="564.8887"/></g><g><title>Database</title><rect fill="#FFFFFF" height="31.291" style="stroke:#181818;stroke-width:1;" width="10" x="1355.1919" y="613.4707"/></g><g class="participant-lifeline" data-entity-uid="part1" data-qualified-name="ATCC" id="part1-lifeline"><g><title>ATCC</title><rect fill="#000000" fill-opacity="0.00000" height="673.0137" width="8" x="23.0552" y="83.6211"/><line style="stroke:#181818;stroke-width:0.5;stroke-dasharray:5,5;" x1="27" x2="27" y1="83.6211" y2="756.6348"/></g></g><g class="participant-lifeline" data-entity-uid="part2" data-qualified-name="Ctrl" id="part2-lifeline"><g><title>RouteController</title><rect fill="#000000" fill-opacity="0.00000" height="673.0137" width="8" x="251.1567" y="83.6211"/><line style="stroke:#181818;stroke-width:0.5;stroke-dasharray:5,5;" x1="255.1328" x2="255.1328" y1="83.6211" y2="756.6348"/></g></g><g class="participant-lifeline" data-entity-uid="part3" data-qualified-name="UC" id="part3-lifeline"><g><title>CreateRouteUseCase</title><rect fill="#000000" fill-opacity="0.00000" height="673.0137" width="8" x="392.6597" y="83.6211"/><line style="stroke:#181818;stroke-width:0.5;stroke-dasharray:5,5;" x1="396.1807" x2="396.1807" y1="83.6211" y2="756.6348"/></g></g><g class="participant-lifeline" data-entity-uid="part4" data-qualified-name="Req" id="part4-lifeline"><g><title>RouteRequirements</title><rect fill="#000000" fill-opacity="0.00000" height="504.7285" width="8" x="851.856" y="251.9063"/><line style="stroke:#181818;stroke-width:0.5;stroke-dasharray:5,5;" x1="855.6011" x2="855.6011" y1="251.9063" y2="756.6348"/></g></g><g class="participant-lifeline" data-entity-uid="part5" data-qualified-name="Route" id="part5-lifeline"><g><title>Route</title><rect fill="#000000" fill-opacity="0.00000" height="356.6133" width="8" x="991.8071" y="400.0215"/><line style="stroke:#181818;stroke-width:0.5;stroke-dasharray:5,5;" x1="995.1108" x2="995.1108" y1="400.0215" y2="756.6348"/></g></g><g class="participant-lifeline" data-entity-uid="part6" data-qualified-name="Repo" id="part6-lifeline"><g><title>RouteRepository</title><rect fill="#000000" fill-opacity="0.00000" height="673.0137" width="8" x="1121.6411" y="83.6211"/><line style="stroke:#181818;stroke-width:0.5;stroke-dasharray:5,5;" x1="1125.5034" x2="1125.5034" y1="83.6211" y2="756.6348"/></g></g><g class="participant-lifeline" data-entity-uid="part7" data-qualified-name="DB" id="part7-lifeline"><g><title>Database</title><rect fill="#000000" fill-opacity="0.00000" height="673.0137" width="8" x="1356.1919" y="83.6211"/><line style="stroke:#181818;stroke-width:0.5;stroke-dasharray:5,5;" x1="1359.2266" x2="1359.2266" y1="83.6211" y2="756.6348"/></g></g><g class="participant participant-head" data-entity-uid="part1" data-qualified-name="ATCC" id="part1-head"><text fill="#000000" font-family="sans-serif" font-size="14" lengthAdjust="spacing" textLength="38.1104" x="5" y="80.1074">ATCC</text><ellipse cx="27.0552" cy="13.5" fill="#E2E2F0" rx="8" ry="8" style="stroke:#181818;stroke-width:0.5;"/><path d="M27.0552,21.5 L27.0552,48.5 M14.0552,29.5 L40.0552,29.5 M27.0552,48.5 L14.0552,63.5 M27.0552,48.5 L40.0552,63.5" fill="none" style="stroke:#181818;stroke-width:0.5;"/></g><g class="participant participant-tail" data-entity-uid="part1" data-qualified-name="ATCC" id="part1-tail"><text fill="#000000" font-family="sans-serif" font-size="14" lengthAdjust="spacing" textLength="38.1104" x="5" y="770.7422">ATCC</text><ellipse cx="27.0552" cy="782.7559" fill="#E2E2F0" rx="8" ry="8" style="stroke:#181818;stroke-width:0.5;"/><path d="M27.0552,790.7559 L27.0552,817.7559 M14.0552,798.7559 L40.0552,798.7559 M27.0552,817.7559 L14.0552,832.7559 M27.0552,817.7559 L40.0552,832.7559" fill="none" style="stroke:#181818;stroke-width:0.5;"/></g><g class="participant participant-head" data-entity-uid="part2" data-qualified-name="Ctrl" id="part2-head"><rect fill="#E2E2F0" height="32.6211" rx="2.5" ry="2.5" style="stroke:#181818;stroke-width:0.5;" width="112.0479" x="199.1328" y="50"/><text fill="#000000" font-family="sans-serif" font-size="14" lengthAdjust="spacing" textLength="98.0479" x="206.1328" y="72.1074">RouteController</text></g><g class="participant participant-tail" data-entity-uid="part2" data-qualified-name="Ctrl" id="part2-tail"><rect fill="#E2E2F0" height="32.6211" rx="2.5" ry="2.5" style="stroke:#181818;stroke-width:0.5;" width="112.0479" x="199.1328" y="755.6348"/><text fill="#000000" font-family="sans-serif" font-size="14" lengthAdjust="spacing" textLength="98.0479" x="206.1328" y="777.7422">RouteController</text></g><g class="participant participant-head" data-entity-uid="part3" data-qualified-name="UC" id="part3-head"><rect fill="#E2E2F0" height="32.6211" rx="2.5" ry="2.5" style="stroke:#181818;stroke-width:0.5;" width="150.958" x="321.1807" y="50"/><text fill="#000000" font-family="sans-serif" font-size="14" lengthAdjust="spacing" textLength="136.958" x="328.1807" y="72.1074">CreateRouteUseCase</text></g><g class="participant participant-tail" data-entity-uid="part3" data-qualified-name="UC" id="part3-tail"><rect fill="#E2E2F0" height="32.6211" rx="2.5" ry="2.5" style="stroke:#181818;stroke-width:0.5;" width="150.958" x="321.1807" y="755.6348"/><text fill="#000000" font-family="sans-serif" font-size="14" lengthAdjust="spacing" textLength="136.958" x="328.1807" y="777.7422">CreateRouteUseCase</text></g><g class="participant participant-tail" data-entity-uid="part4" data-qualified-name="Req" id="part4-tail"><rect fill="#E2E2F0" height="51.2422" rx="2.5" ry="2.5" style="stroke:#181818;stroke-width:0.5;" width="138.5098" x="786.6011" y="755.6348"/><text fill="#000000" font-family="sans-serif" font-size="14" lengthAdjust="spacing" textLength="124.5098" x="793.6011" y="777.7422">RouteRequirements</text><text fill="#000000" font-family="sans-serif" font-size="14" lengthAdjust="spacing" textLength="89.4824" x="811.1147" y="796.3633">(Value Object)</text></g><g class="participant participant-tail" data-entity-uid="part5" data-qualified-name="Route" id="part5-tail"><rect fill="#E2E2F0" height="51.2422" rx="2.5" ry="2.5" style="stroke:#181818;stroke-width:0.5;" width="121.3926" x="935.1108" y="755.6348"/><text fill="#000000" font-family="sans-serif" font-size="14" lengthAdjust="spacing" textLength="37.3584" x="977.1279" y="777.7422">Route</text><text fill="#000000" font-family="sans-serif" font-size="14" lengthAdjust="spacing" textLength="107.3926" x="942.1108" y="796.3633">(Aggregate Root)</text></g><g class="participant participant-head" data-entity-uid="part6" data-qualified-name="Repo" id="part6-head"><rect fill="#E2E2F0" height="32.6211" rx="2.5" ry="2.5" style="stroke:#181818;stroke-width:0.5;" width="118.2754" x="1066.5034" y="50"/><text fill="#000000" font-family="sans-serif" font-size="14" lengthAdjust="spacing" textLength="104.2754" x="1073.5034" y="72.1074">RouteRepository</text></g><g class="participant participant-tail" data-entity-uid="part6" data-qualified-name="Repo" id="part6-tail"><rect fill="#E2E2F0" height="32.6211" rx="2.5" ry="2.5" style="stroke:#181818;stroke-width:0.5;" width="118.2754" x="1066.5034" y="755.6348"/><text fill="#000000" font-family="sans-serif" font-size="14" lengthAdjust="spacing" textLength="104.2754" x="1073.5034" y="777.7422">RouteRepository</text></g><g class="participant participant-head" data-entity-uid="part7" data-qualified-name="DB" id="part7-head"><text fill="#000000" font-family="sans-serif" font-size="14" lengthAdjust="spacing" textLength="59.9307" x="1327.2266" y="80.1074">Database</text><path d="M1342.1919,29 C1342.1919,19 1360.1919,19 1360.1919,19 C1360.1919,19 1378.1919,19 1378.1919,29 L1378.1919,55 C1378.1919,65 1360.1919,65 1360.1919,65 C1360.1919,65 1342.1919,65 1342.1919,55 L1342.1919,29" fill="#E2E2F0" style="stroke:#181818;stroke-width:0.5;"/><path d="M1342.1919,29 C1342.1919,39 1360.1919,39 1360.1919,39 C1360.1919,39 1378.1919,39 1378.1919,29" fill="none" style="stroke:#181818;stroke-width:0.5;"/></g><g class="participant participant-tail" data-entity-uid="part7" data-qualified-name="DB" id="part7-tail"><text fill="#000000" font-family="sans-serif" font-size="14" lengthAdjust="spacing" textLength="59.9307" x="1327.2266" y="770.7422">Database</text><path d="M1342.1919,784.2559 C1342.1919,774.2559 1360.1919,774.2559 1360.1919,774.2559 C1360.1919,774.2559 1378.1919,774.2559 1378.1919,784.2559 L1378.1919,810.2559 C1378.1919,820.2559 1360.1919,820.2559 1360.1919,820.2559 C1360.1919,820.2559 1342.1919,820.2559 1342.1919,810.2559 L1342.1919,784.2559" fill="#E2E2F0" style="stroke:#181818;stroke-width:0.5;"/><path d="M1342.1919,784.2559 C1342.1919,794.2559 1360.1919,794.2559 1360.1919,794.2559 C1360.1919,794.2559 1378.1919,794.2559 1378.1919,784.2559" fill="none" style="stroke:#181818;stroke-width:0.5;"/></g><g><title>RouteController</title><rect fill="#FFFFFF" height="621.7227" style="stroke:#181818;stroke-width:1;" width="10" x="250.1567" y="116.9121"/></g><g><title>CreateRouteUseCase</title><rect fill="#FFFFFF" height="559.1406" style="stroke:#181818;stroke-width:1;" width="10" x="391.6597" y="148.2031"/></g><g><title>RouteRequirements</title><rect fill="#FFFFFF" height="106.8242" style="stroke:#181818;stroke-width:1;" width="10" x="850.856" y="244.0762"/></g><g><title>Route</title><rect fill="#FFFFFF" height="141.4063" style="stroke:#181818;stroke-width:1;" width="10" x="990.8071" y="392.1914"/></g><g><title>RouteRepository</title><rect fill="#FFFFFF" height="111.1641" style="stroke:#181818;stroke-width:1;" width="10" x="1120.6411" y="564.8887"/></g><g><title>Database</title><rect fill="#FFFFFF" height="31.291" style="stroke:#181818;stroke-width:1;" width="10" x="1355.1919" y="613.4707"/></g><g class="message" data-entity-1="part1" data-entity-2="part2" id="msg1"><polygon fill="#181818" points="238.1567,112.9121,248.1567,116.9121,238.1567,120.9121,242.1567,116.9121" style="stroke:#181818;stroke-width:1;"/><line style="stroke:#181818;stroke-width:1;" x1="27.0552" x2="244.1567" y1="116.9121" y2="116.9121"/><text fill="#000000" font-family="sans-serif" font-size="13" font-weight="bold" lengthAdjust="spacing" textLength="7.23" x="34.0552" y="111.6494">1</text><text fill="#000000" font-family="sans-serif" font-size="13" lengthAdjust="spacing" textLength="146.6499" x="45.2852" y="111.6494">POST /api/routes (JSON)</text></g><g class="message" data-entity-1="part2" data-entity-2="part3" id="msg2"><polygon fill="#181818" points="379.6597,144.2031,389.6597,148.2031,379.6597,152.2031,383.6597,148.2031" style="stroke:#181818;stroke-width:1;"/><line style="stroke:#181818;stroke-width:1;" x1="260.1567" x2="385.6597" y1="148.2031" y2="148.2031"/><text fill="#000000" font-family="sans-serif" font-size="13" font-weight="bold" lengthAdjust="spacing" textLength="7.23" x="267.1567" y="142.9404">2</text><text fill="#000000" font-family="sans-serif" font-size="13" lengthAdjust="spacing" textLength="97.5508" x="278.3867" y="142.9404">execute(request)</text></g><path d="M406,161.2031 L406,205.2031 L586,205.2031 L586,171.2031 L576,161.2031 L406,161.2031" fill="#FEFFDD" style="stroke:#181818;stroke-width:0.5;"/><path d="M576,161.2031 L576,171.2031 L586,171.2031 L576,161.2031" fill="#FEFFDD" style="stroke:#181818;stroke-width:0.5;"/><text fill="#000000" font-family="sans-serif" font-size="13" lengthAdjust="spacing" textLength="159.6943" x="412" y="180.2314">Validates both airports exist</text><text fill="#000000" font-family="sans-serif" font-size="13" lengthAdjust="spacing" textLength="120.6563" x="412" y="197.5225">via AirportRepository</text><g class="message" data-entity-1="part3" data-entity-2="part4" id="msg3"><polygon fill="#181818" points="774.6011,230.0762,784.6011,234.0762,774.6011,238.0762,778.6011,234.0762" style="stroke:#181818;stroke-width:1;"/><line style="stroke:#181818;stroke-width:1;" x1="401.6597" x2="780.6011" y1="234.0762" y2="234.0762"/><text fill="#000000" font-family="sans-serif" font-size="13" font-weight="bold" lengthAdjust="spacing" textLength="7.23" x="408.6597" y="228.8135">3</text><text fill="#000000" font-family="sans-serif" font-size="13" lengthAdjust="spacing" textLength="349.7114" x="419.8896" y="228.8135">new RouteRequirements(minRange, minCapacity, certCode)</text></g><rect fill="#E2E2F0" height="51.2422" rx="2.5" ry="2.5" style="stroke:#181818;stroke-width:0.5;" width="138.5098" x="786.6011" y="210.7852"/><text fill="#000000" font-family="sans-serif" font-size="14" lengthAdjust="spacing" textLength="124.5098" x="793.6011" y="232.8926">RouteRequirements</text><text fill="#000000" font-family="sans-serif" font-size="14" lengthAdjust="spacing" textLength="89.4824" x="811.1147" y="251.5137">(Value Object)</text><path d="M865,278.0273 L865,322.0273 L1105,322.0273 L1105,288.0273 L1095,278.0273 L865,278.0273" fill="#FEFFDD" style="stroke:#181818;stroke-width:0.5;"/><path d="M1095,278.0273 L1095,288.0273 L1105,288.0273 L1095,278.0273" fill="#FEFFDD" style="stroke:#181818;stroke-width:0.5;"/><text fill="#000000" font-family="sans-serif" font-size="13" lengthAdjust="spacing" textLength="174.8652" x="871" y="297.0557">Domain validation occurs here</text><text fill="#000000" font-family="sans-serif" font-size="13" lengthAdjust="spacing" textLength="219.6606" x="871" y="314.3467">(e.g., minRange &gt; 0, minCapacity &gt; 0)</text><g class="message" data-entity-1="part4" data-entity-2="part3" id="msg5"><polygon fill="#181818" points="412.6597,346.9004,402.6597,350.9004,412.6597,354.9004,408.6597,350.9004" style="stroke:#181818;stroke-width:1;"/><line style="stroke:#181818;stroke-width:1;stroke-dasharray:2,2;" x1="406.6597" x2="854.856" y1="350.9004" y2="350.9004"/><text fill="#000000" font-family="sans-serif" font-size="13" font-weight="bold" lengthAdjust="spacing" textLength="7.23" x="418.6597" y="345.6377">4</text><text fill="#000000" font-family="sans-serif" font-size="13" lengthAdjust="spacing" textLength="178.4771" x="429.8896" y="345.6377">requirements (validated object)</text></g><g class="message" data-entity-1="part3" data-entity-2="part5" id="msg6"><polygon fill="#181818" points="923.1108,378.1914,933.1108,382.1914,923.1108,386.1914,927.1108,382.1914" style="stroke:#181818;stroke-width:1;"/><line style="stroke:#181818;stroke-width:1;" x1="401.6597" x2="929.1108" y1="382.1914" y2="382.1914"/><text fill="#000000" font-family="sans-serif" font-size="13" font-weight="bold" lengthAdjust="spacing" textLength="7.23" x="408.6597" y="376.9287">5</text><text fill="#000000" font-family="sans-serif" font-size="13" lengthAdjust="spacing" textLength="375.0132" x="419.8896" y="376.9287">new Route(origin, destination, requirements, distance, flightTime)</text></g><rect fill="#E2E2F0" height="51.2422" rx="2.5" ry="2.5" style="stroke:#181818;stroke-width:0.5;" width="121.3926" x="935.1108" y="358.9004"/><text fill="#000000" font-family="sans-serif" font-size="14" lengthAdjust="spacing" textLength="37.3584" x="977.1279" y="381.0078">Route</text><text fill="#000000" font-family="sans-serif" font-size="14" lengthAdjust="spacing" textLength="107.3926" x="942.1108" y="399.6289">(Aggregate Root)</text><path d="M1005,426.1426 L1005,505.1426 L1200,505.1426 L1200,436.1426 L1190,426.1426 L1005,426.1426" fill="#FEFFDD" style="stroke:#181818;stroke-width:0.5;"/><path d="M1190,426.1426 L1190,436.1426 L1200,436.1426 L1190,426.1426" fill="#FEFFDD" style="stroke:#181818;stroke-width:0.5;"/><text fill="#000000" font-family="sans-serif" font-size="13" lengthAdjust="spacing" textLength="174.8652" x="1011" y="445.1709">Domain validation occurs here</text><text fill="#000000" font-family="sans-serif" font-size="13" lengthAdjust="spacing" textLength="150.668" x="1011" y="462.4619">(e.g., origin != destination)</text><text fill="#000000" font-family="sans-serif" font-size="13" lengthAdjust="spacing" textLength="156.0508" x="1011" y="479.7529">Generates RouteID (UUID)</text><text fill="#000000" font-family="sans-serif" font-size="13" lengthAdjust="spacing" textLength="152.4517" x="1011" y="497.0439">Creates first RouteVersion</text><g class="message" data-entity-1="part5" data-entity-2="part3" id="msg8"><polygon fill="#181818" points="412.6597,529.5977,402.6597,533.5977,412.6597,537.5977,408.6597,533.5977" style="stroke:#181818;stroke-width:1;"/><line style="stroke:#181818;stroke-width:1;stroke-dasharray:2,2;" x1="406.6597" x2="994.8071" y1="533.5977" y2="533.5977"/><text fill="#000000" font-family="sans-serif" font-size="13" font-weight="bold" lengthAdjust="spacing" textLength="7.23" x="418.6597" y="528.335">6</text><text fill="#000000" font-family="sans-serif" font-size="13" lengthAdjust="spacing" textLength="132.2407" x="429.8896" y="528.335">route (validated object)</text></g><g class="message" data-entity-1="part3" data-entity-2="part6" id="msg9"><polygon fill="#181818" points="1108.6411,560.8887,1118.6411,564.8887,1108.6411,568.8887,1112.6411,564.8887" style="stroke:#181818;stroke-width:1;"/><line style="stroke:#181818;stroke-width:1;" x1="401.6597" x2="1114.6411" y1="564.8887" y2="564.8887"/><text fill="#000000" font-family="sans-serif" font-size="13" font-weight="bold" lengthAdjust="spacing" textLength="7.23" x="408.6597" y="559.626">7</text><text fill="#000000" font-family="sans-serif" font-size="13" lengthAdjust="spacing" textLength="65.749" x="419.8896" y="559.626">save(route)</text></g><g class="message" data-entity-1="part6" data-entity-2="part7" id="msg10"><polygon fill="#181818" points="1343.1919,609.4707,1353.1919,613.4707,1343.1919,617.4707,1347.1919,613.4707" style="stroke:#181818;stroke-width:1;"/><line style="stroke:#181818;stroke-width:1;" x1="1130.6411" x2="1349.1919" y1="613.4707" y2="613.4707"/><text fill="#000000" font-family="sans-serif" font-size="13" font-weight="bold" lengthAdjust="spacing" textLength="7.23" x="1137.6411" y="599.5625">8</text><text fill="#000000" font-family="sans-serif" font-size="13" lengthAdjust="spacing" textLength="145.1836" x="1148.8711" y="590.917">INSERT INTO routes (...)</text><text fill="#000000" font-family="sans-serif" font-size="13" lengthAdjust="spacing" textLength="194.3208" x="1148.8711" y="608.208">INSERT INTO route_versions (...)</text></g><g class="message" data-entity-1="part7" data-entity-2="part6" id="msg11"><polygon fill="#181818" points="1141.6411,640.7617,1131.6411,644.7617,1141.6411,648.7617,1137.6411,644.7617" style="stroke:#181818;stroke-width:1;"/><line style="stroke:#181818;stroke-width:1;stroke-dasharray:2,2;" x1="1135.6411" x2="1359.1919" y1="644.7617" y2="644.7617"/><text fill="#000000" font-family="sans-serif" font-size="13" font-weight="bold" lengthAdjust="spacing" textLength="7.23" x="1147.6411" y="639.499">9</text><text fill="#000000" font-family="sans-serif" font-size="13" lengthAdjust="spacing" textLength="75.1499" x="1158.8711" y="639.499">saved record</text></g><g class="message" data-entity-1="part6" data-entity-2="part3" id="msg12"><polygon fill="#181818" points="412.6597,672.0527,402.6597,676.0527,412.6597,680.0527,408.6597,676.0527" style="stroke:#181818;stroke-width:1;"/><line style="stroke:#181818;stroke-width:1;stroke-dasharray:2,2;" x1="406.6597" x2="1124.6411" y1="676.0527" y2="676.0527"/><text fill="#000000" font-family="sans-serif" font-size="13" font-weight="bold" lengthAdjust="spacing" textLength="14.46" x="418.6597" y="670.79">10</text><text fill="#000000" font-family="sans-serif" font-size="13" lengthAdjust="spacing" textLength="69.3799" x="437.1196" y="670.79">savedRoute</text></g><g class="message" data-entity-1="part3" data-entity-2="part2" id="msg13"><polygon fill="#181818" points="271.1567,703.3438,261.1567,707.3438,271.1567,711.3438,267.1567,707.3438" style="stroke:#181818;stroke-width:1;"/><line style="stroke:#181818;stroke-width:1;stroke-dasharray:2,2;" x1="265.1567" x2="395.6597" y1="707.3438" y2="707.3438"/><text fill="#000000" font-family="sans-serif" font-size="13" font-weight="bold" lengthAdjust="spacing" textLength="14.46" x="277.1567" y="702.0811">11</text><text fill="#000000" font-family="sans-serif" font-size="13" lengthAdjust="spacing" textLength="69.3799" x="295.6167" y="702.0811">savedRoute</text></g><g class="message" data-entity-1="part2" data-entity-2="part1" id="msg14"><polygon fill="#181818" points="38.0552,734.6348,28.0552,738.6348,38.0552,742.6348,34.0552,738.6348" style="stroke:#181818;stroke-width:1;"/><line style="stroke:#181818;stroke-width:1;stroke-dasharray:2,2;" x1="32.0552" x2="254.1567" y1="738.6348" y2="738.6348"/><text fill="#000000" font-family="sans-serif" font-size="13" font-weight="bold" lengthAdjust="spacing" textLength="14.46" x="44.0552" y="733.3721">12</text><text fill="#000000" font-family="sans-serif" font-size="13" lengthAdjust="spacing" textLength="180.6416" x="62.5151" y="733.3721">201 Created (JSON Response)</text></g><?plantuml-src ZLF1Rjim3BthAxYSd29nknq3h41g5qDsQ8OaxYd0eDYCeyAHF4hErhyV9ILDt0ROJfR5H_AzHr5spkXklq4IidI6O31TPTa0f0L_4AqafqhLIkrWi32TmyneHwPfa08gSzJqKHcXT1YmXSLCMWp0ubgn1Vxg5E4UjRDhdJpBfaEORrwmTCEGnO0hQGoTrZLXpOrWOSm9x6DNkxJ6AbRtUgpP6b599pVC3GRvyHHY-OCGNZYCxuCqcC2F-N85jx9Lj-IBMKY-B-TFG--NEdW2mG8Hq9nLP9o3Vx1aR4Ai3wsx0BCDGXi-aAft3ioMRoR0mXKpuk8RutOW5RM6dEKwohgrFYW9qtXtrY944MYoHN1pmqqr_eOFhYPxfHTIrpW2FcMobQLohoCeaLncAhoWvhtkK-ER2UHcBvM6GwIeZ0PJbXrPs27vIM1Qfw5uQ0FtSDThvI-6mfCSdzoX2twG70jZ1IOENbJOutJIwQMzKveOvghq22fsMUb0RzIhpo6sKEgI3TWsNjXAxNkgmwDvfzlV_Q_oI04-VRqaCLphRwYHman3kLaEIL7CSex43R6mLMHTZ3uZMKuJKUJPgV3x3uk2WBV7q1hEi_B0Zyy7UlFbTny03CmV63PxMZukLlnPpU7qkDCqPOeV8ZyFaU4HSQxA6yErnltU5S-WD5HTycHWR7uI5u2HVM_Yp3AeEQ_WTQHVfRXrZ0nBEu4lTvyXsbl5FULwjcNQsFFCf_q5?></g></svg>